G75*
G70*
%OFA0B0*%
%FSLAX24Y24*%
%IPPOS*%
%LPD*%
%AMOC8*
5,1,8,0,0,1.08239X$1,22.5*
%
%ADD10R,0.0866X0.0236*%
%ADD11R,0.0394X0.1181*%
%ADD12R,0.0710X0.0630*%
%ADD13R,0.0551X0.0394*%
%ADD14R,0.0630X0.0709*%
%ADD15R,0.2441X0.2126*%
%ADD16R,0.0630X0.0394*%
%ADD17R,0.0480X0.0880*%
%ADD18R,0.1417X0.0866*%
%ADD19R,0.0591X0.0591*%
D10*
X017156Y013180D03*
X017156Y013680D03*
X017156Y014180D03*
X017156Y014680D03*
X017156Y015180D03*
X017156Y015680D03*
X017156Y016180D03*
X017156Y018180D03*
X017156Y018680D03*
X017156Y019180D03*
X017156Y019680D03*
X017156Y020180D03*
X017156Y020680D03*
X017156Y021180D03*
X019204Y021180D03*
X019204Y020680D03*
X019204Y020180D03*
X019204Y019680D03*
X019204Y019180D03*
X019204Y018680D03*
X019204Y018180D03*
X019204Y016180D03*
X019204Y015680D03*
X019204Y015180D03*
X019204Y014680D03*
X019204Y014180D03*
X019204Y013680D03*
X019204Y013180D03*
D11*
X022176Y014794D03*
X023180Y013066D03*
X024184Y014794D03*
X023180Y016566D03*
X022176Y018294D03*
X024184Y018294D03*
X023180Y020066D03*
X022176Y021794D03*
X024184Y021794D03*
X023180Y023566D03*
X027176Y021794D03*
X028180Y020066D03*
X029184Y021794D03*
X028180Y023566D03*
X027176Y018294D03*
X028180Y016566D03*
X029184Y018294D03*
X029184Y014794D03*
X028180Y013066D03*
X027176Y014794D03*
X027176Y011294D03*
X029184Y011294D03*
X024184Y011294D03*
X022176Y011294D03*
D12*
X006180Y002620D03*
X006180Y003740D03*
X008180Y003740D03*
X008180Y002620D03*
X010180Y002620D03*
X010180Y003740D03*
X020180Y003740D03*
X020180Y002620D03*
X022180Y002620D03*
X022180Y003740D03*
X024180Y003740D03*
X024180Y002620D03*
X027680Y006120D03*
X027680Y007240D03*
X027680Y008620D03*
X027680Y009740D03*
X029180Y009740D03*
X029180Y008620D03*
X029180Y007240D03*
X029180Y006120D03*
X018180Y024620D03*
X018180Y025740D03*
X016180Y025740D03*
X016180Y024620D03*
X014180Y024620D03*
X014180Y025740D03*
X012180Y025740D03*
X012180Y024620D03*
X010180Y024620D03*
X010180Y025740D03*
X008180Y025740D03*
X008180Y024620D03*
X006180Y024620D03*
X006180Y025740D03*
X008930Y021490D03*
X008930Y020370D03*
X020180Y025120D03*
X020180Y026240D03*
X020180Y027620D03*
X020180Y028740D03*
X022180Y028740D03*
X022180Y027620D03*
X022180Y026240D03*
X022180Y025120D03*
X024180Y025120D03*
X024180Y026240D03*
X024180Y027620D03*
X024180Y028740D03*
D13*
X015113Y023554D03*
X015113Y022806D03*
X014247Y023180D03*
D14*
X012731Y023180D03*
X011629Y023180D03*
X010231Y023180D03*
X009129Y023180D03*
X007731Y023180D03*
X006629Y023180D03*
X006629Y021680D03*
X007731Y021680D03*
D15*
X002196Y022680D03*
D16*
X005070Y021782D03*
X005070Y023578D03*
D17*
X010270Y006960D03*
X011180Y006960D03*
X012090Y006960D03*
X013770Y006960D03*
X014680Y006960D03*
X015590Y006960D03*
X017270Y006960D03*
X018180Y006960D03*
X019090Y006960D03*
X020770Y006960D03*
X021680Y006960D03*
X022590Y006960D03*
X024270Y006960D03*
X025180Y006960D03*
X026090Y006960D03*
D18*
X025180Y009400D03*
X021680Y009400D03*
X018180Y009400D03*
X014680Y009400D03*
X011180Y009400D03*
D19*
X010180Y027491D03*
X010180Y028869D03*
X008180Y028869D03*
X008180Y027491D03*
X006180Y027491D03*
X006180Y028869D03*
X012180Y028869D03*
X012180Y027491D03*
X014180Y027491D03*
X014180Y028869D03*
X016180Y028869D03*
X016180Y027491D03*
X018180Y027491D03*
X018180Y028869D03*
M02*
