G75*
G70*
%OFA0B0*%
%FSLAX24Y24*%
%IPPOS*%
%LPD*%
%AMOC8*
5,1,8,0,0,1.08239X$1,22.5*
%
%ADD10C,0.0060*%
%ADD11C,0.0780*%
%ADD12C,0.1500*%
%ADD13OC8,0.0600*%
%ADD14C,0.0160*%
%ADD15C,0.0400*%
%ADD16C,0.0100*%
D10*
X009567Y027835D02*
X009994Y027835D01*
X009567Y028262D01*
X009567Y028369D01*
X009673Y028476D01*
X009887Y028476D01*
X009994Y028369D01*
X010049Y028885D02*
X010263Y028885D01*
X010370Y028992D01*
X010370Y029205D01*
X010263Y029312D01*
X010049Y029312D01*
X009943Y029205D01*
X009943Y029099D01*
X010370Y029099D01*
X010587Y029205D02*
X010587Y028885D01*
X010587Y029205D02*
X010694Y029312D01*
X011014Y029312D01*
X011014Y028885D01*
X011232Y028992D02*
X011232Y029205D01*
X011338Y029312D01*
X011552Y029312D01*
X011659Y029205D01*
X011659Y028992D01*
X011552Y028885D01*
X011338Y028885D01*
X011232Y028992D01*
X011283Y028476D02*
X011283Y028049D01*
X011069Y027835D01*
X010856Y028049D01*
X010856Y028476D01*
X011500Y028476D02*
X011927Y028476D01*
X011927Y027835D01*
X011500Y027835D01*
X011714Y028155D02*
X011927Y028155D01*
X012145Y028155D02*
X012145Y028369D01*
X012252Y028476D01*
X012572Y028476D01*
X012572Y027835D01*
X012572Y028049D02*
X012252Y028049D01*
X012145Y028155D01*
X012358Y028049D02*
X012145Y027835D01*
X012303Y028885D02*
X011983Y028885D01*
X011876Y028992D01*
X011876Y029099D01*
X011983Y029205D01*
X012303Y029205D01*
X012303Y028885D02*
X012303Y029526D01*
X011983Y029526D01*
X011876Y029419D01*
X011876Y029312D01*
X011983Y029205D01*
X013165Y029205D02*
X013165Y029099D01*
X013592Y029099D01*
X013592Y029205D02*
X013592Y028992D01*
X013486Y028885D01*
X013272Y028885D01*
X013165Y029205D02*
X013272Y029312D01*
X013486Y029312D01*
X013592Y029205D01*
X013809Y029312D02*
X013916Y029312D01*
X014129Y029099D01*
X014129Y029312D02*
X014129Y028885D01*
X014347Y028885D02*
X014347Y029205D01*
X014454Y029312D01*
X014667Y029312D01*
X014667Y029099D02*
X014347Y029099D01*
X014347Y028885D02*
X014667Y028885D01*
X014774Y028992D01*
X014667Y029099D01*
X014992Y029099D02*
X015098Y029205D01*
X015419Y029205D01*
X015419Y028885D02*
X015098Y028885D01*
X014992Y028992D01*
X014992Y029099D01*
X015098Y029205D02*
X014992Y029312D01*
X014992Y029419D01*
X015098Y029526D01*
X015419Y029526D01*
X015419Y028885D01*
X016012Y028369D02*
X016119Y028476D01*
X016332Y028476D01*
X016439Y028369D01*
X016870Y028476D02*
X016870Y027835D01*
X016657Y027835D02*
X017084Y027835D01*
X017084Y028262D02*
X016870Y028476D01*
X017301Y028476D02*
X017728Y027835D01*
X017946Y027942D02*
X017946Y028369D01*
X018052Y028476D01*
X018266Y028476D01*
X018373Y028369D01*
X018373Y028262D01*
X018266Y028155D01*
X017946Y028155D01*
X017946Y027942D02*
X018052Y027835D01*
X018266Y027835D01*
X018373Y027942D01*
X018590Y027835D02*
X019017Y027835D01*
X018590Y028262D01*
X018590Y028369D01*
X018697Y028476D01*
X018911Y028476D01*
X019017Y028369D01*
X019235Y028476D02*
X019662Y027835D01*
X019879Y027835D02*
X020306Y027835D01*
X020093Y027835D02*
X020093Y028476D01*
X020306Y028262D01*
X020524Y027835D02*
X020951Y027835D01*
X020737Y027835D02*
X020737Y028476D01*
X020951Y028262D01*
X021434Y028885D02*
X021434Y029312D01*
X021434Y029099D02*
X021221Y029312D01*
X021114Y029312D01*
X021652Y029205D02*
X021652Y028885D01*
X021972Y028885D01*
X022079Y028992D01*
X021972Y029099D01*
X021652Y029099D01*
X021652Y029205D02*
X021759Y029312D01*
X021972Y029312D01*
X022402Y029526D02*
X022402Y028885D01*
X022509Y028885D02*
X022295Y028885D01*
X022726Y028992D02*
X022726Y029205D01*
X022833Y029312D01*
X023046Y029312D01*
X023153Y029205D01*
X023153Y028992D01*
X023046Y028885D01*
X022833Y028885D01*
X022726Y028992D01*
X022509Y029526D02*
X022402Y029526D01*
X023371Y029419D02*
X023477Y029526D01*
X023691Y029526D01*
X023798Y029419D01*
X023798Y029312D01*
X023691Y029205D01*
X023477Y029205D01*
X023371Y029099D01*
X023371Y028992D01*
X023477Y028885D01*
X023691Y028885D01*
X023798Y028992D01*
X020253Y028992D02*
X020146Y028885D01*
X020039Y028885D01*
X019932Y028992D01*
X019932Y029526D01*
X019826Y029526D02*
X020039Y029526D01*
X019501Y029312D02*
X019288Y029312D01*
X019181Y029205D01*
X019181Y028885D01*
X019501Y028885D01*
X019608Y028992D01*
X019501Y029099D01*
X019181Y029099D01*
X018964Y029205D02*
X018964Y028992D01*
X018857Y028885D01*
X018537Y028885D01*
X018319Y028885D02*
X018319Y029526D01*
X018537Y029312D02*
X018857Y029312D01*
X018964Y029205D01*
X018319Y029099D02*
X017999Y029312D01*
X017782Y029205D02*
X017782Y028992D01*
X017675Y028885D01*
X017462Y028885D01*
X017355Y029099D02*
X017782Y029099D01*
X017782Y029205D02*
X017675Y029312D01*
X017462Y029312D01*
X017355Y029205D01*
X017355Y029099D01*
X017137Y029312D02*
X016924Y029312D01*
X017031Y029419D02*
X017031Y028992D01*
X016924Y028885D01*
X016708Y028885D02*
X016387Y028885D01*
X016281Y028992D01*
X016387Y029099D01*
X016601Y029099D01*
X016708Y029205D01*
X016601Y029312D01*
X016281Y029312D01*
X016012Y028369D02*
X016012Y028262D01*
X016439Y027835D01*
X016012Y027835D01*
X017999Y028885D02*
X018319Y029099D01*
X009725Y029205D02*
X009618Y029312D01*
X009298Y029312D01*
X009405Y029099D02*
X009618Y029099D01*
X009725Y029205D01*
X009725Y028885D02*
X009405Y028885D01*
X009298Y028992D01*
X009405Y029099D01*
X008436Y029205D02*
X008116Y029205D01*
X008009Y029099D01*
X008009Y028992D01*
X008116Y028885D01*
X008436Y028885D01*
X008436Y029526D01*
X008116Y029526D01*
X008009Y029419D01*
X008009Y029312D01*
X008116Y029205D01*
X007791Y028885D02*
X007791Y029526D01*
X007578Y029312D01*
X007364Y029526D01*
X007364Y028885D01*
X007147Y028992D02*
X007040Y028885D01*
X006827Y028885D01*
X006720Y028992D01*
X006720Y029099D01*
X006827Y029205D01*
X007040Y029205D01*
X007147Y029312D01*
X007147Y029419D01*
X007040Y029526D01*
X006827Y029526D01*
X006720Y029419D01*
D11*
X010840Y021180D02*
X011620Y021180D01*
X013790Y021180D02*
X014570Y021180D01*
X014570Y013310D02*
X013790Y013310D01*
X013790Y011340D02*
X014570Y011340D01*
X011620Y011340D02*
X010840Y011340D01*
X010840Y013310D02*
X011620Y013310D01*
D12*
X005930Y013180D03*
X003430Y013180D03*
X003430Y018180D03*
X005930Y018180D03*
X005930Y008180D03*
X003430Y008180D03*
D13*
X013180Y003180D03*
X013180Y002180D03*
X014180Y002180D03*
X014180Y003180D03*
X015180Y003180D03*
X015180Y002180D03*
X016180Y002180D03*
X016180Y003180D03*
X017180Y003180D03*
X017180Y002180D03*
D14*
X017220Y002250D01*
X017220Y002410D01*
X022510Y007700D01*
X022670Y008080D02*
X021750Y008080D01*
X022670Y008080D02*
X023050Y007700D01*
X025380Y007700D01*
X025760Y008080D02*
X025760Y006360D01*
X020720Y001320D01*
X014040Y001320D01*
X013180Y002180D01*
X013180Y003180D02*
X013180Y004600D01*
X009890Y007890D01*
X009270Y008180D02*
X005930Y008180D01*
X004360Y007250D02*
X003430Y008180D01*
X004360Y007250D02*
X008710Y007250D01*
X012400Y010940D01*
X012570Y010940D01*
X012430Y011340D02*
X009270Y008180D01*
X010990Y006210D02*
X010990Y003690D01*
X013620Y001060D01*
X020830Y001060D01*
X023270Y003500D01*
X023440Y003500D01*
X022370Y005930D02*
X023390Y006950D01*
X025760Y008080D02*
X028560Y010880D01*
X028560Y021480D01*
X022960Y027080D01*
X022640Y027080D01*
X021800Y026240D01*
X021520Y026240D01*
X020180Y026860D02*
X020180Y021400D01*
X021360Y020220D01*
X021360Y019900D01*
X020720Y019260D01*
X019940Y019260D01*
X020850Y018900D02*
X022350Y017400D01*
X022800Y016180D02*
X023390Y015590D01*
X022800Y016180D02*
X022800Y026700D01*
X023800Y023560D02*
X024020Y023560D01*
X028070Y019510D01*
X028070Y019190D01*
X022940Y014060D01*
X021580Y014060D01*
X020070Y012550D01*
X017940Y012550D01*
X017710Y012780D01*
X017330Y012910D02*
X017330Y012620D01*
X017660Y012290D01*
X021720Y012290D01*
X028180Y018750D01*
X027690Y019350D02*
X023020Y014680D01*
X018470Y014680D01*
X018090Y014230D02*
X018090Y016230D01*
X016450Y017870D01*
X016450Y020430D01*
X016830Y020590D02*
X015670Y021750D01*
X014980Y021750D01*
X015130Y023110D02*
X013670Y023110D01*
X015130Y023110D02*
X017790Y020450D01*
X018490Y020450D01*
X018520Y020060D02*
X017870Y019410D01*
X018520Y020060D02*
X020980Y020060D01*
X019220Y021600D02*
X019220Y025000D01*
X017270Y026950D01*
X017270Y027120D01*
X016580Y027270D02*
X018950Y024900D01*
X018950Y021870D01*
X018490Y021410D01*
X018570Y022900D02*
X016660Y022900D01*
X016050Y023510D01*
X015670Y023110D02*
X016540Y022240D01*
X015670Y023110D02*
X015670Y026850D01*
X016580Y027270D02*
X013220Y027270D01*
X013220Y020940D01*
X015550Y018610D01*
X015550Y013240D01*
X018760Y010030D01*
X018760Y007540D01*
X018310Y007090D01*
X016440Y007090D01*
X016370Y007050D01*
X015530Y006210D01*
X014680Y006210D02*
X014680Y007700D01*
X018380Y007700D01*
X020230Y006690D02*
X020230Y005980D01*
X019800Y005550D01*
X014330Y005550D01*
X013950Y003410D02*
X014180Y003180D01*
X013950Y003410D02*
X013950Y008470D01*
X015140Y009660D01*
X015140Y010140D01*
X014180Y011340D02*
X012430Y011340D01*
X010270Y010060D02*
X010270Y020610D01*
X012400Y020610D01*
X012840Y018950D02*
X015170Y016620D01*
X015810Y015700D02*
X015810Y013350D01*
X017390Y011770D01*
X026670Y011770D01*
X027680Y012780D01*
X028180Y012740D02*
X028180Y015520D01*
X027680Y016060D02*
X023650Y012030D01*
X017550Y012030D01*
X016420Y013160D01*
X016420Y013280D01*
X016070Y014170D02*
X017330Y012910D01*
X018850Y012930D02*
X016450Y015330D01*
X016450Y015430D01*
X016070Y015590D02*
X016070Y014170D01*
X016070Y015590D02*
X016970Y016490D01*
X016970Y016810D01*
X016540Y017240D01*
X016590Y016650D02*
X016590Y016480D01*
X015810Y015700D01*
X018850Y012930D02*
X019910Y012930D01*
X019640Y011390D02*
X019640Y005930D01*
X016340Y002700D02*
X015690Y002700D01*
X015250Y003140D01*
X015180Y003180D01*
X014180Y002180D01*
X016180Y002180D02*
X016660Y001700D01*
X020560Y001700D01*
X017180Y002180D02*
X016860Y002180D01*
X016340Y002700D01*
X014680Y007700D02*
X014680Y008660D01*
X021450Y011390D02*
X023350Y009490D01*
X022570Y013680D02*
X021800Y013680D01*
X019200Y017540D02*
X016830Y019910D01*
X016830Y020590D01*
X017410Y023280D02*
X017410Y025900D01*
X016660Y026330D02*
X016660Y025170D01*
X016650Y025160D01*
X016650Y024010D01*
X017030Y023850D02*
X016640Y023460D01*
X017030Y023850D02*
X017030Y025000D01*
X013220Y027270D02*
X009580Y027270D01*
X010660Y026330D02*
X010660Y021810D01*
X010270Y021420D01*
X010270Y020610D01*
X012440Y022520D02*
X011160Y023800D01*
X012840Y025000D02*
X012840Y018950D01*
X007180Y021130D02*
X006380Y021130D01*
X003430Y018180D01*
X005000Y017250D02*
X005930Y018180D01*
X005000Y017250D02*
X005000Y011710D01*
X027680Y012240D02*
X028180Y012740D01*
X028940Y010890D02*
X028940Y020900D01*
X028940Y010890D02*
X027680Y009630D01*
X027680Y008000D01*
X029180Y008000D02*
X029180Y010180D01*
X029400Y010400D01*
D15*
X029400Y010400D03*
X027680Y012240D03*
X027680Y012780D03*
X028180Y015520D03*
X027680Y016060D03*
X028180Y018750D03*
X027690Y019350D03*
X028940Y020900D03*
X023800Y023560D03*
X021520Y026240D03*
X020180Y026860D03*
X022800Y026700D03*
X018570Y022900D03*
X017410Y023280D03*
X016640Y023460D03*
X016650Y024010D03*
X016050Y023510D03*
X016540Y022240D03*
X014980Y021750D03*
X013670Y023110D03*
X012440Y022520D03*
X011160Y023800D03*
X012840Y025000D03*
X010660Y026330D03*
X009580Y027270D03*
X015670Y026850D03*
X016660Y026330D03*
X017410Y025900D03*
X017030Y025000D03*
X017270Y027120D03*
X019220Y021600D03*
X018490Y021410D03*
X018490Y020450D03*
X017870Y019410D03*
X016450Y020430D03*
X019200Y017540D03*
X020850Y018900D03*
X019940Y019260D03*
X020980Y020060D03*
X022350Y017400D03*
X023390Y015590D03*
X022570Y013680D03*
X021800Y013680D03*
X019910Y012930D03*
X019640Y011390D03*
X021450Y011390D03*
X023350Y009490D03*
X021750Y008080D03*
X022510Y007700D03*
X023390Y006950D03*
X022370Y005930D03*
X020230Y006690D03*
X019640Y005930D03*
X018380Y007700D03*
X016370Y007050D03*
X015530Y006210D03*
X014680Y006210D03*
X014330Y005550D03*
X014680Y008660D03*
X015140Y010140D03*
X012570Y010940D03*
X010270Y010060D03*
X009890Y007890D03*
X010990Y006210D03*
X005000Y011710D03*
X012400Y020610D03*
X015170Y016620D03*
X016590Y016650D03*
X016540Y017240D03*
X016450Y015430D03*
X018090Y014230D03*
X018470Y014680D03*
X017710Y012780D03*
X016420Y013280D03*
X025380Y007700D03*
X027680Y008000D03*
X029180Y008000D03*
X023440Y003500D03*
X020560Y001700D03*
X007180Y021130D03*
D16*
X000680Y029680D02*
X000680Y000680D01*
X029680Y000680D01*
X029680Y010185D01*
X029598Y010103D01*
X029470Y010050D01*
X029410Y010050D01*
X029410Y008265D01*
X029477Y008198D01*
X029530Y008070D01*
X029530Y007930D01*
X029477Y007802D01*
X029378Y007703D01*
X029250Y007650D01*
X029110Y007650D01*
X028982Y007703D01*
X028883Y007802D01*
X028830Y007930D01*
X028830Y008070D01*
X028883Y008198D01*
X028950Y008265D01*
X028950Y010275D01*
X029050Y010375D01*
X029050Y010470D01*
X029103Y010598D01*
X029202Y010697D01*
X029330Y010750D01*
X029470Y010750D01*
X029598Y010697D01*
X029680Y010615D01*
X029680Y029680D01*
X025180Y029680D01*
X025180Y027680D01*
X005680Y027680D01*
X005680Y029680D01*
X000680Y029680D01*
X000680Y029632D02*
X005680Y029632D01*
X005680Y029533D02*
X000680Y029533D01*
X000680Y029435D02*
X005680Y029435D01*
X005680Y029336D02*
X000680Y029336D01*
X000680Y029238D02*
X005680Y029238D01*
X005680Y029139D02*
X000680Y029139D01*
X000680Y029041D02*
X005680Y029041D01*
X005680Y028942D02*
X000680Y028942D01*
X000680Y028844D02*
X002266Y028844D01*
X002205Y028827D02*
X001924Y028665D01*
X001695Y028436D01*
X001533Y028155D01*
X001449Y027842D01*
X001449Y027518D01*
X001533Y027205D01*
X001695Y026924D01*
X001924Y026695D01*
X002205Y026533D01*
X002518Y026449D01*
X002842Y026449D01*
X003155Y026533D01*
X003436Y026695D01*
X003665Y026924D01*
X003827Y027205D01*
X003911Y027518D01*
X003911Y027842D01*
X003827Y028155D01*
X003665Y028436D01*
X003436Y028665D01*
X003155Y028827D01*
X002842Y028911D01*
X002518Y028911D01*
X002205Y028827D01*
X002063Y028745D02*
X000680Y028745D01*
X000680Y028647D02*
X001906Y028647D01*
X001807Y028548D02*
X000680Y028548D01*
X000680Y028450D02*
X001709Y028450D01*
X001646Y028351D02*
X000680Y028351D01*
X000680Y028253D02*
X001589Y028253D01*
X001533Y028154D02*
X000680Y028154D01*
X000680Y028056D02*
X001506Y028056D01*
X001480Y027957D02*
X000680Y027957D01*
X000680Y027859D02*
X001453Y027859D01*
X001449Y027760D02*
X000680Y027760D01*
X000680Y027662D02*
X001449Y027662D01*
X001449Y027563D02*
X000680Y027563D01*
X000680Y027465D02*
X001463Y027465D01*
X001490Y027366D02*
X000680Y027366D01*
X000680Y027268D02*
X001516Y027268D01*
X001554Y027169D02*
X000680Y027169D01*
X000680Y027071D02*
X001610Y027071D01*
X001667Y026972D02*
X000680Y026972D01*
X000680Y026874D02*
X001746Y026874D01*
X001844Y026775D02*
X000680Y026775D01*
X000680Y026677D02*
X001956Y026677D01*
X002127Y026578D02*
X000680Y026578D01*
X000680Y026480D02*
X002404Y026480D01*
X002956Y026480D02*
X010343Y026480D01*
X010363Y026528D02*
X010310Y026400D01*
X010310Y026260D01*
X010363Y026132D01*
X010430Y026065D01*
X010430Y021905D01*
X010175Y021650D01*
X010040Y021515D01*
X010040Y010325D01*
X009973Y010258D01*
X009920Y010130D01*
X009920Y009990D01*
X009973Y009862D01*
X010072Y009763D01*
X010200Y009710D01*
X010340Y009710D01*
X010468Y009763D01*
X010567Y009862D01*
X010620Y009990D01*
X010620Y010130D01*
X010567Y010258D01*
X010500Y010325D01*
X010500Y010916D01*
X010534Y010882D01*
X010733Y010800D01*
X011565Y010800D01*
X009175Y008410D01*
X006809Y008410D01*
X006693Y008690D01*
X006440Y008943D01*
X006109Y009080D01*
X005751Y009080D01*
X005420Y008943D01*
X005167Y008690D01*
X005030Y008359D01*
X005030Y008001D01*
X005167Y007670D01*
X005357Y007480D01*
X004455Y007480D01*
X004214Y007721D01*
X004330Y008001D01*
X004330Y008359D01*
X004193Y008690D01*
X003940Y008943D01*
X003609Y009080D01*
X003251Y009080D01*
X002920Y008943D01*
X002667Y008690D01*
X002530Y008359D01*
X002530Y008001D01*
X002667Y007670D01*
X002920Y007417D01*
X003251Y007280D01*
X003609Y007280D01*
X003889Y007396D01*
X004265Y007020D01*
X008805Y007020D01*
X008940Y007155D01*
X009559Y007774D01*
X009593Y007692D01*
X009692Y007593D01*
X009820Y007540D01*
X009915Y007540D01*
X010902Y006552D01*
X010792Y006507D01*
X010693Y006408D01*
X010640Y006280D01*
X010640Y006140D01*
X010693Y006012D01*
X010760Y005945D01*
X010760Y003595D01*
X010895Y003460D01*
X013525Y000830D01*
X020925Y000830D01*
X021060Y000965D01*
X023282Y003187D01*
X023370Y003150D01*
X023510Y003150D01*
X023638Y003203D01*
X023737Y003302D01*
X023790Y003430D01*
X023790Y003570D01*
X023737Y003698D01*
X023638Y003797D01*
X023556Y003831D01*
X025990Y006265D01*
X025990Y007985D01*
X027450Y009445D01*
X027450Y008265D01*
X027383Y008198D01*
X027330Y008070D01*
X027330Y007930D01*
X027383Y007802D01*
X027482Y007703D01*
X027610Y007650D01*
X027750Y007650D01*
X027878Y007703D01*
X027977Y007802D01*
X028030Y007930D01*
X028030Y008070D01*
X027977Y008198D01*
X027910Y008265D01*
X027910Y009535D01*
X029035Y010660D01*
X029170Y010795D01*
X029170Y020635D01*
X029237Y020702D01*
X029290Y020830D01*
X029290Y020970D01*
X029237Y021098D01*
X029138Y021197D01*
X029010Y021250D01*
X028870Y021250D01*
X028790Y021217D01*
X028790Y021575D01*
X028655Y021710D01*
X023055Y027310D01*
X022545Y027310D01*
X022410Y027175D01*
X021745Y026510D01*
X021718Y026537D01*
X021590Y026590D01*
X021450Y026590D01*
X021322Y026537D01*
X021223Y026438D01*
X021170Y026310D01*
X021170Y026170D01*
X021223Y026042D01*
X021322Y025943D01*
X021450Y025890D01*
X021590Y025890D01*
X021718Y025943D01*
X021785Y026010D01*
X021895Y026010D01*
X022469Y026584D01*
X022503Y026502D01*
X022570Y026435D01*
X022570Y017675D01*
X022548Y017697D01*
X022420Y017750D01*
X022325Y017750D01*
X021200Y018875D01*
X021200Y018970D01*
X021147Y019098D01*
X021048Y019197D01*
X021001Y019216D01*
X021590Y019805D01*
X021590Y020315D01*
X021455Y020450D01*
X020410Y021495D01*
X020410Y026595D01*
X020477Y026662D01*
X020530Y026790D01*
X020530Y026930D01*
X020477Y027058D01*
X020378Y027157D01*
X020250Y027210D01*
X020110Y027210D01*
X019982Y027157D01*
X019883Y027058D01*
X019830Y026930D01*
X019830Y026790D01*
X019883Y026662D01*
X019950Y026595D01*
X019950Y021305D01*
X020864Y020391D01*
X020782Y020357D01*
X020715Y020290D01*
X018425Y020290D01*
X017895Y019760D01*
X017800Y019760D01*
X017672Y019707D01*
X017573Y019608D01*
X017539Y019526D01*
X017060Y020005D01*
X017060Y020685D01*
X015900Y021845D01*
X015765Y021980D01*
X015245Y021980D01*
X015178Y022047D01*
X015050Y022100D01*
X014910Y022100D01*
X014782Y022047D01*
X014683Y021948D01*
X014630Y021820D01*
X014630Y021720D01*
X013683Y021720D01*
X013484Y021638D01*
X013450Y021604D01*
X013450Y027040D01*
X015370Y027040D01*
X015320Y026920D01*
X015320Y026780D01*
X015373Y026652D01*
X015440Y026585D01*
X015440Y023015D01*
X016190Y022265D01*
X016190Y022170D01*
X016243Y022042D01*
X016342Y021943D01*
X016470Y021890D01*
X016610Y021890D01*
X016738Y021943D01*
X016837Y022042D01*
X016890Y022170D01*
X016890Y022310D01*
X016837Y022438D01*
X016738Y022537D01*
X016610Y022590D01*
X016515Y022590D01*
X015920Y023185D01*
X015980Y023160D01*
X016075Y023160D01*
X016430Y022805D01*
X016565Y022670D01*
X018305Y022670D01*
X018372Y022603D01*
X018500Y022550D01*
X018640Y022550D01*
X018720Y022583D01*
X018720Y021965D01*
X018515Y021760D01*
X018420Y021760D01*
X018292Y021707D01*
X018193Y021608D01*
X018140Y021480D01*
X018140Y021340D01*
X018193Y021212D01*
X018292Y021113D01*
X018420Y021060D01*
X018560Y021060D01*
X018688Y021113D01*
X018787Y021212D01*
X018840Y021340D01*
X018840Y021435D01*
X018889Y021484D01*
X018923Y021402D01*
X019022Y021303D01*
X019150Y021250D01*
X019290Y021250D01*
X019418Y021303D01*
X019517Y021402D01*
X019570Y021530D01*
X019570Y021670D01*
X019517Y021798D01*
X019450Y021865D01*
X019450Y025095D01*
X019315Y025230D01*
X017583Y026962D01*
X017620Y027050D01*
X017620Y027190D01*
X017567Y027318D01*
X017468Y027417D01*
X017340Y027470D01*
X017200Y027470D01*
X017072Y027417D01*
X016973Y027318D01*
X016939Y027236D01*
X016675Y027500D01*
X009845Y027500D01*
X009778Y027567D01*
X009650Y027620D01*
X009510Y027620D01*
X009382Y027567D01*
X009283Y027468D01*
X009230Y027340D01*
X009230Y027200D01*
X009283Y027072D01*
X009382Y026973D01*
X009510Y026920D01*
X009650Y026920D01*
X009778Y026973D01*
X009845Y027040D01*
X012990Y027040D01*
X012990Y025317D01*
X012910Y025350D01*
X012770Y025350D01*
X012642Y025297D01*
X012543Y025198D01*
X012490Y025070D01*
X012490Y024930D01*
X012543Y024802D01*
X012610Y024735D01*
X012610Y022828D01*
X012510Y022870D01*
X012415Y022870D01*
X011510Y023775D01*
X011510Y023870D01*
X011457Y023998D01*
X011358Y024097D01*
X011230Y024150D01*
X011090Y024150D01*
X010962Y024097D01*
X010890Y024025D01*
X010890Y026065D01*
X010957Y026132D01*
X011010Y026260D01*
X011010Y026400D01*
X010957Y026528D01*
X010858Y026627D01*
X010730Y026680D01*
X010590Y026680D01*
X010462Y026627D01*
X010363Y026528D01*
X010413Y026578D02*
X003233Y026578D01*
X003404Y026677D02*
X010582Y026677D01*
X010738Y026677D02*
X012990Y026677D01*
X012990Y026775D02*
X003516Y026775D01*
X003614Y026874D02*
X012990Y026874D01*
X012990Y026972D02*
X009775Y026972D01*
X009385Y026972D02*
X003693Y026972D01*
X003750Y027071D02*
X009284Y027071D01*
X009243Y027169D02*
X003806Y027169D01*
X003844Y027268D02*
X009230Y027268D01*
X009241Y027366D02*
X003870Y027366D01*
X003897Y027465D02*
X009282Y027465D01*
X009378Y027563D02*
X003911Y027563D01*
X003911Y027662D02*
X026449Y027662D01*
X026449Y027760D02*
X025180Y027760D01*
X025180Y027859D02*
X026453Y027859D01*
X026449Y027842D02*
X026449Y027518D01*
X026533Y027205D01*
X026695Y026924D01*
X026924Y026695D01*
X027205Y026533D01*
X027518Y026449D01*
X027842Y026449D01*
X028155Y026533D01*
X028436Y026695D01*
X028665Y026924D01*
X028827Y027205D01*
X028911Y027518D01*
X028911Y027842D01*
X028827Y028155D01*
X028665Y028436D01*
X028436Y028665D01*
X028155Y028827D01*
X027842Y028911D01*
X027518Y028911D01*
X027205Y028827D01*
X026924Y028665D01*
X026695Y028436D01*
X026533Y028155D01*
X026449Y027842D01*
X026480Y027957D02*
X025180Y027957D01*
X025180Y028056D02*
X026506Y028056D01*
X026533Y028154D02*
X025180Y028154D01*
X025180Y028253D02*
X026589Y028253D01*
X026646Y028351D02*
X025180Y028351D01*
X025180Y028450D02*
X026709Y028450D01*
X026807Y028548D02*
X025180Y028548D01*
X025180Y028647D02*
X026906Y028647D01*
X027063Y028745D02*
X025180Y028745D01*
X025180Y028844D02*
X027266Y028844D01*
X028094Y028844D02*
X029680Y028844D01*
X029680Y028942D02*
X025180Y028942D01*
X025180Y029041D02*
X029680Y029041D01*
X029680Y029139D02*
X025180Y029139D01*
X025180Y029238D02*
X029680Y029238D01*
X029680Y029336D02*
X025180Y029336D01*
X025180Y029435D02*
X029680Y029435D01*
X029680Y029533D02*
X025180Y029533D01*
X025180Y029632D02*
X029680Y029632D01*
X029680Y028745D02*
X028297Y028745D01*
X028454Y028647D02*
X029680Y028647D01*
X029680Y028548D02*
X028553Y028548D01*
X028651Y028450D02*
X029680Y028450D01*
X029680Y028351D02*
X028714Y028351D01*
X028771Y028253D02*
X029680Y028253D01*
X029680Y028154D02*
X028827Y028154D01*
X028854Y028056D02*
X029680Y028056D01*
X029680Y027957D02*
X028880Y027957D01*
X028907Y027859D02*
X029680Y027859D01*
X029680Y027760D02*
X028911Y027760D01*
X028911Y027662D02*
X029680Y027662D01*
X029680Y027563D02*
X028911Y027563D01*
X028897Y027465D02*
X029680Y027465D01*
X029680Y027366D02*
X028870Y027366D01*
X028844Y027268D02*
X029680Y027268D01*
X029680Y027169D02*
X028806Y027169D01*
X028750Y027071D02*
X029680Y027071D01*
X029680Y026972D02*
X028693Y026972D01*
X028614Y026874D02*
X029680Y026874D01*
X029680Y026775D02*
X028516Y026775D01*
X028404Y026677D02*
X029680Y026677D01*
X029680Y026578D02*
X028233Y026578D01*
X027956Y026480D02*
X029680Y026480D01*
X029680Y026381D02*
X023984Y026381D01*
X023886Y026480D02*
X027404Y026480D01*
X027127Y026578D02*
X023787Y026578D01*
X023689Y026677D02*
X026956Y026677D01*
X026844Y026775D02*
X023590Y026775D01*
X023492Y026874D02*
X026746Y026874D01*
X026667Y026972D02*
X023393Y026972D01*
X023295Y027071D02*
X026610Y027071D01*
X026554Y027169D02*
X023196Y027169D01*
X023098Y027268D02*
X026516Y027268D01*
X026490Y027366D02*
X017519Y027366D01*
X017588Y027268D02*
X022502Y027268D01*
X022404Y027169D02*
X020348Y027169D01*
X020464Y027071D02*
X022305Y027071D01*
X022207Y026972D02*
X020512Y026972D01*
X020530Y026874D02*
X022108Y026874D01*
X022010Y026775D02*
X020524Y026775D01*
X020483Y026677D02*
X021911Y026677D01*
X021813Y026578D02*
X021618Y026578D01*
X021422Y026578D02*
X020410Y026578D01*
X020410Y026480D02*
X021265Y026480D01*
X021200Y026381D02*
X020410Y026381D01*
X020410Y026283D02*
X021170Y026283D01*
X021170Y026184D02*
X020410Y026184D01*
X020410Y026086D02*
X021205Y026086D01*
X021278Y025987D02*
X020410Y025987D01*
X020410Y025889D02*
X022570Y025889D01*
X022570Y025987D02*
X021762Y025987D01*
X021971Y026086D02*
X022570Y026086D01*
X022570Y026184D02*
X022069Y026184D01*
X022168Y026283D02*
X022570Y026283D01*
X022570Y026381D02*
X022266Y026381D01*
X022365Y026480D02*
X022525Y026480D01*
X022472Y026578D02*
X022463Y026578D01*
X022570Y025790D02*
X020410Y025790D01*
X020410Y025692D02*
X022570Y025692D01*
X022570Y025593D02*
X020410Y025593D01*
X020410Y025495D02*
X022570Y025495D01*
X022570Y025396D02*
X020410Y025396D01*
X020410Y025298D02*
X022570Y025298D01*
X022570Y025199D02*
X020410Y025199D01*
X020410Y025101D02*
X022570Y025101D01*
X022570Y025002D02*
X020410Y025002D01*
X020410Y024904D02*
X022570Y024904D01*
X022570Y024805D02*
X020410Y024805D01*
X020410Y024707D02*
X022570Y024707D01*
X022570Y024608D02*
X020410Y024608D01*
X020410Y024510D02*
X022570Y024510D01*
X022570Y024411D02*
X020410Y024411D01*
X020410Y024313D02*
X022570Y024313D01*
X022570Y024214D02*
X020410Y024214D01*
X020410Y024116D02*
X022570Y024116D01*
X022570Y024017D02*
X020410Y024017D01*
X020410Y023919D02*
X022570Y023919D01*
X022570Y023820D02*
X020410Y023820D01*
X020410Y023722D02*
X022570Y023722D01*
X022570Y023623D02*
X020410Y023623D01*
X020410Y023525D02*
X022570Y023525D01*
X022570Y023426D02*
X020410Y023426D01*
X020410Y023328D02*
X022570Y023328D01*
X022570Y023229D02*
X020410Y023229D01*
X020410Y023131D02*
X022570Y023131D01*
X022570Y023032D02*
X020410Y023032D01*
X020410Y022934D02*
X022570Y022934D01*
X022570Y022835D02*
X020410Y022835D01*
X020410Y022737D02*
X022570Y022737D01*
X022570Y022638D02*
X020410Y022638D01*
X020410Y022540D02*
X022570Y022540D01*
X022570Y022441D02*
X020410Y022441D01*
X020410Y022343D02*
X022570Y022343D01*
X022570Y022244D02*
X020410Y022244D01*
X020410Y022146D02*
X022570Y022146D01*
X022570Y022047D02*
X020410Y022047D01*
X020410Y021949D02*
X022570Y021949D01*
X022570Y021850D02*
X020410Y021850D01*
X020410Y021752D02*
X022570Y021752D01*
X022570Y021653D02*
X020410Y021653D01*
X020410Y021555D02*
X022570Y021555D01*
X022570Y021456D02*
X020449Y021456D01*
X020548Y021358D02*
X022570Y021358D01*
X022570Y021259D02*
X020646Y021259D01*
X020745Y021161D02*
X022570Y021161D01*
X022570Y021062D02*
X020843Y021062D01*
X020942Y020964D02*
X022570Y020964D01*
X022570Y020865D02*
X021040Y020865D01*
X021139Y020767D02*
X022570Y020767D01*
X022570Y020668D02*
X021237Y020668D01*
X021336Y020570D02*
X022570Y020570D01*
X022570Y020471D02*
X021434Y020471D01*
X021533Y020373D02*
X022570Y020373D01*
X022570Y020274D02*
X021590Y020274D01*
X021590Y020176D02*
X022570Y020176D01*
X022570Y020077D02*
X021590Y020077D01*
X021590Y019979D02*
X022570Y019979D01*
X022570Y019880D02*
X021590Y019880D01*
X021567Y019782D02*
X022570Y019782D01*
X022570Y019683D02*
X021468Y019683D01*
X021370Y019585D02*
X022570Y019585D01*
X022570Y019486D02*
X021271Y019486D01*
X021173Y019388D02*
X022570Y019388D01*
X022570Y019289D02*
X021074Y019289D01*
X021054Y019191D02*
X022570Y019191D01*
X022570Y019092D02*
X021149Y019092D01*
X021190Y018994D02*
X022570Y018994D01*
X022570Y018895D02*
X021200Y018895D01*
X021279Y018797D02*
X022570Y018797D01*
X022570Y018698D02*
X021377Y018698D01*
X021476Y018600D02*
X022570Y018600D01*
X022570Y018501D02*
X021574Y018501D01*
X021673Y018403D02*
X022570Y018403D01*
X022570Y018304D02*
X021771Y018304D01*
X021870Y018206D02*
X022570Y018206D01*
X022570Y018107D02*
X021968Y018107D01*
X022067Y018009D02*
X022570Y018009D01*
X022570Y017910D02*
X022165Y017910D01*
X022264Y017812D02*
X022570Y017812D01*
X022570Y017713D02*
X022509Y017713D01*
X020820Y020373D02*
X017060Y020373D01*
X017060Y020471D02*
X020784Y020471D01*
X020685Y020570D02*
X017060Y020570D01*
X017060Y020668D02*
X020587Y020668D01*
X020488Y020767D02*
X016979Y020767D01*
X016880Y020865D02*
X020390Y020865D01*
X020291Y020964D02*
X016782Y020964D01*
X016683Y021062D02*
X018415Y021062D01*
X018565Y021062D02*
X020193Y021062D01*
X020094Y021161D02*
X018736Y021161D01*
X018806Y021259D02*
X019129Y021259D01*
X019311Y021259D02*
X019996Y021259D01*
X019950Y021358D02*
X019473Y021358D01*
X019539Y021456D02*
X019950Y021456D01*
X019950Y021555D02*
X019570Y021555D01*
X019570Y021653D02*
X019950Y021653D01*
X019950Y021752D02*
X019536Y021752D01*
X019465Y021850D02*
X019950Y021850D01*
X019950Y021949D02*
X019450Y021949D01*
X019450Y022047D02*
X019950Y022047D01*
X019950Y022146D02*
X019450Y022146D01*
X019450Y022244D02*
X019950Y022244D01*
X019950Y022343D02*
X019450Y022343D01*
X019450Y022441D02*
X019950Y022441D01*
X019950Y022540D02*
X019450Y022540D01*
X019450Y022638D02*
X019950Y022638D01*
X019950Y022737D02*
X019450Y022737D01*
X019450Y022835D02*
X019950Y022835D01*
X019950Y022934D02*
X019450Y022934D01*
X019450Y023032D02*
X019950Y023032D01*
X019950Y023131D02*
X019450Y023131D01*
X019450Y023229D02*
X019950Y023229D01*
X019950Y023328D02*
X019450Y023328D01*
X019450Y023426D02*
X019950Y023426D01*
X019950Y023525D02*
X019450Y023525D01*
X019450Y023623D02*
X019950Y023623D01*
X019950Y023722D02*
X019450Y023722D01*
X019450Y023820D02*
X019950Y023820D01*
X019950Y023919D02*
X019450Y023919D01*
X019450Y024017D02*
X019950Y024017D01*
X019950Y024116D02*
X019450Y024116D01*
X019450Y024214D02*
X019950Y024214D01*
X019950Y024313D02*
X019450Y024313D01*
X019450Y024411D02*
X019950Y024411D01*
X019950Y024510D02*
X019450Y024510D01*
X019450Y024608D02*
X019950Y024608D01*
X019950Y024707D02*
X019450Y024707D01*
X019450Y024805D02*
X019950Y024805D01*
X019950Y024904D02*
X019450Y024904D01*
X019450Y025002D02*
X019950Y025002D01*
X019950Y025101D02*
X019445Y025101D01*
X019346Y025199D02*
X019950Y025199D01*
X019950Y025298D02*
X019248Y025298D01*
X019149Y025396D02*
X019950Y025396D01*
X019950Y025495D02*
X019051Y025495D01*
X018952Y025593D02*
X019950Y025593D01*
X019950Y025692D02*
X018854Y025692D01*
X018755Y025790D02*
X019950Y025790D01*
X019950Y025889D02*
X018657Y025889D01*
X018558Y025987D02*
X019950Y025987D01*
X019950Y026086D02*
X018460Y026086D01*
X018361Y026184D02*
X019950Y026184D01*
X019950Y026283D02*
X018263Y026283D01*
X018164Y026381D02*
X019950Y026381D01*
X019950Y026480D02*
X018066Y026480D01*
X017967Y026578D02*
X019950Y026578D01*
X019877Y026677D02*
X017869Y026677D01*
X017770Y026775D02*
X019836Y026775D01*
X019830Y026874D02*
X017672Y026874D01*
X017588Y026972D02*
X019848Y026972D01*
X019896Y027071D02*
X017620Y027071D01*
X017620Y027169D02*
X020012Y027169D01*
X017353Y027465D02*
X026463Y027465D01*
X026449Y027563D02*
X009782Y027563D01*
X010907Y026578D02*
X012990Y026578D01*
X012990Y026480D02*
X010977Y026480D01*
X011010Y026381D02*
X012990Y026381D01*
X012990Y026283D02*
X011010Y026283D01*
X010978Y026184D02*
X012990Y026184D01*
X012990Y026086D02*
X010911Y026086D01*
X010890Y025987D02*
X012990Y025987D01*
X012990Y025889D02*
X010890Y025889D01*
X010890Y025790D02*
X012990Y025790D01*
X012990Y025692D02*
X010890Y025692D01*
X010890Y025593D02*
X012990Y025593D01*
X012990Y025495D02*
X010890Y025495D01*
X010890Y025396D02*
X012990Y025396D01*
X012644Y025298D02*
X010890Y025298D01*
X010890Y025199D02*
X012544Y025199D01*
X012503Y025101D02*
X010890Y025101D01*
X010890Y025002D02*
X012490Y025002D01*
X012501Y024904D02*
X010890Y024904D01*
X010890Y024805D02*
X012542Y024805D01*
X012610Y024707D02*
X010890Y024707D01*
X010890Y024608D02*
X012610Y024608D01*
X012610Y024510D02*
X010890Y024510D01*
X010890Y024411D02*
X012610Y024411D01*
X012610Y024313D02*
X010890Y024313D01*
X010890Y024214D02*
X012610Y024214D01*
X012610Y024116D02*
X011313Y024116D01*
X011438Y024017D02*
X012610Y024017D01*
X012610Y023919D02*
X011490Y023919D01*
X011510Y023820D02*
X012610Y023820D01*
X012610Y023722D02*
X011564Y023722D01*
X011662Y023623D02*
X012610Y023623D01*
X012610Y023525D02*
X011761Y023525D01*
X011859Y023426D02*
X012610Y023426D01*
X012610Y023328D02*
X011958Y023328D01*
X012056Y023229D02*
X012610Y023229D01*
X012610Y023131D02*
X012155Y023131D01*
X012253Y023032D02*
X012610Y023032D01*
X012610Y022934D02*
X012352Y022934D01*
X012594Y022835D02*
X012610Y022835D01*
X013450Y022835D02*
X015620Y022835D01*
X015718Y022737D02*
X013450Y022737D01*
X013450Y022638D02*
X015817Y022638D01*
X015915Y022540D02*
X013450Y022540D01*
X013450Y022441D02*
X016014Y022441D01*
X016112Y022343D02*
X013450Y022343D01*
X013450Y022244D02*
X016190Y022244D01*
X016200Y022146D02*
X013450Y022146D01*
X013450Y022047D02*
X014783Y022047D01*
X014684Y021949D02*
X013450Y021949D01*
X013450Y021850D02*
X014643Y021850D01*
X014630Y021752D02*
X013450Y021752D01*
X013450Y021653D02*
X013521Y021653D01*
X013450Y022934D02*
X015521Y022934D01*
X015440Y023032D02*
X013450Y023032D01*
X013450Y023131D02*
X015440Y023131D01*
X015440Y023229D02*
X013450Y023229D01*
X013450Y023328D02*
X015440Y023328D01*
X015440Y023426D02*
X013450Y023426D01*
X013450Y023525D02*
X015440Y023525D01*
X015440Y023623D02*
X013450Y023623D01*
X013450Y023722D02*
X015440Y023722D01*
X015440Y023820D02*
X013450Y023820D01*
X013450Y023919D02*
X015440Y023919D01*
X015440Y024017D02*
X013450Y024017D01*
X013450Y024116D02*
X015440Y024116D01*
X015440Y024214D02*
X013450Y024214D01*
X013450Y024313D02*
X015440Y024313D01*
X015440Y024411D02*
X013450Y024411D01*
X013450Y024510D02*
X015440Y024510D01*
X015440Y024608D02*
X013450Y024608D01*
X013450Y024707D02*
X015440Y024707D01*
X015440Y024805D02*
X013450Y024805D01*
X013450Y024904D02*
X015440Y024904D01*
X015440Y025002D02*
X013450Y025002D01*
X013450Y025101D02*
X015440Y025101D01*
X015440Y025199D02*
X013450Y025199D01*
X013450Y025298D02*
X015440Y025298D01*
X015440Y025396D02*
X013450Y025396D01*
X013450Y025495D02*
X015440Y025495D01*
X015440Y025593D02*
X013450Y025593D01*
X013450Y025692D02*
X015440Y025692D01*
X015440Y025790D02*
X013450Y025790D01*
X013450Y025889D02*
X015440Y025889D01*
X015440Y025987D02*
X013450Y025987D01*
X013450Y026086D02*
X015440Y026086D01*
X015440Y026184D02*
X013450Y026184D01*
X013450Y026283D02*
X015440Y026283D01*
X015440Y026381D02*
X013450Y026381D01*
X013450Y026480D02*
X015440Y026480D01*
X015440Y026578D02*
X013450Y026578D01*
X013450Y026677D02*
X015363Y026677D01*
X015322Y026775D02*
X013450Y026775D01*
X013450Y026874D02*
X015320Y026874D01*
X015342Y026972D02*
X013450Y026972D01*
X011007Y024116D02*
X010890Y024116D01*
X010430Y024116D02*
X000680Y024116D01*
X000680Y024214D02*
X010430Y024214D01*
X010430Y024313D02*
X000680Y024313D01*
X000680Y024411D02*
X010430Y024411D01*
X010430Y024510D02*
X000680Y024510D01*
X000680Y024608D02*
X010430Y024608D01*
X010430Y024707D02*
X000680Y024707D01*
X000680Y024805D02*
X010430Y024805D01*
X010430Y024904D02*
X000680Y024904D01*
X000680Y025002D02*
X010430Y025002D01*
X010430Y025101D02*
X000680Y025101D01*
X000680Y025199D02*
X010430Y025199D01*
X010430Y025298D02*
X000680Y025298D01*
X000680Y025396D02*
X010430Y025396D01*
X010430Y025495D02*
X000680Y025495D01*
X000680Y025593D02*
X010430Y025593D01*
X010430Y025692D02*
X000680Y025692D01*
X000680Y025790D02*
X010430Y025790D01*
X010430Y025889D02*
X000680Y025889D01*
X000680Y025987D02*
X010430Y025987D01*
X010409Y026086D02*
X000680Y026086D01*
X000680Y026184D02*
X010342Y026184D01*
X010310Y026283D02*
X000680Y026283D01*
X000680Y026381D02*
X010310Y026381D01*
X010430Y024017D02*
X000680Y024017D01*
X000680Y023919D02*
X010430Y023919D01*
X010430Y023820D02*
X000680Y023820D01*
X000680Y023722D02*
X010430Y023722D01*
X010430Y023623D02*
X000680Y023623D01*
X000680Y023525D02*
X010430Y023525D01*
X010430Y023426D02*
X000680Y023426D01*
X000680Y023328D02*
X010430Y023328D01*
X010430Y023229D02*
X000680Y023229D01*
X000680Y023131D02*
X010430Y023131D01*
X010430Y023032D02*
X000680Y023032D01*
X000680Y022934D02*
X010430Y022934D01*
X010430Y022835D02*
X000680Y022835D01*
X000680Y022737D02*
X010430Y022737D01*
X010430Y022638D02*
X000680Y022638D01*
X000680Y022540D02*
X010430Y022540D01*
X010430Y022441D02*
X000680Y022441D01*
X000680Y022343D02*
X010430Y022343D01*
X010430Y022244D02*
X000680Y022244D01*
X000680Y022146D02*
X010430Y022146D01*
X010430Y022047D02*
X000680Y022047D01*
X000680Y021949D02*
X010430Y021949D01*
X010375Y021850D02*
X000680Y021850D01*
X000680Y021752D02*
X010276Y021752D01*
X010178Y021653D02*
X000680Y021653D01*
X000680Y021555D02*
X010079Y021555D01*
X010040Y021456D02*
X000680Y021456D01*
X000680Y021358D02*
X010040Y021358D01*
X010040Y021259D02*
X000680Y021259D01*
X000680Y021161D02*
X010040Y021161D01*
X010040Y021062D02*
X000680Y021062D01*
X000680Y020964D02*
X010040Y020964D01*
X010040Y020865D02*
X000680Y020865D01*
X000680Y020767D02*
X010040Y020767D01*
X010040Y020668D02*
X000680Y020668D01*
X000680Y020570D02*
X010040Y020570D01*
X010040Y020471D02*
X000680Y020471D01*
X000680Y020373D02*
X010040Y020373D01*
X010040Y020274D02*
X000680Y020274D01*
X000680Y020176D02*
X010040Y020176D01*
X010040Y020077D02*
X000680Y020077D01*
X000680Y019979D02*
X010040Y019979D01*
X010040Y019880D02*
X000680Y019880D01*
X000680Y019782D02*
X010040Y019782D01*
X010040Y019683D02*
X000680Y019683D01*
X000680Y019585D02*
X010040Y019585D01*
X010040Y019486D02*
X000680Y019486D01*
X000680Y019388D02*
X010040Y019388D01*
X010040Y019289D02*
X000680Y019289D01*
X000680Y019191D02*
X010040Y019191D01*
X010040Y019092D02*
X003841Y019092D01*
X003813Y019105D02*
X003707Y019142D01*
X003598Y019167D01*
X003486Y019180D01*
X003480Y019180D01*
X003480Y018230D01*
X004430Y018230D01*
X004430Y018236D01*
X004417Y018348D01*
X004392Y018457D01*
X004355Y018563D01*
X004307Y018664D01*
X004247Y018760D01*
X004177Y018847D01*
X004097Y018927D01*
X004010Y018997D01*
X003914Y019057D01*
X003813Y019105D01*
X004014Y018994D02*
X005542Y018994D01*
X005420Y018943D02*
X005751Y019080D01*
X006109Y019080D01*
X006440Y018943D01*
X006693Y018690D01*
X006830Y018359D01*
X006830Y018001D01*
X006693Y017670D01*
X006440Y017417D01*
X006109Y017280D01*
X005751Y017280D01*
X005471Y017396D01*
X005230Y017155D01*
X005230Y013753D01*
X005420Y013943D01*
X005751Y014080D01*
X006109Y014080D01*
X006440Y013943D01*
X006693Y013690D01*
X006830Y013359D01*
X006830Y013001D01*
X006693Y012670D01*
X006440Y012417D01*
X006109Y012280D01*
X005751Y012280D01*
X005420Y012417D01*
X005230Y012607D01*
X005230Y011975D01*
X005297Y011908D01*
X005350Y011780D01*
X005350Y011640D01*
X005297Y011512D01*
X005198Y011413D01*
X005070Y011360D01*
X004930Y011360D01*
X004802Y011413D01*
X004703Y011512D01*
X004650Y011640D01*
X004650Y011780D01*
X004703Y011908D01*
X004770Y011975D01*
X004770Y017345D01*
X005146Y017721D01*
X005030Y018001D01*
X005030Y018359D01*
X005167Y018690D01*
X005420Y018943D01*
X005372Y018895D02*
X004129Y018895D01*
X004217Y018797D02*
X005274Y018797D01*
X005175Y018698D02*
X004286Y018698D01*
X004338Y018600D02*
X005130Y018600D01*
X005089Y018501D02*
X004377Y018501D01*
X004405Y018403D02*
X005048Y018403D01*
X005030Y018304D02*
X004422Y018304D01*
X004430Y018130D02*
X003480Y018130D01*
X003480Y018230D01*
X003380Y018230D01*
X003380Y019180D01*
X003374Y019180D01*
X003262Y019167D01*
X003153Y019142D01*
X003047Y019105D01*
X002946Y019057D01*
X002850Y018997D01*
X002763Y018927D01*
X002683Y018847D01*
X002613Y018760D01*
X002553Y018664D01*
X002505Y018563D01*
X002468Y018457D01*
X002443Y018348D01*
X002430Y018236D01*
X002430Y018230D01*
X003380Y018230D01*
X003380Y018130D01*
X003480Y018130D01*
X003480Y017180D01*
X003486Y017180D01*
X003598Y017193D01*
X003707Y017218D01*
X003813Y017255D01*
X003914Y017303D01*
X004010Y017363D01*
X004097Y017433D01*
X004177Y017513D01*
X004247Y017600D01*
X004307Y017696D01*
X004355Y017797D01*
X004392Y017903D01*
X004417Y018012D01*
X004430Y018124D01*
X004430Y018130D01*
X004428Y018107D02*
X005030Y018107D01*
X005030Y018009D02*
X004417Y018009D01*
X004394Y017910D02*
X005068Y017910D01*
X005108Y017812D02*
X004361Y017812D01*
X004315Y017713D02*
X005138Y017713D01*
X005039Y017615D02*
X004256Y017615D01*
X004180Y017516D02*
X004941Y017516D01*
X004842Y017418D02*
X004078Y017418D01*
X003939Y017319D02*
X004770Y017319D01*
X004770Y017221D02*
X003716Y017221D01*
X003480Y017221D02*
X003380Y017221D01*
X003380Y017180D02*
X003380Y018130D01*
X002430Y018130D01*
X002430Y018124D01*
X002443Y018012D01*
X002468Y017903D01*
X002505Y017797D01*
X002553Y017696D01*
X002613Y017600D01*
X002683Y017513D01*
X002763Y017433D01*
X002850Y017363D01*
X002946Y017303D01*
X003047Y017255D01*
X003153Y017218D01*
X003262Y017193D01*
X003374Y017180D01*
X003380Y017180D01*
X003380Y017319D02*
X003480Y017319D01*
X003480Y017418D02*
X003380Y017418D01*
X003380Y017516D02*
X003480Y017516D01*
X003480Y017615D02*
X003380Y017615D01*
X003380Y017713D02*
X003480Y017713D01*
X003480Y017812D02*
X003380Y017812D01*
X003380Y017910D02*
X003480Y017910D01*
X003480Y018009D02*
X003380Y018009D01*
X003380Y018107D02*
X003480Y018107D01*
X003480Y018206D02*
X005030Y018206D01*
X005394Y017319D02*
X005657Y017319D01*
X005296Y017221D02*
X010040Y017221D01*
X010040Y017319D02*
X006203Y017319D01*
X006440Y017418D02*
X010040Y017418D01*
X010040Y017516D02*
X006539Y017516D01*
X006637Y017615D02*
X010040Y017615D01*
X010040Y017713D02*
X006711Y017713D01*
X006752Y017812D02*
X010040Y017812D01*
X010040Y017910D02*
X006792Y017910D01*
X006830Y018009D02*
X010040Y018009D01*
X010040Y018107D02*
X006830Y018107D01*
X006830Y018206D02*
X010040Y018206D01*
X010040Y018304D02*
X006830Y018304D01*
X006812Y018403D02*
X010040Y018403D01*
X010040Y018501D02*
X006771Y018501D01*
X006730Y018600D02*
X010040Y018600D01*
X010040Y018698D02*
X006685Y018698D01*
X006586Y018797D02*
X010040Y018797D01*
X010040Y018895D02*
X006488Y018895D01*
X006318Y018994D02*
X010040Y018994D01*
X010500Y018994D02*
X012610Y018994D01*
X012610Y019092D02*
X010500Y019092D01*
X010500Y019191D02*
X012610Y019191D01*
X012610Y019289D02*
X010500Y019289D01*
X010500Y019388D02*
X012610Y019388D01*
X012610Y019486D02*
X010500Y019486D01*
X010500Y019585D02*
X012610Y019585D01*
X012610Y019683D02*
X010500Y019683D01*
X010500Y019782D02*
X012610Y019782D01*
X012610Y019880D02*
X010500Y019880D01*
X010500Y019979D02*
X012610Y019979D01*
X012610Y020077D02*
X010500Y020077D01*
X010500Y020176D02*
X012610Y020176D01*
X012610Y020274D02*
X012504Y020274D01*
X012470Y020260D02*
X012598Y020313D01*
X012610Y020325D01*
X012610Y018855D01*
X014820Y016645D01*
X014820Y016550D01*
X014873Y016422D01*
X014972Y016323D01*
X015100Y016270D01*
X015240Y016270D01*
X015320Y016303D01*
X015320Y013145D01*
X015455Y013010D01*
X018530Y009935D01*
X018530Y008017D01*
X018450Y008050D01*
X018310Y008050D01*
X018182Y007997D01*
X018115Y007930D01*
X014910Y007930D01*
X014910Y008395D01*
X014977Y008462D01*
X015030Y008590D01*
X015030Y008730D01*
X014977Y008858D01*
X014878Y008957D01*
X014796Y008991D01*
X015370Y009565D01*
X015370Y009875D01*
X015437Y009942D01*
X015490Y010070D01*
X015490Y010210D01*
X015437Y010338D01*
X015338Y010437D01*
X015210Y010490D01*
X015070Y010490D01*
X014942Y010437D01*
X014843Y010338D01*
X014790Y010210D01*
X014790Y010070D01*
X014843Y009942D01*
X014910Y009875D01*
X014910Y009755D01*
X013855Y008700D01*
X013720Y008565D01*
X013720Y003315D01*
X013730Y003305D01*
X013730Y002994D01*
X013994Y002730D01*
X014366Y002730D01*
X014630Y002994D01*
X014630Y003366D01*
X014366Y003630D01*
X014180Y003630D01*
X014180Y005233D01*
X014260Y005200D01*
X014400Y005200D01*
X014528Y005253D01*
X014595Y005320D01*
X019895Y005320D01*
X020325Y005750D01*
X020460Y005885D01*
X020460Y006425D01*
X020527Y006492D01*
X020580Y006620D01*
X020580Y006760D01*
X020527Y006888D01*
X020428Y006987D01*
X020300Y007040D01*
X020160Y007040D01*
X020032Y006987D01*
X019933Y006888D01*
X019880Y006760D01*
X019880Y006620D01*
X019933Y006492D01*
X020000Y006425D01*
X020000Y006075D01*
X019971Y006046D01*
X019937Y006128D01*
X019870Y006195D01*
X019870Y011125D01*
X019937Y011192D01*
X019990Y011320D01*
X019990Y011460D01*
X019957Y011540D01*
X021133Y011540D01*
X021100Y011460D01*
X021100Y011320D01*
X021153Y011192D01*
X021252Y011093D01*
X021380Y011040D01*
X021475Y011040D01*
X023000Y009515D01*
X023000Y009420D01*
X023053Y009292D01*
X023152Y009193D01*
X023280Y009140D01*
X023420Y009140D01*
X023548Y009193D01*
X023647Y009292D01*
X023700Y009420D01*
X023700Y009560D01*
X023647Y009688D01*
X023548Y009787D01*
X023420Y009840D01*
X023325Y009840D01*
X021800Y011365D01*
X021800Y011460D01*
X021767Y011540D01*
X026765Y011540D01*
X027349Y012124D01*
X027383Y012042D01*
X027482Y011943D01*
X027610Y011890D01*
X027750Y011890D01*
X027878Y011943D01*
X027977Y012042D01*
X028030Y012170D01*
X028030Y012265D01*
X028275Y012510D01*
X028330Y012565D01*
X028330Y010975D01*
X025665Y008310D01*
X025530Y008175D01*
X025530Y008017D01*
X025450Y008050D01*
X025310Y008050D01*
X025182Y007997D01*
X025115Y007930D01*
X023145Y007930D01*
X022900Y008175D01*
X022765Y008310D01*
X022015Y008310D01*
X021948Y008377D01*
X021820Y008430D01*
X021680Y008430D01*
X021552Y008377D01*
X021453Y008278D01*
X021400Y008150D01*
X021400Y008010D01*
X021453Y007882D01*
X021552Y007783D01*
X021680Y007730D01*
X021820Y007730D01*
X021948Y007783D01*
X022015Y007850D01*
X022575Y007850D01*
X022955Y007470D01*
X025115Y007470D01*
X025182Y007403D01*
X025310Y007350D01*
X025450Y007350D01*
X025530Y007383D01*
X025530Y006455D01*
X020891Y001816D01*
X020857Y001898D01*
X020758Y001997D01*
X020630Y002050D01*
X020490Y002050D01*
X020362Y001997D01*
X020295Y001930D01*
X017708Y001930D01*
X017730Y001952D01*
X017730Y002130D01*
X017230Y002130D01*
X017230Y002230D01*
X017130Y002230D01*
X017130Y002730D01*
X016952Y002730D01*
X016630Y002408D01*
X016630Y002230D01*
X017130Y002230D01*
X017130Y002130D01*
X016630Y002130D01*
X016630Y002055D01*
X016630Y002055D01*
X016630Y002366D01*
X016366Y002630D01*
X015994Y002630D01*
X015730Y002366D01*
X015730Y001994D01*
X015994Y001730D01*
X016305Y001730D01*
X016485Y001550D01*
X014135Y001550D01*
X014055Y001630D01*
X014130Y001630D01*
X014130Y002130D01*
X013630Y002130D01*
X013630Y002055D01*
X013630Y002055D01*
X013630Y002366D01*
X013366Y002630D01*
X012994Y002630D01*
X012730Y002366D01*
X012730Y002275D01*
X011220Y003785D01*
X011220Y005945D01*
X011287Y006012D01*
X011332Y006122D01*
X012950Y004505D01*
X012950Y003586D01*
X012730Y003366D01*
X012730Y002994D01*
X012994Y002730D01*
X013366Y002730D01*
X013630Y002994D01*
X013630Y003366D01*
X013410Y003586D01*
X013410Y004695D01*
X010240Y007865D01*
X010240Y007960D01*
X010187Y008088D01*
X010088Y008187D01*
X010006Y008221D01*
X012412Y010627D01*
X012500Y010590D01*
X012640Y010590D01*
X012768Y010643D01*
X012867Y010742D01*
X012920Y010870D01*
X012920Y011010D01*
X012878Y011110D01*
X013301Y011110D01*
X013332Y011034D01*
X013484Y010882D01*
X013683Y010800D01*
X014677Y010800D01*
X014876Y010882D01*
X015028Y011034D01*
X015110Y011233D01*
X015110Y011447D01*
X015028Y011646D01*
X014876Y011798D01*
X014677Y011880D01*
X013683Y011880D01*
X013484Y011798D01*
X013332Y011646D01*
X013301Y011570D01*
X012335Y011570D01*
X012160Y011395D01*
X012160Y011447D01*
X012078Y011646D01*
X011926Y011798D01*
X011727Y011880D01*
X010733Y011880D01*
X010534Y011798D01*
X010500Y011764D01*
X010500Y012886D01*
X010534Y012852D01*
X010733Y012770D01*
X011727Y012770D01*
X011926Y012852D01*
X012078Y013004D01*
X012160Y013203D01*
X012160Y013417D01*
X012078Y013616D01*
X011926Y013768D01*
X011727Y013850D01*
X010733Y013850D01*
X010534Y013768D01*
X010500Y013734D01*
X010500Y020380D01*
X012135Y020380D01*
X012202Y020313D01*
X012330Y020260D01*
X012470Y020260D01*
X012296Y020274D02*
X010500Y020274D01*
X010500Y020373D02*
X012142Y020373D01*
X012610Y018895D02*
X010500Y018895D01*
X010500Y018797D02*
X012668Y018797D01*
X012767Y018698D02*
X010500Y018698D01*
X010500Y018600D02*
X012865Y018600D01*
X012964Y018501D02*
X010500Y018501D01*
X010500Y018403D02*
X013062Y018403D01*
X013161Y018304D02*
X010500Y018304D01*
X010500Y018206D02*
X013259Y018206D01*
X013358Y018107D02*
X010500Y018107D01*
X010500Y018009D02*
X013456Y018009D01*
X013555Y017910D02*
X010500Y017910D01*
X010500Y017812D02*
X013653Y017812D01*
X013752Y017713D02*
X010500Y017713D01*
X010500Y017615D02*
X013850Y017615D01*
X013949Y017516D02*
X010500Y017516D01*
X010500Y017418D02*
X014047Y017418D01*
X014146Y017319D02*
X010500Y017319D01*
X010500Y017221D02*
X014244Y017221D01*
X014343Y017122D02*
X010500Y017122D01*
X010500Y017024D02*
X014441Y017024D01*
X014540Y016925D02*
X010500Y016925D01*
X010500Y016827D02*
X014638Y016827D01*
X014737Y016728D02*
X010500Y016728D01*
X010500Y016630D02*
X014820Y016630D01*
X014828Y016531D02*
X010500Y016531D01*
X010500Y016433D02*
X014869Y016433D01*
X014961Y016334D02*
X010500Y016334D01*
X010500Y016236D02*
X015320Y016236D01*
X015320Y016137D02*
X010500Y016137D01*
X010500Y016039D02*
X015320Y016039D01*
X015320Y015940D02*
X010500Y015940D01*
X010500Y015842D02*
X015320Y015842D01*
X015320Y015743D02*
X010500Y015743D01*
X010500Y015645D02*
X015320Y015645D01*
X015320Y015546D02*
X010500Y015546D01*
X010500Y015448D02*
X015320Y015448D01*
X015320Y015349D02*
X010500Y015349D01*
X010500Y015251D02*
X015320Y015251D01*
X015320Y015152D02*
X010500Y015152D01*
X010500Y015054D02*
X015320Y015054D01*
X015320Y014955D02*
X010500Y014955D01*
X010500Y014857D02*
X015320Y014857D01*
X015320Y014758D02*
X010500Y014758D01*
X010500Y014660D02*
X015320Y014660D01*
X015320Y014561D02*
X010500Y014561D01*
X010500Y014463D02*
X015320Y014463D01*
X015320Y014364D02*
X010500Y014364D01*
X010500Y014266D02*
X015320Y014266D01*
X015320Y014167D02*
X010500Y014167D01*
X010500Y014069D02*
X015320Y014069D01*
X015320Y013970D02*
X010500Y013970D01*
X010500Y013872D02*
X015320Y013872D01*
X015320Y013773D02*
X014863Y013773D01*
X014876Y013768D02*
X014677Y013850D01*
X013683Y013850D01*
X013484Y013768D01*
X013332Y013616D01*
X013250Y013417D01*
X013250Y013203D01*
X013332Y013004D01*
X013484Y012852D01*
X013683Y012770D01*
X014677Y012770D01*
X014876Y012852D01*
X015028Y013004D01*
X015110Y013203D01*
X015110Y013417D01*
X015028Y013616D01*
X014876Y013768D01*
X014969Y013675D02*
X015320Y013675D01*
X015320Y013576D02*
X015044Y013576D01*
X015085Y013478D02*
X015320Y013478D01*
X015320Y013379D02*
X015110Y013379D01*
X015110Y013281D02*
X015320Y013281D01*
X015320Y013182D02*
X015101Y013182D01*
X015061Y013084D02*
X015381Y013084D01*
X015480Y012985D02*
X015009Y012985D01*
X014910Y012887D02*
X015578Y012887D01*
X015677Y012788D02*
X014721Y012788D01*
X015775Y012690D02*
X010500Y012690D01*
X010500Y012788D02*
X010689Y012788D01*
X010500Y012591D02*
X015874Y012591D01*
X015972Y012493D02*
X010500Y012493D01*
X010500Y012394D02*
X016071Y012394D01*
X016169Y012296D02*
X010500Y012296D01*
X010500Y012197D02*
X016268Y012197D01*
X016366Y012099D02*
X010500Y012099D01*
X010500Y012000D02*
X016465Y012000D01*
X016563Y011902D02*
X010500Y011902D01*
X010500Y011803D02*
X010547Y011803D01*
X010040Y011803D02*
X005340Y011803D01*
X005350Y011705D02*
X010040Y011705D01*
X010040Y011606D02*
X005336Y011606D01*
X005293Y011508D02*
X010040Y011508D01*
X010040Y011409D02*
X005188Y011409D01*
X004812Y011409D02*
X000680Y011409D01*
X000680Y011311D02*
X010040Y011311D01*
X010040Y011212D02*
X000680Y011212D01*
X000680Y011114D02*
X010040Y011114D01*
X010040Y011015D02*
X000680Y011015D01*
X000680Y010917D02*
X010040Y010917D01*
X010040Y010818D02*
X000680Y010818D01*
X000680Y010720D02*
X010040Y010720D01*
X010040Y010621D02*
X000680Y010621D01*
X000680Y010523D02*
X010040Y010523D01*
X010040Y010424D02*
X000680Y010424D01*
X000680Y010326D02*
X010040Y010326D01*
X009960Y010227D02*
X000680Y010227D01*
X000680Y010129D02*
X009920Y010129D01*
X009920Y010030D02*
X000680Y010030D01*
X000680Y009932D02*
X009944Y009932D01*
X010002Y009833D02*
X000680Y009833D01*
X000680Y009735D02*
X010141Y009735D01*
X010302Y009538D02*
X000680Y009538D01*
X000680Y009636D02*
X010401Y009636D01*
X010399Y009735D02*
X010499Y009735D01*
X010538Y009833D02*
X010598Y009833D01*
X010596Y009932D02*
X010696Y009932D01*
X010620Y010030D02*
X010795Y010030D01*
X010893Y010129D02*
X010620Y010129D01*
X010580Y010227D02*
X010992Y010227D01*
X011090Y010326D02*
X010500Y010326D01*
X010500Y010424D02*
X011189Y010424D01*
X011287Y010523D02*
X010500Y010523D01*
X010500Y010621D02*
X011386Y010621D01*
X011484Y010720D02*
X010500Y010720D01*
X010500Y010818D02*
X010689Y010818D01*
X011618Y009833D02*
X014910Y009833D01*
X014889Y009735D02*
X011520Y009735D01*
X011421Y009636D02*
X014791Y009636D01*
X014692Y009538D02*
X011323Y009538D01*
X011224Y009439D02*
X014594Y009439D01*
X014495Y009341D02*
X011126Y009341D01*
X011027Y009242D02*
X014397Y009242D01*
X014298Y009144D02*
X010929Y009144D01*
X010830Y009045D02*
X014200Y009045D01*
X014101Y008947D02*
X010732Y008947D01*
X010633Y008848D02*
X014003Y008848D01*
X013904Y008750D02*
X010535Y008750D01*
X010436Y008651D02*
X013806Y008651D01*
X013720Y008553D02*
X010338Y008553D01*
X010239Y008454D02*
X013720Y008454D01*
X013720Y008356D02*
X010141Y008356D01*
X010042Y008257D02*
X013720Y008257D01*
X013720Y008159D02*
X010116Y008159D01*
X010198Y008060D02*
X013720Y008060D01*
X013720Y007962D02*
X010239Y007962D01*
X010242Y007863D02*
X013720Y007863D01*
X013720Y007765D02*
X010341Y007765D01*
X010439Y007666D02*
X013720Y007666D01*
X013720Y007568D02*
X010538Y007568D01*
X010636Y007469D02*
X013720Y007469D01*
X013720Y007371D02*
X010735Y007371D01*
X010833Y007272D02*
X013720Y007272D01*
X013720Y007174D02*
X010932Y007174D01*
X011030Y007075D02*
X013720Y007075D01*
X013720Y006977D02*
X011129Y006977D01*
X011227Y006878D02*
X013720Y006878D01*
X013720Y006780D02*
X011326Y006780D01*
X011424Y006681D02*
X013720Y006681D01*
X013720Y006583D02*
X011523Y006583D01*
X011621Y006484D02*
X013720Y006484D01*
X013720Y006386D02*
X011720Y006386D01*
X011818Y006287D02*
X013720Y006287D01*
X013720Y006189D02*
X011917Y006189D01*
X012015Y006090D02*
X013720Y006090D01*
X013720Y005992D02*
X012114Y005992D01*
X012212Y005893D02*
X013720Y005893D01*
X013720Y005795D02*
X012311Y005795D01*
X012409Y005696D02*
X013720Y005696D01*
X013720Y005598D02*
X012508Y005598D01*
X012606Y005499D02*
X013720Y005499D01*
X013720Y005401D02*
X012705Y005401D01*
X012803Y005302D02*
X013720Y005302D01*
X013720Y005204D02*
X012902Y005204D01*
X013000Y005105D02*
X013720Y005105D01*
X013720Y005007D02*
X013099Y005007D01*
X013197Y004908D02*
X013720Y004908D01*
X013720Y004810D02*
X013296Y004810D01*
X013394Y004711D02*
X013720Y004711D01*
X013720Y004613D02*
X013410Y004613D01*
X013410Y004514D02*
X013720Y004514D01*
X013720Y004416D02*
X013410Y004416D01*
X013410Y004317D02*
X013720Y004317D01*
X013720Y004219D02*
X013410Y004219D01*
X013410Y004120D02*
X013720Y004120D01*
X013720Y004022D02*
X013410Y004022D01*
X013410Y003923D02*
X013720Y003923D01*
X013720Y003825D02*
X013410Y003825D01*
X013410Y003726D02*
X013720Y003726D01*
X013720Y003628D02*
X013410Y003628D01*
X013467Y003529D02*
X013720Y003529D01*
X013720Y003431D02*
X013566Y003431D01*
X013630Y003332D02*
X013720Y003332D01*
X013730Y003234D02*
X013630Y003234D01*
X013630Y003135D02*
X013730Y003135D01*
X013730Y003037D02*
X013630Y003037D01*
X013574Y002938D02*
X013786Y002938D01*
X013884Y002840D02*
X013476Y002840D01*
X013377Y002741D02*
X013983Y002741D01*
X013952Y002730D02*
X013630Y002408D01*
X013630Y002230D01*
X014130Y002230D01*
X014130Y002730D01*
X013952Y002730D01*
X013865Y002643D02*
X012363Y002643D01*
X012264Y002741D02*
X012983Y002741D01*
X012884Y002840D02*
X012166Y002840D01*
X012067Y002938D02*
X012786Y002938D01*
X012730Y003037D02*
X011969Y003037D01*
X011870Y003135D02*
X012730Y003135D01*
X012730Y003234D02*
X011772Y003234D01*
X011673Y003332D02*
X012730Y003332D01*
X012794Y003431D02*
X011575Y003431D01*
X011476Y003529D02*
X012893Y003529D01*
X012950Y003628D02*
X011378Y003628D01*
X011279Y003726D02*
X012950Y003726D01*
X012950Y003825D02*
X011220Y003825D01*
X011220Y003923D02*
X012950Y003923D01*
X012950Y004022D02*
X011220Y004022D01*
X011220Y004120D02*
X012950Y004120D01*
X012950Y004219D02*
X011220Y004219D01*
X011220Y004317D02*
X012950Y004317D01*
X012950Y004416D02*
X011220Y004416D01*
X011220Y004514D02*
X012941Y004514D01*
X012842Y004613D02*
X011220Y004613D01*
X011220Y004711D02*
X012744Y004711D01*
X012645Y004810D02*
X011220Y004810D01*
X011220Y004908D02*
X012547Y004908D01*
X012448Y005007D02*
X011220Y005007D01*
X011220Y005105D02*
X012350Y005105D01*
X012251Y005204D02*
X011220Y005204D01*
X011220Y005302D02*
X012153Y005302D01*
X012054Y005401D02*
X011220Y005401D01*
X011220Y005499D02*
X011956Y005499D01*
X011857Y005598D02*
X011220Y005598D01*
X011220Y005696D02*
X011759Y005696D01*
X011660Y005795D02*
X011220Y005795D01*
X011220Y005893D02*
X011562Y005893D01*
X011463Y005992D02*
X011266Y005992D01*
X011319Y006090D02*
X011365Y006090D01*
X010760Y005893D02*
X000680Y005893D01*
X000680Y005795D02*
X010760Y005795D01*
X010760Y005696D02*
X000680Y005696D01*
X000680Y005598D02*
X010760Y005598D01*
X010760Y005499D02*
X000680Y005499D01*
X000680Y005401D02*
X010760Y005401D01*
X010760Y005302D02*
X000680Y005302D01*
X000680Y005204D02*
X010760Y005204D01*
X010760Y005105D02*
X000680Y005105D01*
X000680Y005007D02*
X010760Y005007D01*
X010760Y004908D02*
X000680Y004908D01*
X000680Y004810D02*
X010760Y004810D01*
X010760Y004711D02*
X000680Y004711D01*
X000680Y004613D02*
X010760Y004613D01*
X010760Y004514D02*
X000680Y004514D01*
X000680Y004416D02*
X010760Y004416D01*
X010760Y004317D02*
X000680Y004317D01*
X000680Y004219D02*
X010760Y004219D01*
X010760Y004120D02*
X000680Y004120D01*
X000680Y004022D02*
X010760Y004022D01*
X010760Y003923D02*
X000680Y003923D01*
X000680Y003825D02*
X002200Y003825D01*
X002205Y003827D02*
X001924Y003665D01*
X001695Y003436D01*
X001533Y003155D01*
X001449Y002842D01*
X001449Y002518D01*
X001533Y002205D01*
X001695Y001924D01*
X001924Y001695D01*
X002205Y001533D01*
X002518Y001449D01*
X002842Y001449D01*
X003155Y001533D01*
X003436Y001695D01*
X003665Y001924D01*
X003827Y002205D01*
X003911Y002518D01*
X003911Y002842D01*
X003827Y003155D01*
X003665Y003436D01*
X003436Y003665D01*
X003155Y003827D01*
X002842Y003911D01*
X002518Y003911D01*
X002205Y003827D01*
X002030Y003726D02*
X000680Y003726D01*
X000680Y003628D02*
X001887Y003628D01*
X001788Y003529D02*
X000680Y003529D01*
X000680Y003431D02*
X001692Y003431D01*
X001635Y003332D02*
X000680Y003332D01*
X000680Y003234D02*
X001578Y003234D01*
X001527Y003135D02*
X000680Y003135D01*
X000680Y003037D02*
X001501Y003037D01*
X001475Y002938D02*
X000680Y002938D01*
X000680Y002840D02*
X001449Y002840D01*
X001449Y002741D02*
X000680Y002741D01*
X000680Y002643D02*
X001449Y002643D01*
X001449Y002544D02*
X000680Y002544D01*
X000680Y002446D02*
X001468Y002446D01*
X001495Y002347D02*
X000680Y002347D01*
X000680Y002249D02*
X001521Y002249D01*
X001565Y002150D02*
X000680Y002150D01*
X000680Y002052D02*
X001621Y002052D01*
X001678Y001953D02*
X000680Y001953D01*
X000680Y001855D02*
X001765Y001855D01*
X001863Y001756D02*
X000680Y001756D01*
X000680Y001658D02*
X001989Y001658D01*
X002160Y001559D02*
X000680Y001559D01*
X000680Y001461D02*
X002475Y001461D01*
X002885Y001461D02*
X012894Y001461D01*
X012796Y001559D02*
X003200Y001559D01*
X003371Y001658D02*
X012697Y001658D01*
X012599Y001756D02*
X003497Y001756D01*
X003595Y001855D02*
X012500Y001855D01*
X012402Y001953D02*
X003682Y001953D01*
X003739Y002052D02*
X012303Y002052D01*
X012205Y002150D02*
X003795Y002150D01*
X003839Y002249D02*
X012106Y002249D01*
X012008Y002347D02*
X003865Y002347D01*
X003892Y002446D02*
X011909Y002446D01*
X011811Y002544D02*
X003911Y002544D01*
X003911Y002643D02*
X011712Y002643D01*
X011614Y002741D02*
X003911Y002741D01*
X003911Y002840D02*
X011515Y002840D01*
X011417Y002938D02*
X003885Y002938D01*
X003859Y003037D02*
X011318Y003037D01*
X011220Y003135D02*
X003833Y003135D01*
X003782Y003234D02*
X011121Y003234D01*
X011023Y003332D02*
X003725Y003332D01*
X003668Y003431D02*
X010924Y003431D01*
X010826Y003529D02*
X003572Y003529D01*
X003473Y003628D02*
X010760Y003628D01*
X010760Y003726D02*
X003330Y003726D01*
X003160Y003825D02*
X010760Y003825D01*
X012461Y002544D02*
X012908Y002544D01*
X012809Y002446D02*
X012560Y002446D01*
X012658Y002347D02*
X012730Y002347D01*
X013452Y002544D02*
X013766Y002544D01*
X013668Y002446D02*
X013551Y002446D01*
X013630Y002347D02*
X013630Y002347D01*
X013630Y002249D02*
X013630Y002249D01*
X013630Y002150D02*
X014130Y002150D01*
X014130Y002130D02*
X014130Y002230D01*
X014230Y002230D01*
X014230Y002730D01*
X014408Y002730D01*
X014730Y002408D01*
X014730Y002230D01*
X014230Y002230D01*
X014230Y002130D01*
X014730Y002130D01*
X014730Y001952D01*
X014408Y001630D01*
X014230Y001630D01*
X014230Y002130D01*
X014130Y002130D01*
X014130Y002052D02*
X014230Y002052D01*
X014230Y002150D02*
X014730Y002150D01*
X014730Y002052D02*
X014730Y002052D01*
X014730Y001994D02*
X014994Y001730D01*
X015366Y001730D01*
X015630Y001994D01*
X015630Y002366D01*
X015366Y002630D01*
X014994Y002630D01*
X014730Y002366D01*
X014730Y001994D01*
X014730Y001953D02*
X014771Y001953D01*
X014869Y001855D02*
X014632Y001855D01*
X014534Y001756D02*
X014968Y001756D01*
X015392Y001756D02*
X015968Y001756D01*
X015869Y001855D02*
X015491Y001855D01*
X015589Y001953D02*
X015771Y001953D01*
X015730Y002052D02*
X015630Y002052D01*
X015630Y002150D02*
X015730Y002150D01*
X015730Y002249D02*
X015630Y002249D01*
X015630Y002347D02*
X015730Y002347D01*
X015809Y002446D02*
X015551Y002446D01*
X015452Y002544D02*
X015908Y002544D01*
X015994Y002730D02*
X016366Y002730D01*
X016630Y002994D01*
X016630Y003366D01*
X016366Y003630D01*
X015994Y003630D01*
X015730Y003366D01*
X015730Y002994D01*
X015994Y002730D01*
X015983Y002741D02*
X015519Y002741D01*
X015617Y002840D02*
X015884Y002840D01*
X015786Y002938D02*
X015716Y002938D01*
X015730Y002952D02*
X015730Y003130D01*
X015230Y003130D01*
X015230Y003230D01*
X015730Y003230D01*
X015730Y003408D01*
X015408Y003730D01*
X015230Y003730D01*
X015230Y003230D01*
X015130Y003230D01*
X015130Y003730D01*
X014952Y003730D01*
X014630Y003408D01*
X014630Y003230D01*
X015130Y003230D01*
X015130Y003130D01*
X015230Y003130D01*
X015230Y002630D01*
X015408Y002630D01*
X015730Y002952D01*
X015730Y003037D02*
X015730Y003037D01*
X015730Y003135D02*
X015230Y003135D01*
X015230Y003037D02*
X015130Y003037D01*
X015130Y003130D02*
X015130Y002630D01*
X014952Y002630D01*
X014630Y002952D01*
X014630Y003130D01*
X015130Y003130D01*
X015130Y003135D02*
X014630Y003135D01*
X014630Y003037D02*
X014630Y003037D01*
X014644Y002938D02*
X014574Y002938D01*
X014476Y002840D02*
X014743Y002840D01*
X014841Y002741D02*
X014377Y002741D01*
X014495Y002643D02*
X014940Y002643D01*
X014908Y002544D02*
X014594Y002544D01*
X014692Y002446D02*
X014809Y002446D01*
X014730Y002347D02*
X014730Y002347D01*
X014730Y002249D02*
X014730Y002249D01*
X015130Y002643D02*
X015230Y002643D01*
X015230Y002741D02*
X015130Y002741D01*
X015130Y002840D02*
X015230Y002840D01*
X015230Y002938D02*
X015130Y002938D01*
X015130Y003234D02*
X015230Y003234D01*
X015230Y003332D02*
X015130Y003332D01*
X015130Y003431D02*
X015230Y003431D01*
X015230Y003529D02*
X015130Y003529D01*
X015130Y003628D02*
X015230Y003628D01*
X015230Y003726D02*
X015130Y003726D01*
X014948Y003726D02*
X014180Y003726D01*
X014180Y003825D02*
X022899Y003825D01*
X022998Y003923D02*
X014180Y003923D01*
X014180Y004022D02*
X023096Y004022D01*
X023195Y004120D02*
X014180Y004120D01*
X014180Y004219D02*
X023293Y004219D01*
X023392Y004317D02*
X014180Y004317D01*
X014180Y004416D02*
X023490Y004416D01*
X023589Y004514D02*
X014180Y004514D01*
X014180Y004613D02*
X023687Y004613D01*
X023786Y004711D02*
X014180Y004711D01*
X014180Y004810D02*
X023884Y004810D01*
X023983Y004908D02*
X014180Y004908D01*
X014180Y005007D02*
X024081Y005007D01*
X024180Y005105D02*
X014180Y005105D01*
X014180Y005204D02*
X014252Y005204D01*
X014408Y005204D02*
X024278Y005204D01*
X024377Y005302D02*
X014577Y005302D01*
X015412Y003726D02*
X022801Y003726D01*
X022702Y003628D02*
X017369Y003628D01*
X017366Y003630D02*
X016994Y003630D01*
X016730Y003366D01*
X016730Y002994D01*
X016994Y002730D01*
X017366Y002730D01*
X017630Y002994D01*
X017630Y003366D01*
X017366Y003630D01*
X017467Y003529D02*
X022604Y003529D01*
X022505Y003431D02*
X017566Y003431D01*
X017630Y003332D02*
X022407Y003332D01*
X022308Y003234D02*
X017630Y003234D01*
X017630Y003135D02*
X022210Y003135D01*
X022111Y003037D02*
X017630Y003037D01*
X017574Y002938D02*
X022013Y002938D01*
X021914Y002840D02*
X017476Y002840D01*
X017408Y002730D02*
X017230Y002730D01*
X017230Y002230D01*
X017730Y002230D01*
X017730Y002408D01*
X017408Y002730D01*
X017377Y002741D02*
X021816Y002741D01*
X021717Y002643D02*
X017495Y002643D01*
X017594Y002544D02*
X021619Y002544D01*
X021520Y002446D02*
X017692Y002446D01*
X017730Y002347D02*
X021422Y002347D01*
X021323Y002249D02*
X017730Y002249D01*
X017730Y002052D02*
X021126Y002052D01*
X021225Y002150D02*
X017230Y002150D01*
X017230Y002249D02*
X017130Y002249D01*
X017130Y002347D02*
X017230Y002347D01*
X017230Y002446D02*
X017130Y002446D01*
X017130Y002544D02*
X017230Y002544D01*
X017230Y002643D02*
X017130Y002643D01*
X016983Y002741D02*
X016377Y002741D01*
X016476Y002840D02*
X016884Y002840D01*
X016786Y002938D02*
X016574Y002938D01*
X016630Y003037D02*
X016730Y003037D01*
X016730Y003135D02*
X016630Y003135D01*
X016630Y003234D02*
X016730Y003234D01*
X016730Y003332D02*
X016630Y003332D01*
X016566Y003431D02*
X016794Y003431D01*
X016893Y003529D02*
X016467Y003529D01*
X016369Y003628D02*
X016991Y003628D01*
X016865Y002643D02*
X015420Y002643D01*
X015730Y003234D02*
X015730Y003234D01*
X015730Y003332D02*
X015730Y003332D01*
X015707Y003431D02*
X015794Y003431D01*
X015893Y003529D02*
X015609Y003529D01*
X015510Y003628D02*
X015991Y003628D01*
X016452Y002544D02*
X016766Y002544D01*
X016668Y002446D02*
X016551Y002446D01*
X016630Y002347D02*
X016630Y002347D01*
X016630Y002249D02*
X016630Y002249D01*
X016630Y002150D02*
X017130Y002150D01*
X017730Y001953D02*
X020318Y001953D01*
X020802Y001953D02*
X021028Y001953D01*
X020929Y001855D02*
X020875Y001855D01*
X021457Y001362D02*
X029680Y001362D01*
X029680Y001264D02*
X021359Y001264D01*
X021260Y001165D02*
X029680Y001165D01*
X029680Y001067D02*
X021162Y001067D01*
X021063Y000968D02*
X029680Y000968D01*
X029680Y000870D02*
X020965Y000870D01*
X021556Y001461D02*
X027475Y001461D01*
X027518Y001449D02*
X027842Y001449D01*
X028155Y001533D01*
X028436Y001695D01*
X028665Y001924D01*
X028827Y002205D01*
X028911Y002518D01*
X028911Y002842D01*
X028827Y003155D01*
X028665Y003436D01*
X028436Y003665D01*
X028155Y003827D01*
X027842Y003911D01*
X027518Y003911D01*
X027205Y003827D01*
X026924Y003665D01*
X026695Y003436D01*
X026533Y003155D01*
X026449Y002842D01*
X026449Y002518D01*
X026533Y002205D01*
X026695Y001924D01*
X026924Y001695D01*
X027205Y001533D01*
X027518Y001449D01*
X027885Y001461D02*
X029680Y001461D01*
X029680Y001559D02*
X028200Y001559D01*
X028371Y001658D02*
X029680Y001658D01*
X029680Y001756D02*
X028497Y001756D01*
X028595Y001855D02*
X029680Y001855D01*
X029680Y001953D02*
X028682Y001953D01*
X028739Y002052D02*
X029680Y002052D01*
X029680Y002150D02*
X028795Y002150D01*
X028839Y002249D02*
X029680Y002249D01*
X029680Y002347D02*
X028865Y002347D01*
X028892Y002446D02*
X029680Y002446D01*
X029680Y002544D02*
X028911Y002544D01*
X028911Y002643D02*
X029680Y002643D01*
X029680Y002741D02*
X028911Y002741D01*
X028911Y002840D02*
X029680Y002840D01*
X029680Y002938D02*
X028885Y002938D01*
X028859Y003037D02*
X029680Y003037D01*
X029680Y003135D02*
X028833Y003135D01*
X028782Y003234D02*
X029680Y003234D01*
X029680Y003332D02*
X028725Y003332D01*
X028668Y003431D02*
X029680Y003431D01*
X029680Y003529D02*
X028572Y003529D01*
X028473Y003628D02*
X029680Y003628D01*
X029680Y003726D02*
X028330Y003726D01*
X028160Y003825D02*
X029680Y003825D01*
X029680Y003923D02*
X023648Y003923D01*
X023571Y003825D02*
X027200Y003825D01*
X027030Y003726D02*
X023709Y003726D01*
X023766Y003628D02*
X026887Y003628D01*
X026788Y003529D02*
X023790Y003529D01*
X023790Y003431D02*
X026692Y003431D01*
X026635Y003332D02*
X023749Y003332D01*
X023668Y003234D02*
X026578Y003234D01*
X026527Y003135D02*
X023230Y003135D01*
X023132Y003037D02*
X026501Y003037D01*
X026475Y002938D02*
X023033Y002938D01*
X022935Y002840D02*
X026449Y002840D01*
X026449Y002741D02*
X022836Y002741D01*
X022738Y002643D02*
X026449Y002643D01*
X026449Y002544D02*
X022639Y002544D01*
X022541Y002446D02*
X026468Y002446D01*
X026495Y002347D02*
X022442Y002347D01*
X022344Y002249D02*
X026521Y002249D01*
X026565Y002150D02*
X022245Y002150D01*
X022147Y002052D02*
X026621Y002052D01*
X026678Y001953D02*
X022048Y001953D01*
X021950Y001855D02*
X026765Y001855D01*
X026863Y001756D02*
X021851Y001756D01*
X021753Y001658D02*
X026989Y001658D01*
X027160Y001559D02*
X021654Y001559D01*
X023747Y004022D02*
X029680Y004022D01*
X029680Y004120D02*
X023845Y004120D01*
X023944Y004219D02*
X029680Y004219D01*
X029680Y004317D02*
X024042Y004317D01*
X024141Y004416D02*
X029680Y004416D01*
X029680Y004514D02*
X024239Y004514D01*
X024338Y004613D02*
X029680Y004613D01*
X029680Y004711D02*
X024436Y004711D01*
X024535Y004810D02*
X029680Y004810D01*
X029680Y004908D02*
X024633Y004908D01*
X024732Y005007D02*
X029680Y005007D01*
X029680Y005105D02*
X024830Y005105D01*
X024929Y005204D02*
X029680Y005204D01*
X029680Y005302D02*
X025027Y005302D01*
X025126Y005401D02*
X029680Y005401D01*
X029680Y005499D02*
X025224Y005499D01*
X025323Y005598D02*
X029680Y005598D01*
X029680Y005696D02*
X025421Y005696D01*
X025520Y005795D02*
X029680Y005795D01*
X029680Y005893D02*
X025618Y005893D01*
X025717Y005992D02*
X029680Y005992D01*
X029680Y006090D02*
X025815Y006090D01*
X025914Y006189D02*
X029680Y006189D01*
X029680Y006287D02*
X025990Y006287D01*
X025990Y006386D02*
X029680Y006386D01*
X029680Y006484D02*
X025990Y006484D01*
X025990Y006583D02*
X029680Y006583D01*
X029680Y006681D02*
X025990Y006681D01*
X025990Y006780D02*
X029680Y006780D01*
X029680Y006878D02*
X025990Y006878D01*
X025990Y006977D02*
X029680Y006977D01*
X029680Y007075D02*
X025990Y007075D01*
X025990Y007174D02*
X029680Y007174D01*
X029680Y007272D02*
X025990Y007272D01*
X025990Y007371D02*
X029680Y007371D01*
X029680Y007469D02*
X025990Y007469D01*
X025990Y007568D02*
X029680Y007568D01*
X029680Y007666D02*
X029288Y007666D01*
X029439Y007765D02*
X029680Y007765D01*
X029680Y007863D02*
X029502Y007863D01*
X029530Y007962D02*
X029680Y007962D01*
X029680Y008060D02*
X029530Y008060D01*
X029493Y008159D02*
X029680Y008159D01*
X029680Y008257D02*
X029418Y008257D01*
X029410Y008356D02*
X029680Y008356D01*
X029680Y008454D02*
X029410Y008454D01*
X029410Y008553D02*
X029680Y008553D01*
X029680Y008651D02*
X029410Y008651D01*
X029410Y008750D02*
X029680Y008750D01*
X029680Y008848D02*
X029410Y008848D01*
X029410Y008947D02*
X029680Y008947D01*
X029680Y009045D02*
X029410Y009045D01*
X029410Y009144D02*
X029680Y009144D01*
X029680Y009242D02*
X029410Y009242D01*
X029410Y009341D02*
X029680Y009341D01*
X029680Y009439D02*
X029410Y009439D01*
X029410Y009538D02*
X029680Y009538D01*
X029680Y009636D02*
X029410Y009636D01*
X029410Y009735D02*
X029680Y009735D01*
X029680Y009833D02*
X029410Y009833D01*
X029410Y009932D02*
X029680Y009932D01*
X029680Y010030D02*
X029410Y010030D01*
X029623Y010129D02*
X029680Y010129D01*
X029674Y010621D02*
X029680Y010621D01*
X029680Y010720D02*
X029543Y010720D01*
X029680Y010818D02*
X029170Y010818D01*
X029170Y010917D02*
X029680Y010917D01*
X029680Y011015D02*
X029170Y011015D01*
X029170Y011114D02*
X029680Y011114D01*
X029680Y011212D02*
X029170Y011212D01*
X029170Y011311D02*
X029680Y011311D01*
X029680Y011409D02*
X029170Y011409D01*
X029170Y011508D02*
X029680Y011508D01*
X029680Y011606D02*
X029170Y011606D01*
X029170Y011705D02*
X029680Y011705D01*
X029680Y011803D02*
X029170Y011803D01*
X029170Y011902D02*
X029680Y011902D01*
X029680Y012000D02*
X029170Y012000D01*
X029170Y012099D02*
X029680Y012099D01*
X029680Y012197D02*
X029170Y012197D01*
X029170Y012296D02*
X029680Y012296D01*
X029680Y012394D02*
X029170Y012394D01*
X029170Y012493D02*
X029680Y012493D01*
X029680Y012591D02*
X029170Y012591D01*
X029170Y012690D02*
X029680Y012690D01*
X029680Y012788D02*
X029170Y012788D01*
X029170Y012887D02*
X029680Y012887D01*
X029680Y012985D02*
X029170Y012985D01*
X029170Y013084D02*
X029680Y013084D01*
X029680Y013182D02*
X029170Y013182D01*
X029170Y013281D02*
X029680Y013281D01*
X029680Y013379D02*
X029170Y013379D01*
X029170Y013478D02*
X029680Y013478D01*
X029680Y013576D02*
X029170Y013576D01*
X029170Y013675D02*
X029680Y013675D01*
X029680Y013773D02*
X029170Y013773D01*
X029170Y013872D02*
X029680Y013872D01*
X029680Y013970D02*
X029170Y013970D01*
X029170Y014069D02*
X029680Y014069D01*
X029680Y014167D02*
X029170Y014167D01*
X029170Y014266D02*
X029680Y014266D01*
X029680Y014364D02*
X029170Y014364D01*
X029170Y014463D02*
X029680Y014463D01*
X029680Y014561D02*
X029170Y014561D01*
X029170Y014660D02*
X029680Y014660D01*
X029680Y014758D02*
X029170Y014758D01*
X029170Y014857D02*
X029680Y014857D01*
X029680Y014955D02*
X029170Y014955D01*
X029170Y015054D02*
X029680Y015054D01*
X029680Y015152D02*
X029170Y015152D01*
X029170Y015251D02*
X029680Y015251D01*
X029680Y015349D02*
X029170Y015349D01*
X029170Y015448D02*
X029680Y015448D01*
X029680Y015546D02*
X029170Y015546D01*
X029170Y015645D02*
X029680Y015645D01*
X029680Y015743D02*
X029170Y015743D01*
X029170Y015842D02*
X029680Y015842D01*
X029680Y015940D02*
X029170Y015940D01*
X029170Y016039D02*
X029680Y016039D01*
X029680Y016137D02*
X029170Y016137D01*
X029170Y016236D02*
X029680Y016236D01*
X029680Y016334D02*
X029170Y016334D01*
X029170Y016433D02*
X029680Y016433D01*
X029680Y016531D02*
X029170Y016531D01*
X029170Y016630D02*
X029680Y016630D01*
X029680Y016728D02*
X029170Y016728D01*
X029170Y016827D02*
X029680Y016827D01*
X029680Y016925D02*
X029170Y016925D01*
X029170Y017024D02*
X029680Y017024D01*
X029680Y017122D02*
X029170Y017122D01*
X029170Y017221D02*
X029680Y017221D01*
X029680Y017319D02*
X029170Y017319D01*
X029170Y017418D02*
X029680Y017418D01*
X029680Y017516D02*
X029170Y017516D01*
X029170Y017615D02*
X029680Y017615D01*
X029680Y017713D02*
X029170Y017713D01*
X029170Y017812D02*
X029680Y017812D01*
X029680Y017910D02*
X029170Y017910D01*
X029170Y018009D02*
X029680Y018009D01*
X029680Y018107D02*
X029170Y018107D01*
X029170Y018206D02*
X029680Y018206D01*
X029680Y018304D02*
X029170Y018304D01*
X029170Y018403D02*
X029680Y018403D01*
X029680Y018501D02*
X029170Y018501D01*
X029170Y018600D02*
X029680Y018600D01*
X029680Y018698D02*
X029170Y018698D01*
X029170Y018797D02*
X029680Y018797D01*
X029680Y018895D02*
X029170Y018895D01*
X029170Y018994D02*
X029680Y018994D01*
X029680Y019092D02*
X029170Y019092D01*
X029170Y019191D02*
X029680Y019191D01*
X029680Y019289D02*
X029170Y019289D01*
X029170Y019388D02*
X029680Y019388D01*
X029680Y019486D02*
X029170Y019486D01*
X029170Y019585D02*
X029680Y019585D01*
X029680Y019683D02*
X029170Y019683D01*
X029170Y019782D02*
X029680Y019782D01*
X029680Y019880D02*
X029170Y019880D01*
X029170Y019979D02*
X029680Y019979D01*
X029680Y020077D02*
X029170Y020077D01*
X029170Y020176D02*
X029680Y020176D01*
X029680Y020274D02*
X029170Y020274D01*
X029170Y020373D02*
X029680Y020373D01*
X029680Y020471D02*
X029170Y020471D01*
X029170Y020570D02*
X029680Y020570D01*
X029680Y020668D02*
X029203Y020668D01*
X029264Y020767D02*
X029680Y020767D01*
X029680Y020865D02*
X029290Y020865D01*
X029290Y020964D02*
X029680Y020964D01*
X029680Y021062D02*
X029252Y021062D01*
X029174Y021161D02*
X029680Y021161D01*
X029680Y021259D02*
X028790Y021259D01*
X028790Y021358D02*
X029680Y021358D01*
X029680Y021456D02*
X028790Y021456D01*
X028790Y021555D02*
X029680Y021555D01*
X029680Y021653D02*
X028712Y021653D01*
X028614Y021752D02*
X029680Y021752D01*
X029680Y021850D02*
X028515Y021850D01*
X028417Y021949D02*
X029680Y021949D01*
X029680Y022047D02*
X028318Y022047D01*
X028220Y022146D02*
X029680Y022146D01*
X029680Y022244D02*
X028121Y022244D01*
X028023Y022343D02*
X029680Y022343D01*
X029680Y022441D02*
X027924Y022441D01*
X027826Y022540D02*
X029680Y022540D01*
X029680Y022638D02*
X027727Y022638D01*
X027629Y022737D02*
X029680Y022737D01*
X029680Y022835D02*
X027530Y022835D01*
X027432Y022934D02*
X029680Y022934D01*
X029680Y023032D02*
X027333Y023032D01*
X027235Y023131D02*
X029680Y023131D01*
X029680Y023229D02*
X027136Y023229D01*
X027038Y023328D02*
X029680Y023328D01*
X029680Y023426D02*
X026939Y023426D01*
X026841Y023525D02*
X029680Y023525D01*
X029680Y023623D02*
X026742Y023623D01*
X026644Y023722D02*
X029680Y023722D01*
X029680Y023820D02*
X026545Y023820D01*
X026447Y023919D02*
X029680Y023919D01*
X029680Y024017D02*
X026348Y024017D01*
X026250Y024116D02*
X029680Y024116D01*
X029680Y024214D02*
X026151Y024214D01*
X026053Y024313D02*
X029680Y024313D01*
X029680Y024411D02*
X025954Y024411D01*
X025856Y024510D02*
X029680Y024510D01*
X029680Y024608D02*
X025757Y024608D01*
X025659Y024707D02*
X029680Y024707D01*
X029680Y024805D02*
X025560Y024805D01*
X025462Y024904D02*
X029680Y024904D01*
X029680Y025002D02*
X025363Y025002D01*
X025265Y025101D02*
X029680Y025101D01*
X029680Y025199D02*
X025166Y025199D01*
X025068Y025298D02*
X029680Y025298D01*
X029680Y025396D02*
X024969Y025396D01*
X024871Y025495D02*
X029680Y025495D01*
X029680Y025593D02*
X024772Y025593D01*
X024674Y025692D02*
X029680Y025692D01*
X029680Y025790D02*
X024575Y025790D01*
X024477Y025889D02*
X029680Y025889D01*
X029680Y025987D02*
X024378Y025987D01*
X024280Y026086D02*
X029680Y026086D01*
X029680Y026184D02*
X024181Y026184D01*
X024083Y026283D02*
X029680Y026283D01*
X018967Y021358D02*
X018840Y021358D01*
X018861Y021456D02*
X018901Y021456D01*
X018605Y021850D02*
X015895Y021850D01*
X015797Y021949D02*
X016336Y021949D01*
X016241Y022047D02*
X015177Y022047D01*
X015994Y021752D02*
X018400Y021752D01*
X018238Y021653D02*
X016092Y021653D01*
X016191Y021555D02*
X018171Y021555D01*
X018140Y021456D02*
X016289Y021456D01*
X016388Y021358D02*
X018140Y021358D01*
X018174Y021259D02*
X016486Y021259D01*
X016585Y021161D02*
X018244Y021161D01*
X018409Y020274D02*
X017060Y020274D01*
X017060Y020176D02*
X018310Y020176D01*
X018212Y020077D02*
X017060Y020077D01*
X017087Y019979D02*
X018113Y019979D01*
X018015Y019880D02*
X017185Y019880D01*
X017284Y019782D02*
X017916Y019782D01*
X017648Y019683D02*
X017382Y019683D01*
X017481Y019585D02*
X017563Y019585D01*
X016744Y021949D02*
X018703Y021949D01*
X018720Y022047D02*
X016839Y022047D01*
X016880Y022146D02*
X018720Y022146D01*
X018720Y022244D02*
X016890Y022244D01*
X016876Y022343D02*
X018720Y022343D01*
X018720Y022441D02*
X016834Y022441D01*
X016731Y022540D02*
X018720Y022540D01*
X018337Y022638D02*
X016467Y022638D01*
X016498Y022737D02*
X016369Y022737D01*
X016400Y022835D02*
X016270Y022835D01*
X016301Y022934D02*
X016172Y022934D01*
X016203Y023032D02*
X016073Y023032D01*
X016104Y023131D02*
X015975Y023131D01*
X016908Y027268D02*
X016952Y027268D01*
X017021Y027366D02*
X016809Y027366D01*
X016711Y027465D02*
X017187Y027465D01*
X010040Y017122D02*
X005230Y017122D01*
X005230Y017024D02*
X010040Y017024D01*
X010040Y016925D02*
X005230Y016925D01*
X005230Y016827D02*
X010040Y016827D01*
X010040Y016728D02*
X005230Y016728D01*
X005230Y016630D02*
X010040Y016630D01*
X010040Y016531D02*
X005230Y016531D01*
X005230Y016433D02*
X010040Y016433D01*
X010040Y016334D02*
X005230Y016334D01*
X005230Y016236D02*
X010040Y016236D01*
X010040Y016137D02*
X005230Y016137D01*
X005230Y016039D02*
X010040Y016039D01*
X010040Y015940D02*
X005230Y015940D01*
X005230Y015842D02*
X010040Y015842D01*
X010040Y015743D02*
X005230Y015743D01*
X005230Y015645D02*
X010040Y015645D01*
X010040Y015546D02*
X005230Y015546D01*
X005230Y015448D02*
X010040Y015448D01*
X010040Y015349D02*
X005230Y015349D01*
X005230Y015251D02*
X010040Y015251D01*
X010040Y015152D02*
X005230Y015152D01*
X005230Y015054D02*
X010040Y015054D01*
X010040Y014955D02*
X005230Y014955D01*
X005230Y014857D02*
X010040Y014857D01*
X010040Y014758D02*
X005230Y014758D01*
X005230Y014660D02*
X010040Y014660D01*
X010040Y014561D02*
X005230Y014561D01*
X005230Y014463D02*
X010040Y014463D01*
X010040Y014364D02*
X005230Y014364D01*
X005230Y014266D02*
X010040Y014266D01*
X010040Y014167D02*
X005230Y014167D01*
X005230Y014069D02*
X005723Y014069D01*
X005486Y013970D02*
X005230Y013970D01*
X005230Y013872D02*
X005349Y013872D01*
X005250Y013773D02*
X005230Y013773D01*
X004770Y013773D02*
X004236Y013773D01*
X004247Y013760D02*
X004177Y013847D01*
X004097Y013927D01*
X004010Y013997D01*
X003914Y014057D01*
X003813Y014105D01*
X003707Y014142D01*
X003598Y014167D01*
X003486Y014180D01*
X003480Y014180D01*
X003480Y013230D01*
X004430Y013230D01*
X004430Y013236D01*
X004417Y013348D01*
X004392Y013457D01*
X004355Y013563D01*
X004307Y013664D01*
X004247Y013760D01*
X004300Y013675D02*
X004770Y013675D01*
X004770Y013576D02*
X004349Y013576D01*
X004385Y013478D02*
X004770Y013478D01*
X004770Y013379D02*
X004410Y013379D01*
X004425Y013281D02*
X004770Y013281D01*
X004770Y013182D02*
X003480Y013182D01*
X003480Y013230D02*
X003480Y013130D01*
X004430Y013130D01*
X004430Y013124D01*
X004417Y013012D01*
X004392Y012903D01*
X004355Y012797D01*
X004307Y012696D01*
X004247Y012600D01*
X004177Y012513D01*
X004097Y012433D01*
X004010Y012363D01*
X003914Y012303D01*
X003813Y012255D01*
X003707Y012218D01*
X003598Y012193D01*
X003486Y012180D01*
X003480Y012180D01*
X003480Y013130D01*
X003380Y013130D01*
X003380Y012180D01*
X003374Y012180D01*
X003262Y012193D01*
X003153Y012218D01*
X003047Y012255D01*
X002946Y012303D01*
X002850Y012363D01*
X002763Y012433D01*
X002683Y012513D01*
X002613Y012600D01*
X002553Y012696D01*
X002505Y012797D01*
X002468Y012903D01*
X002443Y013012D01*
X002430Y013124D01*
X002430Y013130D01*
X003380Y013130D01*
X003380Y013230D01*
X003380Y014180D01*
X003374Y014180D01*
X003262Y014167D01*
X003153Y014142D01*
X003047Y014105D01*
X002946Y014057D01*
X002850Y013997D01*
X002763Y013927D01*
X002683Y013847D01*
X002613Y013760D01*
X002553Y013664D01*
X002505Y013563D01*
X002468Y013457D01*
X002443Y013348D01*
X002430Y013236D01*
X002430Y013230D01*
X003380Y013230D01*
X003480Y013230D01*
X003480Y013281D02*
X003380Y013281D01*
X003380Y013379D02*
X003480Y013379D01*
X003480Y013478D02*
X003380Y013478D01*
X003380Y013576D02*
X003480Y013576D01*
X003480Y013675D02*
X003380Y013675D01*
X003380Y013773D02*
X003480Y013773D01*
X003480Y013872D02*
X003380Y013872D01*
X003380Y013970D02*
X003480Y013970D01*
X003480Y014069D02*
X003380Y014069D01*
X003380Y014167D02*
X003480Y014167D01*
X003599Y014167D02*
X004770Y014167D01*
X004770Y014069D02*
X003890Y014069D01*
X004043Y013970D02*
X004770Y013970D01*
X004770Y013872D02*
X004153Y013872D01*
X004770Y014266D02*
X000680Y014266D01*
X000680Y014364D02*
X004770Y014364D01*
X004770Y014463D02*
X000680Y014463D01*
X000680Y014561D02*
X004770Y014561D01*
X004770Y014660D02*
X000680Y014660D01*
X000680Y014758D02*
X004770Y014758D01*
X004770Y014857D02*
X000680Y014857D01*
X000680Y014955D02*
X004770Y014955D01*
X004770Y015054D02*
X000680Y015054D01*
X000680Y015152D02*
X004770Y015152D01*
X004770Y015251D02*
X000680Y015251D01*
X000680Y015349D02*
X004770Y015349D01*
X004770Y015448D02*
X000680Y015448D01*
X000680Y015546D02*
X004770Y015546D01*
X004770Y015645D02*
X000680Y015645D01*
X000680Y015743D02*
X004770Y015743D01*
X004770Y015842D02*
X000680Y015842D01*
X000680Y015940D02*
X004770Y015940D01*
X004770Y016039D02*
X000680Y016039D01*
X000680Y016137D02*
X004770Y016137D01*
X004770Y016236D02*
X000680Y016236D01*
X000680Y016334D02*
X004770Y016334D01*
X004770Y016433D02*
X000680Y016433D01*
X000680Y016531D02*
X004770Y016531D01*
X004770Y016630D02*
X000680Y016630D01*
X000680Y016728D02*
X004770Y016728D01*
X004770Y016827D02*
X000680Y016827D01*
X000680Y016925D02*
X004770Y016925D01*
X004770Y017024D02*
X000680Y017024D01*
X000680Y017122D02*
X004770Y017122D01*
X003480Y018304D02*
X003380Y018304D01*
X003380Y018206D02*
X000680Y018206D01*
X000680Y018304D02*
X002438Y018304D01*
X002455Y018403D02*
X000680Y018403D01*
X000680Y018501D02*
X002483Y018501D01*
X002522Y018600D02*
X000680Y018600D01*
X000680Y018698D02*
X002574Y018698D01*
X002643Y018797D02*
X000680Y018797D01*
X000680Y018895D02*
X002731Y018895D01*
X002846Y018994D02*
X000680Y018994D01*
X000680Y019092D02*
X003019Y019092D01*
X003380Y019092D02*
X003480Y019092D01*
X003480Y018994D02*
X003380Y018994D01*
X003380Y018895D02*
X003480Y018895D01*
X003480Y018797D02*
X003380Y018797D01*
X003380Y018698D02*
X003480Y018698D01*
X003480Y018600D02*
X003380Y018600D01*
X003380Y018501D02*
X003480Y018501D01*
X003480Y018403D02*
X003380Y018403D01*
X002432Y018107D02*
X000680Y018107D01*
X000680Y018009D02*
X002443Y018009D01*
X002466Y017910D02*
X000680Y017910D01*
X000680Y017812D02*
X002499Y017812D01*
X002545Y017713D02*
X000680Y017713D01*
X000680Y017615D02*
X002604Y017615D01*
X002680Y017516D02*
X000680Y017516D01*
X000680Y017418D02*
X002782Y017418D01*
X002921Y017319D02*
X000680Y017319D01*
X000680Y017221D02*
X003144Y017221D01*
X003261Y014167D02*
X000680Y014167D01*
X000680Y014069D02*
X002970Y014069D01*
X002817Y013970D02*
X000680Y013970D01*
X000680Y013872D02*
X002707Y013872D01*
X002624Y013773D02*
X000680Y013773D01*
X000680Y013675D02*
X002560Y013675D01*
X002511Y013576D02*
X000680Y013576D01*
X000680Y013478D02*
X002475Y013478D01*
X002450Y013379D02*
X000680Y013379D01*
X000680Y013281D02*
X002435Y013281D01*
X002435Y013084D02*
X000680Y013084D01*
X000680Y013182D02*
X003380Y013182D01*
X003380Y013084D02*
X003480Y013084D01*
X003480Y012985D02*
X003380Y012985D01*
X003380Y012887D02*
X003480Y012887D01*
X003480Y012788D02*
X003380Y012788D01*
X003380Y012690D02*
X003480Y012690D01*
X003480Y012591D02*
X003380Y012591D01*
X003380Y012493D02*
X003480Y012493D01*
X003480Y012394D02*
X003380Y012394D01*
X003380Y012296D02*
X003480Y012296D01*
X003480Y012197D02*
X003380Y012197D01*
X003243Y012197D02*
X000680Y012197D01*
X000680Y012099D02*
X004770Y012099D01*
X004770Y012197D02*
X003617Y012197D01*
X003898Y012296D02*
X004770Y012296D01*
X004770Y012394D02*
X004048Y012394D01*
X004157Y012493D02*
X004770Y012493D01*
X004770Y012591D02*
X004239Y012591D01*
X004303Y012690D02*
X004770Y012690D01*
X004770Y012788D02*
X004351Y012788D01*
X004387Y012887D02*
X004770Y012887D01*
X004770Y012985D02*
X004411Y012985D01*
X004425Y013084D02*
X004770Y013084D01*
X005230Y012591D02*
X005246Y012591D01*
X005230Y012493D02*
X005345Y012493D01*
X005230Y012394D02*
X005476Y012394D01*
X005713Y012296D02*
X005230Y012296D01*
X005230Y012197D02*
X010040Y012197D01*
X010040Y012099D02*
X005230Y012099D01*
X005230Y012000D02*
X010040Y012000D01*
X010040Y011902D02*
X005300Y011902D01*
X004770Y012000D02*
X000680Y012000D01*
X000680Y011902D02*
X004700Y011902D01*
X004660Y011803D02*
X000680Y011803D01*
X000680Y011705D02*
X004650Y011705D01*
X004664Y011606D02*
X000680Y011606D01*
X000680Y011508D02*
X004707Y011508D01*
X006147Y012296D02*
X010040Y012296D01*
X010040Y012394D02*
X006384Y012394D01*
X006515Y012493D02*
X010040Y012493D01*
X010040Y012591D02*
X006614Y012591D01*
X006701Y012690D02*
X010040Y012690D01*
X010040Y012788D02*
X006742Y012788D01*
X006783Y012887D02*
X010040Y012887D01*
X010040Y012985D02*
X006823Y012985D01*
X006830Y013084D02*
X010040Y013084D01*
X010040Y013182D02*
X006830Y013182D01*
X006830Y013281D02*
X010040Y013281D01*
X010040Y013379D02*
X006822Y013379D01*
X006781Y013478D02*
X010040Y013478D01*
X010040Y013576D02*
X006740Y013576D01*
X006699Y013675D02*
X010040Y013675D01*
X010040Y013773D02*
X006610Y013773D01*
X006511Y013872D02*
X010040Y013872D01*
X010040Y013970D02*
X006374Y013970D01*
X006137Y014069D02*
X010040Y014069D01*
X010500Y013773D02*
X010547Y013773D01*
X011771Y012788D02*
X013639Y012788D01*
X013450Y012887D02*
X011960Y012887D01*
X012059Y012985D02*
X013351Y012985D01*
X013299Y013084D02*
X012111Y013084D01*
X012151Y013182D02*
X013259Y013182D01*
X013250Y013281D02*
X012160Y013281D01*
X012160Y013379D02*
X013250Y013379D01*
X013275Y013478D02*
X012135Y013478D01*
X012094Y013576D02*
X013316Y013576D01*
X013391Y013675D02*
X012019Y013675D01*
X011913Y013773D02*
X013497Y013773D01*
X013497Y011803D02*
X011913Y011803D01*
X012019Y011705D02*
X013391Y011705D01*
X013316Y011606D02*
X012094Y011606D01*
X012135Y011508D02*
X012272Y011508D01*
X012174Y011409D02*
X012160Y011409D01*
X012918Y011015D02*
X013351Y011015D01*
X013450Y010917D02*
X012920Y010917D01*
X012898Y010818D02*
X013639Y010818D01*
X012845Y010720D02*
X017745Y010720D01*
X017647Y010818D02*
X014721Y010818D01*
X014910Y010917D02*
X017548Y010917D01*
X017450Y011015D02*
X015009Y011015D01*
X015061Y011114D02*
X017351Y011114D01*
X017253Y011212D02*
X015101Y011212D01*
X015110Y011311D02*
X017154Y011311D01*
X017056Y011409D02*
X015110Y011409D01*
X015085Y011508D02*
X016957Y011508D01*
X016859Y011606D02*
X015044Y011606D01*
X014969Y011705D02*
X016760Y011705D01*
X016662Y011803D02*
X014863Y011803D01*
X014929Y010424D02*
X012209Y010424D01*
X012111Y010326D02*
X014838Y010326D01*
X014797Y010227D02*
X012012Y010227D01*
X011914Y010129D02*
X014790Y010129D01*
X014807Y010030D02*
X011815Y010030D01*
X011717Y009932D02*
X014854Y009932D01*
X015370Y009833D02*
X018530Y009833D01*
X018530Y009735D02*
X015370Y009735D01*
X015370Y009636D02*
X018530Y009636D01*
X018530Y009538D02*
X015343Y009538D01*
X015244Y009439D02*
X018530Y009439D01*
X018530Y009341D02*
X015146Y009341D01*
X015047Y009242D02*
X018530Y009242D01*
X018530Y009144D02*
X014949Y009144D01*
X014850Y009045D02*
X018530Y009045D01*
X018530Y008947D02*
X014888Y008947D01*
X014981Y008848D02*
X018530Y008848D01*
X018530Y008750D02*
X015022Y008750D01*
X015030Y008651D02*
X018530Y008651D01*
X018530Y008553D02*
X015014Y008553D01*
X014969Y008454D02*
X018530Y008454D01*
X018530Y008356D02*
X014910Y008356D01*
X014910Y008257D02*
X018530Y008257D01*
X018530Y008159D02*
X014910Y008159D01*
X014910Y008060D02*
X018530Y008060D01*
X018147Y007962D02*
X014910Y007962D01*
X015426Y009932D02*
X018530Y009932D01*
X018435Y010030D02*
X015473Y010030D01*
X015490Y010129D02*
X018336Y010129D01*
X018238Y010227D02*
X015483Y010227D01*
X015442Y010326D02*
X018139Y010326D01*
X018041Y010424D02*
X015351Y010424D01*
X017844Y010621D02*
X012715Y010621D01*
X012425Y010621D02*
X012406Y010621D01*
X012308Y010523D02*
X017942Y010523D01*
X019870Y010523D02*
X021992Y010523D01*
X021894Y010621D02*
X019870Y010621D01*
X019870Y010720D02*
X021795Y010720D01*
X021697Y010818D02*
X019870Y010818D01*
X019870Y010917D02*
X021598Y010917D01*
X021500Y011015D02*
X019870Y011015D01*
X019870Y011114D02*
X021231Y011114D01*
X021145Y011212D02*
X019945Y011212D01*
X019986Y011311D02*
X021104Y011311D01*
X021100Y011409D02*
X019990Y011409D01*
X019970Y011508D02*
X021120Y011508D01*
X021780Y011508D02*
X028330Y011508D01*
X028330Y011606D02*
X026831Y011606D01*
X026930Y011705D02*
X028330Y011705D01*
X028330Y011803D02*
X027028Y011803D01*
X027127Y011902D02*
X027583Y011902D01*
X027425Y012000D02*
X027225Y012000D01*
X027324Y012099D02*
X027360Y012099D01*
X027777Y011902D02*
X028330Y011902D01*
X028330Y012000D02*
X027935Y012000D01*
X028000Y012099D02*
X028330Y012099D01*
X028330Y012197D02*
X028030Y012197D01*
X028061Y012296D02*
X028330Y012296D01*
X028330Y012394D02*
X028159Y012394D01*
X028258Y012493D02*
X028330Y012493D01*
X028330Y011409D02*
X021800Y011409D01*
X021855Y011311D02*
X028330Y011311D01*
X028330Y011212D02*
X021953Y011212D01*
X022052Y011114D02*
X028330Y011114D01*
X028330Y011015D02*
X022150Y011015D01*
X022249Y010917D02*
X028271Y010917D01*
X028173Y010818D02*
X022347Y010818D01*
X022446Y010720D02*
X028074Y010720D01*
X027976Y010621D02*
X022544Y010621D01*
X022643Y010523D02*
X027877Y010523D01*
X027779Y010424D02*
X022741Y010424D01*
X022840Y010326D02*
X027680Y010326D01*
X027582Y010227D02*
X022938Y010227D01*
X023037Y010129D02*
X027483Y010129D01*
X027385Y010030D02*
X023135Y010030D01*
X023234Y009932D02*
X027286Y009932D01*
X027188Y009833D02*
X023436Y009833D01*
X023600Y009735D02*
X027089Y009735D01*
X026991Y009636D02*
X023668Y009636D01*
X023700Y009538D02*
X026892Y009538D01*
X026794Y009439D02*
X023700Y009439D01*
X023667Y009341D02*
X026695Y009341D01*
X026597Y009242D02*
X023597Y009242D01*
X023428Y009144D02*
X026498Y009144D01*
X026400Y009045D02*
X019870Y009045D01*
X019870Y008947D02*
X026301Y008947D01*
X026203Y008848D02*
X019870Y008848D01*
X019870Y008750D02*
X026104Y008750D01*
X026006Y008651D02*
X019870Y008651D01*
X019870Y008553D02*
X025907Y008553D01*
X025809Y008454D02*
X019870Y008454D01*
X019870Y008356D02*
X021531Y008356D01*
X021444Y008257D02*
X019870Y008257D01*
X019870Y008159D02*
X021404Y008159D01*
X021400Y008060D02*
X019870Y008060D01*
X019870Y007962D02*
X021420Y007962D01*
X021472Y007863D02*
X019870Y007863D01*
X019870Y007765D02*
X021597Y007765D01*
X021903Y007765D02*
X022660Y007765D01*
X022759Y007666D02*
X019870Y007666D01*
X019870Y007568D02*
X022857Y007568D01*
X023192Y007247D02*
X023093Y007148D01*
X023040Y007020D01*
X023040Y006925D01*
X022395Y006280D01*
X022300Y006280D01*
X022172Y006227D01*
X022073Y006128D01*
X022020Y006000D01*
X022020Y005860D01*
X022073Y005732D01*
X022172Y005633D01*
X022300Y005580D01*
X022440Y005580D01*
X022568Y005633D01*
X022667Y005732D01*
X022720Y005860D01*
X022720Y005955D01*
X023365Y006600D01*
X023460Y006600D01*
X023588Y006653D01*
X023687Y006752D01*
X023740Y006880D01*
X023740Y007020D01*
X023687Y007148D01*
X023588Y007247D01*
X023460Y007300D01*
X023320Y007300D01*
X023192Y007247D01*
X023253Y007272D02*
X019870Y007272D01*
X019870Y007174D02*
X023119Y007174D01*
X023063Y007075D02*
X019870Y007075D01*
X019870Y006977D02*
X020022Y006977D01*
X019929Y006878D02*
X019870Y006878D01*
X019870Y006780D02*
X019888Y006780D01*
X019880Y006681D02*
X019870Y006681D01*
X019870Y006583D02*
X019896Y006583D01*
X019870Y006484D02*
X019941Y006484D01*
X020000Y006386D02*
X019870Y006386D01*
X019870Y006287D02*
X020000Y006287D01*
X020000Y006189D02*
X019876Y006189D01*
X019953Y006090D02*
X020000Y006090D01*
X020460Y006090D02*
X022057Y006090D01*
X022020Y005992D02*
X020460Y005992D01*
X020460Y005893D02*
X022020Y005893D01*
X022047Y005795D02*
X020370Y005795D01*
X020271Y005696D02*
X022109Y005696D01*
X022258Y005598D02*
X020173Y005598D01*
X020074Y005499D02*
X024574Y005499D01*
X024672Y005598D02*
X022482Y005598D01*
X022631Y005696D02*
X024771Y005696D01*
X024869Y005795D02*
X022693Y005795D01*
X022720Y005893D02*
X024968Y005893D01*
X025066Y005992D02*
X022757Y005992D01*
X022855Y006090D02*
X025165Y006090D01*
X025263Y006189D02*
X022954Y006189D01*
X023052Y006287D02*
X025362Y006287D01*
X025460Y006386D02*
X023151Y006386D01*
X023249Y006484D02*
X025530Y006484D01*
X025530Y006583D02*
X023348Y006583D01*
X023616Y006681D02*
X025530Y006681D01*
X025530Y006780D02*
X023698Y006780D01*
X023739Y006878D02*
X025530Y006878D01*
X025530Y006977D02*
X023740Y006977D01*
X023717Y007075D02*
X025530Y007075D01*
X025530Y007174D02*
X023661Y007174D01*
X023527Y007272D02*
X025530Y007272D01*
X025530Y007371D02*
X025499Y007371D01*
X025261Y007371D02*
X019870Y007371D01*
X019870Y007469D02*
X025116Y007469D01*
X025147Y007962D02*
X023114Y007962D01*
X023015Y008060D02*
X025530Y008060D01*
X025530Y008159D02*
X022917Y008159D01*
X022818Y008257D02*
X025612Y008257D01*
X025710Y008356D02*
X021969Y008356D01*
X023033Y009341D02*
X019870Y009341D01*
X019870Y009439D02*
X023000Y009439D01*
X022977Y009538D02*
X019870Y009538D01*
X019870Y009636D02*
X022879Y009636D01*
X022780Y009735D02*
X019870Y009735D01*
X019870Y009833D02*
X022682Y009833D01*
X022583Y009932D02*
X019870Y009932D01*
X019870Y010030D02*
X022485Y010030D01*
X022386Y010129D02*
X019870Y010129D01*
X019870Y010227D02*
X022288Y010227D01*
X022189Y010326D02*
X019870Y010326D01*
X019870Y010424D02*
X022091Y010424D01*
X023103Y009242D02*
X019870Y009242D01*
X019870Y009144D02*
X023272Y009144D01*
X023040Y006977D02*
X020438Y006977D01*
X020531Y006878D02*
X022993Y006878D01*
X022894Y006780D02*
X020572Y006780D01*
X020580Y006681D02*
X022796Y006681D01*
X022697Y006583D02*
X020564Y006583D01*
X020519Y006484D02*
X022599Y006484D01*
X022500Y006386D02*
X020460Y006386D01*
X020460Y006287D02*
X022402Y006287D01*
X022134Y006189D02*
X020460Y006189D01*
X019976Y005401D02*
X024475Y005401D01*
X025990Y007666D02*
X027572Y007666D01*
X027421Y007765D02*
X025990Y007765D01*
X025990Y007863D02*
X027358Y007863D01*
X027330Y007962D02*
X025990Y007962D01*
X026065Y008060D02*
X027330Y008060D01*
X027367Y008159D02*
X026164Y008159D01*
X026262Y008257D02*
X027442Y008257D01*
X027450Y008356D02*
X026361Y008356D01*
X026459Y008454D02*
X027450Y008454D01*
X027450Y008553D02*
X026558Y008553D01*
X026656Y008651D02*
X027450Y008651D01*
X027450Y008750D02*
X026755Y008750D01*
X026853Y008848D02*
X027450Y008848D01*
X027450Y008947D02*
X026952Y008947D01*
X027050Y009045D02*
X027450Y009045D01*
X027450Y009144D02*
X027149Y009144D01*
X027247Y009242D02*
X027450Y009242D01*
X027450Y009341D02*
X027346Y009341D01*
X027444Y009439D02*
X027450Y009439D01*
X027910Y009439D02*
X028950Y009439D01*
X028950Y009341D02*
X027910Y009341D01*
X027910Y009242D02*
X028950Y009242D01*
X028950Y009144D02*
X027910Y009144D01*
X027910Y009045D02*
X028950Y009045D01*
X028950Y008947D02*
X027910Y008947D01*
X027910Y008848D02*
X028950Y008848D01*
X028950Y008750D02*
X027910Y008750D01*
X027910Y008651D02*
X028950Y008651D01*
X028950Y008553D02*
X027910Y008553D01*
X027910Y008454D02*
X028950Y008454D01*
X028950Y008356D02*
X027910Y008356D01*
X027918Y008257D02*
X028942Y008257D01*
X028867Y008159D02*
X027993Y008159D01*
X028030Y008060D02*
X028830Y008060D01*
X028830Y007962D02*
X028030Y007962D01*
X028002Y007863D02*
X028858Y007863D01*
X028921Y007765D02*
X027939Y007765D01*
X027788Y007666D02*
X029072Y007666D01*
X028950Y009538D02*
X027913Y009538D01*
X028011Y009636D02*
X028950Y009636D01*
X028950Y009735D02*
X028110Y009735D01*
X028208Y009833D02*
X028950Y009833D01*
X028950Y009932D02*
X028307Y009932D01*
X028405Y010030D02*
X028950Y010030D01*
X028950Y010129D02*
X028504Y010129D01*
X028602Y010227D02*
X028950Y010227D01*
X029000Y010326D02*
X028701Y010326D01*
X028799Y010424D02*
X029050Y010424D01*
X029072Y010523D02*
X028898Y010523D01*
X028996Y010621D02*
X029126Y010621D01*
X029095Y010720D02*
X029257Y010720D01*
X029680Y000771D02*
X000680Y000771D01*
X000680Y000870D02*
X013485Y000870D01*
X013387Y000968D02*
X000680Y000968D01*
X000680Y001067D02*
X013288Y001067D01*
X013190Y001165D02*
X000680Y001165D01*
X000680Y001264D02*
X013091Y001264D01*
X012993Y001362D02*
X000680Y001362D01*
X000680Y005992D02*
X010714Y005992D01*
X010661Y006090D02*
X000680Y006090D01*
X000680Y006189D02*
X010640Y006189D01*
X010643Y006287D02*
X000680Y006287D01*
X000680Y006386D02*
X010684Y006386D01*
X010769Y006484D02*
X000680Y006484D01*
X000680Y006583D02*
X010872Y006583D01*
X010774Y006681D02*
X000680Y006681D01*
X000680Y006780D02*
X010675Y006780D01*
X010577Y006878D02*
X000680Y006878D01*
X000680Y006977D02*
X010478Y006977D01*
X010380Y007075D02*
X008860Y007075D01*
X008959Y007174D02*
X010281Y007174D01*
X010183Y007272D02*
X009057Y007272D01*
X009156Y007371D02*
X010084Y007371D01*
X009986Y007469D02*
X009254Y007469D01*
X009353Y007568D02*
X009754Y007568D01*
X009619Y007666D02*
X009451Y007666D01*
X009550Y007765D02*
X009563Y007765D01*
X009219Y008454D02*
X006791Y008454D01*
X006750Y008553D02*
X009317Y008553D01*
X009416Y008651D02*
X006709Y008651D01*
X006633Y008750D02*
X009514Y008750D01*
X009613Y008848D02*
X006535Y008848D01*
X006431Y008947D02*
X009711Y008947D01*
X009810Y009045D02*
X006193Y009045D01*
X005667Y009045D02*
X003693Y009045D01*
X003931Y008947D02*
X005429Y008947D01*
X005325Y008848D02*
X004035Y008848D01*
X004133Y008750D02*
X005227Y008750D01*
X005151Y008651D02*
X004209Y008651D01*
X004250Y008553D02*
X005110Y008553D01*
X005069Y008454D02*
X004291Y008454D01*
X004330Y008356D02*
X005030Y008356D01*
X005030Y008257D02*
X004330Y008257D01*
X004330Y008159D02*
X005030Y008159D01*
X005030Y008060D02*
X004330Y008060D01*
X004314Y007962D02*
X005046Y007962D01*
X005087Y007863D02*
X004273Y007863D01*
X004232Y007765D02*
X005128Y007765D01*
X005171Y007666D02*
X004269Y007666D01*
X004368Y007568D02*
X005270Y007568D01*
X004210Y007075D02*
X000680Y007075D01*
X000680Y007174D02*
X004111Y007174D01*
X004013Y007272D02*
X000680Y007272D01*
X000680Y007371D02*
X003032Y007371D01*
X002868Y007469D02*
X000680Y007469D01*
X000680Y007568D02*
X002770Y007568D01*
X002671Y007666D02*
X000680Y007666D01*
X000680Y007765D02*
X002628Y007765D01*
X002587Y007863D02*
X000680Y007863D01*
X000680Y007962D02*
X002546Y007962D01*
X002530Y008060D02*
X000680Y008060D01*
X000680Y008159D02*
X002530Y008159D01*
X002530Y008257D02*
X000680Y008257D01*
X000680Y008356D02*
X002530Y008356D01*
X002569Y008454D02*
X000680Y008454D01*
X000680Y008553D02*
X002610Y008553D01*
X002651Y008651D02*
X000680Y008651D01*
X000680Y008750D02*
X002727Y008750D01*
X002825Y008848D02*
X000680Y008848D01*
X000680Y008947D02*
X002929Y008947D01*
X003167Y009045D02*
X000680Y009045D01*
X000680Y009144D02*
X009908Y009144D01*
X010007Y009242D02*
X000680Y009242D01*
X000680Y009341D02*
X010105Y009341D01*
X010204Y009439D02*
X000680Y009439D01*
X000680Y012296D02*
X002962Y012296D01*
X002812Y012394D02*
X000680Y012394D01*
X000680Y012493D02*
X002703Y012493D01*
X002621Y012591D02*
X000680Y012591D01*
X000680Y012690D02*
X002557Y012690D01*
X002509Y012788D02*
X000680Y012788D01*
X000680Y012887D02*
X002473Y012887D01*
X002449Y012985D02*
X000680Y012985D01*
X003828Y007371D02*
X003914Y007371D01*
X014130Y002643D02*
X014230Y002643D01*
X014230Y002544D02*
X014130Y002544D01*
X014130Y002446D02*
X014230Y002446D01*
X014230Y002347D02*
X014130Y002347D01*
X014130Y002249D02*
X014230Y002249D01*
X014230Y001953D02*
X014130Y001953D01*
X014130Y001855D02*
X014230Y001855D01*
X014230Y001756D02*
X014130Y001756D01*
X014130Y001658D02*
X014230Y001658D01*
X014126Y001559D02*
X016476Y001559D01*
X016377Y001658D02*
X014435Y001658D01*
X014630Y003234D02*
X014630Y003234D01*
X014630Y003332D02*
X014630Y003332D01*
X014653Y003431D02*
X014566Y003431D01*
X014467Y003529D02*
X014751Y003529D01*
X014850Y003628D02*
X014369Y003628D01*
X005680Y027760D02*
X003911Y027760D01*
X003907Y027859D02*
X005680Y027859D01*
X005680Y027957D02*
X003880Y027957D01*
X003854Y028056D02*
X005680Y028056D01*
X005680Y028154D02*
X003827Y028154D01*
X003771Y028253D02*
X005680Y028253D01*
X005680Y028351D02*
X003714Y028351D01*
X003651Y028450D02*
X005680Y028450D01*
X005680Y028548D02*
X003553Y028548D01*
X003454Y028647D02*
X005680Y028647D01*
X005680Y028745D02*
X003297Y028745D01*
X003094Y028844D02*
X005680Y028844D01*
M02*
