G75*
G70*
%OFA0B0*%
%FSLAX24Y24*%
%IPPOS*%
%LPD*%
%AMOC8*
5,1,8,0,0,1.08239X$1,22.5*
%
%ADD10C,0.0000*%
%ADD11R,0.0866X0.0236*%
%ADD12R,0.0394X0.1181*%
%ADD13R,0.0710X0.0630*%
%ADD14R,0.0551X0.0394*%
%ADD15R,0.0630X0.0709*%
%ADD16R,0.2441X0.2126*%
%ADD17R,0.0630X0.0394*%
%ADD18R,0.0480X0.0880*%
%ADD19R,0.1417X0.0866*%
%ADD20R,0.0591X0.0591*%
%ADD21C,0.0780*%
%ADD22C,0.1500*%
%ADD23OC8,0.0600*%
%ADD24C,0.0160*%
%ADD25C,0.0400*%
%ADD26C,0.0100*%
D10*
X000180Y000180D02*
X000180Y030180D01*
X030180Y030180D01*
X030180Y000180D01*
X000180Y000180D01*
X001899Y002680D02*
X001901Y002736D01*
X001907Y002791D01*
X001917Y002846D01*
X001931Y002900D01*
X001948Y002953D01*
X001970Y003004D01*
X001995Y003054D01*
X002023Y003102D01*
X002055Y003148D01*
X002090Y003191D01*
X002128Y003232D01*
X002169Y003270D01*
X002212Y003305D01*
X002258Y003337D01*
X002306Y003365D01*
X002356Y003390D01*
X002407Y003412D01*
X002460Y003429D01*
X002514Y003443D01*
X002569Y003453D01*
X002624Y003459D01*
X002680Y003461D01*
X002736Y003459D01*
X002791Y003453D01*
X002846Y003443D01*
X002900Y003429D01*
X002953Y003412D01*
X003004Y003390D01*
X003054Y003365D01*
X003102Y003337D01*
X003148Y003305D01*
X003191Y003270D01*
X003232Y003232D01*
X003270Y003191D01*
X003305Y003148D01*
X003337Y003102D01*
X003365Y003054D01*
X003390Y003004D01*
X003412Y002953D01*
X003429Y002900D01*
X003443Y002846D01*
X003453Y002791D01*
X003459Y002736D01*
X003461Y002680D01*
X003459Y002624D01*
X003453Y002569D01*
X003443Y002514D01*
X003429Y002460D01*
X003412Y002407D01*
X003390Y002356D01*
X003365Y002306D01*
X003337Y002258D01*
X003305Y002212D01*
X003270Y002169D01*
X003232Y002128D01*
X003191Y002090D01*
X003148Y002055D01*
X003102Y002023D01*
X003054Y001995D01*
X003004Y001970D01*
X002953Y001948D01*
X002900Y001931D01*
X002846Y001917D01*
X002791Y001907D01*
X002736Y001901D01*
X002680Y001899D01*
X002624Y001901D01*
X002569Y001907D01*
X002514Y001917D01*
X002460Y001931D01*
X002407Y001948D01*
X002356Y001970D01*
X002306Y001995D01*
X002258Y002023D01*
X002212Y002055D01*
X002169Y002090D01*
X002128Y002128D01*
X002090Y002169D01*
X002055Y002212D01*
X002023Y002258D01*
X001995Y002306D01*
X001970Y002356D01*
X001948Y002407D01*
X001931Y002460D01*
X001917Y002514D01*
X001907Y002569D01*
X001901Y002624D01*
X001899Y002680D01*
X001899Y027680D02*
X001901Y027736D01*
X001907Y027791D01*
X001917Y027846D01*
X001931Y027900D01*
X001948Y027953D01*
X001970Y028004D01*
X001995Y028054D01*
X002023Y028102D01*
X002055Y028148D01*
X002090Y028191D01*
X002128Y028232D01*
X002169Y028270D01*
X002212Y028305D01*
X002258Y028337D01*
X002306Y028365D01*
X002356Y028390D01*
X002407Y028412D01*
X002460Y028429D01*
X002514Y028443D01*
X002569Y028453D01*
X002624Y028459D01*
X002680Y028461D01*
X002736Y028459D01*
X002791Y028453D01*
X002846Y028443D01*
X002900Y028429D01*
X002953Y028412D01*
X003004Y028390D01*
X003054Y028365D01*
X003102Y028337D01*
X003148Y028305D01*
X003191Y028270D01*
X003232Y028232D01*
X003270Y028191D01*
X003305Y028148D01*
X003337Y028102D01*
X003365Y028054D01*
X003390Y028004D01*
X003412Y027953D01*
X003429Y027900D01*
X003443Y027846D01*
X003453Y027791D01*
X003459Y027736D01*
X003461Y027680D01*
X003459Y027624D01*
X003453Y027569D01*
X003443Y027514D01*
X003429Y027460D01*
X003412Y027407D01*
X003390Y027356D01*
X003365Y027306D01*
X003337Y027258D01*
X003305Y027212D01*
X003270Y027169D01*
X003232Y027128D01*
X003191Y027090D01*
X003148Y027055D01*
X003102Y027023D01*
X003054Y026995D01*
X003004Y026970D01*
X002953Y026948D01*
X002900Y026931D01*
X002846Y026917D01*
X002791Y026907D01*
X002736Y026901D01*
X002680Y026899D01*
X002624Y026901D01*
X002569Y026907D01*
X002514Y026917D01*
X002460Y026931D01*
X002407Y026948D01*
X002356Y026970D01*
X002306Y026995D01*
X002258Y027023D01*
X002212Y027055D01*
X002169Y027090D01*
X002128Y027128D01*
X002090Y027169D01*
X002055Y027212D01*
X002023Y027258D01*
X001995Y027306D01*
X001970Y027356D01*
X001948Y027407D01*
X001931Y027460D01*
X001917Y027514D01*
X001907Y027569D01*
X001901Y027624D01*
X001899Y027680D01*
X026899Y027680D02*
X026901Y027736D01*
X026907Y027791D01*
X026917Y027846D01*
X026931Y027900D01*
X026948Y027953D01*
X026970Y028004D01*
X026995Y028054D01*
X027023Y028102D01*
X027055Y028148D01*
X027090Y028191D01*
X027128Y028232D01*
X027169Y028270D01*
X027212Y028305D01*
X027258Y028337D01*
X027306Y028365D01*
X027356Y028390D01*
X027407Y028412D01*
X027460Y028429D01*
X027514Y028443D01*
X027569Y028453D01*
X027624Y028459D01*
X027680Y028461D01*
X027736Y028459D01*
X027791Y028453D01*
X027846Y028443D01*
X027900Y028429D01*
X027953Y028412D01*
X028004Y028390D01*
X028054Y028365D01*
X028102Y028337D01*
X028148Y028305D01*
X028191Y028270D01*
X028232Y028232D01*
X028270Y028191D01*
X028305Y028148D01*
X028337Y028102D01*
X028365Y028054D01*
X028390Y028004D01*
X028412Y027953D01*
X028429Y027900D01*
X028443Y027846D01*
X028453Y027791D01*
X028459Y027736D01*
X028461Y027680D01*
X028459Y027624D01*
X028453Y027569D01*
X028443Y027514D01*
X028429Y027460D01*
X028412Y027407D01*
X028390Y027356D01*
X028365Y027306D01*
X028337Y027258D01*
X028305Y027212D01*
X028270Y027169D01*
X028232Y027128D01*
X028191Y027090D01*
X028148Y027055D01*
X028102Y027023D01*
X028054Y026995D01*
X028004Y026970D01*
X027953Y026948D01*
X027900Y026931D01*
X027846Y026917D01*
X027791Y026907D01*
X027736Y026901D01*
X027680Y026899D01*
X027624Y026901D01*
X027569Y026907D01*
X027514Y026917D01*
X027460Y026931D01*
X027407Y026948D01*
X027356Y026970D01*
X027306Y026995D01*
X027258Y027023D01*
X027212Y027055D01*
X027169Y027090D01*
X027128Y027128D01*
X027090Y027169D01*
X027055Y027212D01*
X027023Y027258D01*
X026995Y027306D01*
X026970Y027356D01*
X026948Y027407D01*
X026931Y027460D01*
X026917Y027514D01*
X026907Y027569D01*
X026901Y027624D01*
X026899Y027680D01*
X026899Y002680D02*
X026901Y002736D01*
X026907Y002791D01*
X026917Y002846D01*
X026931Y002900D01*
X026948Y002953D01*
X026970Y003004D01*
X026995Y003054D01*
X027023Y003102D01*
X027055Y003148D01*
X027090Y003191D01*
X027128Y003232D01*
X027169Y003270D01*
X027212Y003305D01*
X027258Y003337D01*
X027306Y003365D01*
X027356Y003390D01*
X027407Y003412D01*
X027460Y003429D01*
X027514Y003443D01*
X027569Y003453D01*
X027624Y003459D01*
X027680Y003461D01*
X027736Y003459D01*
X027791Y003453D01*
X027846Y003443D01*
X027900Y003429D01*
X027953Y003412D01*
X028004Y003390D01*
X028054Y003365D01*
X028102Y003337D01*
X028148Y003305D01*
X028191Y003270D01*
X028232Y003232D01*
X028270Y003191D01*
X028305Y003148D01*
X028337Y003102D01*
X028365Y003054D01*
X028390Y003004D01*
X028412Y002953D01*
X028429Y002900D01*
X028443Y002846D01*
X028453Y002791D01*
X028459Y002736D01*
X028461Y002680D01*
X028459Y002624D01*
X028453Y002569D01*
X028443Y002514D01*
X028429Y002460D01*
X028412Y002407D01*
X028390Y002356D01*
X028365Y002306D01*
X028337Y002258D01*
X028305Y002212D01*
X028270Y002169D01*
X028232Y002128D01*
X028191Y002090D01*
X028148Y002055D01*
X028102Y002023D01*
X028054Y001995D01*
X028004Y001970D01*
X027953Y001948D01*
X027900Y001931D01*
X027846Y001917D01*
X027791Y001907D01*
X027736Y001901D01*
X027680Y001899D01*
X027624Y001901D01*
X027569Y001907D01*
X027514Y001917D01*
X027460Y001931D01*
X027407Y001948D01*
X027356Y001970D01*
X027306Y001995D01*
X027258Y002023D01*
X027212Y002055D01*
X027169Y002090D01*
X027128Y002128D01*
X027090Y002169D01*
X027055Y002212D01*
X027023Y002258D01*
X026995Y002306D01*
X026970Y002356D01*
X026948Y002407D01*
X026931Y002460D01*
X026917Y002514D01*
X026907Y002569D01*
X026901Y002624D01*
X026899Y002680D01*
D11*
X019204Y013180D03*
X019204Y013680D03*
X019204Y014180D03*
X019204Y014680D03*
X019204Y015180D03*
X019204Y015680D03*
X019204Y016180D03*
X019204Y018180D03*
X019204Y018680D03*
X019204Y019180D03*
X019204Y019680D03*
X019204Y020180D03*
X019204Y020680D03*
X019204Y021180D03*
X017156Y021180D03*
X017156Y020680D03*
X017156Y020180D03*
X017156Y019680D03*
X017156Y019180D03*
X017156Y018680D03*
X017156Y018180D03*
X017156Y016180D03*
X017156Y015680D03*
X017156Y015180D03*
X017156Y014680D03*
X017156Y014180D03*
X017156Y013680D03*
X017156Y013180D03*
D12*
X022176Y014794D03*
X023180Y013066D03*
X024184Y014794D03*
X023180Y016566D03*
X022176Y018294D03*
X024184Y018294D03*
X023180Y020066D03*
X022176Y021794D03*
X024184Y021794D03*
X023180Y023566D03*
X027176Y021794D03*
X028180Y020066D03*
X029184Y021794D03*
X028180Y023566D03*
X027176Y018294D03*
X028180Y016566D03*
X029184Y018294D03*
X029184Y014794D03*
X028180Y013066D03*
X027176Y014794D03*
X027176Y011294D03*
X029184Y011294D03*
X024184Y011294D03*
X022176Y011294D03*
D13*
X027680Y009740D03*
X027680Y008620D03*
X027680Y007240D03*
X027680Y006120D03*
X029180Y006120D03*
X029180Y007240D03*
X029180Y008620D03*
X029180Y009740D03*
X024180Y003740D03*
X024180Y002620D03*
X022180Y002620D03*
X022180Y003740D03*
X020180Y003740D03*
X020180Y002620D03*
X010180Y002620D03*
X010180Y003740D03*
X008180Y003740D03*
X008180Y002620D03*
X006180Y002620D03*
X006180Y003740D03*
X008930Y020370D03*
X008930Y021490D03*
X008180Y024620D03*
X008180Y025740D03*
X006180Y025740D03*
X006180Y024620D03*
X010180Y024620D03*
X010180Y025740D03*
X012180Y025740D03*
X012180Y024620D03*
X014180Y024620D03*
X014180Y025740D03*
X016180Y025740D03*
X016180Y024620D03*
X018180Y024620D03*
X018180Y025740D03*
X020180Y026240D03*
X020180Y025120D03*
X022180Y025120D03*
X022180Y026240D03*
X022180Y027620D03*
X022180Y028740D03*
X024180Y028740D03*
X024180Y027620D03*
X024180Y026240D03*
X024180Y025120D03*
X020180Y027620D03*
X020180Y028740D03*
D14*
X015113Y023554D03*
X015113Y022806D03*
X014247Y023180D03*
D15*
X012731Y023180D03*
X011629Y023180D03*
X010231Y023180D03*
X009129Y023180D03*
X007731Y023180D03*
X006629Y023180D03*
X006629Y021680D03*
X007731Y021680D03*
D16*
X002196Y022680D03*
D17*
X005070Y021782D03*
X005070Y023578D03*
D18*
X010270Y006960D03*
X011180Y006960D03*
X012090Y006960D03*
X013770Y006960D03*
X014680Y006960D03*
X015590Y006960D03*
X017270Y006960D03*
X018180Y006960D03*
X019090Y006960D03*
X020770Y006960D03*
X021680Y006960D03*
X022590Y006960D03*
X024270Y006960D03*
X025180Y006960D03*
X026090Y006960D03*
D19*
X025180Y009400D03*
X021680Y009400D03*
X018180Y009400D03*
X014680Y009400D03*
X011180Y009400D03*
D20*
X010180Y027491D03*
X010180Y028869D03*
X008180Y028869D03*
X008180Y027491D03*
X006180Y027491D03*
X006180Y028869D03*
X012180Y028869D03*
X012180Y027491D03*
X014180Y027491D03*
X014180Y028869D03*
X016180Y028869D03*
X016180Y027491D03*
X018180Y027491D03*
X018180Y028869D03*
D21*
X014570Y021180D02*
X013790Y021180D01*
X011620Y021180D02*
X010840Y021180D01*
X010840Y013310D02*
X011620Y013310D01*
X011620Y011340D02*
X010840Y011340D01*
X013790Y011340D02*
X014570Y011340D01*
X014570Y013310D02*
X013790Y013310D01*
D22*
X005930Y013180D03*
X003430Y013180D03*
X003430Y018180D03*
X005930Y018180D03*
X005930Y008180D03*
X003430Y008180D03*
D23*
X013180Y003180D03*
X013180Y002180D03*
X014180Y002180D03*
X014180Y003180D03*
X015180Y003180D03*
X015180Y002180D03*
X016180Y002180D03*
X016180Y003180D03*
X017180Y003180D03*
X017180Y002180D03*
D24*
X016180Y003180D02*
X015180Y002180D01*
X014700Y002660D01*
X014020Y002660D01*
X013500Y003180D01*
X013180Y003180D01*
X012560Y003240D02*
X015530Y006210D01*
X015590Y006950D02*
X015590Y006960D01*
X015590Y006950D02*
X015930Y006950D01*
X016570Y006310D01*
X024560Y006310D01*
X025180Y006930D01*
X025180Y006960D01*
X025000Y006860D01*
X025000Y007860D01*
X025180Y008040D01*
X025180Y009400D01*
X024460Y010520D02*
X022580Y010520D01*
X022580Y007700D01*
X022510Y007700D01*
X022580Y007700D02*
X022580Y006960D01*
X022590Y006960D01*
X023350Y007020D02*
X023390Y006950D01*
X024270Y006950D01*
X024270Y006960D01*
X023350Y007020D02*
X023350Y009490D01*
X022580Y010520D02*
X022580Y010890D01*
X022180Y011290D01*
X022176Y011294D01*
X022180Y011370D01*
X022180Y014720D01*
X022176Y014794D01*
X022170Y014800D01*
X021790Y015180D01*
X021830Y015250D01*
X021830Y018530D01*
X021885Y018585D01*
X022170Y018300D01*
X022176Y018294D01*
X021885Y018585D02*
X020360Y020110D01*
X020360Y020180D01*
X019204Y020180D01*
X019130Y020210D01*
X018860Y020210D01*
X018620Y020450D01*
X018490Y020450D01*
X018110Y020080D02*
X018590Y019600D01*
X018590Y018480D01*
X018890Y018180D01*
X019204Y018180D01*
X019204Y018680D02*
X019900Y018680D01*
X020175Y018955D01*
X020230Y018900D01*
X020850Y018900D01*
X020320Y019100D02*
X020320Y019420D01*
X020060Y019680D01*
X019204Y019680D01*
X019290Y019260D02*
X019210Y019180D01*
X019204Y019180D01*
X019290Y019260D02*
X019940Y019260D01*
X020175Y018955D02*
X020320Y019100D01*
X020360Y020180D02*
X020560Y020180D01*
X022170Y021790D01*
X022176Y021794D01*
X022180Y022840D02*
X023800Y021220D01*
X023800Y016230D01*
X024570Y015460D01*
X024570Y011680D01*
X024190Y011300D01*
X024184Y011294D01*
X024460Y010520D02*
X025210Y011270D01*
X027100Y011270D01*
X027176Y011294D01*
X027180Y011300D01*
X027180Y014790D01*
X027176Y014794D01*
X027180Y014870D01*
X027180Y018290D01*
X027176Y018294D01*
X027180Y018370D01*
X027180Y021790D01*
X027176Y021794D01*
X027690Y023070D02*
X028180Y023560D01*
X028180Y023566D01*
X027690Y023070D02*
X027690Y019350D01*
X028180Y018750D02*
X028180Y020066D01*
X028940Y020900D02*
X028940Y021550D01*
X029180Y021790D01*
X029184Y021794D01*
X029184Y018294D02*
X029180Y018290D01*
X029180Y016520D01*
X028180Y015520D01*
X027680Y016060D02*
X028180Y016560D01*
X028180Y016566D01*
X029184Y014794D02*
X029180Y014790D01*
X028800Y014410D01*
X028800Y010460D01*
X029180Y010080D01*
X029180Y009740D01*
X029400Y010400D02*
X029400Y011080D01*
X029190Y011290D01*
X029184Y011294D01*
X027680Y012240D02*
X027680Y009740D01*
X027680Y008620D02*
X027680Y008620D01*
X028430Y008620D01*
X028430Y006120D01*
X027680Y006120D01*
X027680Y006120D01*
X027640Y006050D01*
X027640Y005150D01*
X023810Y001320D01*
X006550Y001320D01*
X004620Y003250D01*
X004620Y011870D01*
X005930Y013180D01*
X005000Y011710D02*
X005000Y003990D01*
X006150Y002840D01*
X006150Y002700D01*
X006180Y002620D01*
X006180Y002620D01*
X008180Y002620D01*
X008180Y002620D01*
X008250Y002620D01*
X010180Y002620D01*
X010180Y002620D01*
X010250Y002580D01*
X012100Y002580D01*
X012980Y001700D01*
X019230Y001700D01*
X020110Y002580D01*
X020180Y002620D01*
X020180Y002630D01*
X021120Y002630D01*
X021610Y003120D01*
X023690Y003120D01*
X024180Y002630D01*
X024180Y002620D01*
X023440Y003500D02*
X023670Y003730D01*
X024180Y003730D01*
X024180Y003740D01*
X022180Y003730D02*
X022180Y003740D01*
X022180Y003730D02*
X021100Y003730D01*
X020610Y003240D01*
X019750Y003240D01*
X019640Y003350D01*
X019640Y005930D01*
X020230Y006690D02*
X020510Y006690D01*
X020770Y006950D01*
X020770Y006960D01*
X020740Y007040D01*
X020740Y008240D01*
X018090Y010890D01*
X018090Y014230D01*
X017770Y013880D02*
X017470Y014180D01*
X017156Y014180D01*
X017156Y013680D02*
X016820Y013680D01*
X016420Y013280D01*
X017156Y013180D02*
X017380Y013110D01*
X017710Y012780D01*
X017470Y013180D02*
X017770Y013480D01*
X017770Y013880D01*
X017470Y013180D02*
X017156Y013180D01*
X017156Y014680D02*
X018470Y014680D01*
X019204Y015180D02*
X021790Y015180D01*
X021800Y013680D02*
X019204Y013680D01*
X019210Y013180D02*
X019204Y013180D01*
X019210Y013180D02*
X019210Y013090D01*
X019640Y012660D01*
X019640Y011390D01*
X019910Y012930D02*
X021450Y011390D01*
X023180Y013066D02*
X023180Y013070D01*
X022570Y013680D01*
X024180Y014800D02*
X024184Y014794D01*
X024180Y014800D02*
X023390Y015590D01*
X023180Y016566D02*
X023180Y016570D01*
X022350Y017400D01*
X024184Y018294D02*
X024190Y018300D01*
X024720Y018830D01*
X024720Y026630D01*
X024180Y027170D01*
X024180Y027620D01*
X024180Y028740D02*
X024180Y028740D01*
X023180Y028740D01*
X023180Y026240D01*
X022180Y026240D01*
X022180Y026240D01*
X022150Y026160D01*
X018890Y022900D01*
X018570Y022900D01*
X018110Y022980D02*
X018110Y020080D01*
X017680Y020250D02*
X017680Y020390D01*
X017790Y020500D01*
X017790Y024620D01*
X018180Y024620D01*
X018180Y024620D01*
X017790Y024620D02*
X016250Y024620D01*
X016180Y024620D01*
X016180Y024620D01*
X014250Y024620D01*
X014180Y024620D01*
X014180Y024620D01*
X012250Y024620D01*
X012180Y024620D01*
X012180Y024620D01*
X010250Y024620D01*
X010180Y024620D01*
X010180Y024620D01*
X008250Y024620D01*
X008180Y024620D01*
X008180Y024620D01*
X007090Y024620D01*
X006690Y024220D01*
X006620Y024180D01*
X006180Y024620D01*
X006180Y024620D01*
X006110Y024580D01*
X005300Y024580D01*
X004570Y023850D01*
X004570Y023310D01*
X005050Y022830D01*
X005050Y021860D01*
X005070Y021782D01*
X005070Y021780D01*
X005070Y020750D01*
X007730Y020750D01*
X008460Y021480D01*
X008930Y021480D01*
X008930Y021490D01*
X008930Y020380D02*
X008930Y020370D01*
X008930Y020380D02*
X010430Y020380D01*
X011230Y021180D01*
X012400Y021150D02*
X012400Y022450D01*
X012440Y022520D01*
X013620Y022520D01*
X013900Y022800D01*
X015110Y022800D01*
X015113Y022806D01*
X015180Y023510D02*
X015113Y023554D01*
X015110Y023560D01*
X013280Y023560D01*
X013120Y023720D01*
X012170Y023720D01*
X011630Y023180D01*
X011629Y023180D01*
X012020Y022640D02*
X010820Y022640D01*
X010310Y023150D01*
X010231Y023180D01*
X010060Y023180D01*
X009520Y022640D01*
X007730Y022640D01*
X007730Y021680D01*
X007731Y021680D01*
X007670Y021630D01*
X007180Y021140D01*
X007180Y021130D01*
X006629Y021680D02*
X006400Y022010D01*
X007230Y022840D01*
X007230Y023610D01*
X007340Y023720D01*
X008540Y023720D01*
X009050Y023210D01*
X009129Y023180D01*
X009130Y023180D01*
X009750Y023800D01*
X011160Y023800D01*
X012020Y022640D02*
X012520Y023140D01*
X012660Y023140D01*
X012731Y023180D01*
X013670Y023180D01*
X013670Y023110D01*
X013670Y023180D02*
X014247Y023180D01*
X015180Y023510D02*
X016050Y023510D01*
X016640Y023460D02*
X016640Y023250D01*
X015360Y021970D01*
X015360Y017350D01*
X014790Y016780D01*
X014790Y013900D01*
X015140Y013550D01*
X015140Y010140D01*
X014680Y009400D02*
X014680Y008660D01*
X013450Y007580D02*
X017590Y007580D01*
X017630Y007650D01*
X018180Y008200D01*
X018180Y009400D01*
X018380Y007700D02*
X019080Y007000D01*
X019080Y006960D01*
X019090Y006960D01*
X018180Y006960D02*
X018180Y006990D01*
X017590Y007580D01*
X017180Y007050D02*
X017270Y006960D01*
X017270Y006960D01*
X017180Y007050D02*
X016370Y007050D01*
X014680Y006960D02*
X014680Y006210D01*
X014330Y005550D02*
X012520Y003740D01*
X010180Y003740D01*
X010180Y003740D01*
X009250Y003740D02*
X010895Y005385D01*
X006860Y009420D01*
X006860Y015930D01*
X004360Y018430D01*
X004360Y023150D01*
X004310Y023200D01*
X004310Y026950D01*
X006150Y028790D01*
X006180Y028869D01*
X006180Y028870D01*
X007330Y028870D01*
X007810Y029350D01*
X016550Y029350D01*
X017270Y028630D01*
X017270Y027120D01*
X017650Y027810D02*
X017650Y026140D01*
X017410Y025900D01*
X018180Y025740D02*
X018180Y027491D01*
X017650Y027810D02*
X018180Y028340D01*
X018180Y028869D01*
X016660Y027860D02*
X016660Y026330D01*
X016180Y025740D02*
X016180Y027491D01*
X016660Y027860D02*
X016180Y028340D01*
X016180Y028869D01*
X014180Y028869D02*
X014180Y028340D01*
X015670Y026850D01*
X014180Y027491D02*
X014180Y025740D01*
X012840Y025000D02*
X012840Y027680D01*
X012180Y028340D01*
X012180Y028869D01*
X012180Y027491D02*
X012180Y025740D01*
X010660Y026330D02*
X010660Y027860D01*
X010180Y028340D01*
X010180Y028869D01*
X010180Y027491D02*
X010180Y025740D01*
X009580Y027270D02*
X008180Y028670D01*
X008180Y028869D01*
X008180Y027491D02*
X008180Y025740D01*
X006620Y024180D02*
X006620Y023180D01*
X006629Y023180D01*
X007730Y023180D02*
X007730Y022640D01*
X007730Y023180D02*
X007731Y023180D01*
X006629Y021680D02*
X006620Y021680D01*
X005070Y023230D01*
X005070Y023570D01*
X005070Y023578D01*
X006180Y025740D02*
X006180Y027491D01*
X002200Y022680D02*
X002196Y022680D01*
X002200Y022680D02*
X002200Y019410D01*
X003430Y018180D01*
X003430Y013180D01*
X005930Y018180D02*
X005070Y019040D01*
X005070Y020750D01*
X009890Y018640D02*
X012400Y021150D01*
X012400Y020610D02*
X013540Y021750D01*
X014980Y021750D01*
X014180Y021180D02*
X014180Y014510D01*
X012190Y012520D01*
X012190Y010460D01*
X011210Y009480D01*
X011180Y009400D01*
X011180Y006960D01*
X010990Y006210D02*
X010310Y006890D01*
X010270Y006960D01*
X010270Y006960D01*
X010270Y010060D01*
X009890Y007890D02*
X009890Y018640D01*
X015170Y016620D02*
X015710Y016620D01*
X016650Y015680D01*
X016630Y015610D01*
X016450Y015430D01*
X016650Y015680D02*
X017156Y015680D01*
X017156Y015180D02*
X017470Y015180D01*
X018250Y015960D01*
X018250Y019570D01*
X017640Y020180D01*
X017680Y020250D01*
X017640Y020180D02*
X017156Y020180D01*
X017156Y020680D02*
X016850Y020680D01*
X016775Y020755D01*
X016450Y020430D01*
X016775Y020755D02*
X016540Y020990D01*
X016540Y022240D01*
X016070Y022310D02*
X016070Y016630D01*
X016520Y016180D01*
X017156Y016180D01*
X016590Y016650D02*
X017150Y017210D01*
X017150Y018180D01*
X017156Y018180D01*
X017156Y018680D02*
X017470Y018680D01*
X017770Y018980D01*
X017770Y019380D01*
X017840Y019410D01*
X017870Y019410D01*
X017770Y019380D02*
X017470Y019680D01*
X017156Y019680D01*
X017156Y019180D02*
X016850Y019180D01*
X016540Y018870D01*
X016540Y017240D01*
X019200Y017540D02*
X019200Y016180D01*
X019204Y016180D01*
X020980Y020060D02*
X023180Y020060D01*
X023180Y020066D01*
X024184Y021794D02*
X024180Y021800D01*
X024180Y025120D01*
X024180Y026240D02*
X024180Y026240D01*
X023180Y026240D01*
X022800Y026700D02*
X022180Y027320D01*
X022180Y027620D01*
X022180Y028740D02*
X022180Y028740D01*
X023180Y028740D01*
X021520Y026240D02*
X020180Y026240D01*
X020180Y026240D01*
X020180Y026860D02*
X020180Y027620D01*
X020180Y028550D02*
X018720Y027090D01*
X018720Y025350D01*
X018490Y025120D01*
X017150Y025120D01*
X017030Y025000D01*
X016650Y024010D02*
X016650Y023990D01*
X017020Y023620D01*
X017020Y023260D01*
X016070Y022310D01*
X017156Y021180D02*
X017160Y021180D01*
X017410Y021430D01*
X017410Y023280D01*
X018110Y022980D02*
X020180Y025050D01*
X020180Y025120D01*
X022180Y025120D02*
X022180Y022840D01*
X023180Y023560D02*
X023180Y023566D01*
X023180Y023560D02*
X023800Y023560D01*
X019220Y021600D02*
X019220Y021190D01*
X019210Y021180D01*
X019204Y021180D01*
X019204Y020680D02*
X018890Y020680D01*
X018490Y021080D01*
X018490Y021410D01*
X020180Y028550D02*
X020180Y028740D01*
X014180Y013310D02*
X014180Y012550D01*
X012570Y010940D01*
X013450Y007580D02*
X012830Y006960D01*
X012090Y006960D01*
X012090Y006960D01*
X011840Y006330D02*
X013150Y006330D01*
X013770Y006950D01*
X013770Y006960D01*
X011840Y006330D02*
X010895Y005385D01*
X009250Y003740D02*
X008180Y003740D01*
X008180Y003740D01*
X007750Y003240D02*
X012560Y003240D01*
X007750Y003240D02*
X007260Y003730D01*
X006180Y003730D01*
X006180Y003740D01*
X020180Y003740D02*
X020180Y003740D01*
X022370Y005930D01*
X021680Y006960D02*
X021680Y008080D01*
X021750Y008080D01*
X021680Y008080D02*
X021680Y009400D01*
X025380Y007700D02*
X026080Y007000D01*
X026080Y006960D01*
X026090Y006960D01*
X027680Y007240D02*
X027680Y008000D01*
X028430Y008620D02*
X029180Y008620D01*
X029180Y008620D01*
X029180Y008000D02*
X029180Y007240D01*
X029180Y006120D02*
X029180Y006120D01*
X028430Y006120D01*
X022180Y002620D02*
X022180Y002620D01*
X021480Y002620D01*
X020560Y001700D01*
X027680Y012780D02*
X027900Y012780D01*
X028180Y013060D01*
X028180Y013066D01*
D25*
X027680Y012780D03*
X027680Y012240D03*
X029400Y010400D03*
X029180Y008000D03*
X027680Y008000D03*
X025380Y007700D03*
X023390Y006950D03*
X022510Y007700D03*
X021750Y008080D03*
X020230Y006690D03*
X019640Y005930D03*
X018380Y007700D03*
X016370Y007050D03*
X015530Y006210D03*
X014680Y006210D03*
X014330Y005550D03*
X014680Y008660D03*
X015140Y010140D03*
X012570Y010940D03*
X010270Y010060D03*
X009890Y007890D03*
X010990Y006210D03*
X005000Y011710D03*
X012400Y020610D03*
X012440Y022520D03*
X011160Y023800D03*
X012840Y025000D03*
X013670Y023110D03*
X014980Y021750D03*
X016540Y022240D03*
X017410Y023280D03*
X016640Y023460D03*
X016650Y024010D03*
X016050Y023510D03*
X017030Y025000D03*
X017410Y025900D03*
X016660Y026330D03*
X017270Y027120D03*
X015670Y026850D03*
X018570Y022900D03*
X019220Y021600D03*
X018490Y021410D03*
X018490Y020450D03*
X017870Y019410D03*
X016450Y020430D03*
X019200Y017540D03*
X020850Y018900D03*
X019940Y019260D03*
X020980Y020060D03*
X022350Y017400D03*
X023390Y015590D03*
X022570Y013680D03*
X021800Y013680D03*
X019910Y012930D03*
X019640Y011390D03*
X021450Y011390D03*
X023350Y009490D03*
X022370Y005930D03*
X023440Y003500D03*
X020560Y001700D03*
X017710Y012780D03*
X016420Y013280D03*
X018090Y014230D03*
X018470Y014680D03*
X016450Y015430D03*
X016590Y016650D03*
X016540Y017240D03*
X015170Y016620D03*
X007180Y021130D03*
X010660Y026330D03*
X009580Y027270D03*
X020180Y026860D03*
X021520Y026240D03*
X022800Y026700D03*
X023800Y023560D03*
X027690Y019350D03*
X028180Y018750D03*
X028940Y020900D03*
X027680Y016060D03*
X028180Y015520D03*
D26*
X027853Y015645D02*
X024711Y015645D01*
X024665Y015690D02*
X024030Y016325D01*
X024030Y017554D01*
X024443Y017554D01*
X024531Y017641D01*
X024531Y018316D01*
X024950Y018735D01*
X024950Y026725D01*
X024815Y026860D01*
X024520Y027155D01*
X024597Y027155D01*
X024685Y027243D01*
X024685Y027997D01*
X024597Y028085D01*
X023763Y028085D01*
X023675Y027997D01*
X023675Y027243D01*
X023763Y027155D01*
X023950Y027155D01*
X023950Y027075D01*
X024320Y026705D01*
X023763Y026705D01*
X023675Y026617D01*
X023675Y026470D01*
X023410Y026470D01*
X023410Y028510D01*
X023675Y028510D01*
X023675Y028363D01*
X023763Y028275D01*
X024597Y028275D01*
X024685Y028363D01*
X024685Y029117D01*
X024597Y029205D01*
X023763Y029205D01*
X023675Y029117D01*
X023675Y028970D01*
X022685Y028970D01*
X022685Y029117D01*
X022597Y029205D01*
X021763Y029205D01*
X021675Y029117D01*
X021675Y028363D01*
X021763Y028275D01*
X022597Y028275D01*
X022685Y028363D01*
X022685Y028510D01*
X022950Y028510D01*
X022950Y027017D01*
X022870Y027050D01*
X022775Y027050D01*
X022634Y027192D01*
X022685Y027243D01*
X022685Y027997D01*
X022597Y028085D01*
X021763Y028085D01*
X021675Y027997D01*
X021675Y027243D01*
X021763Y027155D01*
X022020Y027155D01*
X022450Y026725D01*
X022450Y026705D01*
X021763Y026705D01*
X021675Y026617D01*
X021675Y026555D01*
X021590Y026590D01*
X021450Y026590D01*
X021322Y026537D01*
X021255Y026470D01*
X020685Y026470D01*
X020685Y026617D01*
X020597Y026705D01*
X020495Y026705D01*
X020530Y026790D01*
X020530Y026930D01*
X020477Y027058D01*
X020410Y027125D01*
X020410Y027155D01*
X020597Y027155D01*
X020685Y027243D01*
X020685Y027997D01*
X020597Y028085D01*
X020040Y028085D01*
X020230Y028275D01*
X020597Y028275D01*
X020685Y028363D01*
X020685Y029117D01*
X020597Y029205D01*
X019763Y029205D01*
X019675Y029117D01*
X019675Y028370D01*
X018625Y027321D01*
X018625Y027848D01*
X018537Y027936D01*
X018102Y027936D01*
X018410Y028245D01*
X018410Y028424D01*
X018537Y028424D01*
X018625Y028512D01*
X018625Y029226D01*
X018537Y029314D01*
X017823Y029314D01*
X017735Y029226D01*
X017735Y028512D01*
X017823Y028424D01*
X017938Y028424D01*
X017555Y028040D01*
X017500Y027985D01*
X017500Y028725D01*
X017365Y028860D01*
X016645Y029580D01*
X007715Y029580D01*
X007580Y029445D01*
X007235Y029100D01*
X006625Y029100D01*
X006625Y029226D01*
X006537Y029314D01*
X005823Y029314D01*
X005735Y029226D01*
X005735Y028700D01*
X004080Y027045D01*
X004080Y023105D01*
X004130Y023055D01*
X004130Y018894D01*
X004097Y018927D01*
X004010Y018997D01*
X003914Y019057D01*
X003813Y019105D01*
X003707Y019142D01*
X003598Y019167D01*
X003486Y019180D01*
X003480Y019180D01*
X003480Y018230D01*
X003380Y018230D01*
X003380Y019180D01*
X003374Y019180D01*
X003262Y019167D01*
X003153Y019142D01*
X003047Y019105D01*
X002946Y019057D01*
X002850Y018997D01*
X002763Y018927D01*
X002683Y018847D01*
X002613Y018760D01*
X002553Y018664D01*
X002505Y018563D01*
X002468Y018457D01*
X002443Y018348D01*
X002430Y018236D01*
X002430Y018230D01*
X003380Y018230D01*
X003380Y018130D01*
X003480Y018130D01*
X003480Y017180D01*
X003486Y017180D01*
X003598Y017193D01*
X003707Y017218D01*
X003813Y017255D01*
X003914Y017303D01*
X004010Y017363D01*
X004097Y017433D01*
X004177Y017513D01*
X004247Y017600D01*
X004307Y017696D01*
X004355Y017797D01*
X004392Y017903D01*
X004417Y018012D01*
X004421Y018044D01*
X006630Y015835D01*
X006630Y013753D01*
X006440Y013943D01*
X006109Y014080D01*
X005751Y014080D01*
X005420Y013943D01*
X005167Y013690D01*
X005030Y013359D01*
X005030Y013001D01*
X005146Y012721D01*
X004390Y011965D01*
X004390Y003155D01*
X004525Y003020D01*
X006455Y001090D01*
X023905Y001090D01*
X024040Y001225D01*
X027870Y005055D01*
X027870Y005655D01*
X028097Y005655D01*
X028185Y005743D01*
X028185Y005890D01*
X028675Y005890D01*
X028675Y005743D01*
X028763Y005655D01*
X029597Y005655D01*
X029680Y005738D01*
X029680Y000680D01*
X000680Y000680D01*
X000680Y029680D01*
X029680Y029680D01*
X029680Y010615D01*
X029630Y010665D01*
X029630Y011175D01*
X029531Y011274D01*
X029531Y011947D01*
X029443Y012035D01*
X029030Y012035D01*
X029030Y014054D01*
X029443Y014054D01*
X029531Y014141D01*
X029531Y015447D01*
X029443Y015535D01*
X028925Y015535D01*
X028837Y015447D01*
X028837Y014772D01*
X028570Y014505D01*
X028570Y010365D01*
X028705Y010230D01*
X028746Y010188D01*
X028675Y010117D01*
X028675Y009363D01*
X028763Y009275D01*
X029597Y009275D01*
X029680Y009358D01*
X029680Y009002D01*
X029597Y009085D01*
X028763Y009085D01*
X028675Y008997D01*
X028675Y008850D01*
X028185Y008850D01*
X028185Y008997D01*
X028097Y009085D01*
X027263Y009085D01*
X027175Y008997D01*
X027175Y008243D01*
X027263Y008155D01*
X027365Y008155D01*
X027330Y008070D01*
X027330Y007930D01*
X027383Y007802D01*
X027450Y007735D01*
X027450Y007705D01*
X027263Y007705D01*
X027175Y007617D01*
X027175Y006863D01*
X027263Y006775D01*
X028097Y006775D01*
X028185Y006863D01*
X028185Y007617D01*
X028097Y007705D01*
X027910Y007705D01*
X027910Y007735D01*
X027977Y007802D01*
X028030Y007930D01*
X028030Y008070D01*
X027995Y008155D01*
X028097Y008155D01*
X028185Y008243D01*
X028185Y008390D01*
X028200Y008390D01*
X028200Y006350D01*
X028185Y006350D01*
X028185Y006497D01*
X028097Y006585D01*
X027263Y006585D01*
X027175Y006497D01*
X027175Y005743D01*
X027263Y005655D01*
X027410Y005655D01*
X027410Y005245D01*
X024685Y002520D01*
X024685Y002997D01*
X024597Y003085D01*
X024050Y003085D01*
X023860Y003275D01*
X024597Y003275D01*
X024685Y003363D01*
X024685Y004117D01*
X024597Y004205D01*
X023763Y004205D01*
X023675Y004117D01*
X023675Y003960D01*
X023575Y003960D01*
X023465Y003850D01*
X023370Y003850D01*
X023242Y003797D01*
X023143Y003698D01*
X023090Y003570D01*
X023090Y003430D01*
X023123Y003350D01*
X022672Y003350D01*
X022685Y003363D01*
X022685Y004117D01*
X022597Y004205D01*
X021763Y004205D01*
X021675Y004117D01*
X021675Y003960D01*
X021005Y003960D01*
X020685Y003640D01*
X020685Y003920D01*
X022345Y005580D01*
X022440Y005580D01*
X022568Y005633D01*
X022667Y005732D01*
X022720Y005860D01*
X022720Y006000D01*
X022687Y006080D01*
X024655Y006080D01*
X024945Y006370D01*
X025482Y006370D01*
X025570Y006458D01*
X025570Y007185D01*
X025700Y007055D01*
X025700Y006458D01*
X025788Y006370D01*
X026392Y006370D01*
X026480Y006458D01*
X026480Y007462D01*
X026392Y007550D01*
X025855Y007550D01*
X025730Y007675D01*
X025730Y007770D01*
X025677Y007898D01*
X025578Y007997D01*
X025450Y008050D01*
X025410Y008050D01*
X025410Y008817D01*
X025951Y008817D01*
X026039Y008905D01*
X026039Y009895D01*
X025951Y009983D01*
X024409Y009983D01*
X024321Y009895D01*
X024321Y008905D01*
X024409Y008817D01*
X024950Y008817D01*
X024950Y008135D01*
X024905Y008090D01*
X024770Y007955D01*
X024770Y006892D01*
X024753Y006832D01*
X024754Y006829D01*
X024660Y006735D01*
X024660Y007462D01*
X024572Y007550D01*
X023968Y007550D01*
X023880Y007462D01*
X023880Y007180D01*
X023655Y007180D01*
X023588Y007247D01*
X023580Y007250D01*
X023580Y009225D01*
X023647Y009292D01*
X023700Y009420D01*
X023700Y009560D01*
X023647Y009688D01*
X023548Y009787D01*
X023420Y009840D01*
X023280Y009840D01*
X023152Y009787D01*
X023053Y009688D01*
X023000Y009560D01*
X023000Y009420D01*
X023053Y009292D01*
X023120Y009225D01*
X023120Y007175D01*
X023093Y007148D01*
X023080Y007116D01*
X023080Y007425D01*
X023070Y007473D01*
X023051Y007518D01*
X023024Y007559D01*
X022989Y007594D01*
X022948Y007621D01*
X022903Y007640D01*
X022854Y007650D01*
X022640Y007650D01*
X022640Y007010D01*
X022540Y007010D01*
X022540Y007650D01*
X022325Y007650D01*
X022277Y007640D01*
X022231Y007621D01*
X022191Y007594D01*
X022156Y007559D01*
X022128Y007518D01*
X022109Y007473D01*
X022100Y007425D01*
X022100Y007010D01*
X022540Y007010D01*
X022540Y006910D01*
X022100Y006910D01*
X022100Y006540D01*
X022070Y006540D01*
X022070Y007462D01*
X021982Y007550D01*
X021910Y007550D01*
X021910Y007767D01*
X021948Y007783D01*
X022047Y007882D01*
X022100Y008010D01*
X022100Y008150D01*
X022047Y008278D01*
X021948Y008377D01*
X021910Y008393D01*
X021910Y008817D01*
X022451Y008817D01*
X022539Y008905D01*
X022539Y009895D01*
X022451Y009983D01*
X020909Y009983D01*
X020821Y009895D01*
X020821Y008905D01*
X020909Y008817D01*
X021450Y008817D01*
X021450Y008270D01*
X021400Y008150D01*
X021400Y008010D01*
X021450Y007890D01*
X021450Y007550D01*
X021378Y007550D01*
X021290Y007462D01*
X021290Y006540D01*
X021160Y006540D01*
X021160Y007462D01*
X021072Y007550D01*
X020970Y007550D01*
X020970Y008335D01*
X020835Y008470D01*
X018320Y010985D01*
X018320Y013965D01*
X018387Y014032D01*
X018440Y014160D01*
X018440Y014300D01*
X018427Y014330D01*
X018540Y014330D01*
X018626Y014366D01*
X018621Y014360D01*
X018621Y014000D01*
X018690Y013930D01*
X018621Y013860D01*
X018621Y013500D01*
X018690Y013430D01*
X018621Y013360D01*
X018621Y013000D01*
X018708Y012912D01*
X019063Y012912D01*
X019115Y012860D01*
X019410Y012565D01*
X019410Y011655D01*
X019343Y011588D01*
X019290Y011460D01*
X019290Y011320D01*
X019343Y011192D01*
X019442Y011093D01*
X019570Y011040D01*
X019710Y011040D01*
X019838Y011093D01*
X019937Y011192D01*
X019990Y011320D01*
X019990Y011460D01*
X019937Y011588D01*
X019870Y011655D01*
X019870Y012580D01*
X019935Y012580D01*
X021100Y011415D01*
X021100Y011320D01*
X021153Y011192D01*
X021252Y011093D01*
X021380Y011040D01*
X021520Y011040D01*
X021648Y011093D01*
X021729Y011174D01*
X021729Y010679D01*
X021739Y010631D01*
X021758Y010585D01*
X021785Y010544D01*
X021820Y010509D01*
X021861Y010482D01*
X021906Y010463D01*
X021955Y010454D01*
X022128Y010454D01*
X022128Y011246D01*
X022224Y011246D01*
X022224Y010454D01*
X022398Y010454D01*
X022446Y010463D01*
X022491Y010482D01*
X022532Y010509D01*
X022567Y010544D01*
X022594Y010585D01*
X022613Y010631D01*
X022623Y010679D01*
X022623Y011246D01*
X022224Y011246D01*
X022224Y011343D01*
X022128Y011343D01*
X022128Y012135D01*
X021955Y012135D01*
X021906Y012125D01*
X021861Y012106D01*
X021820Y012079D01*
X021785Y012044D01*
X021758Y012003D01*
X021739Y011958D01*
X021729Y011909D01*
X021729Y011606D01*
X021729Y011606D01*
X021648Y011687D01*
X021520Y011740D01*
X021425Y011740D01*
X020260Y012905D01*
X020260Y013000D01*
X020207Y013128D01*
X020108Y013227D01*
X019980Y013280D01*
X019840Y013280D01*
X019787Y013258D01*
X019787Y013360D01*
X019717Y013430D01*
X019737Y013450D01*
X021535Y013450D01*
X021602Y013383D01*
X021730Y013330D01*
X021870Y013330D01*
X021998Y013383D01*
X022097Y013482D01*
X022150Y013610D01*
X022150Y013750D01*
X022097Y013878D01*
X022021Y013954D01*
X022128Y013954D01*
X022128Y014746D01*
X022224Y014746D01*
X022224Y013954D01*
X022349Y013954D01*
X022273Y013878D01*
X022220Y013750D01*
X022220Y013610D01*
X022273Y013482D01*
X022372Y013383D01*
X022500Y013330D01*
X022595Y013330D01*
X022833Y013092D01*
X022833Y012413D01*
X022921Y012325D01*
X023439Y012325D01*
X023527Y012413D01*
X023527Y013719D01*
X023439Y013806D01*
X022921Y013806D01*
X022904Y013789D01*
X022867Y013878D01*
X022768Y013977D01*
X022640Y014030D01*
X022553Y014030D01*
X022567Y014044D01*
X022594Y014085D01*
X022613Y014131D01*
X022623Y014179D01*
X022623Y014746D01*
X022224Y014746D01*
X022224Y014843D01*
X022128Y014843D01*
X022128Y015635D01*
X021955Y015635D01*
X021906Y015625D01*
X021861Y015606D01*
X021820Y015579D01*
X021785Y015544D01*
X021758Y015503D01*
X021739Y015458D01*
X021729Y015409D01*
X021729Y014843D01*
X022128Y014843D01*
X022128Y014746D01*
X021729Y014746D01*
X021729Y014179D01*
X021739Y014131D01*
X021758Y014085D01*
X021785Y014044D01*
X021799Y014030D01*
X021730Y014030D01*
X021602Y013977D01*
X021535Y013910D01*
X019737Y013910D01*
X019717Y013930D01*
X019787Y014000D01*
X019787Y014360D01*
X019717Y014430D01*
X019787Y014500D01*
X019787Y014860D01*
X019786Y014861D01*
X019796Y014868D01*
X019831Y014903D01*
X019858Y014943D01*
X019877Y014989D01*
X019887Y015037D01*
X019887Y015171D01*
X019213Y015171D01*
X019213Y015189D01*
X019887Y015189D01*
X019887Y015323D01*
X019877Y015371D01*
X019858Y015417D01*
X019831Y015457D01*
X019796Y015492D01*
X019786Y015499D01*
X019787Y015500D01*
X019787Y015860D01*
X019717Y015930D01*
X019787Y016000D01*
X019787Y016360D01*
X019699Y016448D01*
X019430Y016448D01*
X019430Y017275D01*
X019497Y017342D01*
X019550Y017470D01*
X019550Y017610D01*
X019497Y017738D01*
X019398Y017837D01*
X019270Y017890D01*
X019130Y017890D01*
X019002Y017837D01*
X018903Y017738D01*
X018850Y017610D01*
X018850Y017470D01*
X018903Y017342D01*
X018970Y017275D01*
X018970Y016448D01*
X018708Y016448D01*
X018621Y016360D01*
X018621Y016000D01*
X018690Y015930D01*
X018621Y015860D01*
X018621Y015500D01*
X018621Y015499D01*
X018611Y015492D01*
X018576Y015457D01*
X018549Y015417D01*
X018530Y015371D01*
X018521Y015323D01*
X018521Y015189D01*
X019195Y015189D01*
X019195Y015171D01*
X018521Y015171D01*
X018521Y015037D01*
X018522Y015030D01*
X018400Y015030D01*
X018272Y014977D01*
X018205Y014910D01*
X017690Y014910D01*
X017670Y014930D01*
X017739Y015000D01*
X017739Y015124D01*
X018345Y015730D01*
X018480Y015865D01*
X018480Y018265D01*
X018621Y018124D01*
X018621Y018000D01*
X018708Y017912D01*
X019699Y017912D01*
X019787Y018000D01*
X019787Y018360D01*
X019717Y018430D01*
X019737Y018450D01*
X019995Y018450D01*
X020215Y018670D01*
X020585Y018670D01*
X020652Y018603D01*
X020780Y018550D01*
X020920Y018550D01*
X021048Y018603D01*
X021147Y018702D01*
X021200Y018830D01*
X021200Y018970D01*
X021147Y019098D01*
X021048Y019197D01*
X020920Y019250D01*
X020780Y019250D01*
X020652Y019197D01*
X020585Y019130D01*
X020550Y019130D01*
X020550Y019515D01*
X020290Y019775D01*
X020155Y019910D01*
X019836Y019910D01*
X019858Y019943D01*
X019877Y019989D01*
X019887Y020037D01*
X019887Y020171D01*
X019213Y020171D01*
X019213Y020189D01*
X019887Y020189D01*
X019887Y020323D01*
X019877Y020371D01*
X019858Y020417D01*
X019831Y020457D01*
X019796Y020492D01*
X019786Y020499D01*
X019787Y020500D01*
X019787Y020860D01*
X019717Y020930D01*
X019787Y021000D01*
X019787Y021360D01*
X019699Y021448D01*
X019536Y021448D01*
X019570Y021530D01*
X019570Y021670D01*
X019517Y021798D01*
X019418Y021897D01*
X019290Y021950D01*
X019150Y021950D01*
X019022Y021897D01*
X018923Y021798D01*
X018870Y021670D01*
X018870Y021530D01*
X018904Y021448D01*
X018840Y021448D01*
X018840Y021480D01*
X018787Y021608D01*
X018688Y021707D01*
X018560Y021760D01*
X018420Y021760D01*
X018340Y021727D01*
X018340Y022635D01*
X018372Y022603D01*
X018500Y022550D01*
X018640Y022550D01*
X018768Y022603D01*
X018835Y022670D01*
X018985Y022670D01*
X021675Y025360D01*
X021675Y024743D01*
X021763Y024655D01*
X021950Y024655D01*
X021950Y022745D01*
X022060Y022635D01*
X021955Y022635D01*
X021906Y022625D01*
X021861Y022606D01*
X021820Y022579D01*
X021785Y022544D01*
X021758Y022503D01*
X021739Y022458D01*
X021729Y022409D01*
X021729Y021843D01*
X022128Y021843D01*
X022128Y021746D01*
X022224Y021746D01*
X022224Y020954D01*
X022398Y020954D01*
X022446Y020963D01*
X022491Y020982D01*
X022532Y021009D01*
X022567Y021044D01*
X022594Y021085D01*
X022613Y021131D01*
X022623Y021179D01*
X022623Y021746D01*
X022224Y021746D01*
X022224Y021843D01*
X022623Y021843D01*
X022623Y022072D01*
X023570Y021125D01*
X023570Y016135D01*
X024170Y015535D01*
X023925Y015535D01*
X023848Y015458D01*
X023740Y015565D01*
X023740Y015660D01*
X023687Y015788D01*
X023588Y015887D01*
X023526Y015912D01*
X023527Y015913D01*
X023527Y017219D01*
X023439Y017306D01*
X022921Y017306D01*
X022845Y017230D01*
X022700Y017375D01*
X022700Y017470D01*
X022647Y017598D01*
X022613Y017632D01*
X022623Y017679D01*
X022623Y018246D01*
X022224Y018246D01*
X022224Y018343D01*
X022128Y018343D01*
X022128Y019135D01*
X021955Y019135D01*
X021906Y019125D01*
X021861Y019106D01*
X021820Y019079D01*
X021785Y019044D01*
X021758Y019003D01*
X021739Y018958D01*
X021729Y018909D01*
X021729Y018343D01*
X022128Y018343D01*
X022128Y018246D01*
X021729Y018246D01*
X021729Y017679D01*
X021739Y017631D01*
X021758Y017585D01*
X021785Y017544D01*
X021820Y017509D01*
X021861Y017482D01*
X021906Y017463D01*
X021955Y017454D01*
X022000Y017454D01*
X022000Y017330D01*
X022053Y017202D01*
X022152Y017103D01*
X022280Y017050D01*
X022375Y017050D01*
X022833Y016592D01*
X022833Y015913D01*
X022921Y015825D01*
X023130Y015825D01*
X023093Y015788D01*
X023040Y015660D01*
X023040Y015520D01*
X023093Y015392D01*
X023192Y015293D01*
X023320Y015240D01*
X023415Y015240D01*
X023837Y014818D01*
X023837Y014141D01*
X023925Y014054D01*
X024340Y014054D01*
X024340Y012035D01*
X023925Y012035D01*
X023837Y011947D01*
X023837Y010641D01*
X023925Y010554D01*
X024443Y010554D01*
X024531Y010641D01*
X024531Y011316D01*
X024800Y011585D01*
X024800Y015555D01*
X024665Y015690D01*
X024612Y015743D02*
X027531Y015743D01*
X027482Y015763D02*
X027610Y015710D01*
X027750Y015710D01*
X027878Y015763D01*
X027940Y015825D01*
X028002Y015825D01*
X027982Y015817D01*
X027883Y015718D01*
X027830Y015590D01*
X027830Y015450D01*
X027883Y015322D01*
X027982Y015223D01*
X028110Y015170D01*
X028250Y015170D01*
X028378Y015223D01*
X028477Y015322D01*
X028530Y015450D01*
X028530Y015545D01*
X029275Y016290D01*
X029410Y016425D01*
X029410Y017554D01*
X029443Y017554D01*
X029531Y017641D01*
X029531Y018947D01*
X029443Y019035D01*
X028925Y019035D01*
X028837Y018947D01*
X028837Y017641D01*
X028925Y017554D01*
X028950Y017554D01*
X028950Y016615D01*
X028527Y016192D01*
X028527Y017219D01*
X028439Y017306D01*
X027921Y017306D01*
X027833Y017219D01*
X027833Y016538D01*
X027705Y016410D01*
X027610Y016410D01*
X027482Y016357D01*
X027383Y016258D01*
X027330Y016130D01*
X027330Y015990D01*
X027383Y015862D01*
X027482Y015763D01*
X027403Y015842D02*
X024514Y015842D01*
X024415Y015940D02*
X027351Y015940D01*
X027330Y016039D02*
X024317Y016039D01*
X024218Y016137D02*
X027333Y016137D01*
X027374Y016236D02*
X024120Y016236D01*
X024030Y016334D02*
X027459Y016334D01*
X027727Y016433D02*
X024030Y016433D01*
X024030Y016531D02*
X027826Y016531D01*
X027833Y016630D02*
X024030Y016630D01*
X024030Y016728D02*
X027833Y016728D01*
X027833Y016827D02*
X024030Y016827D01*
X024030Y016925D02*
X027833Y016925D01*
X027833Y017024D02*
X024030Y017024D01*
X024030Y017122D02*
X027833Y017122D01*
X027835Y017221D02*
X024030Y017221D01*
X024030Y017319D02*
X028950Y017319D01*
X028950Y017221D02*
X028525Y017221D01*
X028527Y017122D02*
X028950Y017122D01*
X028950Y017024D02*
X028527Y017024D01*
X028527Y016925D02*
X028950Y016925D01*
X028950Y016827D02*
X028527Y016827D01*
X028527Y016728D02*
X028950Y016728D01*
X028950Y016630D02*
X028527Y016630D01*
X028527Y016531D02*
X028866Y016531D01*
X028767Y016433D02*
X028527Y016433D01*
X028527Y016334D02*
X028669Y016334D01*
X028570Y016236D02*
X028527Y016236D01*
X028827Y015842D02*
X029680Y015842D01*
X029680Y015940D02*
X028925Y015940D01*
X029024Y016039D02*
X029680Y016039D01*
X029680Y016137D02*
X029122Y016137D01*
X029221Y016236D02*
X029680Y016236D01*
X029680Y016334D02*
X029319Y016334D01*
X029410Y016433D02*
X029680Y016433D01*
X029680Y016531D02*
X029410Y016531D01*
X029410Y016630D02*
X029680Y016630D01*
X029680Y016728D02*
X029410Y016728D01*
X029410Y016827D02*
X029680Y016827D01*
X029680Y016925D02*
X029410Y016925D01*
X029410Y017024D02*
X029680Y017024D01*
X029680Y017122D02*
X029410Y017122D01*
X029410Y017221D02*
X029680Y017221D01*
X029680Y017319D02*
X029410Y017319D01*
X029410Y017418D02*
X029680Y017418D01*
X029680Y017516D02*
X029410Y017516D01*
X029504Y017615D02*
X029680Y017615D01*
X029680Y017713D02*
X029531Y017713D01*
X029531Y017812D02*
X029680Y017812D01*
X029680Y017910D02*
X029531Y017910D01*
X029531Y018009D02*
X029680Y018009D01*
X029680Y018107D02*
X029531Y018107D01*
X029531Y018206D02*
X029680Y018206D01*
X029680Y018304D02*
X029531Y018304D01*
X029531Y018403D02*
X029680Y018403D01*
X029680Y018501D02*
X029531Y018501D01*
X029531Y018600D02*
X029680Y018600D01*
X029680Y018698D02*
X029531Y018698D01*
X029531Y018797D02*
X029680Y018797D01*
X029680Y018895D02*
X029531Y018895D01*
X029484Y018994D02*
X029680Y018994D01*
X029680Y019092D02*
X028410Y019092D01*
X028410Y019015D02*
X028410Y019325D01*
X028439Y019325D01*
X028527Y019413D01*
X028527Y020719D01*
X028439Y020806D01*
X027921Y020806D01*
X027920Y020805D01*
X027920Y022826D01*
X027921Y022825D01*
X028439Y022825D01*
X028527Y022913D01*
X028527Y024219D01*
X028439Y024306D01*
X027921Y024306D01*
X027833Y024219D01*
X027833Y023538D01*
X027460Y023165D01*
X027460Y022619D01*
X027446Y022625D01*
X027398Y022635D01*
X027224Y022635D01*
X027224Y021843D01*
X027128Y021843D01*
X027128Y022635D01*
X026955Y022635D01*
X026906Y022625D01*
X026861Y022606D01*
X026820Y022579D01*
X026785Y022544D01*
X026758Y022503D01*
X026739Y022458D01*
X026729Y022409D01*
X026729Y021843D01*
X027128Y021843D01*
X027128Y021746D01*
X027224Y021746D01*
X027224Y020954D01*
X027398Y020954D01*
X027446Y020963D01*
X027460Y020969D01*
X027460Y019615D01*
X027393Y019548D01*
X027340Y019420D01*
X027340Y019280D01*
X027393Y019152D01*
X027413Y019132D01*
X027398Y019135D01*
X027224Y019135D01*
X027224Y018343D01*
X027128Y018343D01*
X027128Y019135D01*
X026955Y019135D01*
X026906Y019125D01*
X026861Y019106D01*
X026820Y019079D01*
X026785Y019044D01*
X026758Y019003D01*
X026739Y018958D01*
X026729Y018909D01*
X026729Y018343D01*
X027128Y018343D01*
X027128Y018246D01*
X027224Y018246D01*
X027224Y017454D01*
X027398Y017454D01*
X027446Y017463D01*
X027491Y017482D01*
X027532Y017509D01*
X027567Y017544D01*
X027594Y017585D01*
X027613Y017631D01*
X027623Y017679D01*
X027623Y018246D01*
X027224Y018246D01*
X027224Y018343D01*
X027623Y018343D01*
X027623Y018909D01*
X027613Y018958D01*
X027594Y019003D01*
X027587Y019014D01*
X027620Y019000D01*
X027760Y019000D01*
X027888Y019053D01*
X027950Y019115D01*
X027950Y019015D01*
X027883Y018948D01*
X027830Y018820D01*
X027830Y018680D01*
X027883Y018552D01*
X027982Y018453D01*
X028110Y018400D01*
X028250Y018400D01*
X028378Y018453D01*
X028477Y018552D01*
X028530Y018680D01*
X028530Y018820D01*
X028477Y018948D01*
X028410Y019015D01*
X028431Y018994D02*
X028884Y018994D01*
X028837Y018895D02*
X028499Y018895D01*
X028530Y018797D02*
X028837Y018797D01*
X028837Y018698D02*
X028530Y018698D01*
X028497Y018600D02*
X028837Y018600D01*
X028837Y018501D02*
X028426Y018501D01*
X028256Y018403D02*
X028837Y018403D01*
X028837Y018304D02*
X027224Y018304D01*
X027128Y018304D02*
X024531Y018304D01*
X024531Y018206D02*
X026729Y018206D01*
X026729Y018246D02*
X026729Y017679D01*
X026739Y017631D01*
X026758Y017585D01*
X026785Y017544D01*
X026820Y017509D01*
X026861Y017482D01*
X026906Y017463D01*
X026955Y017454D01*
X027128Y017454D01*
X027128Y018246D01*
X026729Y018246D01*
X026729Y018107D02*
X024531Y018107D01*
X024531Y018009D02*
X026729Y018009D01*
X026729Y017910D02*
X024531Y017910D01*
X024531Y017812D02*
X026729Y017812D01*
X026729Y017713D02*
X024531Y017713D01*
X024504Y017615D02*
X026746Y017615D01*
X026813Y017516D02*
X024030Y017516D01*
X024030Y017418D02*
X028950Y017418D01*
X028950Y017516D02*
X027539Y017516D01*
X027607Y017615D02*
X028864Y017615D01*
X028837Y017713D02*
X027623Y017713D01*
X027623Y017812D02*
X028837Y017812D01*
X028837Y017910D02*
X027623Y017910D01*
X027623Y018009D02*
X028837Y018009D01*
X028837Y018107D02*
X027623Y018107D01*
X027623Y018206D02*
X028837Y018206D01*
X028104Y018403D02*
X027623Y018403D01*
X027623Y018501D02*
X027934Y018501D01*
X027863Y018600D02*
X027623Y018600D01*
X027623Y018698D02*
X027830Y018698D01*
X027830Y018797D02*
X027623Y018797D01*
X027623Y018895D02*
X027861Y018895D01*
X027929Y018994D02*
X027598Y018994D01*
X027377Y019191D02*
X024950Y019191D01*
X024950Y019289D02*
X027340Y019289D01*
X027340Y019388D02*
X024950Y019388D01*
X024950Y019486D02*
X027368Y019486D01*
X027430Y019585D02*
X024950Y019585D01*
X024950Y019683D02*
X027460Y019683D01*
X027460Y019782D02*
X024950Y019782D01*
X024950Y019880D02*
X027460Y019880D01*
X027460Y019979D02*
X024950Y019979D01*
X024950Y020077D02*
X027460Y020077D01*
X027460Y020176D02*
X024950Y020176D01*
X024950Y020274D02*
X027460Y020274D01*
X027460Y020373D02*
X024950Y020373D01*
X024950Y020471D02*
X027460Y020471D01*
X027460Y020570D02*
X024950Y020570D01*
X024950Y020668D02*
X027460Y020668D01*
X027460Y020767D02*
X024950Y020767D01*
X024950Y020865D02*
X027460Y020865D01*
X027447Y020964D02*
X027460Y020964D01*
X027224Y020964D02*
X027128Y020964D01*
X027128Y020954D02*
X027128Y021746D01*
X026729Y021746D01*
X026729Y021179D01*
X026739Y021131D01*
X026758Y021085D01*
X026785Y021044D01*
X026820Y021009D01*
X026861Y020982D01*
X026906Y020963D01*
X026955Y020954D01*
X027128Y020954D01*
X027128Y021062D02*
X027224Y021062D01*
X027224Y021161D02*
X027128Y021161D01*
X027128Y021259D02*
X027224Y021259D01*
X027224Y021358D02*
X027128Y021358D01*
X027128Y021456D02*
X027224Y021456D01*
X027224Y021555D02*
X027128Y021555D01*
X027128Y021653D02*
X027224Y021653D01*
X027128Y021752D02*
X024950Y021752D01*
X024950Y021850D02*
X026729Y021850D01*
X026729Y021949D02*
X024950Y021949D01*
X024950Y022047D02*
X026729Y022047D01*
X026729Y022146D02*
X024950Y022146D01*
X024950Y022244D02*
X026729Y022244D01*
X026729Y022343D02*
X024950Y022343D01*
X024950Y022441D02*
X026736Y022441D01*
X026782Y022540D02*
X024950Y022540D01*
X024950Y022638D02*
X027460Y022638D01*
X027460Y022737D02*
X024950Y022737D01*
X024950Y022835D02*
X027460Y022835D01*
X027460Y022934D02*
X024950Y022934D01*
X024950Y023032D02*
X027460Y023032D01*
X027460Y023131D02*
X024950Y023131D01*
X024950Y023229D02*
X027524Y023229D01*
X027622Y023328D02*
X024950Y023328D01*
X024950Y023426D02*
X027721Y023426D01*
X027819Y023525D02*
X024950Y023525D01*
X024950Y023623D02*
X027833Y023623D01*
X027833Y023722D02*
X024950Y023722D01*
X024950Y023820D02*
X027833Y023820D01*
X027833Y023919D02*
X024950Y023919D01*
X024950Y024017D02*
X027833Y024017D01*
X027833Y024116D02*
X024950Y024116D01*
X024950Y024214D02*
X027833Y024214D01*
X028527Y024214D02*
X029680Y024214D01*
X029680Y024116D02*
X028527Y024116D01*
X028527Y024017D02*
X029680Y024017D01*
X029680Y023919D02*
X028527Y023919D01*
X028527Y023820D02*
X029680Y023820D01*
X029680Y023722D02*
X028527Y023722D01*
X028527Y023623D02*
X029680Y023623D01*
X029680Y023525D02*
X028527Y023525D01*
X028527Y023426D02*
X029680Y023426D01*
X029680Y023328D02*
X028527Y023328D01*
X028527Y023229D02*
X029680Y023229D01*
X029680Y023131D02*
X028527Y023131D01*
X028527Y023032D02*
X029680Y023032D01*
X029680Y022934D02*
X028527Y022934D01*
X028449Y022835D02*
X029680Y022835D01*
X029680Y022737D02*
X027920Y022737D01*
X027920Y022638D02*
X029680Y022638D01*
X029680Y022540D02*
X027920Y022540D01*
X027920Y022441D02*
X028837Y022441D01*
X028837Y022447D02*
X028837Y021772D01*
X028710Y021645D01*
X028710Y021165D01*
X028643Y021098D01*
X028590Y020970D01*
X028590Y020830D01*
X028643Y020702D01*
X028742Y020603D01*
X028870Y020550D01*
X029010Y020550D01*
X029138Y020603D01*
X029237Y020702D01*
X029290Y020830D01*
X029290Y020970D01*
X029255Y021054D01*
X029443Y021054D01*
X029531Y021141D01*
X029531Y022447D01*
X029443Y022535D01*
X028925Y022535D01*
X028837Y022447D01*
X028837Y022343D02*
X027920Y022343D01*
X027920Y022244D02*
X028837Y022244D01*
X028837Y022146D02*
X027920Y022146D01*
X027920Y022047D02*
X028837Y022047D01*
X028837Y021949D02*
X027920Y021949D01*
X027920Y021850D02*
X028837Y021850D01*
X028816Y021752D02*
X027920Y021752D01*
X027920Y021653D02*
X028718Y021653D01*
X028710Y021555D02*
X027920Y021555D01*
X027920Y021456D02*
X028710Y021456D01*
X028710Y021358D02*
X027920Y021358D01*
X027920Y021259D02*
X028710Y021259D01*
X028706Y021161D02*
X027920Y021161D01*
X027920Y021062D02*
X028628Y021062D01*
X028590Y020964D02*
X027920Y020964D01*
X027920Y020865D02*
X028590Y020865D01*
X028616Y020767D02*
X028479Y020767D01*
X028527Y020668D02*
X028677Y020668D01*
X028823Y020570D02*
X028527Y020570D01*
X028527Y020471D02*
X029680Y020471D01*
X029680Y020373D02*
X028527Y020373D01*
X028527Y020274D02*
X029680Y020274D01*
X029680Y020176D02*
X028527Y020176D01*
X028527Y020077D02*
X029680Y020077D01*
X029680Y019979D02*
X028527Y019979D01*
X028527Y019880D02*
X029680Y019880D01*
X029680Y019782D02*
X028527Y019782D01*
X028527Y019683D02*
X029680Y019683D01*
X029680Y019585D02*
X028527Y019585D01*
X028527Y019486D02*
X029680Y019486D01*
X029680Y019388D02*
X028501Y019388D01*
X028410Y019289D02*
X029680Y019289D01*
X029680Y019191D02*
X028410Y019191D01*
X027950Y019092D02*
X027927Y019092D01*
X027224Y019092D02*
X027128Y019092D01*
X027128Y018994D02*
X027224Y018994D01*
X027224Y018895D02*
X027128Y018895D01*
X027128Y018797D02*
X027224Y018797D01*
X027224Y018698D02*
X027128Y018698D01*
X027128Y018600D02*
X027224Y018600D01*
X027224Y018501D02*
X027128Y018501D01*
X027128Y018403D02*
X027224Y018403D01*
X027224Y018206D02*
X027128Y018206D01*
X027128Y018107D02*
X027224Y018107D01*
X027224Y018009D02*
X027128Y018009D01*
X027128Y017910D02*
X027224Y017910D01*
X027224Y017812D02*
X027128Y017812D01*
X027128Y017713D02*
X027224Y017713D01*
X027224Y017615D02*
X027128Y017615D01*
X027128Y017516D02*
X027224Y017516D01*
X026729Y018403D02*
X024618Y018403D01*
X024716Y018501D02*
X026729Y018501D01*
X026729Y018600D02*
X024815Y018600D01*
X024913Y018698D02*
X026729Y018698D01*
X026729Y018797D02*
X024950Y018797D01*
X024950Y018895D02*
X026729Y018895D01*
X026754Y018994D02*
X024950Y018994D01*
X024950Y019092D02*
X026840Y019092D01*
X026906Y020964D02*
X024950Y020964D01*
X024950Y021062D02*
X026773Y021062D01*
X026733Y021161D02*
X024950Y021161D01*
X024950Y021259D02*
X026729Y021259D01*
X026729Y021358D02*
X024950Y021358D01*
X024950Y021456D02*
X026729Y021456D01*
X026729Y021555D02*
X024950Y021555D01*
X024950Y021653D02*
X026729Y021653D01*
X027128Y021850D02*
X027224Y021850D01*
X027224Y021949D02*
X027128Y021949D01*
X027128Y022047D02*
X027224Y022047D01*
X027224Y022146D02*
X027128Y022146D01*
X027128Y022244D02*
X027224Y022244D01*
X027224Y022343D02*
X027128Y022343D01*
X027128Y022441D02*
X027224Y022441D01*
X027224Y022540D02*
X027128Y022540D01*
X029290Y020964D02*
X029680Y020964D01*
X029680Y021062D02*
X029451Y021062D01*
X029531Y021161D02*
X029680Y021161D01*
X029680Y021259D02*
X029531Y021259D01*
X029531Y021358D02*
X029680Y021358D01*
X029680Y021456D02*
X029531Y021456D01*
X029531Y021555D02*
X029680Y021555D01*
X029680Y021653D02*
X029531Y021653D01*
X029531Y021752D02*
X029680Y021752D01*
X029680Y021850D02*
X029531Y021850D01*
X029531Y021949D02*
X029680Y021949D01*
X029680Y022047D02*
X029531Y022047D01*
X029531Y022146D02*
X029680Y022146D01*
X029680Y022244D02*
X029531Y022244D01*
X029531Y022343D02*
X029680Y022343D01*
X029680Y022441D02*
X029531Y022441D01*
X029680Y020865D02*
X029290Y020865D01*
X029264Y020767D02*
X029680Y020767D01*
X029680Y020668D02*
X029203Y020668D01*
X029057Y020570D02*
X029680Y020570D01*
X029680Y024313D02*
X024950Y024313D01*
X024950Y024411D02*
X029680Y024411D01*
X029680Y024510D02*
X024950Y024510D01*
X024950Y024608D02*
X029680Y024608D01*
X029680Y024707D02*
X024950Y024707D01*
X024950Y024805D02*
X029680Y024805D01*
X029680Y024904D02*
X024950Y024904D01*
X024950Y025002D02*
X029680Y025002D01*
X029680Y025101D02*
X024950Y025101D01*
X024950Y025199D02*
X029680Y025199D01*
X029680Y025298D02*
X024950Y025298D01*
X024950Y025396D02*
X029680Y025396D01*
X029680Y025495D02*
X024950Y025495D01*
X024950Y025593D02*
X029680Y025593D01*
X029680Y025692D02*
X024950Y025692D01*
X024950Y025790D02*
X029680Y025790D01*
X029680Y025889D02*
X024950Y025889D01*
X024950Y025987D02*
X029680Y025987D01*
X029680Y026086D02*
X024950Y026086D01*
X024950Y026184D02*
X029680Y026184D01*
X029680Y026283D02*
X024950Y026283D01*
X024950Y026381D02*
X029680Y026381D01*
X029680Y026480D02*
X027956Y026480D01*
X027842Y026449D02*
X028155Y026533D01*
X028436Y026695D01*
X028665Y026924D01*
X028827Y027205D01*
X028911Y027518D01*
X028911Y027842D01*
X028827Y028155D01*
X028665Y028436D01*
X028436Y028665D01*
X028155Y028827D01*
X027842Y028911D01*
X027518Y028911D01*
X027205Y028827D01*
X026924Y028665D01*
X026695Y028436D01*
X026533Y028155D01*
X026449Y027842D01*
X026449Y027518D01*
X026533Y027205D01*
X026695Y026924D01*
X026924Y026695D01*
X027205Y026533D01*
X027518Y026449D01*
X027842Y026449D01*
X028233Y026578D02*
X029680Y026578D01*
X029680Y026677D02*
X028404Y026677D01*
X028516Y026775D02*
X029680Y026775D01*
X029680Y026874D02*
X028614Y026874D01*
X028693Y026972D02*
X029680Y026972D01*
X029680Y027071D02*
X028750Y027071D01*
X028806Y027169D02*
X029680Y027169D01*
X029680Y027268D02*
X028844Y027268D01*
X028870Y027366D02*
X029680Y027366D01*
X029680Y027465D02*
X028897Y027465D01*
X028911Y027563D02*
X029680Y027563D01*
X029680Y027662D02*
X028911Y027662D01*
X028911Y027760D02*
X029680Y027760D01*
X029680Y027859D02*
X028907Y027859D01*
X028880Y027957D02*
X029680Y027957D01*
X029680Y028056D02*
X028854Y028056D01*
X028827Y028154D02*
X029680Y028154D01*
X029680Y028253D02*
X028771Y028253D01*
X028714Y028351D02*
X029680Y028351D01*
X029680Y028450D02*
X028651Y028450D01*
X028553Y028548D02*
X029680Y028548D01*
X029680Y028647D02*
X028454Y028647D01*
X028297Y028745D02*
X029680Y028745D01*
X029680Y028844D02*
X028094Y028844D01*
X027266Y028844D02*
X024685Y028844D01*
X024685Y028942D02*
X029680Y028942D01*
X029680Y029041D02*
X024685Y029041D01*
X024663Y029139D02*
X029680Y029139D01*
X029680Y029238D02*
X018614Y029238D01*
X018625Y029139D02*
X019697Y029139D01*
X019675Y029041D02*
X018625Y029041D01*
X018625Y028942D02*
X019675Y028942D01*
X019675Y028844D02*
X018625Y028844D01*
X018625Y028745D02*
X019675Y028745D01*
X019675Y028647D02*
X018625Y028647D01*
X018625Y028548D02*
X019675Y028548D01*
X019675Y028450D02*
X018563Y028450D01*
X018410Y028351D02*
X019656Y028351D01*
X019557Y028253D02*
X018410Y028253D01*
X018319Y028154D02*
X019459Y028154D01*
X019360Y028056D02*
X018221Y028056D01*
X018122Y027957D02*
X019262Y027957D01*
X019163Y027859D02*
X018615Y027859D01*
X018625Y027760D02*
X019065Y027760D01*
X018966Y027662D02*
X018625Y027662D01*
X018625Y027563D02*
X018868Y027563D01*
X018769Y027465D02*
X018625Y027465D01*
X018625Y027366D02*
X018671Y027366D01*
X017767Y028253D02*
X017500Y028253D01*
X017500Y028351D02*
X017866Y028351D01*
X017797Y028450D02*
X017500Y028450D01*
X017500Y028548D02*
X017735Y028548D01*
X017735Y028647D02*
X017500Y028647D01*
X017480Y028745D02*
X017735Y028745D01*
X017735Y028844D02*
X017382Y028844D01*
X017283Y028942D02*
X017735Y028942D01*
X017735Y029041D02*
X017185Y029041D01*
X017086Y029139D02*
X017735Y029139D01*
X017746Y029238D02*
X016988Y029238D01*
X016889Y029336D02*
X029680Y029336D01*
X029680Y029435D02*
X016791Y029435D01*
X016692Y029533D02*
X029680Y029533D01*
X029680Y029632D02*
X000680Y029632D01*
X000680Y029533D02*
X007668Y029533D01*
X007569Y029435D02*
X000680Y029435D01*
X000680Y029336D02*
X007471Y029336D01*
X007372Y029238D02*
X006614Y029238D01*
X006625Y029139D02*
X007274Y029139D01*
X005746Y029238D02*
X000680Y029238D01*
X000680Y029139D02*
X005735Y029139D01*
X005735Y029041D02*
X000680Y029041D01*
X000680Y028942D02*
X005735Y028942D01*
X005735Y028844D02*
X003094Y028844D01*
X003155Y028827D02*
X002842Y028911D01*
X002518Y028911D01*
X002205Y028827D01*
X001924Y028665D01*
X001695Y028436D01*
X001533Y028155D01*
X001449Y027842D01*
X001449Y027518D01*
X001533Y027205D01*
X001695Y026924D01*
X001924Y026695D01*
X002205Y026533D01*
X002518Y026449D01*
X002842Y026449D01*
X003155Y026533D01*
X003436Y026695D01*
X003665Y026924D01*
X003827Y027205D01*
X003911Y027518D01*
X003911Y027842D01*
X003827Y028155D01*
X003665Y028436D01*
X003436Y028665D01*
X003155Y028827D01*
X003297Y028745D02*
X005735Y028745D01*
X005681Y028647D02*
X003454Y028647D01*
X003553Y028548D02*
X005583Y028548D01*
X005484Y028450D02*
X003651Y028450D01*
X003714Y028351D02*
X005386Y028351D01*
X005287Y028253D02*
X003771Y028253D01*
X003827Y028154D02*
X005189Y028154D01*
X005090Y028056D02*
X003854Y028056D01*
X003880Y027957D02*
X004992Y027957D01*
X004893Y027859D02*
X003907Y027859D01*
X003911Y027760D02*
X004795Y027760D01*
X004696Y027662D02*
X003911Y027662D01*
X003911Y027563D02*
X004598Y027563D01*
X004499Y027465D02*
X003897Y027465D01*
X003870Y027366D02*
X004401Y027366D01*
X004302Y027268D02*
X003844Y027268D01*
X003806Y027169D02*
X004204Y027169D01*
X004105Y027071D02*
X003750Y027071D01*
X003693Y026972D02*
X004080Y026972D01*
X004080Y026874D02*
X003614Y026874D01*
X003516Y026775D02*
X004080Y026775D01*
X004080Y026677D02*
X003404Y026677D01*
X003233Y026578D02*
X004080Y026578D01*
X004080Y026480D02*
X002956Y026480D01*
X002404Y026480D02*
X000680Y026480D01*
X000680Y026578D02*
X002127Y026578D01*
X001956Y026677D02*
X000680Y026677D01*
X000680Y026775D02*
X001844Y026775D01*
X001746Y026874D02*
X000680Y026874D01*
X000680Y026972D02*
X001667Y026972D01*
X001610Y027071D02*
X000680Y027071D01*
X000680Y027169D02*
X001554Y027169D01*
X001516Y027268D02*
X000680Y027268D01*
X000680Y027366D02*
X001490Y027366D01*
X001463Y027465D02*
X000680Y027465D01*
X000680Y027563D02*
X001449Y027563D01*
X001449Y027662D02*
X000680Y027662D01*
X000680Y027760D02*
X001449Y027760D01*
X001453Y027859D02*
X000680Y027859D01*
X000680Y027957D02*
X001480Y027957D01*
X001506Y028056D02*
X000680Y028056D01*
X000680Y028154D02*
X001533Y028154D01*
X001589Y028253D02*
X000680Y028253D01*
X000680Y028351D02*
X001646Y028351D01*
X001709Y028450D02*
X000680Y028450D01*
X000680Y028548D02*
X001807Y028548D01*
X001906Y028647D02*
X000680Y028647D01*
X000680Y028745D02*
X002063Y028745D01*
X002266Y028844D02*
X000680Y028844D01*
X000680Y026381D02*
X004080Y026381D01*
X004080Y026283D02*
X000680Y026283D01*
X000680Y026184D02*
X004080Y026184D01*
X004080Y026086D02*
X000680Y026086D01*
X000680Y025987D02*
X004080Y025987D01*
X004080Y025889D02*
X000680Y025889D01*
X000680Y025790D02*
X004080Y025790D01*
X004080Y025692D02*
X000680Y025692D01*
X000680Y025593D02*
X004080Y025593D01*
X004080Y025495D02*
X000680Y025495D01*
X000680Y025396D02*
X004080Y025396D01*
X004080Y025298D02*
X000680Y025298D01*
X000680Y025199D02*
X004080Y025199D01*
X004080Y025101D02*
X000680Y025101D01*
X000680Y025002D02*
X004080Y025002D01*
X004080Y024904D02*
X000680Y024904D01*
X000680Y024805D02*
X004080Y024805D01*
X004080Y024707D02*
X000680Y024707D01*
X000680Y024608D02*
X004080Y024608D01*
X004080Y024510D02*
X000680Y024510D01*
X000680Y024411D02*
X004080Y024411D01*
X004080Y024313D02*
X000680Y024313D01*
X000680Y024214D02*
X004080Y024214D01*
X004080Y024116D02*
X000680Y024116D01*
X000680Y024017D02*
X004080Y024017D01*
X004080Y023919D02*
X003594Y023919D01*
X003610Y023902D02*
X003576Y023937D01*
X003535Y023965D01*
X003489Y023983D01*
X003441Y023993D01*
X002246Y023993D01*
X002246Y022730D01*
X003666Y022730D01*
X003666Y023768D01*
X003657Y023816D01*
X003638Y023861D01*
X003610Y023902D01*
X003655Y023820D02*
X004080Y023820D01*
X004080Y023722D02*
X003666Y023722D01*
X003666Y023623D02*
X004080Y023623D01*
X004080Y023525D02*
X003666Y023525D01*
X003666Y023426D02*
X004080Y023426D01*
X004080Y023328D02*
X003666Y023328D01*
X003666Y023229D02*
X004080Y023229D01*
X004080Y023131D02*
X003666Y023131D01*
X003666Y023032D02*
X004130Y023032D01*
X004130Y022934D02*
X003666Y022934D01*
X003666Y022835D02*
X004130Y022835D01*
X004130Y022737D02*
X003666Y022737D01*
X003666Y022630D02*
X002246Y022630D01*
X002246Y022730D01*
X002146Y022730D01*
X002146Y023993D01*
X000951Y023993D01*
X000902Y023983D01*
X000857Y023965D01*
X000816Y023937D01*
X000781Y023902D01*
X000754Y023861D01*
X000735Y023816D01*
X000725Y023768D01*
X000725Y022730D01*
X002146Y022730D01*
X002146Y022630D01*
X002246Y022630D01*
X002246Y021367D01*
X003441Y021367D01*
X003489Y021377D01*
X003535Y021395D01*
X003576Y021423D01*
X003610Y021458D01*
X003638Y021499D01*
X003657Y021544D01*
X003666Y021592D01*
X003666Y022630D01*
X003666Y022540D02*
X004130Y022540D01*
X004130Y022638D02*
X002246Y022638D01*
X002246Y022540D02*
X002146Y022540D01*
X002146Y022630D02*
X002146Y021367D01*
X000951Y021367D01*
X000902Y021377D01*
X000857Y021395D01*
X000816Y021423D01*
X000781Y021458D01*
X000754Y021499D01*
X000735Y021544D01*
X000725Y021592D01*
X000725Y022630D01*
X002146Y022630D01*
X002146Y022638D02*
X000680Y022638D01*
X000680Y022540D02*
X000725Y022540D01*
X000725Y022441D02*
X000680Y022441D01*
X000680Y022343D02*
X000725Y022343D01*
X000725Y022244D02*
X000680Y022244D01*
X000680Y022146D02*
X000725Y022146D01*
X000725Y022047D02*
X000680Y022047D01*
X000680Y021949D02*
X000725Y021949D01*
X000725Y021850D02*
X000680Y021850D01*
X000680Y021752D02*
X000725Y021752D01*
X000725Y021653D02*
X000680Y021653D01*
X000680Y021555D02*
X000733Y021555D01*
X000783Y021456D02*
X000680Y021456D01*
X000680Y021358D02*
X004130Y021358D01*
X004130Y021456D02*
X003609Y021456D01*
X003659Y021555D02*
X004130Y021555D01*
X004130Y021653D02*
X003666Y021653D01*
X003666Y021752D02*
X004130Y021752D01*
X004130Y021850D02*
X003666Y021850D01*
X003666Y021949D02*
X004130Y021949D01*
X004130Y022047D02*
X003666Y022047D01*
X003666Y022146D02*
X004130Y022146D01*
X004130Y022244D02*
X003666Y022244D01*
X003666Y022343D02*
X004130Y022343D01*
X004130Y022441D02*
X003666Y022441D01*
X004130Y021259D02*
X000680Y021259D01*
X000680Y021161D02*
X004130Y021161D01*
X004130Y021062D02*
X000680Y021062D01*
X000680Y020964D02*
X004130Y020964D01*
X004130Y020865D02*
X000680Y020865D01*
X000680Y020767D02*
X004130Y020767D01*
X004130Y020668D02*
X000680Y020668D01*
X000680Y020570D02*
X004130Y020570D01*
X004130Y020471D02*
X000680Y020471D01*
X000680Y020373D02*
X004130Y020373D01*
X004130Y020274D02*
X000680Y020274D01*
X000680Y020176D02*
X004130Y020176D01*
X004130Y020077D02*
X000680Y020077D01*
X000680Y019979D02*
X004130Y019979D01*
X004130Y019880D02*
X000680Y019880D01*
X000680Y019782D02*
X004130Y019782D01*
X004130Y019683D02*
X000680Y019683D01*
X000680Y019585D02*
X004130Y019585D01*
X004130Y019486D02*
X000680Y019486D01*
X000680Y019388D02*
X004130Y019388D01*
X004130Y019289D02*
X000680Y019289D01*
X000680Y019191D02*
X004130Y019191D01*
X004130Y019092D02*
X003841Y019092D01*
X004014Y018994D02*
X004130Y018994D01*
X004129Y018895D02*
X004130Y018895D01*
X003480Y018895D02*
X003380Y018895D01*
X003380Y018797D02*
X003480Y018797D01*
X003480Y018698D02*
X003380Y018698D01*
X003380Y018600D02*
X003480Y018600D01*
X003480Y018501D02*
X003380Y018501D01*
X003380Y018403D02*
X003480Y018403D01*
X003480Y018304D02*
X003380Y018304D01*
X003380Y018206D02*
X000680Y018206D01*
X000680Y018304D02*
X002438Y018304D01*
X002455Y018403D02*
X000680Y018403D01*
X000680Y018501D02*
X002483Y018501D01*
X002522Y018600D02*
X000680Y018600D01*
X000680Y018698D02*
X002574Y018698D01*
X002643Y018797D02*
X000680Y018797D01*
X000680Y018895D02*
X002731Y018895D01*
X002846Y018994D02*
X000680Y018994D01*
X000680Y019092D02*
X003019Y019092D01*
X003380Y019092D02*
X003480Y019092D01*
X003480Y018994D02*
X003380Y018994D01*
X003380Y018130D02*
X002430Y018130D01*
X002430Y018124D01*
X002443Y018012D01*
X002468Y017903D01*
X002505Y017797D01*
X002553Y017696D01*
X002613Y017600D01*
X002683Y017513D01*
X002763Y017433D01*
X002850Y017363D01*
X002946Y017303D01*
X003047Y017255D01*
X003153Y017218D01*
X003262Y017193D01*
X003374Y017180D01*
X003380Y017180D01*
X003380Y018130D01*
X003380Y018107D02*
X003480Y018107D01*
X003480Y018009D02*
X003380Y018009D01*
X003380Y017910D02*
X003480Y017910D01*
X003480Y017812D02*
X003380Y017812D01*
X003380Y017713D02*
X003480Y017713D01*
X003480Y017615D02*
X003380Y017615D01*
X003380Y017516D02*
X003480Y017516D01*
X003480Y017418D02*
X003380Y017418D01*
X003380Y017319D02*
X003480Y017319D01*
X003480Y017221D02*
X003380Y017221D01*
X003144Y017221D02*
X000680Y017221D01*
X000680Y017319D02*
X002921Y017319D01*
X002782Y017418D02*
X000680Y017418D01*
X000680Y017516D02*
X002680Y017516D01*
X002604Y017615D02*
X000680Y017615D01*
X000680Y017713D02*
X002545Y017713D01*
X002499Y017812D02*
X000680Y017812D01*
X000680Y017910D02*
X002466Y017910D01*
X002443Y018009D02*
X000680Y018009D01*
X000680Y018107D02*
X002432Y018107D01*
X003716Y017221D02*
X005244Y017221D01*
X005146Y017319D02*
X003939Y017319D01*
X004078Y017418D02*
X005047Y017418D01*
X004949Y017516D02*
X004180Y017516D01*
X004256Y017615D02*
X004850Y017615D01*
X004752Y017713D02*
X004315Y017713D01*
X004361Y017812D02*
X004653Y017812D01*
X004555Y017910D02*
X004394Y017910D01*
X004417Y018009D02*
X004456Y018009D01*
X005343Y017122D02*
X000680Y017122D01*
X000680Y017024D02*
X005441Y017024D01*
X005540Y016925D02*
X000680Y016925D01*
X000680Y016827D02*
X005638Y016827D01*
X005737Y016728D02*
X000680Y016728D01*
X000680Y016630D02*
X005835Y016630D01*
X005934Y016531D02*
X000680Y016531D01*
X000680Y016433D02*
X006032Y016433D01*
X006131Y016334D02*
X000680Y016334D01*
X000680Y016236D02*
X006229Y016236D01*
X006328Y016137D02*
X000680Y016137D01*
X000680Y016039D02*
X006426Y016039D01*
X006525Y015940D02*
X000680Y015940D01*
X000680Y015842D02*
X006623Y015842D01*
X006630Y015743D02*
X000680Y015743D01*
X000680Y015645D02*
X006630Y015645D01*
X006630Y015546D02*
X000680Y015546D01*
X000680Y015448D02*
X006630Y015448D01*
X006630Y015349D02*
X000680Y015349D01*
X000680Y015251D02*
X006630Y015251D01*
X006630Y015152D02*
X000680Y015152D01*
X000680Y015054D02*
X006630Y015054D01*
X006630Y014955D02*
X000680Y014955D01*
X000680Y014857D02*
X006630Y014857D01*
X006630Y014758D02*
X000680Y014758D01*
X000680Y014660D02*
X006630Y014660D01*
X006630Y014561D02*
X000680Y014561D01*
X000680Y014463D02*
X006630Y014463D01*
X006630Y014364D02*
X000680Y014364D01*
X000680Y014266D02*
X006630Y014266D01*
X006630Y014167D02*
X003599Y014167D01*
X003598Y014167D02*
X003486Y014180D01*
X003480Y014180D01*
X003480Y013230D01*
X004430Y013230D01*
X004430Y013236D01*
X004417Y013348D01*
X004392Y013457D01*
X004355Y013563D01*
X004307Y013664D01*
X004247Y013760D01*
X004177Y013847D01*
X004097Y013927D01*
X004010Y013997D01*
X003914Y014057D01*
X003813Y014105D01*
X003707Y014142D01*
X003598Y014167D01*
X003480Y014167D02*
X003380Y014167D01*
X003380Y014180D02*
X003374Y014180D01*
X003262Y014167D01*
X003153Y014142D01*
X003047Y014105D01*
X002946Y014057D01*
X002850Y013997D01*
X002763Y013927D01*
X002683Y013847D01*
X002613Y013760D01*
X002553Y013664D01*
X002505Y013563D01*
X002468Y013457D01*
X002443Y013348D01*
X002430Y013236D01*
X002430Y013230D01*
X003380Y013230D01*
X003380Y014180D01*
X003380Y014069D02*
X003480Y014069D01*
X003480Y013970D02*
X003380Y013970D01*
X003380Y013872D02*
X003480Y013872D01*
X003480Y013773D02*
X003380Y013773D01*
X003380Y013675D02*
X003480Y013675D01*
X003480Y013576D02*
X003380Y013576D01*
X003380Y013478D02*
X003480Y013478D01*
X003480Y013379D02*
X003380Y013379D01*
X003380Y013281D02*
X003480Y013281D01*
X003480Y013230D02*
X003380Y013230D01*
X003380Y013130D01*
X003480Y013130D01*
X003480Y013230D01*
X003480Y013182D02*
X005030Y013182D01*
X005030Y013084D02*
X004425Y013084D01*
X004430Y013124D02*
X004430Y013130D01*
X003480Y013130D01*
X003480Y012180D01*
X003486Y012180D01*
X003598Y012193D01*
X003707Y012218D01*
X003813Y012255D01*
X003914Y012303D01*
X004010Y012363D01*
X004097Y012433D01*
X004177Y012513D01*
X004247Y012600D01*
X004307Y012696D01*
X004355Y012797D01*
X004392Y012903D01*
X004417Y013012D01*
X004430Y013124D01*
X004411Y012985D02*
X005037Y012985D01*
X005077Y012887D02*
X004387Y012887D01*
X004351Y012788D02*
X005118Y012788D01*
X005114Y012690D02*
X004303Y012690D01*
X004239Y012591D02*
X005016Y012591D01*
X004917Y012493D02*
X004157Y012493D01*
X004048Y012394D02*
X004819Y012394D01*
X004720Y012296D02*
X003898Y012296D01*
X003617Y012197D02*
X004622Y012197D01*
X004523Y012099D02*
X000680Y012099D01*
X000680Y012197D02*
X003243Y012197D01*
X003262Y012193D02*
X003374Y012180D01*
X003380Y012180D01*
X003380Y013130D01*
X002430Y013130D01*
X002430Y013124D01*
X002443Y013012D01*
X002468Y012903D01*
X002505Y012797D01*
X002553Y012696D01*
X002613Y012600D01*
X002683Y012513D01*
X002763Y012433D01*
X002850Y012363D01*
X002946Y012303D01*
X003047Y012255D01*
X003153Y012218D01*
X003262Y012193D01*
X003380Y012197D02*
X003480Y012197D01*
X003480Y012296D02*
X003380Y012296D01*
X003380Y012394D02*
X003480Y012394D01*
X003480Y012493D02*
X003380Y012493D01*
X003380Y012591D02*
X003480Y012591D01*
X003480Y012690D02*
X003380Y012690D01*
X003380Y012788D02*
X003480Y012788D01*
X003480Y012887D02*
X003380Y012887D01*
X003380Y012985D02*
X003480Y012985D01*
X003480Y013084D02*
X003380Y013084D01*
X003380Y013182D02*
X000680Y013182D01*
X000680Y013084D02*
X002435Y013084D01*
X002449Y012985D02*
X000680Y012985D01*
X000680Y012887D02*
X002473Y012887D01*
X002509Y012788D02*
X000680Y012788D01*
X000680Y012690D02*
X002557Y012690D01*
X002621Y012591D02*
X000680Y012591D01*
X000680Y012493D02*
X002703Y012493D01*
X002812Y012394D02*
X000680Y012394D01*
X000680Y012296D02*
X002962Y012296D01*
X002435Y013281D02*
X000680Y013281D01*
X000680Y013379D02*
X002450Y013379D01*
X002475Y013478D02*
X000680Y013478D01*
X000680Y013576D02*
X002511Y013576D01*
X002560Y013675D02*
X000680Y013675D01*
X000680Y013773D02*
X002624Y013773D01*
X002707Y013872D02*
X000680Y013872D01*
X000680Y013970D02*
X002817Y013970D01*
X002970Y014069D02*
X000680Y014069D01*
X000680Y014167D02*
X003261Y014167D01*
X003890Y014069D02*
X005723Y014069D01*
X005486Y013970D02*
X004043Y013970D01*
X004153Y013872D02*
X005349Y013872D01*
X005250Y013773D02*
X004236Y013773D01*
X004300Y013675D02*
X005161Y013675D01*
X005120Y013576D02*
X004349Y013576D01*
X004385Y013478D02*
X005079Y013478D01*
X005038Y013379D02*
X004410Y013379D01*
X004425Y013281D02*
X005030Y013281D01*
X006137Y014069D02*
X006630Y014069D01*
X006630Y013970D02*
X006374Y013970D01*
X006511Y013872D02*
X006630Y013872D01*
X006630Y013773D02*
X006610Y013773D01*
X007090Y013773D02*
X009660Y013773D01*
X009660Y013675D02*
X007090Y013675D01*
X007090Y013576D02*
X009660Y013576D01*
X009660Y013478D02*
X007090Y013478D01*
X007090Y013379D02*
X009660Y013379D01*
X009660Y013281D02*
X007090Y013281D01*
X007090Y013182D02*
X009660Y013182D01*
X009660Y013084D02*
X007090Y013084D01*
X007090Y012985D02*
X009660Y012985D01*
X009660Y012887D02*
X007090Y012887D01*
X007090Y012788D02*
X009660Y012788D01*
X009660Y012690D02*
X007090Y012690D01*
X007090Y012591D02*
X009660Y012591D01*
X009660Y012493D02*
X007090Y012493D01*
X007090Y012394D02*
X009660Y012394D01*
X009660Y012296D02*
X007090Y012296D01*
X007090Y012197D02*
X009660Y012197D01*
X009660Y012099D02*
X007090Y012099D01*
X007090Y012000D02*
X009660Y012000D01*
X009660Y011902D02*
X007090Y011902D01*
X007090Y011803D02*
X009660Y011803D01*
X009660Y011705D02*
X007090Y011705D01*
X007090Y011606D02*
X009660Y011606D01*
X009660Y011508D02*
X007090Y011508D01*
X007090Y011409D02*
X009660Y011409D01*
X009660Y011311D02*
X007090Y011311D01*
X007090Y011212D02*
X009660Y011212D01*
X009660Y011114D02*
X007090Y011114D01*
X007090Y011015D02*
X009660Y011015D01*
X009660Y010917D02*
X007090Y010917D01*
X007090Y010818D02*
X009660Y010818D01*
X009660Y010720D02*
X007090Y010720D01*
X007090Y010621D02*
X009660Y010621D01*
X009660Y010523D02*
X007090Y010523D01*
X007090Y010424D02*
X009660Y010424D01*
X009660Y010326D02*
X007090Y010326D01*
X007090Y010227D02*
X009660Y010227D01*
X009660Y010129D02*
X007090Y010129D01*
X007090Y010030D02*
X009660Y010030D01*
X009660Y009932D02*
X007090Y009932D01*
X007090Y009833D02*
X009660Y009833D01*
X009660Y009735D02*
X007090Y009735D01*
X007090Y009636D02*
X009660Y009636D01*
X009660Y009538D02*
X007090Y009538D01*
X007090Y009515D02*
X007090Y016025D01*
X005835Y017280D01*
X006109Y017280D01*
X006440Y017417D01*
X006693Y017670D01*
X006830Y018001D01*
X006830Y018359D01*
X006693Y018690D01*
X006440Y018943D01*
X006109Y019080D01*
X005751Y019080D01*
X005471Y018964D01*
X005300Y019135D01*
X005300Y020520D01*
X007825Y020520D01*
X007960Y020655D01*
X008425Y021120D01*
X008425Y021113D01*
X008513Y021025D01*
X009347Y021025D01*
X009435Y021113D01*
X009435Y021867D01*
X009347Y021955D01*
X008513Y021955D01*
X008425Y021867D01*
X008425Y021710D01*
X008365Y021710D01*
X008285Y021630D01*
X007781Y021630D01*
X007781Y021126D01*
X007635Y020980D01*
X005300Y020980D01*
X005300Y021436D01*
X005447Y021436D01*
X005535Y021523D01*
X005535Y022041D01*
X005447Y022129D01*
X005280Y022129D01*
X005280Y022695D01*
X006164Y021811D01*
X006164Y021264D01*
X006252Y021176D01*
X007006Y021176D01*
X007094Y021264D01*
X007094Y022096D01*
X007006Y022184D01*
X006900Y022184D01*
X007313Y022598D01*
X007343Y022585D01*
X007392Y022576D01*
X007681Y022576D01*
X007681Y023130D01*
X007781Y023130D01*
X007781Y022576D01*
X008071Y022576D01*
X008119Y022585D01*
X008165Y022604D01*
X008206Y022631D01*
X008240Y022666D01*
X008268Y022707D01*
X008287Y022753D01*
X008296Y022801D01*
X008296Y023130D01*
X007781Y023130D01*
X007781Y023230D01*
X008296Y023230D01*
X008296Y023490D01*
X008445Y023490D01*
X008664Y023271D01*
X008664Y022764D01*
X008752Y022676D01*
X009506Y022676D01*
X009594Y022764D01*
X009594Y023319D01*
X009666Y023391D01*
X009666Y023230D01*
X010181Y023230D01*
X010181Y023130D01*
X009666Y023130D01*
X009666Y022801D01*
X009676Y022753D01*
X009695Y022707D01*
X009722Y022666D01*
X009757Y022631D01*
X009798Y022604D01*
X009843Y022585D01*
X009892Y022576D01*
X010181Y022576D01*
X010181Y023130D01*
X010281Y023130D01*
X010281Y022576D01*
X010571Y022576D01*
X010619Y022585D01*
X010665Y022604D01*
X010706Y022631D01*
X010740Y022666D01*
X010768Y022707D01*
X010787Y022753D01*
X010796Y022801D01*
X010796Y023130D01*
X010281Y023130D01*
X010281Y023230D01*
X010796Y023230D01*
X010796Y023559D01*
X010794Y023570D01*
X010895Y023570D01*
X010962Y023503D01*
X011090Y023450D01*
X011164Y023450D01*
X011164Y022764D01*
X011252Y022676D01*
X012006Y022676D01*
X012094Y022764D01*
X012094Y023319D01*
X012166Y023391D01*
X012166Y023230D01*
X012681Y023230D01*
X012681Y023130D01*
X012166Y023130D01*
X012166Y022801D01*
X012176Y022753D01*
X012176Y022751D01*
X012143Y022718D01*
X012090Y022590D01*
X012090Y022450D01*
X012143Y022322D01*
X012170Y022295D01*
X012170Y021245D01*
X012160Y021235D01*
X012160Y021287D01*
X012078Y021486D01*
X011926Y021638D01*
X011727Y021720D01*
X010733Y021720D01*
X010534Y021638D01*
X010382Y021486D01*
X010300Y021287D01*
X010300Y021073D01*
X010382Y020874D01*
X010491Y020766D01*
X010335Y020610D01*
X009435Y020610D01*
X009435Y020747D01*
X009347Y020835D01*
X008513Y020835D01*
X008425Y020747D01*
X008425Y019993D01*
X008513Y019905D01*
X009347Y019905D01*
X009435Y019993D01*
X009435Y020150D01*
X010525Y020150D01*
X011015Y020640D01*
X011565Y020640D01*
X009660Y018735D01*
X009660Y008155D01*
X009593Y008088D01*
X009540Y007960D01*
X009540Y007820D01*
X009593Y007692D01*
X009692Y007593D01*
X009820Y007540D01*
X009958Y007540D01*
X009880Y007462D01*
X009880Y006725D01*
X007090Y009515D01*
X007166Y009439D02*
X009660Y009439D01*
X009660Y009341D02*
X007265Y009341D01*
X007363Y009242D02*
X009660Y009242D01*
X009660Y009144D02*
X007462Y009144D01*
X007560Y009045D02*
X009660Y009045D01*
X009660Y008947D02*
X007659Y008947D01*
X007757Y008848D02*
X009660Y008848D01*
X009660Y008750D02*
X007856Y008750D01*
X007954Y008651D02*
X009660Y008651D01*
X009660Y008553D02*
X008053Y008553D01*
X008151Y008454D02*
X009660Y008454D01*
X009660Y008356D02*
X008250Y008356D01*
X008348Y008257D02*
X009660Y008257D01*
X009660Y008159D02*
X008447Y008159D01*
X008545Y008060D02*
X009582Y008060D01*
X009541Y007962D02*
X008644Y007962D01*
X008742Y007863D02*
X009540Y007863D01*
X009563Y007765D02*
X008841Y007765D01*
X008939Y007666D02*
X009619Y007666D01*
X009754Y007568D02*
X009038Y007568D01*
X009136Y007469D02*
X009887Y007469D01*
X009880Y007371D02*
X009235Y007371D01*
X009333Y007272D02*
X009880Y007272D01*
X009880Y007174D02*
X009432Y007174D01*
X009530Y007075D02*
X009880Y007075D01*
X009880Y006977D02*
X009629Y006977D01*
X009727Y006878D02*
X009880Y006878D01*
X009880Y006780D02*
X009826Y006780D01*
X013275Y003630D02*
X015505Y005860D01*
X015600Y005860D01*
X015728Y005913D01*
X015827Y006012D01*
X015880Y006140D01*
X015880Y006280D01*
X015843Y006370D01*
X015892Y006370D01*
X015980Y006458D01*
X015980Y006575D01*
X016340Y006215D01*
X016475Y006080D01*
X019323Y006080D01*
X019290Y006000D01*
X019290Y005860D01*
X019343Y005732D01*
X019410Y005665D01*
X019410Y003255D01*
X019545Y003120D01*
X019655Y003010D01*
X019688Y003010D01*
X019675Y002997D01*
X019675Y002470D01*
X019135Y001930D01*
X017708Y001930D01*
X017730Y001952D01*
X017730Y002130D01*
X017230Y002130D01*
X017230Y002230D01*
X017130Y002230D01*
X017130Y002730D01*
X016952Y002730D01*
X016630Y002408D01*
X016630Y002230D01*
X017130Y002230D01*
X017130Y002130D01*
X016630Y002130D01*
X016630Y001952D01*
X016652Y001930D01*
X016566Y001930D01*
X016630Y001994D01*
X016630Y002366D01*
X016366Y002630D01*
X015994Y002630D01*
X015730Y002366D01*
X015730Y001994D01*
X015794Y001930D01*
X015566Y001930D01*
X015630Y001994D01*
X015630Y002305D01*
X016055Y002730D01*
X016366Y002730D01*
X016630Y002994D01*
X016630Y003366D01*
X016366Y003630D01*
X015994Y003630D01*
X015730Y003366D01*
X015730Y003055D01*
X015730Y003130D01*
X015230Y003130D01*
X015230Y003230D01*
X015130Y003230D01*
X015130Y003730D01*
X014952Y003730D01*
X014630Y003408D01*
X014630Y003230D01*
X015130Y003230D01*
X015130Y003130D01*
X015230Y003130D01*
X015230Y002630D01*
X015305Y002630D01*
X015305Y002630D01*
X015055Y002630D01*
X015130Y002630D01*
X015130Y003130D01*
X014630Y003130D01*
X014630Y002952D01*
X014692Y002890D01*
X014526Y002890D01*
X014630Y002994D01*
X014630Y003366D01*
X014366Y003630D01*
X013994Y003630D01*
X013730Y003366D01*
X013730Y003275D01*
X013595Y003410D01*
X013586Y003410D01*
X013366Y003630D01*
X013275Y003630D01*
X013369Y003628D02*
X013991Y003628D01*
X013893Y003529D02*
X013467Y003529D01*
X013566Y003431D02*
X013794Y003431D01*
X013730Y003332D02*
X013673Y003332D01*
X013496Y002859D02*
X013788Y002566D01*
X013630Y002408D01*
X013630Y002230D01*
X014130Y002230D01*
X014130Y002130D01*
X013630Y002130D01*
X013630Y001952D01*
X013652Y001930D01*
X013566Y001930D01*
X013630Y001994D01*
X013630Y002366D01*
X013366Y002630D01*
X012994Y002630D01*
X012730Y002366D01*
X012730Y002275D01*
X012195Y002810D01*
X010685Y002810D01*
X010685Y002997D01*
X010672Y003010D01*
X012655Y003010D01*
X012730Y003085D01*
X012730Y002994D01*
X012994Y002730D01*
X013366Y002730D01*
X013496Y002859D01*
X013515Y002840D02*
X013476Y002840D01*
X013377Y002741D02*
X013614Y002741D01*
X013712Y002643D02*
X012363Y002643D01*
X012264Y002741D02*
X012983Y002741D01*
X012884Y002840D02*
X010685Y002840D01*
X010685Y002938D02*
X012786Y002938D01*
X012730Y003037D02*
X012682Y003037D01*
X012461Y002544D02*
X012908Y002544D01*
X012809Y002446D02*
X012560Y002446D01*
X012658Y002347D02*
X012730Y002347D01*
X013452Y002544D02*
X013766Y002544D01*
X013668Y002446D02*
X013551Y002446D01*
X013630Y002347D02*
X013630Y002347D01*
X013630Y002249D02*
X013630Y002249D01*
X013630Y002150D02*
X014130Y002150D01*
X014230Y002150D02*
X014730Y002150D01*
X014730Y002130D02*
X014230Y002130D01*
X014230Y002230D01*
X014730Y002230D01*
X014730Y002305D01*
X014730Y002305D01*
X014730Y001994D01*
X014794Y001930D01*
X014708Y001930D01*
X014730Y001952D01*
X014730Y002130D01*
X014730Y002052D02*
X014730Y002052D01*
X014730Y001953D02*
X014771Y001953D01*
X014730Y002249D02*
X014730Y002249D01*
X015055Y002630D02*
X015055Y002630D01*
X015130Y002643D02*
X015230Y002643D01*
X015230Y002741D02*
X015130Y002741D01*
X015130Y002840D02*
X015230Y002840D01*
X015230Y002938D02*
X015130Y002938D01*
X015130Y003037D02*
X015230Y003037D01*
X015230Y003135D02*
X015730Y003135D01*
X015730Y003055D02*
X015730Y003055D01*
X015730Y003230D02*
X015730Y003408D01*
X015408Y003730D01*
X015230Y003730D01*
X015230Y003230D01*
X015730Y003230D01*
X015730Y003234D02*
X015730Y003234D01*
X015730Y003332D02*
X015730Y003332D01*
X015707Y003431D02*
X015794Y003431D01*
X015893Y003529D02*
X015609Y003529D01*
X015510Y003628D02*
X015991Y003628D01*
X016369Y003628D02*
X016991Y003628D01*
X016994Y003630D02*
X016730Y003366D01*
X016730Y002994D01*
X016994Y002730D01*
X017366Y002730D01*
X017630Y002994D01*
X017630Y003366D01*
X017366Y003630D01*
X016994Y003630D01*
X016893Y003529D02*
X016467Y003529D01*
X016566Y003431D02*
X016794Y003431D01*
X016730Y003332D02*
X016630Y003332D01*
X016630Y003234D02*
X016730Y003234D01*
X016730Y003135D02*
X016630Y003135D01*
X016630Y003037D02*
X016730Y003037D01*
X016786Y002938D02*
X016574Y002938D01*
X016476Y002840D02*
X016884Y002840D01*
X016983Y002741D02*
X016377Y002741D01*
X016452Y002544D02*
X016766Y002544D01*
X016668Y002446D02*
X016551Y002446D01*
X016630Y002347D02*
X016630Y002347D01*
X016630Y002249D02*
X016630Y002249D01*
X016630Y002150D02*
X017130Y002150D01*
X017130Y002249D02*
X017230Y002249D01*
X017230Y002230D02*
X017230Y002730D01*
X017408Y002730D01*
X017730Y002408D01*
X017730Y002230D01*
X017230Y002230D01*
X017230Y002150D02*
X019355Y002150D01*
X019453Y002249D02*
X017730Y002249D01*
X017730Y002347D02*
X019552Y002347D01*
X019650Y002446D02*
X017692Y002446D01*
X017594Y002544D02*
X019675Y002544D01*
X019675Y002643D02*
X017495Y002643D01*
X017377Y002741D02*
X019675Y002741D01*
X019675Y002840D02*
X017476Y002840D01*
X017574Y002938D02*
X019675Y002938D01*
X019628Y003037D02*
X017630Y003037D01*
X017630Y003135D02*
X019530Y003135D01*
X019431Y003234D02*
X017630Y003234D01*
X017630Y003332D02*
X019410Y003332D01*
X019410Y003431D02*
X017566Y003431D01*
X017467Y003529D02*
X019410Y003529D01*
X019410Y003628D02*
X017369Y003628D01*
X017230Y002643D02*
X017130Y002643D01*
X017130Y002544D02*
X017230Y002544D01*
X017230Y002446D02*
X017130Y002446D01*
X017130Y002347D02*
X017230Y002347D01*
X016865Y002643D02*
X015968Y002643D01*
X015908Y002544D02*
X015869Y002544D01*
X015809Y002446D02*
X015771Y002446D01*
X015730Y002347D02*
X015672Y002347D01*
X015630Y002249D02*
X015730Y002249D01*
X015730Y002150D02*
X015630Y002150D01*
X015630Y002052D02*
X015730Y002052D01*
X015771Y001953D02*
X015589Y001953D01*
X016589Y001953D02*
X016630Y001953D01*
X016630Y002052D02*
X016630Y002052D01*
X017730Y002052D02*
X019256Y002052D01*
X019158Y001953D02*
X017730Y001953D01*
X019410Y003726D02*
X015412Y003726D01*
X015230Y003726D02*
X015130Y003726D01*
X015130Y003628D02*
X015230Y003628D01*
X015230Y003529D02*
X015130Y003529D01*
X015130Y003431D02*
X015230Y003431D01*
X015230Y003332D02*
X015130Y003332D01*
X015130Y003234D02*
X015230Y003234D01*
X015130Y003135D02*
X014630Y003135D01*
X014630Y003037D02*
X014630Y003037D01*
X014644Y002938D02*
X014574Y002938D01*
X014630Y003234D02*
X014630Y003234D01*
X014630Y003332D02*
X014630Y003332D01*
X014653Y003431D02*
X014566Y003431D01*
X014467Y003529D02*
X014751Y003529D01*
X014850Y003628D02*
X014369Y003628D01*
X014948Y003726D02*
X013371Y003726D01*
X013470Y003825D02*
X019410Y003825D01*
X019410Y003923D02*
X013568Y003923D01*
X013667Y004022D02*
X019410Y004022D01*
X019410Y004120D02*
X013765Y004120D01*
X013864Y004219D02*
X019410Y004219D01*
X019410Y004317D02*
X013962Y004317D01*
X014061Y004416D02*
X019410Y004416D01*
X019410Y004514D02*
X014159Y004514D01*
X014258Y004613D02*
X019410Y004613D01*
X019410Y004711D02*
X014356Y004711D01*
X014455Y004810D02*
X019410Y004810D01*
X019410Y004908D02*
X014553Y004908D01*
X014652Y005007D02*
X019410Y005007D01*
X019410Y005105D02*
X014750Y005105D01*
X014849Y005204D02*
X019410Y005204D01*
X019410Y005302D02*
X014947Y005302D01*
X015046Y005401D02*
X019410Y005401D01*
X019410Y005499D02*
X015144Y005499D01*
X015243Y005598D02*
X019410Y005598D01*
X019379Y005696D02*
X015341Y005696D01*
X015440Y005795D02*
X019317Y005795D01*
X019290Y005893D02*
X015679Y005893D01*
X015806Y005992D02*
X019290Y005992D01*
X021160Y006583D02*
X021290Y006583D01*
X021290Y006681D02*
X021160Y006681D01*
X021160Y006780D02*
X021290Y006780D01*
X021290Y006878D02*
X021160Y006878D01*
X021160Y006977D02*
X021290Y006977D01*
X021290Y007075D02*
X021160Y007075D01*
X021160Y007174D02*
X021290Y007174D01*
X021290Y007272D02*
X021160Y007272D01*
X021160Y007371D02*
X021290Y007371D01*
X021297Y007469D02*
X021153Y007469D01*
X020970Y007568D02*
X021450Y007568D01*
X021450Y007666D02*
X020970Y007666D01*
X020970Y007765D02*
X021450Y007765D01*
X021450Y007863D02*
X020970Y007863D01*
X020970Y007962D02*
X021420Y007962D01*
X021400Y008060D02*
X020970Y008060D01*
X020970Y008159D02*
X021404Y008159D01*
X021444Y008257D02*
X020970Y008257D01*
X020950Y008356D02*
X021450Y008356D01*
X021450Y008454D02*
X020851Y008454D01*
X020753Y008553D02*
X021450Y008553D01*
X021450Y008651D02*
X020654Y008651D01*
X020556Y008750D02*
X021450Y008750D01*
X021910Y008750D02*
X023120Y008750D01*
X023120Y008848D02*
X022482Y008848D01*
X022539Y008947D02*
X023120Y008947D01*
X023120Y009045D02*
X022539Y009045D01*
X022539Y009144D02*
X023120Y009144D01*
X023103Y009242D02*
X022539Y009242D01*
X022539Y009341D02*
X023033Y009341D01*
X023000Y009439D02*
X022539Y009439D01*
X022539Y009538D02*
X023000Y009538D01*
X023032Y009636D02*
X022539Y009636D01*
X022539Y009735D02*
X023100Y009735D01*
X023264Y009833D02*
X022539Y009833D01*
X022502Y009932D02*
X024358Y009932D01*
X024321Y009833D02*
X023436Y009833D01*
X023600Y009735D02*
X024321Y009735D01*
X024321Y009636D02*
X023668Y009636D01*
X023700Y009538D02*
X024321Y009538D01*
X024321Y009439D02*
X023700Y009439D01*
X023667Y009341D02*
X024321Y009341D01*
X024321Y009242D02*
X023597Y009242D01*
X023580Y009144D02*
X024321Y009144D01*
X024321Y009045D02*
X023580Y009045D01*
X023580Y008947D02*
X024321Y008947D01*
X024378Y008848D02*
X023580Y008848D01*
X023580Y008750D02*
X024950Y008750D01*
X024950Y008651D02*
X023580Y008651D01*
X023580Y008553D02*
X024950Y008553D01*
X024950Y008454D02*
X023580Y008454D01*
X023580Y008356D02*
X024950Y008356D01*
X024950Y008257D02*
X023580Y008257D01*
X023580Y008159D02*
X024950Y008159D01*
X024875Y008060D02*
X023580Y008060D01*
X023580Y007962D02*
X024776Y007962D01*
X024770Y007863D02*
X023580Y007863D01*
X023580Y007765D02*
X024770Y007765D01*
X024770Y007666D02*
X023580Y007666D01*
X023580Y007568D02*
X024770Y007568D01*
X024770Y007469D02*
X024653Y007469D01*
X024660Y007371D02*
X024770Y007371D01*
X024770Y007272D02*
X024660Y007272D01*
X024660Y007174D02*
X024770Y007174D01*
X024770Y007075D02*
X024660Y007075D01*
X024660Y006977D02*
X024770Y006977D01*
X024766Y006878D02*
X024660Y006878D01*
X024660Y006780D02*
X024704Y006780D01*
X024862Y006287D02*
X027175Y006287D01*
X027175Y006189D02*
X024764Y006189D01*
X024665Y006090D02*
X027175Y006090D01*
X027175Y005992D02*
X022720Y005992D01*
X022720Y005893D02*
X027175Y005893D01*
X027175Y005795D02*
X022693Y005795D01*
X022631Y005696D02*
X027222Y005696D01*
X027410Y005598D02*
X022482Y005598D01*
X022264Y005499D02*
X027410Y005499D01*
X027410Y005401D02*
X022166Y005401D01*
X022067Y005302D02*
X027410Y005302D01*
X027368Y005204D02*
X021969Y005204D01*
X021870Y005105D02*
X027270Y005105D01*
X027171Y005007D02*
X021772Y005007D01*
X021673Y004908D02*
X027073Y004908D01*
X026974Y004810D02*
X021575Y004810D01*
X021476Y004711D02*
X026876Y004711D01*
X026777Y004613D02*
X021378Y004613D01*
X021279Y004514D02*
X026679Y004514D01*
X026580Y004416D02*
X021181Y004416D01*
X021082Y004317D02*
X026482Y004317D01*
X026383Y004219D02*
X020984Y004219D01*
X020885Y004120D02*
X021678Y004120D01*
X021675Y004022D02*
X020787Y004022D01*
X020688Y003923D02*
X020968Y003923D01*
X020869Y003825D02*
X020685Y003825D01*
X020685Y003726D02*
X020771Y003726D01*
X022685Y003726D02*
X023171Y003726D01*
X023114Y003628D02*
X022685Y003628D01*
X022685Y003529D02*
X023090Y003529D01*
X023090Y003431D02*
X022685Y003431D01*
X022685Y003825D02*
X023309Y003825D01*
X023538Y003923D02*
X022685Y003923D01*
X022685Y004022D02*
X023675Y004022D01*
X023678Y004120D02*
X022682Y004120D01*
X023902Y003234D02*
X025398Y003234D01*
X025497Y003332D02*
X024654Y003332D01*
X024685Y003431D02*
X025595Y003431D01*
X025694Y003529D02*
X024685Y003529D01*
X024685Y003628D02*
X025792Y003628D01*
X025891Y003726D02*
X024685Y003726D01*
X024685Y003825D02*
X025989Y003825D01*
X026088Y003923D02*
X024685Y003923D01*
X024685Y004022D02*
X026186Y004022D01*
X026285Y004120D02*
X024682Y004120D01*
X024646Y003037D02*
X025201Y003037D01*
X025300Y003135D02*
X024000Y003135D01*
X024685Y002938D02*
X025103Y002938D01*
X025004Y002840D02*
X024685Y002840D01*
X024685Y002741D02*
X024906Y002741D01*
X024807Y002643D02*
X024685Y002643D01*
X024685Y002544D02*
X024709Y002544D01*
X025064Y002249D02*
X026521Y002249D01*
X026533Y002205D02*
X026695Y001924D01*
X026924Y001695D01*
X027205Y001533D01*
X027518Y001449D01*
X027842Y001449D01*
X028155Y001533D01*
X028436Y001695D01*
X028665Y001924D01*
X028827Y002205D01*
X028911Y002518D01*
X028911Y002842D01*
X028827Y003155D01*
X028665Y003436D01*
X028436Y003665D01*
X028155Y003827D01*
X027842Y003911D01*
X027518Y003911D01*
X027205Y003827D01*
X026924Y003665D01*
X026695Y003436D01*
X026533Y003155D01*
X026449Y002842D01*
X026449Y002518D01*
X026533Y002205D01*
X026565Y002150D02*
X024965Y002150D01*
X024867Y002052D02*
X026621Y002052D01*
X026678Y001953D02*
X024768Y001953D01*
X024670Y001855D02*
X026765Y001855D01*
X026863Y001756D02*
X024571Y001756D01*
X024473Y001658D02*
X026989Y001658D01*
X027160Y001559D02*
X024374Y001559D01*
X024276Y001461D02*
X027475Y001461D01*
X027885Y001461D02*
X029680Y001461D01*
X029680Y001559D02*
X028200Y001559D01*
X028371Y001658D02*
X029680Y001658D01*
X029680Y001756D02*
X028497Y001756D01*
X028595Y001855D02*
X029680Y001855D01*
X029680Y001953D02*
X028682Y001953D01*
X028739Y002052D02*
X029680Y002052D01*
X029680Y002150D02*
X028795Y002150D01*
X028839Y002249D02*
X029680Y002249D01*
X029680Y002347D02*
X028865Y002347D01*
X028892Y002446D02*
X029680Y002446D01*
X029680Y002544D02*
X028911Y002544D01*
X028911Y002643D02*
X029680Y002643D01*
X029680Y002741D02*
X028911Y002741D01*
X028911Y002840D02*
X029680Y002840D01*
X029680Y002938D02*
X028885Y002938D01*
X028859Y003037D02*
X029680Y003037D01*
X029680Y003135D02*
X028833Y003135D01*
X028782Y003234D02*
X029680Y003234D01*
X029680Y003332D02*
X028725Y003332D01*
X028668Y003431D02*
X029680Y003431D01*
X029680Y003529D02*
X028572Y003529D01*
X028473Y003628D02*
X029680Y003628D01*
X029680Y003726D02*
X028330Y003726D01*
X028160Y003825D02*
X029680Y003825D01*
X029680Y003923D02*
X026738Y003923D01*
X026640Y003825D02*
X027200Y003825D01*
X027030Y003726D02*
X026541Y003726D01*
X026443Y003628D02*
X026887Y003628D01*
X026788Y003529D02*
X026344Y003529D01*
X026246Y003431D02*
X026692Y003431D01*
X026635Y003332D02*
X026147Y003332D01*
X026049Y003234D02*
X026578Y003234D01*
X026527Y003135D02*
X025950Y003135D01*
X025852Y003037D02*
X026501Y003037D01*
X026475Y002938D02*
X025753Y002938D01*
X025655Y002840D02*
X026449Y002840D01*
X026449Y002741D02*
X025556Y002741D01*
X025458Y002643D02*
X026449Y002643D01*
X026449Y002544D02*
X025359Y002544D01*
X025261Y002446D02*
X026468Y002446D01*
X026495Y002347D02*
X025162Y002347D01*
X024177Y001362D02*
X029680Y001362D01*
X029680Y001264D02*
X024079Y001264D01*
X023980Y001165D02*
X029680Y001165D01*
X029680Y001067D02*
X000680Y001067D01*
X000680Y001165D02*
X006380Y001165D01*
X006281Y001264D02*
X000680Y001264D01*
X000680Y001362D02*
X006183Y001362D01*
X006084Y001461D02*
X002885Y001461D01*
X002842Y001449D02*
X003155Y001533D01*
X003436Y001695D01*
X003665Y001924D01*
X003827Y002205D01*
X003911Y002518D01*
X003911Y002842D01*
X003827Y003155D01*
X003665Y003436D01*
X003436Y003665D01*
X003155Y003827D01*
X002842Y003911D01*
X002518Y003911D01*
X002205Y003827D01*
X001924Y003665D01*
X001695Y003436D01*
X001533Y003155D01*
X001449Y002842D01*
X001449Y002518D01*
X001533Y002205D01*
X001695Y001924D01*
X001924Y001695D01*
X002205Y001533D01*
X002518Y001449D01*
X002842Y001449D01*
X002475Y001461D02*
X000680Y001461D01*
X000680Y001559D02*
X002160Y001559D01*
X001989Y001658D02*
X000680Y001658D01*
X000680Y001756D02*
X001863Y001756D01*
X001765Y001855D02*
X000680Y001855D01*
X000680Y001953D02*
X001678Y001953D01*
X001621Y002052D02*
X000680Y002052D01*
X000680Y002150D02*
X001565Y002150D01*
X001521Y002249D02*
X000680Y002249D01*
X000680Y002347D02*
X001495Y002347D01*
X001468Y002446D02*
X000680Y002446D01*
X000680Y002544D02*
X001449Y002544D01*
X001449Y002643D02*
X000680Y002643D01*
X000680Y002741D02*
X001449Y002741D01*
X001449Y002840D02*
X000680Y002840D01*
X000680Y002938D02*
X001475Y002938D01*
X001501Y003037D02*
X000680Y003037D01*
X000680Y003135D02*
X001527Y003135D01*
X001578Y003234D02*
X000680Y003234D01*
X000680Y003332D02*
X001635Y003332D01*
X001692Y003431D02*
X000680Y003431D01*
X000680Y003529D02*
X001788Y003529D01*
X001887Y003628D02*
X000680Y003628D01*
X000680Y003726D02*
X002030Y003726D01*
X002200Y003825D02*
X000680Y003825D01*
X000680Y003923D02*
X004390Y003923D01*
X004390Y003825D02*
X003160Y003825D01*
X003330Y003726D02*
X004390Y003726D01*
X004390Y003628D02*
X003473Y003628D01*
X003572Y003529D02*
X004390Y003529D01*
X004390Y003431D02*
X003668Y003431D01*
X003725Y003332D02*
X004390Y003332D01*
X004390Y003234D02*
X003782Y003234D01*
X003833Y003135D02*
X004410Y003135D01*
X004508Y003037D02*
X003859Y003037D01*
X003885Y002938D02*
X004607Y002938D01*
X004705Y002840D02*
X003911Y002840D01*
X003911Y002741D02*
X004804Y002741D01*
X004902Y002643D02*
X003911Y002643D01*
X003911Y002544D02*
X005001Y002544D01*
X005099Y002446D02*
X003892Y002446D01*
X003865Y002347D02*
X005198Y002347D01*
X005296Y002249D02*
X003839Y002249D01*
X003795Y002150D02*
X005395Y002150D01*
X005493Y002052D02*
X003739Y002052D01*
X003682Y001953D02*
X005592Y001953D01*
X005690Y001855D02*
X003595Y001855D01*
X003497Y001756D02*
X005789Y001756D01*
X005887Y001658D02*
X003371Y001658D01*
X003200Y001559D02*
X005986Y001559D01*
X004390Y004022D02*
X000680Y004022D01*
X000680Y004120D02*
X004390Y004120D01*
X004390Y004219D02*
X000680Y004219D01*
X000680Y004317D02*
X004390Y004317D01*
X004390Y004416D02*
X000680Y004416D01*
X000680Y004514D02*
X004390Y004514D01*
X004390Y004613D02*
X000680Y004613D01*
X000680Y004711D02*
X004390Y004711D01*
X004390Y004810D02*
X000680Y004810D01*
X000680Y004908D02*
X004390Y004908D01*
X004390Y005007D02*
X000680Y005007D01*
X000680Y005105D02*
X004390Y005105D01*
X004390Y005204D02*
X000680Y005204D01*
X000680Y005302D02*
X004390Y005302D01*
X004390Y005401D02*
X000680Y005401D01*
X000680Y005499D02*
X004390Y005499D01*
X004390Y005598D02*
X000680Y005598D01*
X000680Y005696D02*
X004390Y005696D01*
X004390Y005795D02*
X000680Y005795D01*
X000680Y005893D02*
X004390Y005893D01*
X004390Y005992D02*
X000680Y005992D01*
X000680Y006090D02*
X004390Y006090D01*
X004390Y006189D02*
X000680Y006189D01*
X000680Y006287D02*
X004390Y006287D01*
X004390Y006386D02*
X000680Y006386D01*
X000680Y006484D02*
X004390Y006484D01*
X004390Y006583D02*
X000680Y006583D01*
X000680Y006681D02*
X004390Y006681D01*
X004390Y006780D02*
X000680Y006780D01*
X000680Y006878D02*
X004390Y006878D01*
X004390Y006977D02*
X000680Y006977D01*
X000680Y007075D02*
X004390Y007075D01*
X004390Y007174D02*
X000680Y007174D01*
X000680Y007272D02*
X004390Y007272D01*
X004390Y007371D02*
X003828Y007371D01*
X003940Y007417D02*
X004193Y007670D01*
X004330Y008001D01*
X004330Y008359D01*
X004193Y008690D01*
X003940Y008943D01*
X003609Y009080D01*
X003251Y009080D01*
X002920Y008943D01*
X002667Y008690D01*
X002530Y008359D01*
X002530Y008001D01*
X002667Y007670D01*
X002920Y007417D01*
X003251Y007280D01*
X003609Y007280D01*
X003940Y007417D01*
X003992Y007469D02*
X004390Y007469D01*
X004390Y007568D02*
X004090Y007568D01*
X004189Y007666D02*
X004390Y007666D01*
X004390Y007765D02*
X004232Y007765D01*
X004273Y007863D02*
X004390Y007863D01*
X004390Y007962D02*
X004314Y007962D01*
X004330Y008060D02*
X004390Y008060D01*
X004390Y008159D02*
X004330Y008159D01*
X004330Y008257D02*
X004390Y008257D01*
X004390Y008356D02*
X004330Y008356D01*
X004291Y008454D02*
X004390Y008454D01*
X004390Y008553D02*
X004250Y008553D01*
X004209Y008651D02*
X004390Y008651D01*
X004390Y008750D02*
X004133Y008750D01*
X004035Y008848D02*
X004390Y008848D01*
X004390Y008947D02*
X003931Y008947D01*
X003693Y009045D02*
X004390Y009045D01*
X004390Y009144D02*
X000680Y009144D01*
X000680Y009242D02*
X004390Y009242D01*
X004390Y009341D02*
X000680Y009341D01*
X000680Y009439D02*
X004390Y009439D01*
X004390Y009538D02*
X000680Y009538D01*
X000680Y009636D02*
X004390Y009636D01*
X004390Y009735D02*
X000680Y009735D01*
X000680Y009833D02*
X004390Y009833D01*
X004390Y009932D02*
X000680Y009932D01*
X000680Y010030D02*
X004390Y010030D01*
X004390Y010129D02*
X000680Y010129D01*
X000680Y010227D02*
X004390Y010227D01*
X004390Y010326D02*
X000680Y010326D01*
X000680Y010424D02*
X004390Y010424D01*
X004390Y010523D02*
X000680Y010523D01*
X000680Y010621D02*
X004390Y010621D01*
X004390Y010720D02*
X000680Y010720D01*
X000680Y010818D02*
X004390Y010818D01*
X004390Y010917D02*
X000680Y010917D01*
X000680Y011015D02*
X004390Y011015D01*
X004390Y011114D02*
X000680Y011114D01*
X000680Y011212D02*
X004390Y011212D01*
X004390Y011311D02*
X000680Y011311D01*
X000680Y011409D02*
X004390Y011409D01*
X004390Y011508D02*
X000680Y011508D01*
X000680Y011606D02*
X004390Y011606D01*
X004390Y011705D02*
X000680Y011705D01*
X000680Y011803D02*
X004390Y011803D01*
X004390Y011902D02*
X000680Y011902D01*
X000680Y012000D02*
X004425Y012000D01*
X007090Y013872D02*
X009660Y013872D01*
X009660Y013970D02*
X007090Y013970D01*
X007090Y014069D02*
X009660Y014069D01*
X009660Y014167D02*
X007090Y014167D01*
X007090Y014266D02*
X009660Y014266D01*
X009660Y014364D02*
X007090Y014364D01*
X007090Y014463D02*
X009660Y014463D01*
X009660Y014561D02*
X007090Y014561D01*
X007090Y014660D02*
X009660Y014660D01*
X009660Y014758D02*
X007090Y014758D01*
X007090Y014857D02*
X009660Y014857D01*
X009660Y014955D02*
X007090Y014955D01*
X007090Y015054D02*
X009660Y015054D01*
X009660Y015152D02*
X007090Y015152D01*
X007090Y015251D02*
X009660Y015251D01*
X009660Y015349D02*
X007090Y015349D01*
X007090Y015448D02*
X009660Y015448D01*
X009660Y015546D02*
X007090Y015546D01*
X007090Y015645D02*
X009660Y015645D01*
X009660Y015743D02*
X007090Y015743D01*
X007090Y015842D02*
X009660Y015842D01*
X009660Y015940D02*
X007090Y015940D01*
X007077Y016039D02*
X009660Y016039D01*
X009660Y016137D02*
X006978Y016137D01*
X006880Y016236D02*
X009660Y016236D01*
X009660Y016334D02*
X006781Y016334D01*
X006683Y016433D02*
X009660Y016433D01*
X009660Y016531D02*
X006584Y016531D01*
X006486Y016630D02*
X009660Y016630D01*
X009660Y016728D02*
X006387Y016728D01*
X006289Y016827D02*
X009660Y016827D01*
X009660Y016925D02*
X006190Y016925D01*
X006092Y017024D02*
X009660Y017024D01*
X009660Y017122D02*
X005993Y017122D01*
X005895Y017221D02*
X009660Y017221D01*
X009660Y017319D02*
X006203Y017319D01*
X006440Y017418D02*
X009660Y017418D01*
X009660Y017516D02*
X006539Y017516D01*
X006637Y017615D02*
X009660Y017615D01*
X009660Y017713D02*
X006711Y017713D01*
X006752Y017812D02*
X009660Y017812D01*
X009660Y017910D02*
X006792Y017910D01*
X006830Y018009D02*
X009660Y018009D01*
X009660Y018107D02*
X006830Y018107D01*
X006830Y018206D02*
X009660Y018206D01*
X009660Y018304D02*
X006830Y018304D01*
X006812Y018403D02*
X009660Y018403D01*
X009660Y018501D02*
X006771Y018501D01*
X006730Y018600D02*
X009660Y018600D01*
X009660Y018698D02*
X006685Y018698D01*
X006586Y018797D02*
X009721Y018797D01*
X009820Y018895D02*
X006488Y018895D01*
X006318Y018994D02*
X009918Y018994D01*
X010017Y019092D02*
X005343Y019092D01*
X005300Y019191D02*
X010115Y019191D01*
X010214Y019289D02*
X005300Y019289D01*
X005300Y019388D02*
X010312Y019388D01*
X010411Y019486D02*
X005300Y019486D01*
X005300Y019585D02*
X010509Y019585D01*
X010608Y019683D02*
X005300Y019683D01*
X005300Y019782D02*
X010706Y019782D01*
X010805Y019880D02*
X005300Y019880D01*
X005300Y019979D02*
X008440Y019979D01*
X008425Y020077D02*
X005300Y020077D01*
X005300Y020176D02*
X008425Y020176D01*
X008425Y020274D02*
X005300Y020274D01*
X005300Y020373D02*
X008425Y020373D01*
X008425Y020471D02*
X005300Y020471D01*
X005300Y021062D02*
X007717Y021062D01*
X007681Y021076D02*
X007681Y021630D01*
X007166Y021630D01*
X007166Y021301D01*
X007176Y021253D01*
X007195Y021207D01*
X007222Y021166D01*
X007257Y021131D01*
X007298Y021104D01*
X007343Y021085D01*
X007392Y021076D01*
X007681Y021076D01*
X007681Y021161D02*
X007781Y021161D01*
X007781Y021259D02*
X007681Y021259D01*
X007681Y021358D02*
X007781Y021358D01*
X007781Y021456D02*
X007681Y021456D01*
X007681Y021555D02*
X007781Y021555D01*
X007781Y021630D02*
X007681Y021630D01*
X007681Y021730D01*
X007166Y021730D01*
X007166Y022059D01*
X007176Y022107D01*
X007195Y022153D01*
X007222Y022194D01*
X007257Y022229D01*
X007298Y022256D01*
X007343Y022275D01*
X007392Y022284D01*
X007681Y022284D01*
X007681Y021730D01*
X007781Y021730D01*
X007781Y022284D01*
X008071Y022284D01*
X008119Y022275D01*
X008165Y022256D01*
X008206Y022229D01*
X008240Y022194D01*
X008268Y022153D01*
X008287Y022107D01*
X008296Y022059D01*
X008296Y021730D01*
X007781Y021730D01*
X007781Y021630D01*
X007781Y021653D02*
X008308Y021653D01*
X008296Y021752D02*
X008425Y021752D01*
X008425Y021850D02*
X008296Y021850D01*
X008296Y021949D02*
X008507Y021949D01*
X008296Y022047D02*
X012170Y022047D01*
X012170Y021949D02*
X009353Y021949D01*
X009435Y021850D02*
X012170Y021850D01*
X012170Y021752D02*
X009435Y021752D01*
X009435Y021653D02*
X010571Y021653D01*
X010451Y021555D02*
X009435Y021555D01*
X009435Y021456D02*
X010370Y021456D01*
X010329Y021358D02*
X009435Y021358D01*
X009435Y021259D02*
X010300Y021259D01*
X010300Y021161D02*
X009435Y021161D01*
X009384Y021062D02*
X010304Y021062D01*
X010345Y020964D02*
X008269Y020964D01*
X008367Y021062D02*
X008476Y021062D01*
X008444Y020767D02*
X008072Y020767D01*
X008170Y020865D02*
X010391Y020865D01*
X010490Y020767D02*
X009416Y020767D01*
X009435Y020668D02*
X010393Y020668D01*
X010748Y020373D02*
X011297Y020373D01*
X011396Y020471D02*
X010846Y020471D01*
X010945Y020570D02*
X011494Y020570D01*
X011199Y020274D02*
X010649Y020274D01*
X010551Y020176D02*
X011100Y020176D01*
X011002Y020077D02*
X009435Y020077D01*
X009420Y019979D02*
X010903Y019979D01*
X012160Y021259D02*
X012170Y021259D01*
X012170Y021358D02*
X012131Y021358D01*
X012170Y021456D02*
X012090Y021456D01*
X012009Y021555D02*
X012170Y021555D01*
X012170Y021653D02*
X011889Y021653D01*
X012170Y022146D02*
X008271Y022146D01*
X008182Y022244D02*
X012170Y022244D01*
X012135Y022343D02*
X007058Y022343D01*
X007156Y022441D02*
X012094Y022441D01*
X012090Y022540D02*
X007255Y022540D01*
X007280Y022244D02*
X006959Y022244D01*
X007045Y022146D02*
X007192Y022146D01*
X007166Y022047D02*
X007094Y022047D01*
X007094Y021949D02*
X007166Y021949D01*
X007166Y021850D02*
X007094Y021850D01*
X007094Y021752D02*
X007166Y021752D01*
X007094Y021653D02*
X007681Y021653D01*
X007681Y021752D02*
X007781Y021752D01*
X007781Y021850D02*
X007681Y021850D01*
X007681Y021949D02*
X007781Y021949D01*
X007781Y022047D02*
X007681Y022047D01*
X007681Y022146D02*
X007781Y022146D01*
X007781Y022244D02*
X007681Y022244D01*
X007681Y022638D02*
X007781Y022638D01*
X007781Y022737D02*
X007681Y022737D01*
X007681Y022835D02*
X007781Y022835D01*
X007781Y022934D02*
X007681Y022934D01*
X007681Y023032D02*
X007781Y023032D01*
X007781Y023131D02*
X008664Y023131D01*
X008664Y023229D02*
X007781Y023229D01*
X008296Y023328D02*
X008607Y023328D01*
X008509Y023426D02*
X008296Y023426D01*
X008296Y023032D02*
X008664Y023032D01*
X008664Y022934D02*
X008296Y022934D01*
X008296Y022835D02*
X008664Y022835D01*
X008691Y022737D02*
X008280Y022737D01*
X008212Y022638D02*
X009750Y022638D01*
X009683Y022737D02*
X009567Y022737D01*
X009594Y022835D02*
X009666Y022835D01*
X009666Y022934D02*
X009594Y022934D01*
X009594Y023032D02*
X009666Y023032D01*
X009594Y023131D02*
X010181Y023131D01*
X010181Y023229D02*
X009594Y023229D01*
X009603Y023328D02*
X009666Y023328D01*
X010181Y023032D02*
X010281Y023032D01*
X010281Y022934D02*
X010181Y022934D01*
X010181Y022835D02*
X010281Y022835D01*
X010281Y022737D02*
X010181Y022737D01*
X010181Y022638D02*
X010281Y022638D01*
X010712Y022638D02*
X012110Y022638D01*
X012067Y022737D02*
X012162Y022737D01*
X012166Y022835D02*
X012094Y022835D01*
X012094Y022934D02*
X012166Y022934D01*
X012166Y023032D02*
X012094Y023032D01*
X012094Y023131D02*
X012681Y023131D01*
X012681Y023229D02*
X012094Y023229D01*
X012103Y023328D02*
X012166Y023328D01*
X012781Y023230D02*
X013296Y023230D01*
X013296Y023330D01*
X013721Y023330D01*
X013721Y023228D01*
X014198Y023228D01*
X014198Y023132D01*
X013721Y023132D01*
X013721Y022959D01*
X013723Y022949D01*
X013525Y022750D01*
X013285Y022750D01*
X013287Y022753D01*
X013296Y022801D01*
X013296Y023130D01*
X012781Y023130D01*
X012781Y023230D01*
X012781Y023229D02*
X013721Y023229D01*
X013721Y023131D02*
X012781Y023131D01*
X013296Y023032D02*
X013721Y023032D01*
X013708Y022934D02*
X013296Y022934D01*
X013296Y022835D02*
X013610Y022835D01*
X013965Y022540D02*
X014695Y022540D01*
X014687Y022547D02*
X014775Y022459D01*
X015451Y022459D01*
X015539Y022547D01*
X015539Y023065D01*
X015451Y023153D01*
X014775Y023153D01*
X014754Y023132D01*
X014295Y023132D01*
X014295Y023228D01*
X014754Y023228D01*
X014775Y023207D01*
X015451Y023207D01*
X015524Y023280D01*
X015785Y023280D01*
X015852Y023213D01*
X015980Y023160D01*
X016120Y023160D01*
X016248Y023213D01*
X016330Y023295D01*
X016338Y023274D01*
X015265Y022200D01*
X015131Y022066D01*
X015050Y022100D01*
X014910Y022100D01*
X014782Y022047D01*
X014715Y021980D01*
X013445Y021980D01*
X012630Y021165D01*
X012630Y022220D01*
X012638Y022223D01*
X012705Y022290D01*
X013715Y022290D01*
X013850Y022425D01*
X013995Y022570D01*
X014687Y022570D01*
X014687Y022547D01*
X014783Y022047D02*
X012630Y022047D01*
X012630Y021949D02*
X013413Y021949D01*
X013315Y021850D02*
X012630Y021850D01*
X012630Y021752D02*
X013216Y021752D01*
X013118Y021653D02*
X012630Y021653D01*
X012630Y021555D02*
X013019Y021555D01*
X012921Y021456D02*
X012630Y021456D01*
X012630Y021358D02*
X012822Y021358D01*
X012724Y021259D02*
X012630Y021259D01*
X012630Y022146D02*
X015210Y022146D01*
X015309Y022244D02*
X012659Y022244D01*
X013296Y023328D02*
X013721Y023328D01*
X013866Y022441D02*
X015506Y022441D01*
X015531Y022540D02*
X015604Y022540D01*
X015539Y022638D02*
X015703Y022638D01*
X015801Y022737D02*
X015539Y022737D01*
X015539Y022835D02*
X015900Y022835D01*
X015998Y022934D02*
X015539Y022934D01*
X015539Y023032D02*
X016097Y023032D01*
X016195Y023131D02*
X015473Y023131D01*
X015473Y023229D02*
X015836Y023229D01*
X016264Y023229D02*
X016294Y023229D01*
X015407Y022343D02*
X013768Y022343D01*
X011191Y022737D02*
X010780Y022737D01*
X010796Y022835D02*
X011164Y022835D01*
X011164Y022934D02*
X010796Y022934D01*
X010796Y023032D02*
X011164Y023032D01*
X011164Y023131D02*
X010281Y023131D01*
X010281Y023229D02*
X011164Y023229D01*
X011164Y023328D02*
X010796Y023328D01*
X010796Y023426D02*
X011164Y023426D01*
X010940Y023525D02*
X010796Y023525D01*
X008425Y020668D02*
X007973Y020668D01*
X007875Y020570D02*
X008425Y020570D01*
X007228Y021161D02*
X005300Y021161D01*
X005300Y021259D02*
X006168Y021259D01*
X006164Y021358D02*
X005300Y021358D01*
X005467Y021456D02*
X006164Y021456D01*
X006164Y021555D02*
X005535Y021555D01*
X005535Y021653D02*
X006164Y021653D01*
X006164Y021752D02*
X005535Y021752D01*
X005535Y021850D02*
X006125Y021850D01*
X006026Y021949D02*
X005535Y021949D01*
X005529Y022047D02*
X005928Y022047D01*
X005829Y022146D02*
X005280Y022146D01*
X005280Y022244D02*
X005731Y022244D01*
X005632Y022343D02*
X005280Y022343D01*
X005280Y022441D02*
X005534Y022441D01*
X005435Y022540D02*
X005280Y022540D01*
X005280Y022638D02*
X005337Y022638D01*
X007094Y021555D02*
X007166Y021555D01*
X007166Y021456D02*
X007094Y021456D01*
X007094Y021358D02*
X007166Y021358D01*
X007175Y021259D02*
X007089Y021259D01*
X005542Y018994D02*
X005442Y018994D01*
X002246Y021456D02*
X002146Y021456D01*
X002146Y021555D02*
X002246Y021555D01*
X002246Y021653D02*
X002146Y021653D01*
X002146Y021752D02*
X002246Y021752D01*
X002246Y021850D02*
X002146Y021850D01*
X002146Y021949D02*
X002246Y021949D01*
X002246Y022047D02*
X002146Y022047D01*
X002146Y022146D02*
X002246Y022146D01*
X002246Y022244D02*
X002146Y022244D01*
X002146Y022343D02*
X002246Y022343D01*
X002246Y022441D02*
X002146Y022441D01*
X002146Y022737D02*
X002246Y022737D01*
X002246Y022835D02*
X002146Y022835D01*
X002146Y022934D02*
X002246Y022934D01*
X002246Y023032D02*
X002146Y023032D01*
X002146Y023131D02*
X002246Y023131D01*
X002246Y023229D02*
X002146Y023229D01*
X002146Y023328D02*
X002246Y023328D01*
X002246Y023426D02*
X002146Y023426D01*
X002146Y023525D02*
X002246Y023525D01*
X002246Y023623D02*
X002146Y023623D01*
X002146Y023722D02*
X002246Y023722D01*
X002246Y023820D02*
X002146Y023820D01*
X002146Y023919D02*
X002246Y023919D01*
X000797Y023919D02*
X000680Y023919D01*
X000680Y023820D02*
X000737Y023820D01*
X000725Y023722D02*
X000680Y023722D01*
X000680Y023623D02*
X000725Y023623D01*
X000725Y023525D02*
X000680Y023525D01*
X000680Y023426D02*
X000725Y023426D01*
X000725Y023328D02*
X000680Y023328D01*
X000680Y023229D02*
X000725Y023229D01*
X000725Y023131D02*
X000680Y023131D01*
X000680Y023032D02*
X000725Y023032D01*
X000725Y022934D02*
X000680Y022934D01*
X000680Y022835D02*
X000725Y022835D01*
X000725Y022737D02*
X000680Y022737D01*
X000680Y009045D02*
X003167Y009045D01*
X002929Y008947D02*
X000680Y008947D01*
X000680Y008848D02*
X002825Y008848D01*
X002727Y008750D02*
X000680Y008750D01*
X000680Y008651D02*
X002651Y008651D01*
X002610Y008553D02*
X000680Y008553D01*
X000680Y008454D02*
X002569Y008454D01*
X002530Y008356D02*
X000680Y008356D01*
X000680Y008257D02*
X002530Y008257D01*
X002530Y008159D02*
X000680Y008159D01*
X000680Y008060D02*
X002530Y008060D01*
X002546Y007962D02*
X000680Y007962D01*
X000680Y007863D02*
X002587Y007863D01*
X002628Y007765D02*
X000680Y007765D01*
X000680Y007666D02*
X002671Y007666D01*
X002770Y007568D02*
X000680Y007568D01*
X000680Y007469D02*
X002868Y007469D01*
X003032Y007371D02*
X000680Y007371D01*
X000680Y000968D02*
X029680Y000968D01*
X029680Y000870D02*
X000680Y000870D01*
X000680Y000771D02*
X029680Y000771D01*
X029680Y004022D02*
X026837Y004022D01*
X026935Y004120D02*
X029680Y004120D01*
X029680Y004219D02*
X027034Y004219D01*
X027132Y004317D02*
X029680Y004317D01*
X029680Y004416D02*
X027231Y004416D01*
X027329Y004514D02*
X029680Y004514D01*
X029680Y004613D02*
X027428Y004613D01*
X027526Y004711D02*
X029680Y004711D01*
X029680Y004810D02*
X027625Y004810D01*
X027723Y004908D02*
X029680Y004908D01*
X029680Y005007D02*
X027822Y005007D01*
X027870Y005105D02*
X029680Y005105D01*
X029680Y005204D02*
X027870Y005204D01*
X027870Y005302D02*
X029680Y005302D01*
X029680Y005401D02*
X027870Y005401D01*
X027870Y005499D02*
X029680Y005499D01*
X029680Y005598D02*
X027870Y005598D01*
X028138Y005696D02*
X028722Y005696D01*
X028675Y005795D02*
X028185Y005795D01*
X028185Y006386D02*
X028200Y006386D01*
X028200Y006484D02*
X028185Y006484D01*
X028200Y006583D02*
X028100Y006583D01*
X028200Y006681D02*
X026480Y006681D01*
X026480Y006583D02*
X027260Y006583D01*
X027175Y006484D02*
X026480Y006484D01*
X026407Y006386D02*
X027175Y006386D01*
X027258Y006780D02*
X026480Y006780D01*
X026480Y006878D02*
X027175Y006878D01*
X027175Y006977D02*
X026480Y006977D01*
X026480Y007075D02*
X027175Y007075D01*
X027175Y007174D02*
X026480Y007174D01*
X026480Y007272D02*
X027175Y007272D01*
X027175Y007371D02*
X026480Y007371D01*
X026473Y007469D02*
X027175Y007469D01*
X027175Y007568D02*
X025838Y007568D01*
X025739Y007666D02*
X027224Y007666D01*
X027421Y007765D02*
X025730Y007765D01*
X025691Y007863D02*
X027358Y007863D01*
X027330Y007962D02*
X025613Y007962D01*
X025410Y008060D02*
X027330Y008060D01*
X027260Y008159D02*
X025410Y008159D01*
X025410Y008257D02*
X027175Y008257D01*
X027175Y008356D02*
X025410Y008356D01*
X025410Y008454D02*
X027175Y008454D01*
X027175Y008553D02*
X025410Y008553D01*
X025410Y008651D02*
X027175Y008651D01*
X027175Y008750D02*
X025410Y008750D01*
X025982Y008848D02*
X027175Y008848D01*
X027175Y008947D02*
X026039Y008947D01*
X026039Y009045D02*
X027223Y009045D01*
X027263Y009275D02*
X028097Y009275D01*
X028185Y009363D01*
X028185Y010117D01*
X028097Y010205D01*
X027910Y010205D01*
X027910Y011975D01*
X027977Y012042D01*
X028030Y012170D01*
X028030Y012310D01*
X028024Y012325D01*
X028439Y012325D01*
X028527Y012413D01*
X028527Y013719D01*
X028439Y013806D01*
X027921Y013806D01*
X027833Y013719D01*
X027833Y013095D01*
X027750Y013130D01*
X027610Y013130D01*
X027482Y013077D01*
X027383Y012978D01*
X027330Y012850D01*
X027330Y012710D01*
X027383Y012582D01*
X027455Y012510D01*
X027383Y012438D01*
X027330Y012310D01*
X027330Y012170D01*
X027345Y012135D01*
X027224Y012135D01*
X027224Y011343D01*
X027128Y011343D01*
X027128Y012135D01*
X026955Y012135D01*
X026906Y012125D01*
X026861Y012106D01*
X026820Y012079D01*
X026785Y012044D01*
X026758Y012003D01*
X026739Y011958D01*
X026729Y011909D01*
X026729Y011343D01*
X027128Y011343D01*
X027128Y011246D01*
X027224Y011246D01*
X027224Y010454D01*
X027398Y010454D01*
X027446Y010463D01*
X027450Y010465D01*
X027450Y010205D01*
X027263Y010205D01*
X027175Y010117D01*
X027175Y009363D01*
X027263Y009275D01*
X027197Y009341D02*
X026039Y009341D01*
X026039Y009439D02*
X027175Y009439D01*
X027175Y009538D02*
X026039Y009538D01*
X026039Y009636D02*
X027175Y009636D01*
X027175Y009735D02*
X026039Y009735D01*
X026039Y009833D02*
X027175Y009833D01*
X027175Y009932D02*
X026002Y009932D01*
X026039Y009242D02*
X029680Y009242D01*
X029680Y009144D02*
X026039Y009144D01*
X027175Y010030D02*
X019275Y010030D01*
X019177Y010129D02*
X027187Y010129D01*
X027450Y010227D02*
X019078Y010227D01*
X018980Y010326D02*
X027450Y010326D01*
X027450Y010424D02*
X018881Y010424D01*
X018783Y010523D02*
X021807Y010523D01*
X021743Y010621D02*
X018684Y010621D01*
X018586Y010720D02*
X021729Y010720D01*
X021729Y010818D02*
X018487Y010818D01*
X018389Y010917D02*
X021729Y010917D01*
X021729Y011015D02*
X018320Y011015D01*
X018320Y011114D02*
X019421Y011114D01*
X019335Y011212D02*
X018320Y011212D01*
X018320Y011311D02*
X019294Y011311D01*
X019290Y011409D02*
X018320Y011409D01*
X018320Y011508D02*
X019310Y011508D01*
X019361Y011606D02*
X018320Y011606D01*
X018320Y011705D02*
X019410Y011705D01*
X019410Y011803D02*
X018320Y011803D01*
X018320Y011902D02*
X019410Y011902D01*
X019410Y012000D02*
X018320Y012000D01*
X018320Y012099D02*
X019410Y012099D01*
X019410Y012197D02*
X018320Y012197D01*
X018320Y012296D02*
X019410Y012296D01*
X019410Y012394D02*
X018320Y012394D01*
X018320Y012493D02*
X019410Y012493D01*
X019384Y012591D02*
X018320Y012591D01*
X018320Y012690D02*
X019285Y012690D01*
X019187Y012788D02*
X018320Y012788D01*
X018320Y012887D02*
X019088Y012887D01*
X018635Y012985D02*
X018320Y012985D01*
X018320Y013084D02*
X018621Y013084D01*
X018621Y013182D02*
X018320Y013182D01*
X018320Y013281D02*
X018621Y013281D01*
X018639Y013379D02*
X018320Y013379D01*
X018320Y013478D02*
X018643Y013478D01*
X018621Y013576D02*
X018320Y013576D01*
X018320Y013675D02*
X018621Y013675D01*
X018621Y013773D02*
X018320Y013773D01*
X018320Y013872D02*
X018632Y013872D01*
X018650Y013970D02*
X018325Y013970D01*
X018402Y014069D02*
X018621Y014069D01*
X018621Y014167D02*
X018440Y014167D01*
X018440Y014266D02*
X018621Y014266D01*
X018622Y014364D02*
X018624Y014364D01*
X018521Y015054D02*
X017739Y015054D01*
X017767Y015152D02*
X018521Y015152D01*
X018521Y015251D02*
X017866Y015251D01*
X017964Y015349D02*
X018526Y015349D01*
X018570Y015448D02*
X018063Y015448D01*
X018161Y015546D02*
X018621Y015546D01*
X018621Y015645D02*
X018260Y015645D01*
X018358Y015743D02*
X018621Y015743D01*
X018621Y015842D02*
X018457Y015842D01*
X018480Y015940D02*
X018680Y015940D01*
X018621Y016039D02*
X018480Y016039D01*
X018480Y016137D02*
X018621Y016137D01*
X018621Y016236D02*
X018480Y016236D01*
X018480Y016334D02*
X018621Y016334D01*
X018693Y016433D02*
X018480Y016433D01*
X018480Y016531D02*
X018970Y016531D01*
X018970Y016630D02*
X018480Y016630D01*
X018480Y016728D02*
X018970Y016728D01*
X018970Y016827D02*
X018480Y016827D01*
X018480Y016925D02*
X018970Y016925D01*
X018970Y017024D02*
X018480Y017024D01*
X018480Y017122D02*
X018970Y017122D01*
X018970Y017221D02*
X018480Y017221D01*
X018480Y017319D02*
X018926Y017319D01*
X018872Y017418D02*
X018480Y017418D01*
X018480Y017516D02*
X018850Y017516D01*
X018852Y017615D02*
X018480Y017615D01*
X018480Y017713D02*
X018893Y017713D01*
X018977Y017812D02*
X018480Y017812D01*
X018480Y017910D02*
X021729Y017910D01*
X021729Y017812D02*
X019423Y017812D01*
X019507Y017713D02*
X021729Y017713D01*
X021746Y017615D02*
X019548Y017615D01*
X019550Y017516D02*
X021813Y017516D01*
X022000Y017418D02*
X019528Y017418D01*
X019474Y017319D02*
X022005Y017319D01*
X022045Y017221D02*
X019430Y017221D01*
X019430Y017122D02*
X022133Y017122D01*
X022401Y017024D02*
X019430Y017024D01*
X019430Y016925D02*
X022500Y016925D01*
X022598Y016827D02*
X019430Y016827D01*
X019430Y016728D02*
X022697Y016728D01*
X022795Y016630D02*
X019430Y016630D01*
X019430Y016531D02*
X022833Y016531D01*
X022833Y016433D02*
X019714Y016433D01*
X019787Y016334D02*
X022833Y016334D01*
X022833Y016236D02*
X019787Y016236D01*
X019787Y016137D02*
X022833Y016137D01*
X022833Y016039D02*
X019787Y016039D01*
X019727Y015940D02*
X022833Y015940D01*
X022905Y015842D02*
X019787Y015842D01*
X019787Y015743D02*
X023075Y015743D01*
X023040Y015645D02*
X019787Y015645D01*
X019787Y015546D02*
X021787Y015546D01*
X021737Y015448D02*
X019838Y015448D01*
X019881Y015349D02*
X021729Y015349D01*
X021729Y015251D02*
X019887Y015251D01*
X019887Y015152D02*
X021729Y015152D01*
X021729Y015054D02*
X019887Y015054D01*
X019863Y014955D02*
X021729Y014955D01*
X021729Y014857D02*
X019787Y014857D01*
X019787Y014758D02*
X022128Y014758D01*
X022224Y014758D02*
X023837Y014758D01*
X023837Y014660D02*
X022623Y014660D01*
X022623Y014561D02*
X023837Y014561D01*
X023837Y014463D02*
X022623Y014463D01*
X022623Y014364D02*
X023837Y014364D01*
X023837Y014266D02*
X022623Y014266D01*
X022621Y014167D02*
X023837Y014167D01*
X023910Y014069D02*
X022583Y014069D01*
X022775Y013970D02*
X024340Y013970D01*
X024340Y013872D02*
X022870Y013872D01*
X022270Y013872D02*
X022100Y013872D01*
X022128Y013970D02*
X022224Y013970D01*
X022224Y014069D02*
X022128Y014069D01*
X022128Y014167D02*
X022224Y014167D01*
X022224Y014266D02*
X022128Y014266D01*
X022128Y014364D02*
X022224Y014364D01*
X022224Y014463D02*
X022128Y014463D01*
X022128Y014561D02*
X022224Y014561D01*
X022224Y014660D02*
X022128Y014660D01*
X022128Y014857D02*
X022224Y014857D01*
X022224Y014843D02*
X022224Y015635D01*
X022398Y015635D01*
X022446Y015625D01*
X022491Y015606D01*
X022532Y015579D01*
X022567Y015544D01*
X022594Y015503D01*
X022613Y015458D01*
X022623Y015409D01*
X022623Y014843D01*
X022224Y014843D01*
X022224Y014955D02*
X022128Y014955D01*
X022128Y015054D02*
X022224Y015054D01*
X022224Y015152D02*
X022128Y015152D01*
X022128Y015251D02*
X022224Y015251D01*
X022224Y015349D02*
X022128Y015349D01*
X022128Y015448D02*
X022224Y015448D01*
X022224Y015546D02*
X022128Y015546D01*
X022565Y015546D02*
X023040Y015546D01*
X023070Y015448D02*
X022615Y015448D01*
X022623Y015349D02*
X023136Y015349D01*
X023295Y015251D02*
X022623Y015251D01*
X022623Y015152D02*
X023503Y015152D01*
X023601Y015054D02*
X022623Y015054D01*
X022623Y014955D02*
X023700Y014955D01*
X023798Y014857D02*
X022623Y014857D01*
X021729Y014660D02*
X019787Y014660D01*
X019787Y014561D02*
X021729Y014561D01*
X021729Y014463D02*
X019749Y014463D01*
X019783Y014364D02*
X021729Y014364D01*
X021729Y014266D02*
X019787Y014266D01*
X019787Y014167D02*
X021732Y014167D01*
X021769Y014069D02*
X019787Y014069D01*
X019757Y013970D02*
X021595Y013970D01*
X022140Y013773D02*
X022230Y013773D01*
X022220Y013675D02*
X022150Y013675D01*
X022136Y013576D02*
X022234Y013576D01*
X022277Y013478D02*
X022093Y013478D01*
X021988Y013379D02*
X022382Y013379D01*
X022644Y013281D02*
X019787Y013281D01*
X019768Y013379D02*
X021612Y013379D01*
X022743Y013182D02*
X020153Y013182D01*
X020225Y013084D02*
X022833Y013084D01*
X022833Y012985D02*
X020260Y012985D01*
X020279Y012887D02*
X022833Y012887D01*
X022833Y012788D02*
X020377Y012788D01*
X020476Y012690D02*
X022833Y012690D01*
X022833Y012591D02*
X020574Y012591D01*
X020673Y012493D02*
X022833Y012493D01*
X022852Y012394D02*
X020771Y012394D01*
X020870Y012296D02*
X024340Y012296D01*
X024340Y012394D02*
X023508Y012394D01*
X023527Y012493D02*
X024340Y012493D01*
X024340Y012591D02*
X023527Y012591D01*
X023527Y012690D02*
X024340Y012690D01*
X024340Y012788D02*
X023527Y012788D01*
X023527Y012887D02*
X024340Y012887D01*
X024340Y012985D02*
X023527Y012985D01*
X023527Y013084D02*
X024340Y013084D01*
X024340Y013182D02*
X023527Y013182D01*
X023527Y013281D02*
X024340Y013281D01*
X024340Y013379D02*
X023527Y013379D01*
X023527Y013478D02*
X024340Y013478D01*
X024340Y013576D02*
X023527Y013576D01*
X023527Y013675D02*
X024340Y013675D01*
X024340Y013773D02*
X023472Y013773D01*
X024800Y013773D02*
X027888Y013773D01*
X027833Y013675D02*
X024800Y013675D01*
X024800Y013576D02*
X027833Y013576D01*
X027833Y013478D02*
X024800Y013478D01*
X024800Y013379D02*
X027833Y013379D01*
X027833Y013281D02*
X024800Y013281D01*
X024800Y013182D02*
X027833Y013182D01*
X027498Y013084D02*
X024800Y013084D01*
X024800Y012985D02*
X027390Y012985D01*
X027345Y012887D02*
X024800Y012887D01*
X024800Y012788D02*
X027330Y012788D01*
X027339Y012690D02*
X024800Y012690D01*
X024800Y012591D02*
X027379Y012591D01*
X027438Y012493D02*
X024800Y012493D01*
X024800Y012394D02*
X027365Y012394D01*
X027330Y012296D02*
X024800Y012296D01*
X024800Y012197D02*
X027330Y012197D01*
X027224Y012099D02*
X027128Y012099D01*
X027128Y012000D02*
X027224Y012000D01*
X027224Y011902D02*
X027128Y011902D01*
X027128Y011803D02*
X027224Y011803D01*
X027224Y011705D02*
X027128Y011705D01*
X027128Y011606D02*
X027224Y011606D01*
X027224Y011508D02*
X027128Y011508D01*
X027128Y011409D02*
X027224Y011409D01*
X027128Y011311D02*
X024531Y011311D01*
X024531Y011212D02*
X026729Y011212D01*
X026729Y011246D02*
X026729Y010679D01*
X026739Y010631D01*
X026758Y010585D01*
X026785Y010544D01*
X026820Y010509D01*
X026861Y010482D01*
X026906Y010463D01*
X026955Y010454D01*
X027128Y010454D01*
X027128Y011246D01*
X026729Y011246D01*
X026729Y011114D02*
X024531Y011114D01*
X024531Y011015D02*
X026729Y011015D01*
X026729Y010917D02*
X024531Y010917D01*
X024531Y010818D02*
X026729Y010818D01*
X026729Y010720D02*
X024531Y010720D01*
X024510Y010621D02*
X026743Y010621D01*
X026807Y010523D02*
X022545Y010523D01*
X022609Y010621D02*
X023858Y010621D01*
X023837Y010720D02*
X022623Y010720D01*
X022623Y010818D02*
X023837Y010818D01*
X023837Y010917D02*
X022623Y010917D01*
X022623Y011015D02*
X023837Y011015D01*
X023837Y011114D02*
X022623Y011114D01*
X022623Y011212D02*
X023837Y011212D01*
X023837Y011311D02*
X022224Y011311D01*
X022224Y011343D02*
X022623Y011343D01*
X022623Y011909D01*
X022613Y011958D01*
X022594Y012003D01*
X022567Y012044D01*
X022532Y012079D01*
X022491Y012106D01*
X022446Y012125D01*
X022398Y012135D01*
X022224Y012135D01*
X022224Y011343D01*
X022224Y011409D02*
X022128Y011409D01*
X022128Y011508D02*
X022224Y011508D01*
X022224Y011606D02*
X022128Y011606D01*
X022128Y011705D02*
X022224Y011705D01*
X022224Y011803D02*
X022128Y011803D01*
X022128Y011902D02*
X022224Y011902D01*
X022224Y012000D02*
X022128Y012000D01*
X022128Y012099D02*
X022224Y012099D01*
X022503Y012099D02*
X024340Y012099D01*
X024340Y012197D02*
X020968Y012197D01*
X021067Y012099D02*
X021849Y012099D01*
X021756Y012000D02*
X021165Y012000D01*
X021264Y011902D02*
X021729Y011902D01*
X021729Y011803D02*
X021362Y011803D01*
X021605Y011705D02*
X021729Y011705D01*
X021729Y011114D02*
X021669Y011114D01*
X022128Y011114D02*
X022224Y011114D01*
X022224Y011212D02*
X022128Y011212D01*
X022128Y011015D02*
X022224Y011015D01*
X022224Y010917D02*
X022128Y010917D01*
X022128Y010818D02*
X022224Y010818D01*
X022224Y010720D02*
X022128Y010720D01*
X022128Y010621D02*
X022224Y010621D01*
X022224Y010523D02*
X022128Y010523D01*
X022623Y011409D02*
X023837Y011409D01*
X023837Y011508D02*
X022623Y011508D01*
X022623Y011606D02*
X023837Y011606D01*
X023837Y011705D02*
X022623Y011705D01*
X022623Y011803D02*
X023837Y011803D01*
X023837Y011902D02*
X022623Y011902D01*
X022596Y012000D02*
X023890Y012000D01*
X024800Y012000D02*
X026756Y012000D01*
X026729Y011902D02*
X024800Y011902D01*
X024800Y011803D02*
X026729Y011803D01*
X026729Y011705D02*
X024800Y011705D01*
X024800Y011606D02*
X026729Y011606D01*
X026729Y011508D02*
X024723Y011508D01*
X024624Y011409D02*
X026729Y011409D01*
X027128Y011212D02*
X027224Y011212D01*
X027224Y011114D02*
X027128Y011114D01*
X027128Y011015D02*
X027224Y011015D01*
X027224Y010917D02*
X027128Y010917D01*
X027128Y010818D02*
X027224Y010818D01*
X027224Y010720D02*
X027128Y010720D01*
X027128Y010621D02*
X027224Y010621D01*
X027224Y010523D02*
X027128Y010523D01*
X027910Y010523D02*
X028570Y010523D01*
X028570Y010621D02*
X027910Y010621D01*
X027910Y010720D02*
X028570Y010720D01*
X028570Y010818D02*
X027910Y010818D01*
X027910Y010917D02*
X028570Y010917D01*
X028570Y011015D02*
X027910Y011015D01*
X027910Y011114D02*
X028570Y011114D01*
X028570Y011212D02*
X027910Y011212D01*
X027910Y011311D02*
X028570Y011311D01*
X028570Y011409D02*
X027910Y011409D01*
X027910Y011508D02*
X028570Y011508D01*
X028570Y011606D02*
X027910Y011606D01*
X027910Y011705D02*
X028570Y011705D01*
X028570Y011803D02*
X027910Y011803D01*
X027910Y011902D02*
X028570Y011902D01*
X028570Y012000D02*
X027935Y012000D01*
X028000Y012099D02*
X028570Y012099D01*
X028570Y012197D02*
X028030Y012197D01*
X028030Y012296D02*
X028570Y012296D01*
X028570Y012394D02*
X028508Y012394D01*
X028527Y012493D02*
X028570Y012493D01*
X028570Y012591D02*
X028527Y012591D01*
X028527Y012690D02*
X028570Y012690D01*
X028570Y012788D02*
X028527Y012788D01*
X028527Y012887D02*
X028570Y012887D01*
X028570Y012985D02*
X028527Y012985D01*
X028527Y013084D02*
X028570Y013084D01*
X028570Y013182D02*
X028527Y013182D01*
X028527Y013281D02*
X028570Y013281D01*
X028570Y013379D02*
X028527Y013379D01*
X028527Y013478D02*
X028570Y013478D01*
X028570Y013576D02*
X028527Y013576D01*
X028527Y013675D02*
X028570Y013675D01*
X028570Y013773D02*
X028472Y013773D01*
X028570Y013872D02*
X024800Y013872D01*
X024800Y013970D02*
X026890Y013970D01*
X026906Y013963D02*
X026861Y013982D01*
X026820Y014009D01*
X026785Y014044D01*
X026758Y014085D01*
X026739Y014131D01*
X026729Y014179D01*
X026729Y014746D01*
X027128Y014746D01*
X027224Y014746D01*
X027224Y013954D01*
X027398Y013954D01*
X027446Y013963D01*
X027491Y013982D01*
X027532Y014009D01*
X027567Y014044D01*
X027594Y014085D01*
X027613Y014131D01*
X027623Y014179D01*
X027623Y014746D01*
X027224Y014746D01*
X027224Y014843D01*
X027128Y014843D01*
X027128Y015635D01*
X026955Y015635D01*
X026906Y015625D01*
X026861Y015606D01*
X026820Y015579D01*
X026785Y015544D01*
X026758Y015503D01*
X026739Y015458D01*
X026729Y015409D01*
X026729Y014843D01*
X027128Y014843D01*
X027128Y014746D01*
X027128Y013954D01*
X026955Y013954D01*
X026906Y013963D01*
X026769Y014069D02*
X024800Y014069D01*
X024800Y014167D02*
X026732Y014167D01*
X026729Y014266D02*
X024800Y014266D01*
X024800Y014364D02*
X026729Y014364D01*
X026729Y014463D02*
X024800Y014463D01*
X024800Y014561D02*
X026729Y014561D01*
X026729Y014660D02*
X024800Y014660D01*
X024800Y014758D02*
X027128Y014758D01*
X027224Y014758D02*
X028823Y014758D01*
X028837Y014857D02*
X027623Y014857D01*
X027623Y014843D02*
X027623Y015409D01*
X027613Y015458D01*
X027594Y015503D01*
X027567Y015544D01*
X027532Y015579D01*
X027491Y015606D01*
X027446Y015625D01*
X027398Y015635D01*
X027224Y015635D01*
X027224Y014843D01*
X027623Y014843D01*
X027623Y014955D02*
X028837Y014955D01*
X028837Y015054D02*
X027623Y015054D01*
X027623Y015152D02*
X028837Y015152D01*
X028837Y015251D02*
X028406Y015251D01*
X028488Y015349D02*
X028837Y015349D01*
X028838Y015448D02*
X028529Y015448D01*
X028531Y015546D02*
X029680Y015546D01*
X029680Y015448D02*
X029530Y015448D01*
X029531Y015349D02*
X029680Y015349D01*
X029680Y015251D02*
X029531Y015251D01*
X029531Y015152D02*
X029680Y015152D01*
X029680Y015054D02*
X029531Y015054D01*
X029531Y014955D02*
X029680Y014955D01*
X029680Y014857D02*
X029531Y014857D01*
X029531Y014758D02*
X029680Y014758D01*
X029680Y014660D02*
X029531Y014660D01*
X029531Y014561D02*
X029680Y014561D01*
X029680Y014463D02*
X029531Y014463D01*
X029531Y014364D02*
X029680Y014364D01*
X029680Y014266D02*
X029531Y014266D01*
X029531Y014167D02*
X029680Y014167D01*
X029680Y014069D02*
X029458Y014069D01*
X029680Y013970D02*
X029030Y013970D01*
X029030Y013872D02*
X029680Y013872D01*
X029680Y013773D02*
X029030Y013773D01*
X029030Y013675D02*
X029680Y013675D01*
X029680Y013576D02*
X029030Y013576D01*
X029030Y013478D02*
X029680Y013478D01*
X029680Y013379D02*
X029030Y013379D01*
X029030Y013281D02*
X029680Y013281D01*
X029680Y013182D02*
X029030Y013182D01*
X029030Y013084D02*
X029680Y013084D01*
X029680Y012985D02*
X029030Y012985D01*
X029030Y012887D02*
X029680Y012887D01*
X029680Y012788D02*
X029030Y012788D01*
X029030Y012690D02*
X029680Y012690D01*
X029680Y012591D02*
X029030Y012591D01*
X029030Y012493D02*
X029680Y012493D01*
X029680Y012394D02*
X029030Y012394D01*
X029030Y012296D02*
X029680Y012296D01*
X029680Y012197D02*
X029030Y012197D01*
X029030Y012099D02*
X029680Y012099D01*
X029680Y012000D02*
X029478Y012000D01*
X029531Y011902D02*
X029680Y011902D01*
X029680Y011803D02*
X029531Y011803D01*
X029531Y011705D02*
X029680Y011705D01*
X029680Y011606D02*
X029531Y011606D01*
X029531Y011508D02*
X029680Y011508D01*
X029680Y011409D02*
X029531Y011409D01*
X029531Y011311D02*
X029680Y011311D01*
X029680Y011212D02*
X029593Y011212D01*
X029630Y011114D02*
X029680Y011114D01*
X029680Y011015D02*
X029630Y011015D01*
X029630Y010917D02*
X029680Y010917D01*
X029680Y010818D02*
X029630Y010818D01*
X029630Y010720D02*
X029680Y010720D01*
X029674Y010621D02*
X029680Y010621D01*
X028708Y010227D02*
X027910Y010227D01*
X027910Y010326D02*
X028609Y010326D01*
X028570Y010424D02*
X027910Y010424D01*
X028173Y010129D02*
X028687Y010129D01*
X028675Y010030D02*
X028185Y010030D01*
X028185Y009932D02*
X028675Y009932D01*
X028675Y009833D02*
X028185Y009833D01*
X028185Y009735D02*
X028675Y009735D01*
X028675Y009636D02*
X028185Y009636D01*
X028185Y009538D02*
X028675Y009538D01*
X028675Y009439D02*
X028185Y009439D01*
X028163Y009341D02*
X028697Y009341D01*
X028723Y009045D02*
X028137Y009045D01*
X028185Y008947D02*
X028675Y008947D01*
X028200Y008356D02*
X028185Y008356D01*
X028185Y008257D02*
X028200Y008257D01*
X028200Y008159D02*
X028100Y008159D01*
X028030Y008060D02*
X028200Y008060D01*
X028200Y007962D02*
X028030Y007962D01*
X028002Y007863D02*
X028200Y007863D01*
X028200Y007765D02*
X027939Y007765D01*
X028136Y007666D02*
X028200Y007666D01*
X028200Y007568D02*
X028185Y007568D01*
X028185Y007469D02*
X028200Y007469D01*
X028200Y007371D02*
X028185Y007371D01*
X028185Y007272D02*
X028200Y007272D01*
X028200Y007174D02*
X028185Y007174D01*
X028185Y007075D02*
X028200Y007075D01*
X028200Y006977D02*
X028185Y006977D01*
X028185Y006878D02*
X028200Y006878D01*
X028200Y006780D02*
X028102Y006780D01*
X029638Y005696D02*
X029680Y005696D01*
X029637Y009045D02*
X029680Y009045D01*
X029663Y009341D02*
X029680Y009341D01*
X026849Y012099D02*
X024800Y012099D01*
X027128Y013970D02*
X027224Y013970D01*
X027224Y014069D02*
X027128Y014069D01*
X027128Y014167D02*
X027224Y014167D01*
X027224Y014266D02*
X027128Y014266D01*
X027128Y014364D02*
X027224Y014364D01*
X027224Y014463D02*
X027128Y014463D01*
X027128Y014561D02*
X027224Y014561D01*
X027224Y014660D02*
X027128Y014660D01*
X027128Y014857D02*
X027224Y014857D01*
X027224Y014955D02*
X027128Y014955D01*
X027128Y015054D02*
X027224Y015054D01*
X027224Y015152D02*
X027128Y015152D01*
X027128Y015251D02*
X027224Y015251D01*
X027224Y015349D02*
X027128Y015349D01*
X027128Y015448D02*
X027224Y015448D01*
X027224Y015546D02*
X027128Y015546D01*
X026787Y015546D02*
X024800Y015546D01*
X024800Y015448D02*
X026737Y015448D01*
X026729Y015349D02*
X024800Y015349D01*
X024800Y015251D02*
X026729Y015251D01*
X026729Y015152D02*
X024800Y015152D01*
X024800Y015054D02*
X026729Y015054D01*
X026729Y014955D02*
X024800Y014955D01*
X024800Y014857D02*
X026729Y014857D01*
X027623Y014660D02*
X028724Y014660D01*
X028626Y014561D02*
X027623Y014561D01*
X027623Y014463D02*
X028570Y014463D01*
X028570Y014364D02*
X027623Y014364D01*
X027623Y014266D02*
X028570Y014266D01*
X028570Y014167D02*
X027621Y014167D01*
X027583Y014069D02*
X028570Y014069D01*
X028570Y013970D02*
X027462Y013970D01*
X027623Y015251D02*
X027954Y015251D01*
X027872Y015349D02*
X027623Y015349D01*
X027615Y015448D02*
X027831Y015448D01*
X027830Y015546D02*
X027565Y015546D01*
X027829Y015743D02*
X027908Y015743D01*
X028630Y015645D02*
X029680Y015645D01*
X029680Y015743D02*
X028728Y015743D01*
X024159Y015546D02*
X023759Y015546D01*
X023740Y015645D02*
X024060Y015645D01*
X023962Y015743D02*
X023705Y015743D01*
X023633Y015842D02*
X023863Y015842D01*
X023765Y015940D02*
X023527Y015940D01*
X023527Y016039D02*
X023666Y016039D01*
X023570Y016137D02*
X023527Y016137D01*
X023527Y016236D02*
X023570Y016236D01*
X023570Y016334D02*
X023527Y016334D01*
X023527Y016433D02*
X023570Y016433D01*
X023570Y016531D02*
X023527Y016531D01*
X023527Y016630D02*
X023570Y016630D01*
X023570Y016728D02*
X023527Y016728D01*
X023527Y016827D02*
X023570Y016827D01*
X023570Y016925D02*
X023527Y016925D01*
X023527Y017024D02*
X023570Y017024D01*
X023570Y017122D02*
X023527Y017122D01*
X023525Y017221D02*
X023570Y017221D01*
X023570Y017319D02*
X022756Y017319D01*
X022700Y017418D02*
X023570Y017418D01*
X023570Y017516D02*
X022681Y017516D01*
X022630Y017615D02*
X023570Y017615D01*
X023570Y017713D02*
X022623Y017713D01*
X022623Y017812D02*
X023570Y017812D01*
X023570Y017910D02*
X022623Y017910D01*
X022623Y018009D02*
X023570Y018009D01*
X023570Y018107D02*
X022623Y018107D01*
X022623Y018206D02*
X023570Y018206D01*
X023570Y018304D02*
X022224Y018304D01*
X022224Y018343D02*
X022623Y018343D01*
X022623Y018909D01*
X022613Y018958D01*
X022594Y019003D01*
X022567Y019044D01*
X022532Y019079D01*
X022491Y019106D01*
X022446Y019125D01*
X022398Y019135D01*
X022224Y019135D01*
X022224Y018343D01*
X022224Y018403D02*
X022128Y018403D01*
X022128Y018501D02*
X022224Y018501D01*
X022224Y018600D02*
X022128Y018600D01*
X022128Y018698D02*
X022224Y018698D01*
X022224Y018797D02*
X022128Y018797D01*
X022128Y018895D02*
X022224Y018895D01*
X022224Y018994D02*
X022128Y018994D01*
X022128Y019092D02*
X022224Y019092D01*
X022513Y019092D02*
X023570Y019092D01*
X023570Y018994D02*
X022598Y018994D01*
X022623Y018895D02*
X023570Y018895D01*
X023570Y018797D02*
X022623Y018797D01*
X022623Y018698D02*
X023570Y018698D01*
X023570Y018600D02*
X022623Y018600D01*
X022623Y018501D02*
X023570Y018501D01*
X023570Y018403D02*
X022623Y018403D01*
X022128Y018304D02*
X019787Y018304D01*
X019787Y018206D02*
X021729Y018206D01*
X021729Y018107D02*
X019787Y018107D01*
X019787Y018009D02*
X021729Y018009D01*
X021729Y018403D02*
X019744Y018403D01*
X020046Y018501D02*
X021729Y018501D01*
X021729Y018600D02*
X021039Y018600D01*
X021143Y018698D02*
X021729Y018698D01*
X021729Y018797D02*
X021186Y018797D01*
X021200Y018895D02*
X021729Y018895D01*
X021754Y018994D02*
X021190Y018994D01*
X021149Y019092D02*
X021840Y019092D01*
X021054Y019191D02*
X023570Y019191D01*
X023570Y019289D02*
X020550Y019289D01*
X020550Y019191D02*
X020646Y019191D01*
X020550Y019388D02*
X022859Y019388D01*
X022833Y019413D02*
X022921Y019325D01*
X023439Y019325D01*
X023527Y019413D01*
X023527Y020719D01*
X023439Y020806D01*
X022921Y020806D01*
X022833Y020719D01*
X022833Y020290D01*
X021245Y020290D01*
X021178Y020357D01*
X021050Y020410D01*
X020910Y020410D01*
X020782Y020357D01*
X020683Y020258D01*
X020630Y020130D01*
X020630Y019990D01*
X020683Y019862D01*
X020782Y019763D01*
X020910Y019710D01*
X021050Y019710D01*
X021178Y019763D01*
X021245Y019830D01*
X022833Y019830D01*
X022833Y019413D01*
X022833Y019486D02*
X020550Y019486D01*
X020481Y019585D02*
X022833Y019585D01*
X022833Y019683D02*
X020382Y019683D01*
X020284Y019782D02*
X020763Y019782D01*
X020676Y019880D02*
X020185Y019880D01*
X019873Y019979D02*
X020635Y019979D01*
X020630Y020077D02*
X019887Y020077D01*
X019887Y020274D02*
X020699Y020274D01*
X020649Y020176D02*
X019213Y020176D01*
X019195Y020176D02*
X018340Y020176D01*
X018340Y020175D02*
X018340Y020905D01*
X018621Y020624D01*
X018621Y020500D01*
X018621Y020499D01*
X018611Y020492D01*
X018576Y020457D01*
X018549Y020417D01*
X018530Y020371D01*
X018521Y020323D01*
X018521Y020189D01*
X019195Y020189D01*
X019195Y020171D01*
X018521Y020171D01*
X018521Y020037D01*
X018530Y019989D01*
X018533Y019982D01*
X018340Y020175D01*
X018340Y020274D02*
X018521Y020274D01*
X018531Y020373D02*
X018340Y020373D01*
X018340Y020471D02*
X018590Y020471D01*
X018621Y020570D02*
X018340Y020570D01*
X018340Y020668D02*
X018577Y020668D01*
X018478Y020767D02*
X018340Y020767D01*
X018340Y020865D02*
X018380Y020865D01*
X018840Y021456D02*
X018901Y021456D01*
X018870Y021555D02*
X018809Y021555D01*
X018870Y021653D02*
X018742Y021653D01*
X018580Y021752D02*
X018904Y021752D01*
X018975Y021850D02*
X018340Y021850D01*
X018340Y021752D02*
X018400Y021752D01*
X018340Y021949D02*
X019147Y021949D01*
X019293Y021949D02*
X021729Y021949D01*
X021729Y022047D02*
X018340Y022047D01*
X018340Y022146D02*
X021729Y022146D01*
X021729Y022244D02*
X018340Y022244D01*
X018340Y022343D02*
X021729Y022343D01*
X021736Y022441D02*
X018340Y022441D01*
X018340Y022540D02*
X021782Y022540D01*
X021958Y022737D02*
X019052Y022737D01*
X019150Y022835D02*
X021950Y022835D01*
X021950Y022934D02*
X019249Y022934D01*
X019347Y023032D02*
X021950Y023032D01*
X021950Y023131D02*
X019446Y023131D01*
X019544Y023229D02*
X021950Y023229D01*
X021950Y023328D02*
X019643Y023328D01*
X019741Y023426D02*
X021950Y023426D01*
X021950Y023525D02*
X019840Y023525D01*
X019938Y023623D02*
X021950Y023623D01*
X021950Y023722D02*
X020037Y023722D01*
X020135Y023820D02*
X021950Y023820D01*
X021950Y023919D02*
X020234Y023919D01*
X020332Y024017D02*
X021950Y024017D01*
X021950Y024116D02*
X020431Y024116D01*
X020529Y024214D02*
X021950Y024214D01*
X021950Y024313D02*
X020628Y024313D01*
X020726Y024411D02*
X021950Y024411D01*
X021950Y024510D02*
X020825Y024510D01*
X020923Y024608D02*
X021950Y024608D01*
X021712Y024707D02*
X021022Y024707D01*
X021120Y024805D02*
X021675Y024805D01*
X021675Y024904D02*
X021219Y024904D01*
X021317Y025002D02*
X021675Y025002D01*
X021675Y025101D02*
X021416Y025101D01*
X021514Y025199D02*
X021675Y025199D01*
X021675Y025298D02*
X021613Y025298D01*
X021265Y026480D02*
X020685Y026480D01*
X020685Y026578D02*
X021422Y026578D01*
X021618Y026578D02*
X021675Y026578D01*
X021735Y026677D02*
X020625Y026677D01*
X020524Y026775D02*
X022400Y026775D01*
X022301Y026874D02*
X020530Y026874D01*
X020512Y026972D02*
X022203Y026972D01*
X022104Y027071D02*
X020464Y027071D01*
X020611Y027169D02*
X021749Y027169D01*
X021675Y027268D02*
X020685Y027268D01*
X020685Y027366D02*
X021675Y027366D01*
X021675Y027465D02*
X020685Y027465D01*
X020685Y027563D02*
X021675Y027563D01*
X021675Y027662D02*
X020685Y027662D01*
X020685Y027760D02*
X021675Y027760D01*
X021675Y027859D02*
X020685Y027859D01*
X020685Y027957D02*
X021675Y027957D01*
X021733Y028056D02*
X020627Y028056D01*
X020673Y028351D02*
X021687Y028351D01*
X021675Y028450D02*
X020685Y028450D01*
X020685Y028548D02*
X021675Y028548D01*
X021675Y028647D02*
X020685Y028647D01*
X020685Y028745D02*
X021675Y028745D01*
X021675Y028844D02*
X020685Y028844D01*
X020685Y028942D02*
X021675Y028942D01*
X021675Y029041D02*
X020685Y029041D01*
X020663Y029139D02*
X021697Y029139D01*
X022663Y029139D02*
X023697Y029139D01*
X023675Y029041D02*
X022685Y029041D01*
X022685Y028450D02*
X022950Y028450D01*
X022950Y028351D02*
X022673Y028351D01*
X022950Y028253D02*
X020208Y028253D01*
X020109Y028154D02*
X022950Y028154D01*
X022950Y028056D02*
X022627Y028056D01*
X022685Y027957D02*
X022950Y027957D01*
X022950Y027859D02*
X022685Y027859D01*
X022685Y027760D02*
X022950Y027760D01*
X022950Y027662D02*
X022685Y027662D01*
X022685Y027563D02*
X022950Y027563D01*
X022950Y027465D02*
X022685Y027465D01*
X022685Y027366D02*
X022950Y027366D01*
X022950Y027268D02*
X022685Y027268D01*
X022656Y027169D02*
X022950Y027169D01*
X022950Y027071D02*
X022755Y027071D01*
X023410Y027071D02*
X023954Y027071D01*
X024053Y026972D02*
X023410Y026972D01*
X023410Y026874D02*
X024151Y026874D01*
X024250Y026775D02*
X023410Y026775D01*
X023410Y026677D02*
X023735Y026677D01*
X023675Y026578D02*
X023410Y026578D01*
X023410Y026480D02*
X023675Y026480D01*
X023749Y027169D02*
X023410Y027169D01*
X023410Y027268D02*
X023675Y027268D01*
X023675Y027366D02*
X023410Y027366D01*
X023410Y027465D02*
X023675Y027465D01*
X023675Y027563D02*
X023410Y027563D01*
X023410Y027662D02*
X023675Y027662D01*
X023675Y027760D02*
X023410Y027760D01*
X023410Y027859D02*
X023675Y027859D01*
X023675Y027957D02*
X023410Y027957D01*
X023410Y028056D02*
X023733Y028056D01*
X023687Y028351D02*
X023410Y028351D01*
X023410Y028253D02*
X026589Y028253D01*
X026646Y028351D02*
X024673Y028351D01*
X024685Y028450D02*
X026709Y028450D01*
X026807Y028548D02*
X024685Y028548D01*
X024685Y028647D02*
X026906Y028647D01*
X027063Y028745D02*
X024685Y028745D01*
X024627Y028056D02*
X026506Y028056D01*
X026533Y028154D02*
X023410Y028154D01*
X023410Y028450D02*
X023675Y028450D01*
X024685Y027957D02*
X026480Y027957D01*
X026453Y027859D02*
X024685Y027859D01*
X024685Y027760D02*
X026449Y027760D01*
X026449Y027662D02*
X024685Y027662D01*
X024685Y027563D02*
X026449Y027563D01*
X026463Y027465D02*
X024685Y027465D01*
X024685Y027366D02*
X026490Y027366D01*
X026516Y027268D02*
X024685Y027268D01*
X024611Y027169D02*
X026554Y027169D01*
X026610Y027071D02*
X024605Y027071D01*
X024703Y026972D02*
X026667Y026972D01*
X026746Y026874D02*
X024802Y026874D01*
X024900Y026775D02*
X026844Y026775D01*
X026956Y026677D02*
X024950Y026677D01*
X024950Y026578D02*
X027127Y026578D01*
X027404Y026480D02*
X024950Y026480D01*
X022057Y022638D02*
X018803Y022638D01*
X019465Y021850D02*
X021729Y021850D01*
X021729Y021746D02*
X021729Y021179D01*
X021739Y021131D01*
X021758Y021085D01*
X021785Y021044D01*
X021820Y021009D01*
X021861Y020982D01*
X021906Y020963D01*
X021955Y020954D01*
X022128Y020954D01*
X022128Y021746D01*
X021729Y021746D01*
X021729Y021653D02*
X019570Y021653D01*
X019570Y021555D02*
X021729Y021555D01*
X021729Y021456D02*
X019539Y021456D01*
X019787Y021358D02*
X021729Y021358D01*
X021729Y021259D02*
X019787Y021259D01*
X019787Y021161D02*
X021733Y021161D01*
X021773Y021062D02*
X019787Y021062D01*
X019750Y020964D02*
X021906Y020964D01*
X022128Y020964D02*
X022224Y020964D01*
X022224Y021062D02*
X022128Y021062D01*
X022128Y021161D02*
X022224Y021161D01*
X022224Y021259D02*
X022128Y021259D01*
X022128Y021358D02*
X022224Y021358D01*
X022224Y021456D02*
X022128Y021456D01*
X022128Y021555D02*
X022224Y021555D01*
X022224Y021653D02*
X022128Y021653D01*
X022128Y021752D02*
X019536Y021752D01*
X019782Y020865D02*
X023570Y020865D01*
X023570Y020767D02*
X023479Y020767D01*
X023527Y020668D02*
X023570Y020668D01*
X023570Y020570D02*
X023527Y020570D01*
X023527Y020471D02*
X023570Y020471D01*
X023570Y020373D02*
X023527Y020373D01*
X023527Y020274D02*
X023570Y020274D01*
X023570Y020176D02*
X023527Y020176D01*
X023527Y020077D02*
X023570Y020077D01*
X023570Y019979D02*
X023527Y019979D01*
X023527Y019880D02*
X023570Y019880D01*
X023570Y019782D02*
X023527Y019782D01*
X023527Y019683D02*
X023570Y019683D01*
X023570Y019585D02*
X023527Y019585D01*
X023527Y019486D02*
X023570Y019486D01*
X023570Y019388D02*
X023501Y019388D01*
X022833Y019782D02*
X021197Y019782D01*
X021140Y020373D02*
X022833Y020373D01*
X022833Y020471D02*
X019817Y020471D01*
X019787Y020570D02*
X022833Y020570D01*
X022833Y020668D02*
X019787Y020668D01*
X019787Y020767D02*
X022881Y020767D01*
X022579Y021062D02*
X023570Y021062D01*
X023570Y020964D02*
X022447Y020964D01*
X022619Y021161D02*
X023534Y021161D01*
X023436Y021259D02*
X022623Y021259D01*
X022623Y021358D02*
X023337Y021358D01*
X023239Y021456D02*
X022623Y021456D01*
X022623Y021555D02*
X023140Y021555D01*
X023042Y021653D02*
X022623Y021653D01*
X022623Y021850D02*
X022845Y021850D01*
X022943Y021752D02*
X022224Y021752D01*
X022623Y021949D02*
X022746Y021949D01*
X022648Y022047D02*
X022623Y022047D01*
X020820Y020373D02*
X019876Y020373D01*
X018521Y020077D02*
X018438Y020077D01*
X020145Y018600D02*
X020661Y018600D01*
X018621Y018107D02*
X018480Y018107D01*
X018480Y018009D02*
X018621Y018009D01*
X018539Y018206D02*
X018480Y018206D01*
X018250Y014955D02*
X017695Y014955D01*
X019870Y012493D02*
X020022Y012493D01*
X020121Y012394D02*
X019870Y012394D01*
X019870Y012296D02*
X020219Y012296D01*
X020318Y012197D02*
X019870Y012197D01*
X019870Y012099D02*
X020416Y012099D01*
X020515Y012000D02*
X019870Y012000D01*
X019870Y011902D02*
X020613Y011902D01*
X020712Y011803D02*
X019870Y011803D01*
X019870Y011705D02*
X020810Y011705D01*
X020909Y011606D02*
X019919Y011606D01*
X019970Y011508D02*
X021007Y011508D01*
X021100Y011409D02*
X019990Y011409D01*
X019986Y011311D02*
X021104Y011311D01*
X021145Y011212D02*
X019945Y011212D01*
X019859Y011114D02*
X021231Y011114D01*
X020858Y009932D02*
X019374Y009932D01*
X019472Y009833D02*
X020821Y009833D01*
X020821Y009735D02*
X019571Y009735D01*
X019669Y009636D02*
X020821Y009636D01*
X020821Y009538D02*
X019768Y009538D01*
X019866Y009439D02*
X020821Y009439D01*
X020821Y009341D02*
X019965Y009341D01*
X020063Y009242D02*
X020821Y009242D01*
X020821Y009144D02*
X020162Y009144D01*
X020260Y009045D02*
X020821Y009045D01*
X020821Y008947D02*
X020359Y008947D01*
X020457Y008848D02*
X020878Y008848D01*
X021910Y008651D02*
X023120Y008651D01*
X023120Y008553D02*
X021910Y008553D01*
X021910Y008454D02*
X023120Y008454D01*
X023120Y008356D02*
X021969Y008356D01*
X022056Y008257D02*
X023120Y008257D01*
X023120Y008159D02*
X022096Y008159D01*
X022100Y008060D02*
X023120Y008060D01*
X023120Y007962D02*
X022080Y007962D01*
X022028Y007863D02*
X023120Y007863D01*
X023120Y007765D02*
X021910Y007765D01*
X021910Y007666D02*
X023120Y007666D01*
X023120Y007568D02*
X023016Y007568D01*
X023071Y007469D02*
X023120Y007469D01*
X023120Y007371D02*
X023080Y007371D01*
X023080Y007272D02*
X023120Y007272D01*
X023119Y007174D02*
X023080Y007174D01*
X023580Y007272D02*
X023880Y007272D01*
X023880Y007371D02*
X023580Y007371D01*
X023580Y007469D02*
X023887Y007469D01*
X022640Y007469D02*
X022540Y007469D01*
X022540Y007371D02*
X022640Y007371D01*
X022640Y007272D02*
X022540Y007272D01*
X022540Y007174D02*
X022640Y007174D01*
X022640Y007075D02*
X022540Y007075D01*
X022540Y006977D02*
X022070Y006977D01*
X022070Y007075D02*
X022100Y007075D01*
X022100Y007174D02*
X022070Y007174D01*
X022070Y007272D02*
X022100Y007272D01*
X022100Y007371D02*
X022070Y007371D01*
X022063Y007469D02*
X022109Y007469D01*
X022164Y007568D02*
X021910Y007568D01*
X022540Y007568D02*
X022640Y007568D01*
X022100Y006878D02*
X022070Y006878D01*
X022070Y006780D02*
X022100Y006780D01*
X022100Y006681D02*
X022070Y006681D01*
X022070Y006583D02*
X022100Y006583D01*
X025498Y006386D02*
X025772Y006386D01*
X025700Y006484D02*
X025570Y006484D01*
X025570Y006583D02*
X025700Y006583D01*
X025700Y006681D02*
X025570Y006681D01*
X025570Y006780D02*
X025700Y006780D01*
X025700Y006878D02*
X025570Y006878D01*
X025570Y006977D02*
X025700Y006977D01*
X025680Y007075D02*
X025570Y007075D01*
X025570Y007174D02*
X025581Y007174D01*
X016465Y006090D02*
X015859Y006090D01*
X015880Y006189D02*
X016366Y006189D01*
X016268Y006287D02*
X015877Y006287D01*
X015907Y006386D02*
X016169Y006386D01*
X016071Y006484D02*
X015980Y006484D01*
X013630Y002052D02*
X013630Y002052D01*
X013630Y001953D02*
X013589Y001953D01*
X017500Y028056D02*
X017570Y028056D01*
X017500Y028154D02*
X017669Y028154D01*
M02*
