%
M48
M72
T01C0.0150
T02C0.0200
T03C0.0236
T04C0.0240
T05C0.0320
T06C0.0354
T07C0.0360
T08C0.0400
T09C0.0440
T10C0.0520
T11C0.0550
T12C0.0590
T13C0.0669
T14C0.0709
T15C0.1250
T16C0.1300
T17C0.1500
%
T01
X42780Y12660
X44260Y13020
X43280Y13590
X43280Y15450
X46140Y16460
X46050Y17190
X47420Y16580
X48360Y15880
X48780Y15880
X48030Y15140
X50460Y15630
X51530Y15920
X51640Y16920
X51640Y18360
X50390Y19210
X50400Y20160
X53400Y18630
X55160Y18300
X55300Y18880
X55030Y17200
X54590Y17230
X53980Y17230
X54530Y15920
X56420Y15300
X58420Y16210
X59030Y15920
X58800Y15590
X59190Y15300
X60030Y15140
X60930Y15430
X62530Y15140
X62530Y17270
X61610Y17230
X61200Y17230
X59910Y17240
X59520Y17200
X62240Y19170
X64340Y19170
X57690Y20770
X55300Y20990
X58230Y23730
X49340Y17730
X48840Y17230
X49840Y17230
X47580Y17480
X44050Y18060
X42930Y20260
X33490Y25080
X32970Y26020
X31150Y25680
X29590Y24540
X32690Y27680
X28410Y30140
X23670Y34360
X23670Y34860
X22990Y36000
X22990Y36860
X23670Y36560
X24730Y37540
X24990Y37840
X25590Y38440
X28410Y38080
X29230Y38120
X31890Y38120
X27370Y42980
X26630Y42980
X25910Y42680
X25490Y42680
X23670Y43680
X22990Y43500
X22990Y41680
X22990Y41180
X21630Y41000
X19530Y39000
X19430Y38600
X21330Y38100
X17030Y40900
X14010Y42220
X12690Y41920
X9050Y41780
X13810Y43700
X12430Y45080
X8870Y45340
X9050Y38280
X13190Y36640
X12690Y35540
X14090Y35540
X14550Y35240
X12390Y32280
X8930Y32180
X8870Y32740
X9030Y34680
X22490Y47620
X21690Y48420
X72130Y21780
X73030Y21880
X75130Y21730
X75130Y21130
X75130Y20530
X76830Y18830
X76630Y18430
X76430Y18030
X76130Y17630
X75880Y17230
X75630Y16730
X76080Y16130
X76830Y15230
X76530Y14830
X76130Y14430
X75730Y14030
X77030Y13930
X77030Y13430
X77230Y14530
X77380Y15130
X78180Y15430
X78180Y16130
X79730Y16380
X79780Y17430
X80630Y17430
X80930Y16830
X81530Y16680
X82230Y16780
X80630Y18930
X80630Y19730
X79780Y19730
X80280Y20580
X79230Y20830
X78230Y19430
X78130Y18930
X77930Y18530
X77530Y18330
X73130Y18780
X79830Y22680
X81930Y22680
X86280Y16880
X87130Y15030
X81980Y12030
X81530Y11230
X79830Y12580
X78780Y13030
X78880Y11230
X80230Y10030
X80980Y9130
X80480Y7930
X81930Y7530
X81530Y6730
X81980Y6430
X80780Y6430
X78130Y5130
X79530Y4980
X78480Y3530
X80330Y2930
X78130Y1780
X76630Y1880
X75730Y2580
X74530Y2580
X74780Y4280
X75780Y4580
X75080Y7230
X74480Y9430
X75280Y11730
X74830Y12830
X74430Y13080
X74030Y13330
X73430Y12830
X78430Y9230
X82480Y4730
X77430Y880
X60850Y4930
X57820Y7140
X55830Y8530
X56300Y9870
X56700Y9880
X57110Y9880
X55310Y9870
X54890Y9880
X54170Y9680
X53780Y10580
X52530Y10380
X51530Y10580
X51530Y9950
X51100Y9880
X53090Y9110
X52510Y8530
X51830Y8330
X50710Y6320
X50320Y6540
X49200Y5420
X48280Y5330
X48780Y7230
X47850Y8330
X47280Y8910
X46700Y8330
X45530Y6730
X45390Y10050
X45800Y10050
X44640Y9980
X43850Y9980
X47360Y11190
X47470Y11580
X47580Y11970
X47850Y10900
X48420Y10610
X49150Y9880
X50590Y11930
X52030Y12230
X53280Y11900
X54280Y11890
X54760Y12410
X54780Y12800
X55330Y12610
X56350Y13220
X56740Y13200
X57580Y12360
X56740Y11930
X56280Y11890
X58580Y11760
X58710Y11370
X60030Y9950
X61710Y8290
X59280Y13280
X59570Y13830
X60320Y13830
X60780Y13680
X58800Y13830
X52530Y14730
X51280Y13510
X50780Y13070
X50130Y13830
X49530Y13230
X48280Y13820
X47280Y13480
X46090Y13870
X44840Y12030
X65120Y15230
X88130Y11430
T02
X77230Y2830
X74630Y1330
T03
X24830Y30680
X17330Y39680
X25830Y44680
X26330Y47180
T04
X31330Y46680
X31330Y47680
X31330Y48680
X37330Y48680
X37330Y47680
X37330Y46680
X37330Y43680
X37330Y42680
X37330Y41680
X37330Y38680
X37330Y37680
X37330Y36680
X37330Y33680
X37330Y32680
X37330Y31680
X31330Y31680
X31330Y32680
X31330Y33680
X31330Y36680
X31330Y37680
X31330Y38680
X31330Y41680
X31330Y42680
X31330Y43680
X66115Y47030
X66115Y47780
X66765Y45880
X66615Y40530
X83540Y36190
X84880Y35330
X86610Y37950
X88150Y39020
X89410Y39510
X90760Y40170
X92080Y40670
X92410Y39830
X94150Y40670
X94390Y40230
X94830Y39900
X95380Y39900
X96070Y39900
X96670Y39900
X97090Y40230
X98140Y40230
X98410Y39450
X98020Y40890
X98370Y41220
X96630Y41600
X95710Y40890
X93630Y41560
X93050Y41920
X92590Y42110
X92590Y41560
X93450Y42220
X92070Y42790
X91490Y42250
X90660Y41980
X90870Y41000
X87340Y40350
X86150Y40250
X84880Y42780
X87650Y43360
X87670Y44360
X89910Y43430
X90390Y43440
X91480Y44890
X92090Y46430
X92680Y46430
X91470Y47070
X96590Y46080
X98530Y46220
X99590Y46220
X98040Y44650
X99730Y43930
X100460Y42670
X96580Y44480
X94060Y43920
X90750Y38430
X95740Y36100
X96610Y34550
X92170Y35310
X91530Y35310
X91690Y34650
X89740Y34310
X87610Y32970
X88350Y31910
X103570Y37320
X96580Y16280
X93330Y15530
X95830Y14030
X96430Y13330
X96780Y11880
X97680Y11330
X97680Y10830
X98180Y10330
X96880Y10530
X96380Y10730
X98530Y11230
X99530Y11230
X101230Y11230
X101230Y10330
X101380Y9780
X98230Y9380
X97530Y8680
X97030Y8680
X95430Y9430
X94930Y8930
X92380Y9780
X92380Y10530
X90580Y10530
X91130Y11430
X92430Y11230
X93080Y12280
X93530Y11980
X88980Y11430
X87630Y10780
X88130Y10280
X90680Y9430
X91580Y6130
X93480Y6030
X95630Y5180
X99530Y14030
X103030Y14030
X89030Y14030
X36180Y13130
X29980Y14730
X23680Y13180
X23330Y12330
X22430Y13830
X20830Y16380
X15930Y13830
X16730Y13380
X14330Y16380
X9430Y13830
X6430Y12980
X3980Y11230
X9930Y11380
X7830Y16380
X20480Y8130
X19630Y6230
X21630Y6230
T05
X2080Y32180
X1080Y32180
X1080Y34680
X2080Y34680
X2080Y37180
X1080Y37180
X1080Y39680
X2080Y39680
X2080Y42180
X1080Y42180
X1080Y44680
X2080Y44680
X2080Y47180
X1080Y47180
X75380Y39930
X77380Y39930
X77880Y38430
X79380Y38430
X80880Y38430
X75880Y37430
X75880Y35430
X77880Y34430
X79380Y34430
X80880Y34430
X98012Y35489
X102012Y35489
T06
X78346Y2730
X76614Y2730
T07
X85380Y29930
X86380Y29930
X87380Y29930
X88380Y29930
X89380Y29930
X90380Y29930
X91380Y29930
X92380Y29930
X93380Y29930
X94380Y29930
X94380Y30930
X93380Y30930
X92380Y30930
X91380Y30930
X90380Y30930
X89380Y30930
X88380Y30930
X87380Y30930
X86380Y30930
X85380Y30930
X102880Y36930
X102880Y37930
X102880Y38930
X102880Y39930
X102880Y40930
X102880Y41930
X102880Y42930
X102880Y43930
X102380Y45430
X101380Y45430
X101380Y46930
X102380Y46930
X103380Y46930
X103380Y45430
X103380Y49880
X98830Y49880
X94280Y49880
X89630Y49880
X84980Y49880
X80280Y49880
X75530Y49880
X75530Y54280
X80280Y54280
X84980Y54280
X89630Y54280
X94280Y54280
X98830Y54280
X103380Y54280
X95380Y46430
X95380Y45430
X93880Y45430
X93880Y46430
X90890Y45998
X89890Y45998
X89890Y44998
X90890Y44998
X90890Y43998
X89890Y43998
X89880Y42430
X89880Y41430
X89880Y40430
T08
X83480Y22280
X83480Y21280
X83480Y20280
X83480Y19280
X83480Y18280
X83480Y17280
X83480Y16280
X83480Y15280
X83480Y14280
X83480Y13280
X83480Y12280
X83480Y11280
X83480Y10280
X83480Y9280
X83480Y8280
X83480Y7280
X83480Y6280
X83480Y5280
X83480Y4280
X83480Y3280
X83480Y2280
X83480Y1280
X91130Y4530
X91130Y5530
X92130Y5530
X92130Y4530
X93130Y4530
X93130Y5530
X94130Y5530
X94130Y4530
X95130Y4530
X95130Y5530
X96130Y5530
X96130Y4530
X97130Y4530
X97130Y5530
X98130Y5530
X98130Y4530
X99130Y4530
X99130Y5530
X100130Y5530
X100130Y4530
X71480Y4280
X71480Y3280
X71480Y2280
X71480Y1280
X71480Y5280
X71480Y6280
X71480Y7280
X71480Y8280
X71480Y9280
X71480Y10280
X71480Y11280
X71480Y12280
X71480Y13280
X71480Y14280
X71480Y15280
X71480Y16280
X71480Y17280
X71480Y18280
X71480Y19280
X71480Y20280
X71480Y21280
X71480Y22280
X68280Y18230
X67280Y18230
X67280Y17230
X68280Y17230
X68280Y16230
X68280Y15230
X67280Y15230
X67280Y16230
X67280Y14230
X68280Y14230
X63280Y4480
X63280Y3480
X62280Y3480
X62280Y4480
X61280Y4480
X61280Y3480
X60280Y3480
X60280Y4480
X59280Y4480
X59280Y3480
X58280Y3480
X58280Y4480
X57280Y4480
X57280Y3480
X56280Y3480
X56280Y4480
X55280Y4480
X54280Y4480
X54280Y3480
X55280Y3480
X53280Y3480
X53280Y4480
X52280Y4480
X52280Y3480
X51280Y3480
X51280Y4480
X50280Y4480
X50280Y3480
X49280Y3480
X49280Y4480
X48280Y4480
X48280Y3480
X47280Y3480
X47280Y4480
X35080Y6680
X34080Y6680
X33080Y6680
X32080Y6680
X31080Y6680
X30080Y6680
X29080Y6680
X28080Y6680
X27080Y6680
X26080Y6680
X25080Y6680
X24080Y6680
X23080Y6680
X22080Y6680
X21080Y6680
X20080Y6680
X19080Y6680
X18080Y6680
X17080Y6680
X16080Y6680
X15080Y6680
X14080Y6680
X13080Y6680
X12080Y6680
X11080Y6680
X10080Y6680
X9080Y6680
X8080Y6680
X7080Y6680
X6080Y6680
X6080Y7680
X7080Y7680
X8080Y7680
X9080Y7680
X10080Y7680
X11080Y7680
X12080Y7680
X13080Y7680
X14080Y7680
X15080Y7680
X16080Y7680
X17080Y7680
X18080Y7680
X19080Y7680
X20080Y7680
X21080Y7680
X22080Y7680
X23080Y7680
X24080Y7680
X25080Y7680
X26080Y7680
X27080Y7680
X28080Y7680
X29080Y7680
X30080Y7680
X31080Y7680
X32080Y7680
X33080Y7680
X34080Y7680
X35080Y7680
X24580Y3180
X23580Y3180
X22580Y3180
X21580Y3180
X20580Y3180
X19580Y3180
X18580Y3180
X17580Y3180
X16580Y3180
X15580Y3180
X15580Y2180
X16580Y2180
X17580Y2180
X18580Y2180
X19580Y2180
X20580Y2180
X21580Y2180
X22580Y2180
X23580Y2180
X24580Y2180
X25330Y25180
X26330Y25180
X27330Y25180
X28330Y25180
X29330Y25180
X29330Y26180
X28330Y26180
X27330Y26180
X26330Y26180
X25330Y26180
T09
X75380Y42930
X76880Y42930
X78380Y42930
X80380Y40430
X81380Y40430
X82380Y40430
T10
X56105Y39430
X54135Y39430
X54135Y42380
X56105Y42380
X46265Y42380
X46265Y39430
X46265Y35880
X46265Y32930
X52175Y32930
X54135Y32930
X56105Y32930
X56105Y35880
X54135Y35880
X52175Y35880
X19330Y34810
X16380Y34810
X16380Y32840
X19330Y32840
X19330Y42680
X16380Y42680
T11
X75880Y45930
X77880Y45930
T12
X62265Y46380
X56265Y46380
X52765Y46380
X46765Y46380
T13
X97420Y33741
X99920Y31241
X102420Y28741
X97420Y28741
X102420Y33741
T14
X65265Y36630
X65265Y39130
X63515Y52380
X61015Y52380
X51515Y52880
X49015Y52880
X20830Y27930
X20830Y25430
X14830Y25430
X14830Y27930
X8830Y27930
X8830Y25430
T15
X2830Y2680
X2830Y18180
X2830Y23680
X37330Y23680
X37330Y18180
X43220Y31950
X69265Y31880
X87130Y22530
X103630Y22530
X103630Y3030
X87130Y3030
X37330Y2680
X37330Y53180
X43220Y52950
X69265Y52880
X2830Y53180
T16
X81380Y46330
T17
X67530Y25730
X43030Y25730
X43030Y2980
X67530Y2980
M30
