G75*
G70*
%OFA0B0*%
%FSLAX24Y24*%
%IPPOS*%
%LPD*%
%AMOC8*
5,1,8,0,0,1.08239X$1,22.5*
%
%ADD10C,0.1330*%
%ADD11C,0.1580*%
%ADD12C,0.0520*%
%ADD13OC8,0.0600*%
%ADD14C,0.0860*%
%ADD15OC8,0.0680*%
%ADD16C,0.1084*%
%ADD17C,0.0740*%
%ADD18C,0.0905*%
%ADD19R,0.0316X0.0946*%
%ADD20R,0.0710X0.0592*%
%ADD21R,0.0474X0.0513*%
%ADD22C,0.0640*%
%ADD23R,0.0867X0.0671*%
%ADD24OC8,0.0640*%
%ADD25R,0.0513X0.0474*%
%ADD26R,0.0474X0.0474*%
%ADD27R,0.0671X0.0867*%
%ADD28C,0.1380*%
%ADD29C,0.0965*%
%ADD30R,0.3308X0.0789*%
%ADD31C,0.0434*%
%ADD32C,0.0476*%
%ADD33C,0.0390*%
%ADD34C,0.0480*%
%ADD35C,0.0440*%
D10*
X002830Y002680D03*
X002830Y018180D03*
X002830Y023680D03*
X037330Y023680D03*
X037330Y018180D03*
X043220Y031950D03*
X069265Y031880D03*
X087130Y022530D03*
X103630Y022530D03*
X103630Y003030D03*
X087130Y003030D03*
X037330Y002680D03*
X037330Y053180D03*
X043220Y052950D03*
X069265Y052880D03*
X002830Y053180D03*
D11*
X049015Y052880D03*
X051515Y052880D03*
X061015Y052380D03*
X063515Y052380D03*
X065265Y039130D03*
X065265Y036630D03*
X067530Y025730D03*
X043030Y025730D03*
X020830Y025430D03*
X020830Y027930D03*
X014830Y027930D03*
X014830Y025430D03*
X008830Y025430D03*
X008830Y027930D03*
X043030Y002980D03*
X067530Y002980D03*
D12*
X037330Y031680D03*
X037330Y032680D03*
X037330Y033680D03*
X037330Y036680D03*
X037330Y037680D03*
X037330Y038680D03*
X037330Y041680D03*
X037330Y042680D03*
X037330Y043680D03*
X037330Y046680D03*
X037330Y047680D03*
X037330Y048680D03*
X031330Y048680D03*
X031330Y047680D03*
X031330Y046680D03*
X031330Y043680D03*
X031330Y042680D03*
X031330Y041680D03*
X031330Y038680D03*
X031330Y037680D03*
X031330Y036680D03*
X031330Y033680D03*
X031330Y032680D03*
X031330Y031680D03*
D13*
X002080Y032180D03*
X001080Y032180D03*
X001080Y034680D03*
X002080Y034680D03*
X002080Y037180D03*
X001080Y037180D03*
X001080Y039680D03*
X002080Y039680D03*
X002080Y042180D03*
X001080Y042180D03*
X001080Y044680D03*
X002080Y044680D03*
X002080Y047180D03*
X001080Y047180D03*
X075380Y039930D03*
X077380Y039930D03*
X077880Y038430D03*
X079380Y038430D03*
X080880Y038430D03*
X075880Y037430D03*
X075880Y035430D03*
X077880Y034430D03*
X079380Y034430D03*
X080880Y034430D03*
X098012Y035489D03*
X102012Y035489D03*
D14*
X056105Y035490D02*
X056105Y036270D01*
X054135Y036270D02*
X054135Y035490D01*
X052175Y035490D02*
X052175Y036270D01*
X052175Y033320D02*
X052175Y032540D01*
X054135Y032540D02*
X054135Y033320D01*
X056105Y033320D02*
X056105Y032540D01*
X046265Y032540D02*
X046265Y033320D01*
X046265Y035490D02*
X046265Y036270D01*
X046265Y039040D02*
X046265Y039820D01*
X046265Y041990D02*
X046265Y042770D01*
X054135Y042770D02*
X054135Y041990D01*
X056105Y041990D02*
X056105Y042770D01*
X056105Y039820D02*
X056105Y039040D01*
X054135Y039040D02*
X054135Y039820D01*
X019720Y042680D02*
X018940Y042680D01*
X016770Y042680D02*
X015990Y042680D01*
X015990Y034810D02*
X016770Y034810D01*
X018940Y034810D02*
X019720Y034810D01*
X019720Y032840D02*
X018940Y032840D01*
X016770Y032840D02*
X015990Y032840D01*
D15*
X025330Y026180D03*
X026330Y026180D03*
X027330Y026180D03*
X028330Y026180D03*
X029330Y026180D03*
X029330Y025180D03*
X028330Y025180D03*
X027330Y025180D03*
X026330Y025180D03*
X025330Y025180D03*
X025080Y007680D03*
X024080Y007680D03*
X023080Y007680D03*
X022080Y007680D03*
X021080Y007680D03*
X020080Y007680D03*
X019080Y007680D03*
X018080Y007680D03*
X017080Y007680D03*
X016080Y007680D03*
X015080Y007680D03*
X014080Y007680D03*
X013080Y007680D03*
X012080Y007680D03*
X011080Y007680D03*
X010080Y007680D03*
X009080Y007680D03*
X008080Y007680D03*
X007080Y007680D03*
X006080Y007680D03*
X006080Y006680D03*
X007080Y006680D03*
X008080Y006680D03*
X009080Y006680D03*
X010080Y006680D03*
X011080Y006680D03*
X012080Y006680D03*
X013080Y006680D03*
X014080Y006680D03*
X015080Y006680D03*
X016080Y006680D03*
X017080Y006680D03*
X018080Y006680D03*
X019080Y006680D03*
X020080Y006680D03*
X021080Y006680D03*
X022080Y006680D03*
X023080Y006680D03*
X024080Y006680D03*
X025080Y006680D03*
X026080Y006680D03*
X027080Y006680D03*
X028080Y006680D03*
X029080Y006680D03*
X030080Y006680D03*
X031080Y006680D03*
X032080Y006680D03*
X033080Y006680D03*
X034080Y006680D03*
X035080Y006680D03*
X035080Y007680D03*
X034080Y007680D03*
X033080Y007680D03*
X032080Y007680D03*
X031080Y007680D03*
X030080Y007680D03*
X029080Y007680D03*
X028080Y007680D03*
X027080Y007680D03*
X026080Y007680D03*
X024580Y003180D03*
X023580Y003180D03*
X022580Y003180D03*
X021580Y003180D03*
X020580Y003180D03*
X019580Y003180D03*
X018580Y003180D03*
X017580Y003180D03*
X016580Y003180D03*
X015580Y003180D03*
X015580Y002180D03*
X016580Y002180D03*
X017580Y002180D03*
X018580Y002180D03*
X019580Y002180D03*
X020580Y002180D03*
X021580Y002180D03*
X022580Y002180D03*
X023580Y002180D03*
X024580Y002180D03*
X047280Y003480D03*
X047280Y004480D03*
X048280Y004480D03*
X048280Y003480D03*
X049280Y003480D03*
X049280Y004480D03*
X050280Y004480D03*
X050280Y003480D03*
X051280Y003480D03*
X051280Y004480D03*
X052280Y004480D03*
X052280Y003480D03*
X053280Y003480D03*
X053280Y004480D03*
X054280Y004480D03*
X055280Y004480D03*
X055280Y003480D03*
X054280Y003480D03*
X056280Y003480D03*
X056280Y004480D03*
X057280Y004480D03*
X057280Y003480D03*
X058280Y003480D03*
X058280Y004480D03*
X059280Y004480D03*
X059280Y003480D03*
X060280Y003480D03*
X060280Y004480D03*
X061280Y004480D03*
X061280Y003480D03*
X062280Y003480D03*
X062280Y004480D03*
X063280Y004480D03*
X063280Y003480D03*
X071480Y003280D03*
X071480Y002280D03*
X071480Y001280D03*
X071480Y004280D03*
X071480Y005280D03*
X071480Y006280D03*
X071480Y007280D03*
X071480Y008280D03*
X071480Y009280D03*
X071480Y010280D03*
X071480Y011280D03*
X071480Y012280D03*
X071480Y013280D03*
X071480Y014280D03*
X071480Y015280D03*
X071480Y016280D03*
X071480Y017280D03*
X071480Y018280D03*
X071480Y019280D03*
X071480Y020280D03*
X071480Y021280D03*
X071480Y022280D03*
X068280Y018230D03*
X067280Y018230D03*
X067280Y017230D03*
X068280Y017230D03*
X068280Y016230D03*
X068280Y015230D03*
X067280Y015230D03*
X067280Y016230D03*
X067280Y014230D03*
X068280Y014230D03*
X083480Y014280D03*
X083480Y013280D03*
X083480Y012280D03*
X083480Y011280D03*
X083480Y010280D03*
X083480Y009280D03*
X083480Y008280D03*
X083480Y007280D03*
X083480Y006280D03*
X083480Y005280D03*
X083480Y004280D03*
X083480Y003280D03*
X083480Y002280D03*
X083480Y001280D03*
X091130Y004530D03*
X091130Y005530D03*
X092130Y005530D03*
X092130Y004530D03*
X093130Y004530D03*
X093130Y005530D03*
X094130Y005530D03*
X094130Y004530D03*
X095130Y004530D03*
X095130Y005530D03*
X096130Y005530D03*
X096130Y004530D03*
X097130Y004530D03*
X097130Y005530D03*
X098130Y005530D03*
X098130Y004530D03*
X099130Y004530D03*
X099130Y005530D03*
X100130Y005530D03*
X100130Y004530D03*
X083480Y015280D03*
X083480Y016280D03*
X083480Y017280D03*
X083480Y018280D03*
X083480Y019280D03*
X083480Y020280D03*
X083480Y021280D03*
X083480Y022280D03*
D16*
X097420Y028741D03*
X099920Y031241D03*
X102420Y028741D03*
X102420Y033741D03*
X097420Y033741D03*
D17*
X082380Y040100D02*
X082380Y040760D01*
X081380Y040760D02*
X081380Y040100D01*
X080380Y040100D02*
X080380Y040760D01*
X078380Y042600D02*
X078380Y043260D01*
X076880Y043260D02*
X076880Y042600D01*
X075380Y042600D02*
X075380Y043260D01*
D18*
X075880Y045518D02*
X075880Y046343D01*
X077880Y046343D02*
X077880Y045518D01*
D19*
X098558Y045500D03*
X099058Y045500D03*
X099558Y045500D03*
X100058Y045500D03*
X100058Y042675D03*
X099558Y042675D03*
X099058Y042675D03*
X098558Y042675D03*
D20*
X097380Y043536D03*
X097380Y044324D03*
X091880Y044324D03*
X091880Y043536D03*
D21*
X092045Y045930D03*
X092715Y045930D03*
X098545Y046930D03*
X099215Y046930D03*
X099045Y041430D03*
X099715Y041430D03*
D22*
X102600Y040930D02*
X103160Y040930D01*
X103160Y041930D02*
X102600Y041930D01*
X102600Y042930D02*
X103160Y042930D01*
X103160Y043930D02*
X102600Y043930D01*
X102380Y045150D02*
X102380Y045710D01*
X101380Y045710D02*
X101380Y045150D01*
X103380Y045150D02*
X103380Y045710D01*
X103380Y046650D02*
X103380Y047210D01*
X102380Y047210D02*
X102380Y046650D01*
X101380Y046650D02*
X101380Y047210D01*
X103100Y049880D02*
X103660Y049880D01*
X099110Y049880D02*
X098550Y049880D01*
X094560Y049880D02*
X094000Y049880D01*
X089910Y049880D02*
X089350Y049880D01*
X085260Y049880D02*
X084700Y049880D01*
X080560Y049880D02*
X080000Y049880D01*
X075810Y049880D02*
X075250Y049880D01*
X075250Y054280D02*
X075810Y054280D01*
X080000Y054280D02*
X080560Y054280D01*
X084700Y054280D02*
X085260Y054280D01*
X089350Y054280D02*
X089910Y054280D01*
X094000Y054280D02*
X094560Y054280D01*
X098550Y054280D02*
X099110Y054280D01*
X103100Y054280D02*
X103660Y054280D01*
X095660Y046430D02*
X095100Y046430D01*
X094160Y046430D02*
X093600Y046430D01*
X093600Y045430D02*
X094160Y045430D01*
X095100Y045430D02*
X095660Y045430D01*
X090160Y042430D02*
X089600Y042430D01*
X089600Y041430D02*
X090160Y041430D01*
X090160Y040430D02*
X089600Y040430D01*
X102600Y039930D02*
X103160Y039930D01*
X103160Y038930D02*
X102600Y038930D01*
X102600Y037930D02*
X103160Y037930D01*
X103160Y036930D02*
X102600Y036930D01*
D23*
X093880Y043339D03*
X092880Y043339D03*
X092880Y044521D03*
X093880Y044521D03*
D24*
X090890Y044998D03*
X089890Y044998D03*
X089890Y045998D03*
X090890Y045998D03*
X090890Y043998D03*
X089890Y043998D03*
X090380Y030930D03*
X089380Y030930D03*
X088380Y030930D03*
X087380Y030930D03*
X086380Y030930D03*
X085380Y030930D03*
X085380Y029930D03*
X086380Y029930D03*
X087380Y029930D03*
X088380Y029930D03*
X089380Y029930D03*
X090380Y029930D03*
X091380Y029930D03*
X092380Y029930D03*
X093380Y029930D03*
X094380Y029930D03*
X094380Y030930D03*
X093380Y030930D03*
X092380Y030930D03*
X091380Y030930D03*
D25*
X091380Y041095D03*
X091380Y041765D03*
D26*
X085274Y034930D03*
X084486Y034930D03*
D27*
X084289Y036430D03*
X085471Y036430D03*
X085471Y037930D03*
X084289Y037930D03*
D28*
X081380Y046330D03*
D29*
X062708Y046380D02*
X061823Y046380D01*
X056708Y046380D02*
X055823Y046380D01*
X053208Y046380D02*
X052323Y046380D01*
X047208Y046380D02*
X046323Y046380D01*
D30*
X075530Y050978D03*
X075530Y053182D03*
X080280Y053182D03*
X080280Y050978D03*
X084980Y050978D03*
X084980Y053182D03*
X089630Y053182D03*
X089630Y050978D03*
X094280Y050978D03*
X094280Y053182D03*
X098830Y053182D03*
X098830Y050978D03*
X103380Y050978D03*
X103380Y053182D03*
D31*
X078346Y002730D03*
X076614Y002730D03*
D32*
X024830Y030680D03*
X017330Y039680D03*
X025830Y044680D03*
X026330Y047180D03*
D33*
X022490Y047620D03*
X021690Y048420D03*
X013810Y043700D03*
X012430Y045080D03*
X008870Y045340D03*
X014010Y042220D03*
X012690Y041920D03*
X009050Y041780D03*
X009050Y038280D03*
X013190Y036640D03*
X012690Y035540D03*
X014090Y035540D03*
X014550Y035240D03*
X012390Y032280D03*
X008930Y032180D03*
X008870Y032740D03*
X009030Y034680D03*
X019430Y038600D03*
X019530Y039000D03*
X021330Y038100D03*
X022990Y036860D03*
X023670Y036560D03*
X022990Y036000D03*
X023670Y034860D03*
X023670Y034360D03*
X024730Y037540D03*
X024990Y037840D03*
X025590Y038440D03*
X028410Y038080D03*
X029230Y038120D03*
X031890Y038120D03*
X027370Y042980D03*
X026630Y042980D03*
X025910Y042680D03*
X025490Y042680D03*
X023670Y043680D03*
X022990Y043500D03*
X022990Y041680D03*
X022990Y041180D03*
X021630Y041000D03*
X017030Y040900D03*
X028410Y030140D03*
X032690Y027680D03*
X032970Y026020D03*
X031150Y025680D03*
X029590Y024540D03*
X033490Y025080D03*
X042930Y020260D03*
X044050Y018060D03*
X046050Y017190D03*
X046140Y016460D03*
X047420Y016580D03*
X048360Y015880D03*
X048780Y015880D03*
X048030Y015140D03*
X050460Y015630D03*
X051530Y015920D03*
X051640Y016920D03*
X051640Y018360D03*
X050390Y019210D03*
X050400Y020160D03*
X053400Y018630D03*
X055160Y018300D03*
X055300Y018880D03*
X055030Y017200D03*
X054590Y017230D03*
X053980Y017230D03*
X054530Y015920D03*
X056420Y015300D03*
X058420Y016210D03*
X059030Y015920D03*
X058800Y015590D03*
X059190Y015300D03*
X060030Y015140D03*
X060930Y015430D03*
X062530Y015140D03*
X062530Y017270D03*
X061610Y017230D03*
X061200Y017230D03*
X059910Y017240D03*
X059520Y017200D03*
X062240Y019170D03*
X064340Y019170D03*
X057690Y020770D03*
X055300Y020990D03*
X058230Y023730D03*
X049340Y017730D03*
X048840Y017230D03*
X049840Y017230D03*
X047580Y017480D03*
X043280Y015450D03*
X043280Y013590D03*
X044260Y013020D03*
X042780Y012660D03*
X044840Y012030D03*
X047360Y011190D03*
X047470Y011580D03*
X047580Y011970D03*
X047850Y010900D03*
X048420Y010610D03*
X049150Y009880D03*
X051100Y009880D03*
X051530Y009950D03*
X051530Y010580D03*
X052530Y010380D03*
X053780Y010580D03*
X054170Y009680D03*
X054890Y009880D03*
X055310Y009870D03*
X056300Y009870D03*
X056700Y009880D03*
X057110Y009880D03*
X055830Y008530D03*
X057820Y007140D03*
X061710Y008290D03*
X060030Y009950D03*
X058710Y011370D03*
X058580Y011760D03*
X057580Y012360D03*
X056740Y011930D03*
X056280Y011890D03*
X055330Y012610D03*
X054780Y012800D03*
X054760Y012410D03*
X054280Y011890D03*
X053280Y011900D03*
X052030Y012230D03*
X050590Y011930D03*
X050780Y013070D03*
X051280Y013510D03*
X050130Y013830D03*
X049530Y013230D03*
X048280Y013820D03*
X047280Y013480D03*
X046090Y013870D03*
X052530Y014730D03*
X056350Y013220D03*
X056740Y013200D03*
X058800Y013830D03*
X059280Y013280D03*
X059570Y013830D03*
X060320Y013830D03*
X060780Y013680D03*
X065120Y015230D03*
X073130Y018780D03*
X075130Y020530D03*
X075130Y021130D03*
X075130Y021730D03*
X073030Y021880D03*
X072130Y021780D03*
X076830Y018830D03*
X076630Y018430D03*
X076430Y018030D03*
X076130Y017630D03*
X075880Y017230D03*
X075630Y016730D03*
X076080Y016130D03*
X076830Y015230D03*
X076530Y014830D03*
X076130Y014430D03*
X075730Y014030D03*
X077030Y013930D03*
X077030Y013430D03*
X077230Y014530D03*
X077380Y015130D03*
X078180Y015430D03*
X078180Y016130D03*
X079730Y016380D03*
X079780Y017430D03*
X080630Y017430D03*
X080930Y016830D03*
X081530Y016680D03*
X082230Y016780D03*
X080630Y018930D03*
X080630Y019730D03*
X079780Y019730D03*
X080280Y020580D03*
X079230Y020830D03*
X078230Y019430D03*
X078130Y018930D03*
X077930Y018530D03*
X077530Y018330D03*
X079830Y022680D03*
X081930Y022680D03*
X086280Y016880D03*
X087130Y015030D03*
X081980Y012030D03*
X081530Y011230D03*
X079830Y012580D03*
X078780Y013030D03*
X078880Y011230D03*
X080230Y010030D03*
X080980Y009130D03*
X080480Y007930D03*
X081930Y007530D03*
X081530Y006730D03*
X081980Y006430D03*
X080780Y006430D03*
X078130Y005130D03*
X079530Y004980D03*
X078480Y003530D03*
X080330Y002930D03*
X078130Y001780D03*
X076630Y001880D03*
X075730Y002580D03*
X074530Y002580D03*
X074780Y004280D03*
X075780Y004580D03*
X075080Y007230D03*
X074480Y009430D03*
X075280Y011730D03*
X074830Y012830D03*
X074430Y013080D03*
X074030Y013330D03*
X073430Y012830D03*
X078430Y009230D03*
X082480Y004730D03*
X077430Y000880D03*
X060850Y004930D03*
X053090Y009110D03*
X052510Y008530D03*
X051830Y008330D03*
X050710Y006320D03*
X050320Y006540D03*
X049200Y005420D03*
X048280Y005330D03*
X048780Y007230D03*
X047850Y008330D03*
X047280Y008910D03*
X046700Y008330D03*
X045530Y006730D03*
X045390Y010050D03*
X045800Y010050D03*
X044640Y009980D03*
X043850Y009980D03*
X088130Y011430D03*
D34*
X087630Y010780D03*
X088130Y010280D03*
X088980Y011430D03*
X090580Y010530D03*
X092380Y010530D03*
X092380Y009780D03*
X090680Y009430D03*
X091130Y011430D03*
X092430Y011230D03*
X093080Y012280D03*
X093530Y011980D03*
X096380Y010730D03*
X096880Y010530D03*
X097680Y010830D03*
X097680Y011330D03*
X098530Y011230D03*
X099530Y011230D03*
X098180Y010330D03*
X098230Y009380D03*
X097530Y008680D03*
X097030Y008680D03*
X095430Y009430D03*
X094930Y008930D03*
X093480Y006030D03*
X091580Y006130D03*
X095630Y005180D03*
X101380Y009780D03*
X101230Y010330D03*
X101230Y011230D03*
X099530Y014030D03*
X096430Y013330D03*
X095830Y014030D03*
X093330Y015530D03*
X096580Y016280D03*
X103030Y014030D03*
X096780Y011880D03*
X089030Y014030D03*
X088350Y031910D03*
X087610Y032970D03*
X089740Y034310D03*
X091690Y034650D03*
X091530Y035310D03*
X092170Y035310D03*
X095740Y036100D03*
X096610Y034550D03*
X090750Y038430D03*
X089410Y039510D03*
X090760Y040170D03*
X092080Y040670D03*
X092410Y039830D03*
X094150Y040670D03*
X094390Y040230D03*
X094830Y039900D03*
X095380Y039900D03*
X096070Y039900D03*
X096670Y039900D03*
X097090Y040230D03*
X098140Y040230D03*
X098410Y039450D03*
X098020Y040890D03*
X098370Y041220D03*
X096630Y041600D03*
X095710Y040890D03*
X093630Y041560D03*
X093050Y041920D03*
X092590Y042110D03*
X092590Y041560D03*
X093450Y042220D03*
X092070Y042790D03*
X091490Y042250D03*
X090660Y041980D03*
X090870Y041000D03*
X087340Y040350D03*
X086150Y040250D03*
X088150Y039020D03*
X086610Y037950D03*
X083540Y036190D03*
X084880Y035330D03*
X084880Y042780D03*
X087650Y043360D03*
X087670Y044360D03*
X089910Y043430D03*
X090390Y043440D03*
X091480Y044890D03*
X092090Y046430D03*
X092680Y046430D03*
X091470Y047070D03*
X096590Y046080D03*
X098530Y046220D03*
X099590Y046220D03*
X098040Y044650D03*
X099730Y043930D03*
X100460Y042670D03*
X096580Y044480D03*
X094060Y043920D03*
X103570Y037320D03*
X066615Y040530D03*
X066765Y045880D03*
X066115Y047030D03*
X066115Y047780D03*
X020830Y016380D03*
X022430Y013830D03*
X023680Y013180D03*
X023330Y012330D03*
X016730Y013380D03*
X015930Y013830D03*
X014330Y016380D03*
X009430Y013830D03*
X006430Y012980D03*
X003980Y011230D03*
X009930Y011380D03*
X007830Y016380D03*
X020480Y008130D03*
X019630Y006230D03*
X021630Y006230D03*
X036180Y013130D03*
X029980Y014730D03*
D35*
X074630Y001330D03*
X077230Y002830D03*
M02*
