G75*
G70*
%OFA0B0*%
%FSLAX24Y24*%
%IPPOS*%
%LPD*%
%AMOC8*
5,1,8,0,0,1.08239X$1,22.5*
%
%ADD10C,0.0080*%
%ADD11C,0.0060*%
%ADD12C,0.0050*%
%ADD13R,0.3150X0.3150*%
%ADD14R,0.0240X0.0240*%
D10*
X098068Y043019D02*
X098068Y044948D01*
X100548Y044948D01*
X100548Y045145D01*
X100548Y044948D02*
X100548Y043019D01*
X098068Y044948D02*
X098068Y045145D01*
D11*
X094730Y031430D02*
X094030Y031430D01*
X093880Y031280D01*
X093730Y031430D01*
X093030Y031430D01*
X092880Y031280D01*
X092730Y031430D01*
X092030Y031430D01*
X091880Y031280D01*
X091730Y031430D01*
X091030Y031430D01*
X090880Y031280D01*
X090730Y031430D01*
X090030Y031430D01*
X089880Y031280D01*
X089730Y031430D01*
X089030Y031430D01*
X088880Y031280D01*
X088730Y031430D01*
X088030Y031430D01*
X087880Y031280D01*
X087730Y031430D01*
X087030Y031430D01*
X086880Y031280D01*
X086730Y031430D01*
X086030Y031430D01*
X085880Y031280D01*
X085730Y031430D01*
X085030Y031430D01*
X084880Y031280D01*
X084880Y029580D01*
X085030Y029430D01*
X085730Y029430D01*
X085880Y029580D01*
X086030Y029430D01*
X086730Y029430D01*
X086880Y029580D01*
X087030Y029430D01*
X087730Y029430D01*
X087880Y029580D01*
X088030Y029430D01*
X088730Y029430D01*
X088880Y029580D01*
X089030Y029430D01*
X089730Y029430D01*
X089880Y029580D01*
X090030Y029430D01*
X090730Y029430D01*
X090880Y029580D01*
X091030Y029430D01*
X091730Y029430D01*
X091880Y029580D01*
X092030Y029430D01*
X092730Y029430D01*
X092880Y029580D01*
X093030Y029430D01*
X093730Y029430D01*
X093880Y029580D01*
X094030Y029430D01*
X094730Y029430D01*
X094880Y029580D01*
X094880Y031280D01*
X094730Y031430D01*
D12*
X085119Y028805D02*
X085044Y028880D01*
X085044Y029180D01*
X085345Y028880D01*
X085270Y028805D01*
X085119Y028805D01*
X085345Y028880D02*
X085345Y029180D01*
X085270Y029255D01*
X085119Y029255D01*
X085044Y029180D01*
X085505Y028805D02*
X085805Y028805D01*
X085655Y028805D02*
X085655Y029255D01*
X085805Y029105D01*
X086255Y029030D02*
X086480Y029030D01*
X086555Y029105D01*
X086555Y029180D01*
X086480Y029255D01*
X086330Y029255D01*
X086255Y029180D01*
X086255Y028880D01*
X086330Y028805D01*
X086480Y028805D01*
X086555Y028880D01*
X087255Y028880D02*
X087330Y028805D01*
X087480Y028805D01*
X087555Y028880D01*
X087555Y028955D01*
X087480Y029030D01*
X087330Y029030D01*
X087255Y028955D01*
X087255Y028880D01*
X087330Y029030D02*
X087255Y029105D01*
X087255Y029180D01*
X087330Y029255D01*
X087480Y029255D01*
X087555Y029180D01*
X087555Y029105D01*
X087480Y029030D01*
X088255Y029180D02*
X088555Y028880D01*
X088555Y028805D01*
X088555Y029255D02*
X088255Y029255D01*
X088255Y029180D01*
X089255Y029255D02*
X089405Y029180D01*
X089555Y029030D01*
X089330Y029030D01*
X089255Y028955D01*
X089255Y028880D01*
X089330Y028805D01*
X089480Y028805D01*
X089555Y028880D01*
X089555Y029030D01*
X090255Y029030D02*
X090255Y028880D01*
X090330Y028805D01*
X090480Y028805D01*
X090555Y028880D01*
X090555Y029030D02*
X090405Y029105D01*
X090330Y029105D01*
X090255Y029030D01*
X090255Y029255D02*
X090555Y029255D01*
X090555Y029030D01*
X091255Y029030D02*
X091555Y029030D01*
X091330Y029255D01*
X091330Y028805D01*
X092255Y028880D02*
X092330Y028805D01*
X092480Y028805D01*
X092555Y028880D01*
X092405Y029030D02*
X092330Y029030D01*
X092255Y028955D01*
X092255Y028880D01*
X092330Y029030D02*
X092255Y029105D01*
X092255Y029180D01*
X092330Y029255D01*
X092480Y029255D01*
X092555Y029180D01*
X093255Y029180D02*
X093255Y029105D01*
X093555Y028805D01*
X093255Y028805D01*
X093255Y029180D02*
X093330Y029255D01*
X093480Y029255D01*
X093555Y029180D01*
X094255Y028805D02*
X094555Y028805D01*
X094405Y028805D02*
X094405Y029255D01*
X094555Y029105D01*
X094680Y049380D02*
X094580Y049380D01*
X093980Y049380D01*
X093880Y049380D01*
X093780Y049480D01*
X093780Y049580D01*
X093780Y050180D01*
X093780Y050280D01*
X093880Y050380D01*
X093980Y050380D01*
X094580Y050380D01*
X094680Y050380D01*
X094780Y050280D01*
X094780Y050180D01*
X094780Y049580D01*
X094780Y049480D01*
X094680Y049380D01*
X098330Y049480D02*
X098330Y049580D01*
X098330Y050180D01*
X098330Y050280D01*
X098430Y050380D01*
X098530Y050380D01*
X099130Y050380D01*
X099230Y050380D01*
X099330Y050280D01*
X099330Y050180D01*
X099330Y049580D01*
X099330Y049480D01*
X099230Y049380D01*
X099130Y049380D01*
X098530Y049380D01*
X098430Y049380D01*
X098330Y049480D01*
X102880Y049480D02*
X102880Y049580D01*
X102880Y050180D01*
X102880Y050280D01*
X102980Y050380D01*
X103080Y050380D01*
X103680Y050380D01*
X103780Y050380D01*
X103880Y050280D01*
X103880Y050180D01*
X103880Y049580D01*
X103880Y049480D01*
X103780Y049380D01*
X103680Y049380D01*
X103080Y049380D01*
X102980Y049380D01*
X102880Y049480D01*
X102980Y053780D02*
X102880Y053880D01*
X102880Y053980D01*
X102880Y054580D01*
X102880Y054680D01*
X102980Y054780D01*
X103080Y054780D01*
X103680Y054780D01*
X103780Y054780D01*
X103880Y054680D01*
X103880Y054580D01*
X103880Y053980D01*
X103880Y053880D01*
X103780Y053780D01*
X103680Y053780D01*
X103080Y053780D01*
X102980Y053780D01*
X099330Y053880D02*
X099230Y053780D01*
X099130Y053780D01*
X098530Y053780D01*
X098430Y053780D01*
X098330Y053880D01*
X098330Y053980D01*
X098330Y054580D01*
X098330Y054680D01*
X098430Y054780D01*
X098530Y054780D01*
X099130Y054780D01*
X099230Y054780D01*
X099330Y054680D01*
X099330Y054580D01*
X099330Y053980D01*
X099330Y053880D01*
X094780Y053880D02*
X094680Y053780D01*
X094580Y053780D01*
X093980Y053780D01*
X093880Y053780D01*
X093780Y053880D01*
X093780Y053980D01*
X093780Y054580D01*
X093780Y054680D01*
X093880Y054780D01*
X093980Y054780D01*
X094580Y054780D01*
X094680Y054780D01*
X094780Y054680D01*
X094780Y054580D01*
X094780Y053980D01*
X094780Y053880D01*
X090130Y053880D02*
X090030Y053780D01*
X089930Y053780D01*
X089330Y053780D01*
X089230Y053780D01*
X089130Y053880D01*
X089130Y053980D01*
X089130Y054580D01*
X089130Y054680D01*
X089230Y054780D01*
X089330Y054780D01*
X089930Y054780D01*
X090030Y054780D01*
X090130Y054680D01*
X090130Y054580D01*
X090130Y053980D01*
X090130Y053880D01*
X085480Y053880D02*
X085380Y053780D01*
X085280Y053780D01*
X084680Y053780D01*
X084580Y053780D01*
X084480Y053880D01*
X084480Y053980D01*
X084480Y054580D01*
X084480Y054680D01*
X084580Y054780D01*
X084680Y054780D01*
X085280Y054780D01*
X085380Y054780D01*
X085480Y054680D01*
X085480Y054580D01*
X085480Y053980D01*
X085480Y053880D01*
X080780Y053880D02*
X080680Y053780D01*
X080580Y053780D01*
X079980Y053780D01*
X079880Y053780D01*
X079780Y053880D01*
X079780Y053980D01*
X079780Y054580D01*
X079780Y054680D01*
X079880Y054780D01*
X079980Y054780D01*
X080580Y054780D01*
X080680Y054780D01*
X080780Y054680D01*
X080780Y054580D01*
X080780Y053980D01*
X080780Y053880D01*
X076030Y053880D02*
X075930Y053780D01*
X075830Y053780D01*
X075230Y053780D01*
X075130Y053780D01*
X075030Y053880D01*
X075030Y053980D01*
X075030Y054580D01*
X075030Y054680D01*
X075130Y054780D01*
X075230Y054780D01*
X075830Y054780D01*
X075930Y054780D01*
X076030Y054680D01*
X076030Y054580D01*
X076030Y053980D01*
X076030Y053880D01*
X075930Y050380D02*
X076030Y050280D01*
X076030Y050180D01*
X076030Y049580D01*
X076030Y049480D01*
X075930Y049380D01*
X075830Y049380D01*
X075230Y049380D01*
X075130Y049380D01*
X075030Y049480D01*
X075030Y049580D01*
X075030Y050180D01*
X075030Y050280D01*
X075130Y050380D01*
X075230Y050380D01*
X075830Y050380D01*
X075930Y050380D01*
X079780Y050280D02*
X079880Y050380D01*
X079980Y050380D01*
X080580Y050380D01*
X080680Y050380D01*
X080780Y050280D01*
X080780Y050180D01*
X080780Y049580D01*
X080780Y049480D01*
X080680Y049380D01*
X080580Y049380D01*
X079980Y049380D01*
X079880Y049380D01*
X079780Y049480D01*
X079780Y049580D01*
X079780Y050180D01*
X079780Y050280D01*
X084480Y050280D02*
X084580Y050380D01*
X084680Y050380D01*
X085280Y050380D01*
X085380Y050380D01*
X085480Y050280D01*
X085480Y050180D01*
X085480Y049580D01*
X085480Y049480D01*
X085380Y049380D01*
X085280Y049380D01*
X084680Y049380D01*
X084580Y049380D01*
X084480Y049480D01*
X084480Y049580D01*
X084480Y050180D01*
X084480Y050280D01*
X089130Y050280D02*
X089230Y050380D01*
X089330Y050380D01*
X089930Y050380D01*
X090030Y050380D01*
X090130Y050280D01*
X090130Y050180D01*
X090130Y049580D01*
X090130Y049480D01*
X090030Y049380D01*
X089930Y049380D01*
X089330Y049380D01*
X089230Y049380D01*
X089130Y049480D01*
X089130Y049580D01*
X089130Y050180D01*
X089130Y050280D01*
D13*
X089630Y052080D03*
X094280Y052080D03*
X098830Y052080D03*
X103380Y052080D03*
X084980Y052080D03*
X080280Y052080D03*
X075530Y052080D03*
D14*
X075530Y049880D03*
X080280Y049880D03*
X084980Y049880D03*
X089630Y049880D03*
X094280Y049880D03*
X098830Y049880D03*
X103380Y049880D03*
X103380Y054280D03*
X098830Y054280D03*
X094280Y054280D03*
X089630Y054280D03*
X084980Y054280D03*
X080280Y054280D03*
X075530Y054280D03*
M02*
