G75*
G70*
%OFA0B0*%
%FSLAX24Y24*%
%IPPOS*%
%LPD*%
%AMOC8*
5,1,8,0,0,1.08239X$1,22.5*
%
%ADD10R,0.0866X0.0236*%
%ADD11R,0.0551X0.0709*%
%ADD12R,0.0394X0.0551*%
%ADD13R,0.0354X0.0276*%
%ADD14R,0.2126X0.2441*%
%ADD15R,0.0394X0.0630*%
%ADD16R,0.0880X0.0480*%
%ADD17R,0.0866X0.1417*%
%ADD18R,0.0480X0.0880*%
%ADD19R,0.1417X0.0866*%
%ADD20R,0.0630X0.0512*%
%ADD21R,0.0276X0.0354*%
%ADD22R,0.0480X0.0880*%
%ADD23R,0.0110X0.0335*%
%ADD24R,0.0335X0.0110*%
%ADD25R,0.0236X0.0866*%
%ADD26R,0.0394X0.0433*%
%ADD27R,0.0425X0.0413*%
%ADD28R,0.0591X0.1142*%
%ADD29R,0.0512X0.0630*%
%ADD30R,0.0394X0.0394*%
%ADD31R,0.0591X0.0787*%
%ADD32R,0.1063X0.0630*%
%ADD33R,0.2441X0.2126*%
%ADD34R,0.0630X0.0394*%
%ADD35R,0.0551X0.0394*%
%ADD36R,0.0310X0.0350*%
%ADD37R,0.0669X0.0709*%
%ADD38R,0.0394X0.0106*%
%ADD39R,0.0106X0.0394*%
%ADD40R,0.0591X0.0512*%
%ADD41R,0.1496X0.0787*%
%ADD42R,0.0472X0.0472*%
%ADD43R,0.0630X0.0551*%
%ADD44R,0.0551X0.0630*%
%ADD45R,0.0512X0.0591*%
%ADD46R,0.0800X0.0800*%
%ADD47R,0.0787X0.0984*%
%ADD48R,0.0197X0.0906*%
D10*
X022306Y034180D03*
X022306Y034680D03*
X022306Y035180D03*
X022306Y035680D03*
X022306Y036180D03*
X022306Y036680D03*
X022306Y037180D03*
X024354Y037180D03*
X024354Y036680D03*
X024354Y036180D03*
X024354Y035680D03*
X024354Y035180D03*
X024354Y034680D03*
X024354Y034180D03*
X024354Y041180D03*
X024354Y041680D03*
X024354Y042180D03*
X024354Y042680D03*
X024354Y043180D03*
X024354Y043680D03*
X024354Y044180D03*
X022306Y044180D03*
X022306Y043680D03*
X022306Y043180D03*
X022306Y042680D03*
X022306Y042180D03*
X022306Y041680D03*
X022306Y041180D03*
X073906Y022080D03*
X073906Y021580D03*
X073906Y021080D03*
X073906Y020580D03*
X075954Y020580D03*
X075954Y021080D03*
X075954Y021580D03*
X075954Y022080D03*
D11*
X035499Y031680D03*
X034161Y031680D03*
X028999Y031680D03*
X027661Y031680D03*
X032161Y027680D03*
X033499Y027680D03*
X033499Y025680D03*
X032161Y025680D03*
X032161Y023680D03*
X033499Y023680D03*
X013499Y031680D03*
X012161Y031680D03*
X012161Y035180D03*
X013499Y035180D03*
X013499Y038680D03*
X012161Y038680D03*
X012161Y042180D03*
X013499Y042180D03*
X017161Y045180D03*
X018499Y045180D03*
X013499Y045680D03*
X012161Y045680D03*
X004999Y046680D03*
X003661Y046680D03*
X003661Y044180D03*
X004999Y044180D03*
X004999Y041680D03*
X003661Y041680D03*
X003661Y039180D03*
X004999Y039180D03*
X004999Y036680D03*
X003661Y036680D03*
X003661Y034180D03*
X004999Y034180D03*
X004999Y031680D03*
X003661Y031680D03*
X027661Y036680D03*
X028999Y036680D03*
X034161Y036680D03*
X035499Y036680D03*
X035499Y041680D03*
X034161Y041680D03*
X028999Y041680D03*
X027661Y041680D03*
X027661Y046680D03*
X028999Y046680D03*
X034161Y046680D03*
X035499Y046680D03*
D12*
X016204Y048247D03*
X015456Y048247D03*
X015830Y049113D03*
X084506Y045997D03*
X085254Y045997D03*
X084880Y046863D03*
X030330Y012113D03*
X029956Y011247D03*
X030704Y011247D03*
X021204Y011247D03*
X020456Y011247D03*
X020830Y012113D03*
X011204Y011247D03*
X010456Y011247D03*
X010830Y012113D03*
D13*
X012330Y011936D03*
X012330Y011424D03*
X009330Y011424D03*
X009330Y011936D03*
X005830Y012424D03*
X005830Y012936D03*
X007830Y015424D03*
X007830Y015936D03*
X012330Y015936D03*
X012330Y015424D03*
X014330Y015424D03*
X014330Y015936D03*
X018830Y015936D03*
X018830Y015424D03*
X020830Y015424D03*
X020830Y015936D03*
X025330Y015936D03*
X025330Y015424D03*
X022330Y011936D03*
X022330Y011424D03*
X019330Y011424D03*
X019330Y011936D03*
X028830Y011936D03*
X028830Y011424D03*
X031830Y011424D03*
X031830Y011936D03*
X034330Y011936D03*
X034330Y011424D03*
X031830Y015924D03*
X031830Y016436D03*
X047030Y010336D03*
X047030Y009824D03*
X056230Y023324D03*
X056230Y023836D03*
X057830Y023986D03*
X057830Y023474D03*
X085630Y010286D03*
X085630Y009774D03*
X087130Y009774D03*
X087130Y010286D03*
X088630Y010286D03*
X088630Y009774D03*
X090130Y009774D03*
X090130Y010286D03*
X091630Y010286D03*
X091630Y009774D03*
X093130Y009774D03*
X093130Y010286D03*
X094630Y010286D03*
X094630Y009774D03*
X096130Y009774D03*
X096130Y010286D03*
X097630Y010286D03*
X097630Y009774D03*
X099130Y009774D03*
X099130Y010286D03*
X100630Y010286D03*
X100630Y009774D03*
X102130Y009774D03*
X102130Y010286D03*
X103630Y010286D03*
X103630Y009774D03*
X105130Y009774D03*
X105130Y010286D03*
X026830Y048424D03*
X026830Y048936D03*
X020830Y048936D03*
X020830Y048424D03*
X017830Y048424D03*
X017830Y048936D03*
X013830Y048936D03*
X013830Y048424D03*
D14*
X023830Y050164D03*
X022830Y016664D03*
X016330Y016664D03*
X009830Y016664D03*
D15*
X008932Y013790D03*
X010728Y013790D03*
X015432Y013790D03*
X017228Y013790D03*
X021932Y013790D03*
X023728Y013790D03*
X022932Y047290D03*
X024728Y047290D03*
D16*
X009550Y047590D03*
X009550Y046680D03*
X009550Y045770D03*
X009550Y044090D03*
X009550Y043180D03*
X009550Y042270D03*
X009550Y040590D03*
X009550Y039680D03*
X009550Y038770D03*
X009550Y037090D03*
X009550Y036180D03*
X009550Y035270D03*
X009550Y033590D03*
X009550Y032680D03*
X009550Y031770D03*
D17*
X007110Y032680D03*
X007110Y036180D03*
X007110Y039680D03*
X007110Y043180D03*
X007110Y046680D03*
D18*
X087220Y016310D03*
X088130Y016310D03*
X089040Y016310D03*
X090720Y016310D03*
X091630Y016310D03*
X092540Y016310D03*
X094220Y016310D03*
X095130Y016310D03*
X096040Y016310D03*
X097720Y016310D03*
X098630Y016310D03*
X099540Y016310D03*
X101220Y016310D03*
X102130Y016310D03*
X103040Y016310D03*
X103040Y012310D03*
X102130Y012310D03*
X101220Y012310D03*
X099540Y012310D03*
X098630Y012310D03*
X097720Y012310D03*
X096040Y012310D03*
X095130Y012310D03*
X094220Y012310D03*
X092540Y012310D03*
X091630Y012310D03*
X090720Y012310D03*
X089040Y012310D03*
X088130Y012310D03*
X087220Y012310D03*
D19*
X088130Y014750D03*
X091630Y014750D03*
X095130Y014750D03*
X098630Y014750D03*
X102130Y014750D03*
X102130Y018750D03*
X098630Y018750D03*
X095130Y018750D03*
X091630Y018750D03*
X088130Y018750D03*
X056780Y022450D03*
X036330Y009960D03*
X029830Y017900D03*
X003830Y014400D03*
D20*
X001830Y010306D03*
X001830Y011054D03*
X001830Y012306D03*
X001830Y013054D03*
X027830Y013806D03*
X027830Y014554D03*
X027830Y015806D03*
X027830Y016554D03*
X038330Y014054D03*
X038330Y013306D03*
X038330Y012054D03*
X038330Y011306D03*
X054680Y021306D03*
X054680Y022054D03*
X058930Y021804D03*
X058930Y021056D03*
D21*
X054786Y018580D03*
X054274Y018580D03*
X051286Y020230D03*
X050774Y020230D03*
X049536Y018380D03*
X049024Y018380D03*
X043486Y020830D03*
X042974Y020830D03*
X042974Y022330D03*
X043486Y022330D03*
X042286Y018380D03*
X041774Y018380D03*
X036586Y013680D03*
X036074Y013680D03*
X030086Y014180D03*
X029574Y014180D03*
X050774Y023230D03*
X051286Y023230D03*
X059374Y018380D03*
X059886Y018380D03*
X064509Y044380D03*
X065021Y044380D03*
X067009Y044380D03*
X067521Y044380D03*
X067521Y049380D03*
X067009Y049380D03*
X065021Y049380D03*
X064509Y049380D03*
X004086Y010680D03*
X003574Y010680D03*
D22*
X003830Y011960D03*
X002920Y011960D03*
X004740Y011960D03*
X028920Y015460D03*
X029830Y015460D03*
X030740Y015460D03*
X035420Y012400D03*
X036330Y012400D03*
X037240Y012400D03*
X055870Y020010D03*
X056780Y020010D03*
X057690Y020010D03*
D23*
X092421Y040724D03*
X092618Y040724D03*
X092815Y040724D03*
X093011Y040724D03*
X093208Y040724D03*
X093405Y040724D03*
X093602Y040724D03*
X093799Y040724D03*
X093799Y042673D03*
X093602Y042673D03*
X093405Y042673D03*
X093208Y042673D03*
X093011Y042673D03*
X092815Y042673D03*
X092618Y042673D03*
X092421Y042673D03*
D24*
X092135Y042388D03*
X092135Y042191D03*
X092135Y041994D03*
X092135Y041797D03*
X092135Y041600D03*
X092135Y041403D03*
X092135Y041206D03*
X092135Y041010D03*
X094084Y041010D03*
X094084Y041206D03*
X094084Y041403D03*
X094084Y041600D03*
X094084Y041797D03*
X094084Y041994D03*
X094084Y042191D03*
X094084Y042388D03*
D25*
X091130Y037454D03*
X090630Y037454D03*
X090130Y037454D03*
X089630Y037454D03*
X089630Y035406D03*
X090130Y035406D03*
X090630Y035406D03*
X091130Y035406D03*
X064030Y022754D03*
X063530Y022754D03*
X063030Y022754D03*
X062530Y022754D03*
X062530Y020706D03*
X063030Y020706D03*
X063530Y020706D03*
X064030Y020706D03*
X062280Y016554D03*
X061780Y016554D03*
X061280Y016554D03*
X060780Y016554D03*
X060280Y016554D03*
X059780Y016554D03*
X059280Y016554D03*
X058780Y016554D03*
X056780Y016554D03*
X056280Y016554D03*
X055780Y016554D03*
X055280Y016554D03*
X054780Y016554D03*
X054280Y016554D03*
X053780Y016554D03*
X053280Y016554D03*
X051280Y016554D03*
X050780Y016554D03*
X050280Y016554D03*
X049780Y016554D03*
X049280Y016554D03*
X048780Y016554D03*
X048280Y016554D03*
X047780Y016554D03*
X045780Y016554D03*
X045280Y016554D03*
X044780Y016554D03*
X044280Y016554D03*
X043780Y016554D03*
X043280Y016554D03*
X042780Y016554D03*
X042280Y016554D03*
X042280Y014506D03*
X042780Y014506D03*
X043280Y014506D03*
X043780Y014506D03*
X044280Y014506D03*
X044780Y014506D03*
X045280Y014506D03*
X045780Y014506D03*
X047780Y014506D03*
X048280Y014506D03*
X048780Y014506D03*
X049280Y014506D03*
X049780Y014506D03*
X050280Y014506D03*
X050780Y014506D03*
X051280Y014506D03*
X053280Y014506D03*
X053780Y014506D03*
X054280Y014506D03*
X054780Y014506D03*
X055280Y014506D03*
X055780Y014506D03*
X056280Y014506D03*
X056780Y014506D03*
X058780Y014506D03*
X059280Y014506D03*
X059780Y014506D03*
X060280Y014506D03*
X060780Y014506D03*
X061280Y014506D03*
X061780Y014506D03*
X062280Y014506D03*
X061530Y011254D03*
X061030Y011254D03*
X060530Y011254D03*
X060030Y011254D03*
X058030Y011254D03*
X057530Y011254D03*
X057030Y011254D03*
X056530Y011254D03*
X056030Y011254D03*
X055530Y011254D03*
X055030Y011254D03*
X054530Y011254D03*
X052530Y011254D03*
X052030Y011254D03*
X051530Y011254D03*
X051030Y011254D03*
X050530Y011254D03*
X050030Y011254D03*
X049530Y011254D03*
X049030Y011254D03*
X045780Y011354D03*
X045280Y011354D03*
X044780Y011354D03*
X044280Y011354D03*
X043780Y011354D03*
X043280Y011354D03*
X042780Y011354D03*
X042780Y009306D03*
X043280Y009306D03*
X043780Y009306D03*
X044280Y009306D03*
X044780Y009306D03*
X045280Y009306D03*
X045780Y009306D03*
X049030Y009206D03*
X049530Y009206D03*
X050030Y009206D03*
X050530Y009206D03*
X051030Y009206D03*
X051530Y009206D03*
X052030Y009206D03*
X052530Y009206D03*
X054530Y009206D03*
X055030Y009206D03*
X055530Y009206D03*
X056030Y009206D03*
X056530Y009206D03*
X057030Y009206D03*
X057530Y009206D03*
X058030Y009206D03*
X060030Y009206D03*
X060530Y009206D03*
X061030Y009206D03*
X061530Y009206D03*
D26*
X099545Y036930D03*
X100215Y036930D03*
X100215Y037930D03*
X099545Y037930D03*
X099545Y038930D03*
X100215Y038930D03*
X100215Y039930D03*
X099545Y039930D03*
X099545Y040930D03*
X100215Y040930D03*
X100215Y041930D03*
X099545Y041930D03*
X099545Y043430D03*
X100215Y043430D03*
X100215Y044430D03*
X099545Y044430D03*
X092715Y045930D03*
X092045Y045930D03*
X090715Y038930D03*
X090045Y038930D03*
D27*
X098880Y039086D03*
X098880Y039774D03*
X098880Y041086D03*
X098880Y041774D03*
X098880Y043586D03*
X098880Y044274D03*
X098880Y037774D03*
X098880Y037086D03*
D28*
X093971Y037430D03*
X092789Y037430D03*
X092789Y038930D03*
X093971Y038930D03*
D29*
X093274Y044430D03*
X092486Y044430D03*
X065654Y009980D03*
X064906Y009980D03*
D30*
X084486Y034930D03*
X085274Y034930D03*
D31*
X085471Y036430D03*
X084289Y036430D03*
X084289Y037930D03*
X085471Y037930D03*
X082136Y003970D03*
X081230Y003970D03*
X080324Y003970D03*
D32*
X084880Y043379D03*
X084880Y044481D03*
D33*
X048064Y021630D03*
D34*
X045190Y020732D03*
X045190Y022528D03*
D35*
X050597Y022104D03*
X050597Y021356D03*
X051463Y021730D03*
D36*
X064775Y045980D03*
X064395Y046780D03*
X065155Y046780D03*
X066895Y046780D03*
X067655Y046780D03*
X067275Y045980D03*
D37*
X075530Y051239D03*
X075530Y052921D03*
X080280Y052921D03*
X080280Y051239D03*
X084980Y051239D03*
X084980Y052921D03*
X089630Y052921D03*
X089630Y051239D03*
X094280Y051239D03*
X094280Y052921D03*
X098830Y052921D03*
X098830Y051239D03*
X103380Y051239D03*
X103380Y052921D03*
D38*
X079685Y016006D03*
X079685Y015810D03*
X079685Y015613D03*
X079685Y015416D03*
X079685Y015219D03*
X079685Y015022D03*
X079685Y014825D03*
X079685Y014628D03*
X079685Y014432D03*
X079685Y014235D03*
X079685Y014038D03*
X079685Y013841D03*
X079685Y013644D03*
X079685Y013447D03*
X079685Y013250D03*
X079685Y013054D03*
X075275Y013054D03*
X075275Y013250D03*
X075275Y013447D03*
X075275Y013644D03*
X075275Y013841D03*
X075275Y014038D03*
X075275Y014235D03*
X075275Y014432D03*
X075275Y014628D03*
X075275Y014825D03*
X075275Y015022D03*
X075275Y015219D03*
X075275Y015416D03*
X075275Y015613D03*
X075275Y015810D03*
X075275Y016006D03*
D39*
X076004Y016735D03*
X076200Y016735D03*
X076397Y016735D03*
X076594Y016735D03*
X076791Y016735D03*
X076988Y016735D03*
X077185Y016735D03*
X077382Y016735D03*
X077578Y016735D03*
X077775Y016735D03*
X077972Y016735D03*
X078169Y016735D03*
X078366Y016735D03*
X078563Y016735D03*
X078760Y016735D03*
X078956Y016735D03*
X078956Y012325D03*
X078760Y012325D03*
X078563Y012325D03*
X078366Y012325D03*
X078169Y012325D03*
X077972Y012325D03*
X077775Y012325D03*
X077578Y012325D03*
X077382Y012325D03*
X077185Y012325D03*
X076988Y012325D03*
X076791Y012325D03*
X076594Y012325D03*
X076397Y012325D03*
X076200Y012325D03*
X076004Y012325D03*
D40*
X074330Y010804D03*
X074330Y010056D03*
X074330Y008704D03*
X074330Y007956D03*
X075430Y006104D03*
X075430Y005356D03*
X076530Y005356D03*
X076530Y006104D03*
X078080Y007456D03*
X078080Y008204D03*
X079780Y008165D03*
X079780Y007495D03*
X080630Y005904D03*
X080630Y005156D03*
X081880Y005156D03*
X081880Y005904D03*
X079580Y010006D03*
X078230Y009956D03*
X078230Y010704D03*
X079580Y010754D03*
X073230Y006065D03*
X073230Y005395D03*
X073230Y003954D03*
X073230Y003206D03*
X077480Y019156D03*
X077480Y019904D03*
X078980Y019904D03*
X078980Y019156D03*
X081430Y019156D03*
X081430Y019904D03*
X082330Y019904D03*
X082330Y019156D03*
X080330Y021406D03*
X080330Y022154D03*
X079330Y022154D03*
X079330Y021406D03*
X078330Y021406D03*
X078330Y022154D03*
X077230Y022154D03*
X077230Y021406D03*
X072730Y021354D03*
X072730Y020606D03*
D41*
X081230Y001490D03*
D42*
X073230Y001267D03*
X073230Y002093D03*
X081430Y021317D03*
X081430Y022143D03*
X082330Y022143D03*
X082330Y021317D03*
D43*
X074121Y016030D03*
X072939Y016030D03*
D44*
X078930Y008421D03*
X078930Y007239D03*
X074330Y006321D03*
X074330Y005139D03*
D45*
X073754Y012030D03*
X073006Y012030D03*
X073106Y014630D03*
X073854Y014630D03*
X081106Y016080D03*
X081854Y016080D03*
X081854Y012780D03*
X081106Y012780D03*
D46*
X075630Y010330D03*
X075630Y008330D03*
D47*
X075728Y003714D03*
X079232Y003714D03*
X079232Y001549D03*
X075728Y001549D03*
D48*
X076850Y003754D03*
X077165Y003754D03*
X077480Y003754D03*
X077795Y003754D03*
X078110Y003754D03*
M02*
