%
M48
M72
T01C0.0150
T02C0.0236
T03C0.0240
T04C0.0320
T05C0.0400
T06C0.0520
T07C0.0709
T08C0.1250
%
T01
X4080Y6520
X5302Y7318
X6680Y7174
X4680Y8860
X3540Y10420
X9140Y11600
X13360Y16340
X13860Y16340
X15000Y17020
X15860Y17020
X15560Y16340
X16540Y15280
X16840Y15020
X17440Y14420
X17088Y11589
X17120Y10780
X17120Y8120
X21980Y12640
X21980Y13380
X21680Y14100
X21680Y14520
X22680Y16340
X22500Y17020
X20680Y17020
X20180Y17020
X20000Y18380
X18000Y20480
X17600Y20580
X17100Y18680
X19900Y22980
X21220Y26000
X20931Y27186
X22700Y26200
X24080Y27580
X24340Y31140
X20780Y30960
X17280Y30960
X14201Y27174
X14540Y25920
X14240Y25460
X15640Y26820
X13680Y30980
X11740Y31140
X11180Y31080
X11280Y27620
X26620Y17520
X27420Y18320
T02
X26180Y13680
X23680Y14180
X18680Y22680
X9680Y15180
T03
X10680Y8680
X11680Y8680
X12680Y8680
X15680Y8680
X16680Y8680
X17680Y8680
X20680Y8680
X21680Y8680
X22680Y8680
X25680Y8680
X26680Y8680
X27680Y8680
X27680Y2680
X26680Y2680
X25680Y2680
X22680Y2680
X21680Y2680
X20680Y2680
X17680Y2680
X16680Y2680
X15680Y2680
X12680Y2680
X11680Y2680
X10680Y2680
T04
X11180Y37930
X11180Y38930
X13680Y38930
X13680Y37930
X16180Y37930
X16180Y38930
X18680Y38930
X18680Y37930
X21180Y37930
X21180Y38930
X23680Y38930
X23680Y37930
X26180Y37930
X26180Y38930
T05
X5180Y14680
X5180Y13680
X5180Y12680
X5180Y11680
X5180Y10680
X4180Y10680
X4180Y11680
X4180Y12680
X4180Y13680
X4180Y14680
T06
X11840Y20680
X13810Y20680
X13810Y23630
X11840Y23630
X21680Y23630
X21680Y20680
T07
X6930Y19180
X4430Y19180
X4430Y25180
X6930Y25180
X6930Y31180
X4430Y31180
T08
X2680Y2680
X32180Y2680
X32180Y37180
X2680Y37180
M30
