G75*
G70*
%OFA0B0*%
%FSLAX24Y24*%
%IPPOS*%
%LPD*%
%AMOC8*
5,1,8,0,0,1.08239X$1,22.5*
%
%ADD10C,0.1330*%
%ADD11R,0.0316X0.0946*%
%ADD12C,0.0520*%
%ADD13R,0.0790X0.0710*%
%ADD14R,0.0631X0.0474*%
%ADD15R,0.0710X0.0789*%
%ADD16R,0.2521X0.2206*%
%ADD17R,0.0710X0.0474*%
%ADD18R,0.0560X0.0960*%
%ADD19R,0.1497X0.0946*%
%ADD20OC8,0.0600*%
%ADD21C,0.0860*%
%ADD22C,0.1580*%
%ADD23OC8,0.0680*%
%ADD24C,0.0476*%
%ADD25C,0.0390*%
D10*
X002680Y002680D03*
X032180Y002680D03*
X032180Y037180D03*
X002680Y037180D03*
D11*
X013180Y017704D03*
X013680Y017704D03*
X014180Y017704D03*
X014680Y017704D03*
X015180Y017704D03*
X015680Y017704D03*
X016180Y017704D03*
X016180Y015656D03*
X015680Y015656D03*
X015180Y015656D03*
X014680Y015656D03*
X014180Y015656D03*
X013680Y015656D03*
X013180Y015656D03*
X020180Y015656D03*
X020680Y015656D03*
X021180Y015656D03*
X021680Y015656D03*
X022180Y015656D03*
X022680Y015656D03*
X023180Y015656D03*
X023180Y017704D03*
X022680Y017704D03*
X022180Y017704D03*
X021680Y017704D03*
X021180Y017704D03*
X020680Y017704D03*
X020180Y017704D03*
D12*
X020680Y008680D03*
X021680Y008680D03*
X022680Y008680D03*
X025680Y008680D03*
X026680Y008680D03*
X027680Y008680D03*
X027680Y002680D03*
X026680Y002680D03*
X025680Y002680D03*
X022680Y002680D03*
X021680Y002680D03*
X020680Y002680D03*
X017680Y002680D03*
X016680Y002680D03*
X015680Y002680D03*
X012680Y002680D03*
X011680Y002680D03*
X010680Y002680D03*
X010680Y008680D03*
X011680Y008680D03*
X012680Y008680D03*
X015680Y008680D03*
X016680Y008680D03*
X017680Y008680D03*
D13*
X015680Y011120D03*
X015680Y012240D03*
X010680Y012240D03*
X010680Y011120D03*
X006680Y007740D03*
X006680Y006620D03*
X004680Y006620D03*
X004680Y007740D03*
X002680Y007740D03*
X002680Y006620D03*
X010680Y005740D03*
X010680Y004620D03*
X015680Y004620D03*
X015680Y005740D03*
X020680Y005740D03*
X020680Y004620D03*
X025680Y004620D03*
X025680Y005740D03*
X025680Y011120D03*
X025680Y012240D03*
X020680Y012240D03*
X020680Y011120D03*
X024180Y021620D03*
X024180Y022740D03*
X024680Y026620D03*
X024680Y027740D03*
X021180Y027740D03*
X021180Y026620D03*
X017680Y026620D03*
X017680Y027740D03*
X014180Y027740D03*
X014180Y026620D03*
X010680Y026620D03*
X010680Y027740D03*
X010680Y035120D03*
X010680Y036240D03*
X013180Y036240D03*
X013180Y035120D03*
X015680Y035120D03*
X015680Y036240D03*
X018180Y036240D03*
X018180Y035120D03*
X020680Y035120D03*
X020680Y036240D03*
X023180Y036240D03*
X023180Y035120D03*
X025680Y035120D03*
X025680Y036240D03*
D14*
X027247Y024554D03*
X027247Y023806D03*
X028113Y024180D03*
D15*
X028231Y022180D03*
X027129Y022180D03*
X027129Y019180D03*
X028231Y019180D03*
X028231Y013180D03*
X027129Y013180D03*
X027129Y026180D03*
X028231Y026180D03*
D16*
X029164Y016180D03*
D17*
X026290Y015282D03*
X026290Y017078D03*
D18*
X026590Y030460D03*
X025680Y030460D03*
X024770Y030460D03*
X023090Y030460D03*
X022180Y030460D03*
X021270Y030460D03*
X019590Y030460D03*
X018680Y030460D03*
X017770Y030460D03*
X016090Y030460D03*
X015180Y030460D03*
X014270Y030460D03*
X012590Y030460D03*
X011680Y030460D03*
X010770Y030460D03*
D19*
X011680Y032900D03*
X015180Y032900D03*
X018680Y032900D03*
X022180Y032900D03*
X025680Y032900D03*
D20*
X026180Y037930D03*
X026180Y038930D03*
X023680Y038930D03*
X023680Y037930D03*
X021180Y037930D03*
X021180Y038930D03*
X018680Y038930D03*
X018680Y037930D03*
X016180Y037930D03*
X016180Y038930D03*
X013680Y038930D03*
X013680Y037930D03*
X011180Y037930D03*
X011180Y038930D03*
D21*
X011840Y024020D02*
X011840Y023240D01*
X013810Y023240D02*
X013810Y024020D01*
X013810Y021070D02*
X013810Y020290D01*
X011840Y020290D02*
X011840Y021070D01*
X021680Y021070D02*
X021680Y020290D01*
X021680Y023240D02*
X021680Y024020D01*
D22*
X006930Y025180D03*
X004430Y025180D03*
X004430Y019180D03*
X006930Y019180D03*
X006930Y031180D03*
X004430Y031180D03*
D23*
X004180Y014680D03*
X004180Y013680D03*
X004180Y012680D03*
X004180Y011680D03*
X004180Y010680D03*
X005180Y010680D03*
X005180Y011680D03*
X005180Y012680D03*
X005180Y013680D03*
X005180Y014680D03*
D24*
X009680Y015180D03*
X018680Y022680D03*
X023680Y014180D03*
X026180Y013680D03*
D25*
X026620Y017520D03*
X027420Y018320D03*
X022680Y016340D03*
X022500Y017020D03*
X020680Y017020D03*
X020180Y017020D03*
X020000Y018380D03*
X018000Y020480D03*
X017600Y020580D03*
X017100Y018680D03*
X015860Y017020D03*
X015560Y016340D03*
X015000Y017020D03*
X013860Y016340D03*
X013360Y016340D03*
X016540Y015280D03*
X016840Y015020D03*
X017440Y014420D03*
X017088Y011589D03*
X017120Y010780D03*
X017120Y008120D03*
X021980Y012640D03*
X021980Y013380D03*
X021680Y014100D03*
X021680Y014520D03*
X019900Y022980D03*
X021220Y026000D03*
X020931Y027186D03*
X022700Y026200D03*
X024080Y027580D03*
X024340Y031140D03*
X020780Y030960D03*
X017280Y030960D03*
X014201Y027174D03*
X014540Y025920D03*
X014240Y025460D03*
X015640Y026820D03*
X013680Y030980D03*
X011740Y031140D03*
X011180Y031080D03*
X011280Y027620D03*
X009140Y011600D03*
X005302Y007318D03*
X006680Y007174D03*
X004680Y008860D03*
X003540Y010420D03*
X004080Y006520D03*
M02*
