G75*
G70*
%OFA0B0*%
%FSLAX24Y24*%
%IPPOS*%
%LPD*%
%AMOC8*
5,1,8,0,0,1.08239X$1,22.5*
%
%ADD10C,0.1330*%
%ADD11C,0.0520*%
%ADD12OC8,0.0600*%
%ADD13C,0.0860*%
%ADD14C,0.1580*%
%ADD15OC8,0.0680*%
%ADD16C,0.0476*%
%ADD17C,0.0390*%
D10*
X002680Y002680D03*
X032180Y002680D03*
X032180Y037180D03*
X002680Y037180D03*
D11*
X010680Y008680D03*
X011680Y008680D03*
X012680Y008680D03*
X015680Y008680D03*
X016680Y008680D03*
X017680Y008680D03*
X020680Y008680D03*
X021680Y008680D03*
X022680Y008680D03*
X025680Y008680D03*
X026680Y008680D03*
X027680Y008680D03*
X027680Y002680D03*
X026680Y002680D03*
X025680Y002680D03*
X022680Y002680D03*
X021680Y002680D03*
X020680Y002680D03*
X017680Y002680D03*
X016680Y002680D03*
X015680Y002680D03*
X012680Y002680D03*
X011680Y002680D03*
X010680Y002680D03*
D12*
X011180Y037930D03*
X011180Y038930D03*
X013680Y038930D03*
X013680Y037930D03*
X016180Y037930D03*
X016180Y038930D03*
X018680Y038930D03*
X018680Y037930D03*
X021180Y037930D03*
X021180Y038930D03*
X023680Y038930D03*
X023680Y037930D03*
X026180Y037930D03*
X026180Y038930D03*
D13*
X021680Y024020D02*
X021680Y023240D01*
X021680Y021070D02*
X021680Y020290D01*
X013810Y020290D02*
X013810Y021070D01*
X011840Y021070D02*
X011840Y020290D01*
X011840Y023240D02*
X011840Y024020D01*
X013810Y024020D02*
X013810Y023240D01*
D14*
X006930Y025180D03*
X004430Y025180D03*
X004430Y019180D03*
X006930Y019180D03*
X006930Y031180D03*
X004430Y031180D03*
D15*
X004180Y014680D03*
X004180Y013680D03*
X004180Y012680D03*
X004180Y011680D03*
X004180Y010680D03*
X005180Y010680D03*
X005180Y011680D03*
X005180Y012680D03*
X005180Y013680D03*
X005180Y014680D03*
D16*
X009680Y015180D03*
X018680Y022680D03*
X023680Y014180D03*
X026180Y013680D03*
D17*
X026620Y017520D03*
X027420Y018320D03*
X022680Y016340D03*
X022500Y017020D03*
X020680Y017020D03*
X020180Y017020D03*
X020000Y018380D03*
X018000Y020480D03*
X017600Y020580D03*
X017100Y018680D03*
X015860Y017020D03*
X015560Y016340D03*
X015000Y017020D03*
X013860Y016340D03*
X013360Y016340D03*
X016540Y015280D03*
X016840Y015020D03*
X017440Y014420D03*
X017088Y011589D03*
X017120Y010780D03*
X017120Y008120D03*
X021980Y012640D03*
X021980Y013380D03*
X021680Y014100D03*
X021680Y014520D03*
X019900Y022980D03*
X021220Y026000D03*
X020931Y027186D03*
X022700Y026200D03*
X024080Y027580D03*
X024340Y031140D03*
X020780Y030960D03*
X017280Y030960D03*
X014201Y027174D03*
X014540Y025920D03*
X014240Y025460D03*
X015640Y026820D03*
X013680Y030980D03*
X011740Y031140D03*
X011180Y031080D03*
X011280Y027620D03*
X009140Y011600D03*
X005302Y007318D03*
X006680Y007174D03*
X004680Y008860D03*
X003540Y010420D03*
X004080Y006520D03*
M02*
