G75*
G70*
%OFA0B0*%
%FSLAX24Y24*%
%IPPOS*%
%LPD*%
%AMOC8*
5,1,8,0,0,1.08239X$1,22.5*
%
%ADD10R,0.0236X0.0866*%
%ADD11R,0.0710X0.0630*%
%ADD12R,0.0551X0.0394*%
%ADD13R,0.0630X0.0709*%
%ADD14R,0.2441X0.2126*%
%ADD15R,0.0630X0.0394*%
%ADD16R,0.0480X0.0880*%
%ADD17R,0.1417X0.0866*%
D10*
X013180Y015656D03*
X013680Y015656D03*
X014180Y015656D03*
X014680Y015656D03*
X015180Y015656D03*
X015680Y015656D03*
X016180Y015656D03*
X016180Y017704D03*
X015680Y017704D03*
X015180Y017704D03*
X014680Y017704D03*
X014180Y017704D03*
X013680Y017704D03*
X013180Y017704D03*
X020180Y017704D03*
X020680Y017704D03*
X021180Y017704D03*
X021680Y017704D03*
X022180Y017704D03*
X022680Y017704D03*
X023180Y017704D03*
X023180Y015656D03*
X022680Y015656D03*
X022180Y015656D03*
X021680Y015656D03*
X021180Y015656D03*
X020680Y015656D03*
X020180Y015656D03*
D11*
X002680Y006620D03*
X002680Y007740D03*
X004680Y007740D03*
X004680Y006620D03*
X006680Y006620D03*
X006680Y007740D03*
X010680Y005740D03*
X010680Y004620D03*
X015680Y004620D03*
X015680Y005740D03*
X015680Y011120D03*
X015680Y012240D03*
X010680Y012240D03*
X010680Y011120D03*
X020680Y011120D03*
X020680Y012240D03*
X025680Y012240D03*
X025680Y011120D03*
X025680Y005740D03*
X025680Y004620D03*
X020680Y004620D03*
X020680Y005740D03*
X024180Y021620D03*
X024180Y022740D03*
X024680Y026620D03*
X024680Y027740D03*
X021180Y027740D03*
X021180Y026620D03*
X017680Y026620D03*
X017680Y027740D03*
X014180Y027740D03*
X014180Y026620D03*
X010680Y026620D03*
X010680Y027740D03*
X010680Y035120D03*
X010680Y036240D03*
X013180Y036240D03*
X013180Y035120D03*
X015680Y035120D03*
X015680Y036240D03*
X018180Y036240D03*
X018180Y035120D03*
X020680Y035120D03*
X020680Y036240D03*
X023180Y036240D03*
X023180Y035120D03*
X025680Y035120D03*
X025680Y036240D03*
D12*
X027247Y024554D03*
X027247Y023806D03*
X028113Y024180D03*
D13*
X028231Y022180D03*
X027129Y022180D03*
X027129Y019180D03*
X028231Y019180D03*
X028231Y013180D03*
X027129Y013180D03*
X027129Y026180D03*
X028231Y026180D03*
D14*
X029164Y016180D03*
D15*
X026290Y015282D03*
X026290Y017078D03*
D16*
X026590Y030460D03*
X025680Y030460D03*
X024770Y030460D03*
X023090Y030460D03*
X022180Y030460D03*
X021270Y030460D03*
X019590Y030460D03*
X018680Y030460D03*
X017770Y030460D03*
X016090Y030460D03*
X015180Y030460D03*
X014270Y030460D03*
X012590Y030460D03*
X011680Y030460D03*
X010770Y030460D03*
D17*
X011680Y032900D03*
X015180Y032900D03*
X018680Y032900D03*
X022180Y032900D03*
X025680Y032900D03*
M02*
